<?xml version="1.0" encoding="UTF-8"?>
<svg version="1.1" xmlns="http://www.w3.org/2000/svg" width="331" height="200">
<path d="M0 0 C1.14905659 -0.00445668 1.14905659 -0.00445668 2.32132643 -0.0090034 C4.89608794 -0.01769628 7.47080298 -0.01919914 10.045578 -0.02069092 C11.88847961 -0.02531867 13.73138026 -0.03034327 15.57427979 -0.03573608 C20.58674147 -0.04886607 25.59918976 -0.05530619 30.61166596 -0.05974674 C33.74231983 -0.06267645 36.87297003 -0.06678106 40.00362206 -0.07125092 C49.79600979 -0.0849273 59.58838914 -0.09459332 69.38078576 -0.09845281 C80.68971973 -0.10293433 91.99853287 -0.12048602 103.30743009 -0.1494534 C112.0455188 -0.17105984 120.78357349 -0.18115653 129.52168864 -0.18249393 C134.74213502 -0.18354268 139.96246784 -0.1894655 145.18288612 -0.20731354 C150.09370683 -0.22377628 155.00432841 -0.22595844 159.91516685 -0.21717453 C161.7171062 -0.2164032 163.51905617 -0.22075952 165.32096863 -0.23063278 C167.78216918 -0.24332708 170.2426618 -0.23748944 172.70385742 -0.22705078 C173.41583229 -0.23510719 174.12780717 -0.24316359 174.86135703 -0.25146413 C180.91959174 -0.19142751 185.49214852 1.71224984 189.76213074 5.987854 C190.31580322 6.5352977 190.86947571 7.08274139 191.43992615 7.64677429 C192.01515015 8.23120804 192.59037415 8.81564178 193.18302917 9.41778564 C194.09541351 10.32942223 194.09541351 10.32942223 195.02622986 11.25947571 C196.30378759 12.5393637 197.57767872 13.82292102 198.84806824 15.10992432 C200.79145626 17.07698243 202.74790332 19.03030213 204.70646667 20.98223877 C205.94944946 22.2307965 207.19166393 23.48011969 208.43302917 24.73028564 C209.30801056 25.60389992 209.30801056 25.60389992 210.20066833 26.49516296 C216.34427149 32.74699901 216.34427149 32.74699901 216.73771667 37.49981689 C216.71451355 38.28872314 216.69131042 39.07762939 216.66740417 39.89044189 C216.6493573 40.68966064 216.63131042 41.48887939 216.61271667 42.31231689 C216.58951355 42.91559814 216.56631042 43.51887939 216.54240417 44.14044189 C217.84177917 43.91356689 219.14115417 43.68669189 220.47990417 43.45294189 C226.75344974 42.79412128 231.55945218 44.12057213 236.78068542 47.65606689 C241.97382302 51.87133763 244.9373393 55.80185173 245.88615417 62.60528564 C246.6720401 76.29934794 238.25408272 88.50034622 229.97990417 98.76544189 C227.65859644 101.30583935 226.61788778 102.11286135 223.29240417 103.32794189 C220.06612392 103.10796824 219.61051057 102.45793759 217.54240417 100.14044189 C217.52838562 101.12270752 217.52838562 101.12270752 217.51408386 102.12481689 C217.45995158 105.13075094 217.37639029 108.13519965 217.29240417 111.14044189 C217.27822449 112.17040283 217.2640448 113.20036377 217.24943542 114.26153564 C217.00967866 121.78989799 215.74090443 127.2641642 210.90177917 133.12872314 C210.37068542 133.56571533 209.83959167 134.00270752 209.29240417 134.45294189 C208.5112323 135.12776611 208.5112323 135.12776611 207.71427917 135.81622314 C201.56912233 139.56300043 195.93385352 140.58301227 188.89630127 140.52139282 C188.06277128 140.52607279 187.22924129 140.53075277 186.37045282 140.53557456 C183.59695691 140.54747358 180.82395978 140.53808735 178.05046082 140.52862549 C176.05405389 140.53269348 174.05764921 140.53803664 172.06124878 140.54455566 C166.65214345 140.55820878 161.24321018 140.5529386 155.83410192 140.54341841 C150.1661809 140.53581041 144.49827439 140.54287069 138.83035278 140.5475769 C129.31189842 140.55303157 119.79351394 140.54585086 110.27507019 140.53155518 C99.28123275 140.51523395 88.28756227 140.52051456 77.29372889 140.53703439 C67.84465835 140.55066306 58.39563799 140.55256201 48.9465608 140.54471838 C43.30748633 140.54004887 37.66849024 140.53939709 32.02942085 140.54932785 C26.72617494 140.55801512 21.42314355 140.55194333 16.11992073 140.53464508 C14.17734126 140.53068945 12.23474364 140.5317984 10.29217148 140.53843307 C7.63303688 140.54667543 4.97458242 140.53629478 2.31549072 140.52139282 C1.5534098 140.52808499 0.79132888 140.53477715 0.0061546 140.54167211 C-7.1971118 140.46379344 -14.69614643 138.80968593 -20.1211319 133.76296711 C-25.65517581 127.04439761 -27.19445841 120.0567738 -27.0728302 111.56939697 C-27.07837921 110.56480942 -27.08392822 109.56022186 -27.08964539 108.52519226 C-27.10136444 105.23628597 -27.07724925 101.94878104 -27.05134583 98.65997314 C-27.04963297 96.35932986 -27.04970219 94.05868463 -27.0514679 91.75804138 C-27.04981918 86.95082779 -27.03119907 82.14408308 -26.99958801 77.3369751 C-26.95984529 71.18347711 -26.95555354 65.03059046 -26.96305084 58.87698841 C-26.96612328 54.1319776 -26.95399123 49.38710355 -26.93692017 44.64212608 C-26.92990409 42.37318467 -26.92676394 40.10422776 -26.9276123 37.83527565 C-26.92580986 34.66433404 -26.90439105 31.49411881 -26.8775177 28.32330322 C-26.8804483 27.3917038 -26.88337891 26.46010437 -26.88639832 25.50027466 C-26.77659732 17.08130533 -24.56480569 11.24765175 -18.45759583 5.14044189 C-12.39952348 1.41786906 -7.09021401 -0.00854853 0 0 Z " fill="#FEF8EE" transform="translate(60.45759582519531,29.85955810546875)"/>
<path d="M0 0 C3.63 0 7.26 0 11 0 C11.46374023 0.87736816 11.92748047 1.75473633 12.40527344 2.65869141 C14.13902274 5.93677594 15.87699873 9.21260403 17.61621094 12.48779297 C18.36605058 13.90125038 19.11476747 15.31530403 19.86230469 16.72998047 C20.94165765 18.77211628 22.02513098 20.81202019 23.109375 22.8515625 C23.43871033 23.47680817 23.76804565 24.10205383 24.10736084 24.74624634 C26.20012922 28.67092793 28.4828709 32.34183767 31 36 C31.35715088 35.33581055 31.71430176 34.67162109 32.08227539 33.98730469 C34.93095074 28.69474402 37.79519338 23.41162291 40.68359375 18.140625 C42.55915128 14.70740104 44.38212831 11.28000014 46.03515625 7.734375 C46.55980469 6.66703125 47.08445313 5.5996875 47.625 4.5 C48.02976563 3.6028125 48.43453125 2.705625 48.8515625 1.78125 C51 0 51 0 62 0 C62 20.46 62 40.92 62 62 C58.7 62 55.4 62 52 62 C51.505 41.21 51.505 41.21 51 20 C45.77743599 29.82694999 45.77743599 29.82694999 40.55883789 39.65600586 C39.90525489 40.88402859 39.251537 42.11197954 38.59765625 43.33984375 C38.25730347 43.98248169 37.91695068 44.62511963 37.56628418 45.28723145 C35.1140718 49.8859282 35.1140718 49.8859282 34 51 C31.3125 51.6875 31.3125 51.6875 28 51 C25.87206004 48.58132406 24.48954254 45.77872559 23.01318359 42.92871094 C21.32807114 39.72090651 19.55332896 36.5626519 17.79418945 33.39501953 C15.51498382 29.27131415 13.26004879 25.13423558 11 21 C10.67 34.53 10.34 48.06 10 62 C6.7 62 3.4 62 0 62 C0 41.54 0 21.08 0 0 Z " fill="#FAA729" transform="translate(183,72)"/>
<path d="M0 0 C5.16879341 3.62337639 8.63269582 7.77370867 10.6875 13.8125 C12.77480603 27.72054967 4.80995906 39.51583435 -3.10546875 50.2421875 C-5.75228336 53.52587361 -7.52853047 55.50506097 -11.5 57.0625 C-14.3125 56.8125 -14.3125 56.8125 -16.4375 55.3125 C-18.2463652 52.90067973 -19.74909902 50.43475239 -21.18359375 47.78515625 C-22.42442127 45.61692824 -23.81831813 43.60932906 -25.25 41.5625 C-31.35626186 32.3642633 -35.13245805 24.08168022 -33.3125 12.8125 C-30.52015459 5.63218323 -24.95444621 1.38893257 -18.3125 -2.1875 C-12.13393532 -4.15163319 -5.5544942 -3.27788936 0 0 Z " fill="#FAA627" transform="translate(295.3125,76.1875)"/>
<path d="M0 0 C6.28460977 3.59552194 9.4953663 7.92129851 12.08203125 14.65234375 C12.5625 16.875 12.5625 16.875 12.5625 23.875 C0.3525 23.875 -11.8575 23.875 -24.4375 23.875 C-21.13163269 32.62079061 -21.13163269 32.62079061 -14.4375 36.875 C-8.45650942 37.74496227 -5.25348836 36.14987208 -0.4375 32.875 C0.0575 31.885 0.0575 31.885 0.5625 30.875 C6.3125 31.75 6.3125 31.75 8.5625 32.875 C7.39726102 37.40648491 5.24851833 39.33155201 1.484375 41.8046875 C-4.62043206 45.20451907 -11.25617203 45.9576074 -17.95703125 44.22265625 C-24.1311046 42.065896 -27.8141127 39.29214339 -31.4375 33.875 C-32.05625 32.988125 -32.675 32.10125 -33.3125 31.1875 C-35.59227376 24.47483281 -35.55641535 16.32818917 -32.68359375 9.7578125 C-25.20807961 -1.53747846 -12.42089894 -5.78278379 0 0 Z " fill="#FAA728" transform="translate(85.4375,90.125)"/>
<path d="M0 0 C0.99 0.66 1.98 1.32 3 2 C1.87548273 4.9719385 0.77706209 7.33440687 -1 10 C-6 8 -6 8 -8.19921875 6.94921875 C-11.76478845 5.74080391 -14.86547892 5.69862284 -18.625 5.6875 C-19.93726562 5.67074219 -21.24953125 5.65398437 -22.6015625 5.63671875 C-25.91380479 5.72382682 -25.91380479 5.72382682 -27.9375 7.30078125 C-29.7396833 10.1829494 -29.35223734 12.71245148 -29 16 C-26.51594817 19.83117224 -22.02548466 20.34191117 -17.875 21.4375 C-0.29887556 26.38286638 -0.29887556 26.38286638 5 34 C6.91643467 37.83286934 6.57271792 42.11969117 5.3515625 46.12890625 C3.10420777 51.19025643 0.01353137 54.57140788 -5 57 C-16.50388804 60.13926522 -28.67258111 58.73745494 -39 53 C-39.99 52.34 -40.98 51.68 -42 51 C-41.44271087 47.65626525 -40.64826111 44.96687001 -39 42 C-34.36087295 43.79579111 -34.36087295 43.79579111 -32.19140625 45.0234375 C-25.19582194 48.75265258 -17.76545814 49.00345268 -10 48 C-7.55557765 46.84234262 -7.55557765 46.84234262 -6 45 C-5.33333333 41.5 -5.33333333 41.5 -6 38 C-8.63245759 35.54747975 -11.11358262 34.46396265 -14.5546875 33.53515625 C-15.41707031 33.29216797 -16.27945313 33.04917969 -17.16796875 32.79882812 C-18.96439339 32.31019025 -20.76126579 31.82319534 -22.55859375 31.33789062 C-28.96446895 29.52877982 -33.26532042 27.30288807 -38.375 23 C-41.01637578 18.12361395 -40.91122804 13.40428323 -40 8 C-37.72331496 2.856686 -33.77298877 -1.1439433 -28.59375 -3.375 C-18.95111239 -5.69852714 -8.69420508 -4.85175599 0 0 Z " fill="#FAA729" transform="translate(144,76)"/>
<path d="M0 0 C2.97 0 5.94 0 9 0 C9 0.99 9 1.98 9 3 C9.66 3 10.32 3 11 3 C11.77625166 7.07532123 12 10.86143102 12 15 C12.33 15.99 12.66 16.98 13 18 C14.98 18 16.96 18 19 18 C19.91020533 31.40024517 19.91020533 31.40024517 17.83984375 35.0390625 C12.59409494 39.41275588 6.46915684 40.59022213 -0.1484375 40.4296875 C-5.11658811 39.68106207 -8.49663195 37.54549271 -12 34 C-15.74759997 28.65506234 -17.88991086 23.6107664 -17 17 C-16 13.5625 -16 13.5625 -15 11 C-14.236875 11.78375 -13.47375 12.5675 -12.6875 13.375 C-10.09108195 16.07257717 -10.09108195 16.07257717 -7 18 C-7.020625 18.763125 -7.04125 19.52625 -7.0625 20.3125 C-7.28041505 23.13987917 -7.28041505 23.13987917 -5.125 25.1875 C-2.13944085 29.13897535 -1.71172402 33.17713327 -1 38 C-0.773125 37.34 -0.54625 36.68 -0.3125 36 C1.11793759 32.73042837 2.90254788 29.92644902 4.87890625 26.96484375 C6.01660911 24.97089065 6.55566453 23.2416475 7 21 C6.236875 20.896875 5.47375 20.79375 4.6875 20.6875 C2 20 2 20 0.625 18.5 C-1.90318499 16.16629078 -4.67412977 16.31376134 -8 16 C-8.33 15.01 -8.66 14.02 -9 13 C-9.66 12.67 -10.32 12.34 -11 12 C-9.71283353 10.99421411 -8.42011342 9.99553202 -7.125 9 C-6.40570313 8.443125 -5.68640625 7.88625 -4.9453125 7.3125 C-3 6 -3 6 -1 6 C-0.67 4.02 -0.34 2.04 0 0 Z " fill="#FEF5E7" transform="translate(280,76)"/>
<path d="M0 0 C3.3 0 6.6 0 10 0 C10 20.46 10 40.92 10 62 C6.7 62 3.4 62 0 62 C0 41.54 0 21.08 0 0 Z " fill="#FAA729" transform="translate(159,72)"/>
<path d="M0 0 C0.556875 0.226875 1.11375 0.45375 1.6875 0.6875 C1.6875 2.3375 1.6875 3.9875 1.6875 5.6875 C1.0275 5.6875 0.3675 5.6875 -0.3125 5.6875 C-0.3125 6.3475 -0.3125 7.0075 -0.3125 7.6875 C-3.12296312 10.18568944 -5.87497993 12.1597133 -9.3125 13.6875 C-7.68396725 16.8259113 -7.68396725 16.8259113 -5.18359375 17.3125 C-3.5586541 17.56289198 -1.93365382 17.81289077 -0.30859375 18.0625 C0.67947266 18.371875 0.67947266 18.371875 1.6875 18.6875 C2.0175 19.6775 2.3475 20.6675 2.6875 21.6875 C4.3375 22.0175 5.9875 22.3475 7.6875 22.6875 C7.20350146 26.68048796 5.74011591 29.4832078 3.67578125 32.90625 C2.29944571 35.38691801 1.48194279 37.97315379 0.6875 40.6875 C0.0275 40.3575 -0.6325 40.0275 -1.3125 39.6875 C-1.8046875 37.578125 -1.8046875 37.578125 -2.1875 34.9375 C-2.9789219 30.41416998 -4.37709602 28.23022894 -7.3125 24.6875 C-7.0625 21.875 -7.0625 21.875 -6.3125 19.6875 C-6.910625 19.44 -7.50875 19.1925 -8.125 18.9375 C-10.59897521 17.52379988 -11.74620255 16.03694617 -13.3125 13.6875 C-15.33117252 17.85101207 -15.78106604 21.07993396 -15.3125 25.6875 C-14.36049922 27.85041391 -13.29641866 29.85935411 -12.08984375 31.890625 C-11.3125 33.6875 -11.3125 33.6875 -12.3125 36.6875 C-17.1491371 30.75162719 -17.81431776 25.43620698 -17.6953125 17.921875 C-16.98352737 11.90801696 -14.15022999 8.38740025 -9.8125 4.375 C-8.575 3.5396875 -8.575 3.5396875 -7.3125 2.6875 C-6.466875 2.089375 -5.62125 1.49125 -4.75 0.875 C-2.3125 -0.3125 -2.3125 -0.3125 0 0 Z " fill="#FAAA30" transform="translate(279.3125,74.3125)"/>
<path d="M0 0 C3.56905805 1.69025202 6.18245714 3.82700372 8.4375 7.0625 C9 9 9 9 9 13 C0.09 13 -8.82 13 -18 13 C-18 7.10971283 -16.99120348 6.08191265 -13 2 C-8.78172511 -0.54655609 -4.8111161 -0.80185268 0 0 Z " fill="#FEF5E6" transform="translate(79,95)"/>
<path d="M0 0 C1.98 0 3.96 0 6 0 C6.33 0.99 6.66 1.98 7 3 C8.65 3.33 10.3 3.66 12 4 C11.51600146 7.99298796 10.05261591 10.7957078 7.98828125 14.21875 C6.61194571 16.69941801 5.79444279 19.28565379 5 22 C4.34 21.67 3.68 21.34 3 21 C2.5078125 18.890625 2.5078125 18.890625 2.125 16.25 C1.33474481 11.78250895 0.08793122 9.39672434 -3 6 C-3 5.01 -3 4.02 -3 3 C-2.34 3 -1.68 3 -1 3 C-0.67 2.01 -0.34 1.02 0 0 Z " fill="#FAA82C" transform="translate(275,93)"/>
<path d="M0 0 C0.99 0 1.98 0 3 0 C3.33 1.65 3.66 3.3 4 5 C3.34 4.34 2.68 3.68 2 3 C-0.01867252 7.16351207 -0.46856604 10.39243396 0 15 C0.95200078 17.16291391 2.01608134 19.17185411 3.22265625 21.203125 C4 23 4 23 3 26 C-1.06342981 21.01306342 -2.27977506 16.86146863 -2.25 10.4375 C-2.25515625 9.32246094 -2.2603125 8.20742187 -2.265625 7.05859375 C-2.01167605 4.13444628 -1.52132851 2.46914032 0 0 Z " fill="#FBB751" transform="translate(264,85)"/>
<path d="M0 0 C1.65 0 3.3 0 5 0 C6.125 3.75 6.125 3.75 5 6 C3.35 6 1.7 6 0 6 C-1.125 2.25 -1.125 2.25 0 0 Z " fill="#FAA321" transform="translate(281,138)"/>
<path d="M0 0 C0 1.65 0 3.3 0 5 C-3.75 6.125 -3.75 6.125 -6 5 C-6 3.35 -6 1.7 -6 0 C-3.50907189 -1.24546405 -2.58919267 -0.7767578 0 0 Z " fill="#FAA421" transform="translate(31,136)"/>
<path d="M0 0 C0 1.65 0 3.3 0 5 C-3.75 6.125 -3.75 6.125 -6 5 C-6 3.35 -6 1.7 -6 0 C-3.50907189 -1.24546405 -2.58919267 -0.7767578 0 0 Z " fill="#FAA421" transform="translate(31,50)"/>
<path d="M0 0 C1.2065625 0.0309375 1.2065625 0.0309375 2.4375 0.0625 C2.4375 1.7125 2.4375 3.3625 2.4375 5.0625 C0.7875 5.3925 -0.8625 5.7225 -2.5625 6.0625 C-2.94468767 4.40635343 -3.27645102 2.73792976 -3.5625 1.0625 C-2.5625 0.0625 -2.5625 0.0625 0 0 Z " fill="#FAA421" transform="translate(259.5625,173.9375)"/>
<path d="M0 0 C1.65 0 3.3 0 5 0 C5.625 1.875 5.625 1.875 6 4 C5.34 4.66 4.68 5.32 4 6 C1.9375 5.8125 1.9375 5.8125 0 5 C-0.33 4.01 -0.66 3.02 -1 2 C-0.67 1.34 -0.34 0.68 0 0 Z " fill="#FAA421" transform="translate(232,174)"/>
<path d="M0 0 C1.2065625 0.0309375 1.2065625 0.0309375 2.4375 0.0625 C3.0625 1.9375 3.0625 1.9375 3.4375 4.0625 C2.7775 4.7225 2.1175 5.3825 1.4375 6.0625 C-0.6875 5.6875 -0.6875 5.6875 -2.5625 5.0625 C-3.125 3.125 -3.125 3.125 -3.5625 1.0625 C-2.5625 0.0625 -2.5625 0.0625 0 0 Z " fill="#FAA321" transform="translate(148.5625,173.9375)"/>
<path d="M0 0 C1.2065625 0.0309375 1.2065625 0.0309375 2.4375 0.0625 C2.4375 1.7125 2.4375 3.3625 2.4375 5.0625 C0.7875 5.3925 -0.8625 5.7225 -2.5625 6.0625 C-2.94468767 4.40635343 -3.27645102 2.73792976 -3.5625 1.0625 C-2.5625 0.0625 -2.5625 0.0625 0 0 Z " fill="#FAA421" transform="translate(136.5625,173.9375)"/>
<path d="M0 0 C1.65 0 3.3 0 5 0 C5.33 1.65 5.66 3.3 6 5 C4.34385343 5.38218767 2.67542976 5.71395102 1 6 C0 5 0 5 -0.0625 2.4375 C-0.041875 1.633125 -0.02125 0.82875 0 0 Z " fill="#FAA421" transform="translate(121,174)"/>
<path d="M0 0 C1.65 0 3.3 0 5 0 C5.625 1.875 5.625 1.875 6 4 C5.34 4.66 4.68 5.32 4 6 C1.9375 5.8125 1.9375 5.8125 0 5 C-0.33 4.01 -0.66 3.02 -1 2 C-0.67 1.34 -0.34 0.68 0 0 Z " fill="#FAA421" transform="translate(109,174)"/>
<path d="M0 0 C1.2065625 0.0309375 1.2065625 0.0309375 2.4375 0.0625 C2.4375 1.7125 2.4375 3.3625 2.4375 5.0625 C0.7875 5.3925 -0.8625 5.7225 -2.5625 6.0625 C-2.94468767 4.40635343 -3.27645102 2.73792976 -3.5625 1.0625 C-2.5625 0.0625 -2.5625 0.0625 0 0 Z " fill="#FAA421" transform="translate(99.5625,173.9375)"/>
<path d="M0 0 C1.65 0 3.3 0 5 0 C5.33 1.65 5.66 3.3 6 5 C4.34385343 5.38218767 2.67542976 5.71395102 1 6 C0 5 0 5 -0.0625 2.4375 C-0.041875 1.633125 -0.02125 0.82875 0 0 Z " fill="#F9A321" transform="translate(36,169)"/>
<path d="M0 0 C1.2065625 0.0309375 1.2065625 0.0309375 2.4375 0.0625 C2.4375 1.7125 2.4375 3.3625 2.4375 5.0625 C0.7875 5.3925 -0.8625 5.7225 -2.5625 6.0625 C-2.94468767 4.40635343 -3.27645102 2.73792976 -3.5625 1.0625 C-2.5625 0.0625 -2.5625 0.0625 0 0 Z " fill="#FAA421" transform="translate(28.5625,98.9375)"/>
<path d="M0 0 C1.67542976 0.28604898 3.34385343 0.61781233 5 1 C5 2.65 5 4.3 5 6 C3.35 6 1.7 6 0 6 C-0.38218767 4.34385343 -0.71395102 2.67542976 -1 1 C-0.67 0.67 -0.34 0.34 0 0 Z " fill="#F9A421" transform="translate(26,86)"/>
<path d="M0 0 C2.0625 0.1875 2.0625 0.1875 4 1 C4.33 1.99 4.66 2.98 5 4 C4.67 4.66 4.34 5.32 4 6 C2.35 6 0.7 6 -1 6 C-1.625 4.125 -1.625 4.125 -2 2 C-1.34 1.34 -0.68 0.68 0 0 Z " fill="#F9A421" transform="translate(205,20)"/>
<path d="M0 0 C1.67542976 0.28604898 3.34385343 0.61781233 5 1 C5 2.65 5 4.3 5 6 C3.35 6 1.7 6 0 6 C-0.38218767 4.34385343 -0.71395102 2.67542976 -1 1 C-0.67 0.67 -0.34 0.34 0 0 Z " fill="#FAA421" transform="translate(192,20)"/>
<path d="M0 0 C1.67542976 0.28604898 3.34385343 0.61781233 5 1 C4.67 2.65 4.34 4.3 4 6 C2.35 6 0.7 6 -1 6 C-1.042721 4.33388095 -1.04063832 2.66617115 -1 1 C-0.67 0.67 -0.34 0.34 0 0 Z " fill="#F9A421" transform="translate(180,20)"/>
<path d="M0 0 C2.125 0.375 2.125 0.375 4 1 C4.5625 2.9375 4.5625 2.9375 5 5 C4 6 4 6 1.4375 6.0625 C0.2309375 6.0315625 0.2309375 6.0315625 -1 6 C-1.625 4.125 -1.625 4.125 -2 2 C-1.34 1.34 -0.68 0.68 0 0 Z " fill="#F9A421" transform="translate(168,20)"/>
<path d="M0 0 C1.67542976 0.28604898 3.34385343 0.61781233 5 1 C4.67 2.65 4.34 4.3 4 6 C2.35 6 0.7 6 -1 6 C-1.042721 4.33388095 -1.04063832 2.66617115 -1 1 C-0.67 0.67 -0.34 0.34 0 0 Z " fill="#FAA421" transform="translate(57,20)"/>
<path d="M0 0 C1.65 0.33 3.3 0.66 5 1 C4.67 2.65 4.34 4.3 4 6 C2.35 5.67 0.7 5.34 -1 5 C-0.67 3.35 -0.34 1.7 0 0 Z " fill="#FAA421" transform="translate(245,174)"/>
<path d="M0 0 C1.65 0 3.3 0 5 0 C5 1.65 5 3.3 5 5 C1.25 6.125 1.25 6.125 -1 5 C-0.67 3.35 -0.34 1.7 0 0 Z " fill="#F9A421" transform="translate(220,174)"/>
<path d="M0 0 C1.65 0.33 3.3 0.66 5 1 C4.67 2.65 4.34 4.3 4 6 C2.35 5.67 0.7 5.34 -1 5 C-0.67 3.35 -0.34 1.7 0 0 Z " fill="#FAA421" transform="translate(208,174)"/>
<path d="M0 0 C1.65 0.33 3.3 0.66 5 1 C4.67 2.65 4.34 4.3 4 6 C2.35 5.67 0.7 5.34 -1 5 C-0.67 3.35 -0.34 1.7 0 0 Z " fill="#FAA421" transform="translate(171,174)"/>
<path d="M0 0 C1.65 0.33 3.3 0.66 5 1 C4.67 2.65 4.34 4.3 4 6 C2.35 5.67 0.7 5.34 -1 5 C-0.67 3.35 -0.34 1.7 0 0 Z " fill="#FAA421" transform="translate(85,174)"/>
<path d="M0 0 C1.65 0 3.3 0 5 0 C5 1.65 5 3.3 5 5 C1.25 6.125 1.25 6.125 -1 5 C-0.67 3.35 -0.34 1.7 0 0 Z " fill="#F9A421" transform="translate(60,174)"/>
<path d="M0 0 C1.98 0 3.96 0 6 0 C6 1.65 6 3.3 6 5 C2.25 6.125 2.25 6.125 0 5 C0 3.35 0 1.7 0 0 Z " fill="#FAA421" transform="translate(47,174)"/>
<path d="M0 0 C1.65 0 3.3 0 5 0 C6.125 3.75 6.125 3.75 5 6 C3.35 5.67 1.7 5.34 0 5 C0 3.35 0 1.7 0 0 Z " fill="#FAA421" transform="translate(277,162)"/>
<path d="M0 0 C1.65 0 3.3 0 5 0 C6.125 3.75 6.125 3.75 5 6 C3.35 5.67 1.7 5.34 0 5 C0 3.35 0 1.7 0 0 Z " fill="#FAA420" transform="translate(28,160)"/>
<path d="M0 0 C1.65 0.33 3.3 0.66 5 1 C4.67 2.65 4.34 4.3 4 6 C2.35 5.67 0.7 5.34 -1 5 C-0.67 3.35 -0.34 1.7 0 0 Z " fill="#FAA421" transform="translate(26,148)"/>
<path d="M0 0 C1.65 0.33 3.3 0.66 5 1 C4.67 2.65 4.34 4.3 4 6 C2.35 5.67 0.7 5.34 -1 5 C-0.67 3.35 -0.34 1.7 0 0 Z " fill="#FAA421" transform="translate(26,123)"/>
<path d="M0 0 C1.65 0.33 3.3 0.66 5 1 C4.67 2.65 4.34 4.3 4 6 C2.35 5.67 0.7 5.34 -1 5 C-0.67 3.35 -0.34 1.7 0 0 Z " fill="#FAA421" transform="translate(26,111)"/>
<path d="M0 0 C1.65 0.33 3.3 0.66 5 1 C4.67 2.65 4.34 4.3 4 6 C2.35 5.67 0.7 5.34 -1 5 C-0.67 3.35 -0.34 1.7 0 0 Z " fill="#FAA421" transform="translate(26,74)"/>
<path d="M0 0 C1.65 0.33 3.3 0.66 5 1 C4.67 2.65 4.34 4.3 4 6 C2.35 5.67 0.7 5.34 -1 5 C-0.67 3.35 -0.34 1.7 0 0 Z " fill="#FAA421" transform="translate(26,62)"/>
<path d="M0 0 C1.65 0.33 3.3 0.66 5 1 C4.67 2.65 4.34 4.3 4 6 C2.35 5.67 0.7 5.34 -1 5 C-0.67 3.35 -0.34 1.7 0 0 Z " fill="#FAA421" transform="translate(277,53)"/>
<path d="M0 0 C1.65 0.33 3.3 0.66 5 1 C4.67 2.65 4.34 4.3 4 6 C2.35 5.67 0.7 5.34 -1 5 C-0.67 3.35 -0.34 1.7 0 0 Z " fill="#F9A421" transform="translate(269,44)"/>
<path d="M0 0 C1.67542976 0.28604898 3.34385343 0.61781233 5 1 C5 2.65 5 4.3 5 6 C3.35 6 1.7 6 0 6 C-0.38218767 4.34385343 -0.71395102 2.67542976 -1 1 C-0.67 0.67 -0.34 0.34 0 0 Z " fill="#F9A321" transform="translate(260,35)"/>
<path d="M0 0 C1.65 0.33 3.3 0.66 5 1 C4.67 2.65 4.34 4.3 4 6 C2.35 5.67 0.7 5.34 -1 5 C-0.67 3.35 -0.34 1.7 0 0 Z " fill="#FAA421" transform="translate(34,27)"/>
<path d="M0 0 C1.65 0.33 3.3 0.66 5 1 C4.67 2.65 4.34 4.3 4 6 C2.35 5.67 0.7 5.34 -1 5 C-0.67 3.35 -0.34 1.7 0 0 Z " fill="#FAA421" transform="translate(252,26)"/>
<path d="M0 0 C2.0625 0.1875 2.0625 0.1875 4 1 C4.33 1.99 4.66 2.98 5 4 C4.67 4.66 4.34 5.32 4 6 C2.35 6 0.7 6 -1 6 C-1.625 4.125 -1.625 4.125 -2 2 C-1.34 1.34 -0.68 0.68 0 0 Z " fill="#F9A421" transform="translate(45,21)"/>
<path d="M0 0 C1.65 0.33 3.3 0.66 5 1 C4.67 2.65 4.34 4.3 4 6 C2.35 5.67 0.7 5.34 -1 5 C-0.67 3.35 -0.34 1.7 0 0 Z " fill="#FAA421" transform="translate(229,20)"/>
<path d="M0 0 C1.32 0 2.64 0 4 0 C4.38218767 1.65614657 4.71395102 3.32457024 5 5 C4 6 4 6 1.4375 6.0625 C0.2309375 6.0315625 0.2309375 6.0315625 -1 6 C-1.042721 4.33388095 -1.04063832 2.66617115 -1 1 C-0.67 0.67 -0.34 0.34 0 0 Z " fill="#FAA421" transform="translate(217,20)"/>
<path d="M0 0 C1.65 0.33 3.3 0.66 5 1 C4.67 2.65 4.34 4.3 4 6 C2.35 5.67 0.7 5.34 -1 5 C-0.67 3.35 -0.34 1.7 0 0 Z " fill="#FAA421" transform="translate(143,20)"/>
<path d="M0 0 C1.65 0.33 3.3 0.66 5 1 C4.67 2.65 4.34 4.3 4 6 C2.35 5.67 0.7 5.34 -1 5 C-0.67 3.35 -0.34 1.7 0 0 Z " fill="#FAA421" transform="translate(106,20)"/>
<path d="M0 0 C1.65 0.33 3.3 0.66 5 1 C4.67 2.65 4.34 4.3 4 6 C2.35 5.67 0.7 5.34 -1 5 C-0.67 3.35 -0.34 1.7 0 0 Z " fill="#FAA421" transform="translate(69,20)"/>
<path d="M0 0 C1.65 0 3.3 0 5 0 C5.625 1.875 5.625 1.875 6 4 C5.34 4.66 4.68 5.32 4 6 C1.875 5.625 1.875 5.625 0 5 C0 3.35 0 1.7 0 0 Z " fill="#FAA421" transform="translate(195,174)"/>
<path d="M0 0 C1.65 0 3.3 0 5 0 C5 1.65 5 3.3 5 5 C3.125 5.625 3.125 5.625 1 6 C0.34 5.34 -0.32 4.68 -1 4 C-0.625 1.875 -0.625 1.875 0 0 Z " fill="#FAA421" transform="translate(183,174)"/>
<path d="M0 0 C1.65 0 3.3 0 5 0 C5.625 1.875 5.625 1.875 6 4 C5.34 4.66 4.68 5.32 4 6 C1.875 5.625 1.875 5.625 0 5 C0 3.35 0 1.7 0 0 Z " fill="#FAA421" transform="translate(158,174)"/>
<path d="M0 0 C1.65 0 3.3 0 5 0 C5.625 1.875 5.625 1.875 6 4 C5.34 4.66 4.68 5.32 4 6 C1.875 5.625 1.875 5.625 0 5 C0 3.35 0 1.7 0 0 Z " fill="#FAA421" transform="translate(72,174)"/>
<path d="M0 0 C-0.33 1.65 -0.66 3.3 -1 5 C-2.65 5 -4.3 5 -6 5 C-6 3.35 -6 1.7 -6 0 C-3.50907189 -1.24546405 -2.58919267 -0.7767578 0 0 Z " fill="#FAA421" transform="translate(274,171)"/>
<path d="M0 0 C2.125 0.375 2.125 0.375 4 1 C4 2.65 4 4.3 4 6 C2.35 6 0.7 6 -1 6 C-1.625 4.125 -1.625 4.125 -2 2 C-1.34 1.34 -0.68 0.68 0 0 Z " fill="#FAA321" transform="translate(282,150)"/>
<path d="M0 0 C2.125 0.375 2.125 0.375 4 1 C4 2.65 4 4.3 4 6 C2.35 6 0.7 6 -1 6 C-1.625 4.125 -1.625 4.125 -2 2 C-1.34 1.34 -0.68 0.68 0 0 Z " fill="#FAA421" transform="translate(28,37)"/>
<path d="M0 0 C2.125 0.375 2.125 0.375 4 1 C4 2.65 4 4.3 4 6 C2.35 6 0.7 6 -1 6 C-1.625 4.125 -1.625 4.125 -2 2 C-1.34 1.34 -0.68 0.68 0 0 Z " fill="#FAA421" transform="translate(242,20)"/>
<path d="M0 0 C2.125 0.375 2.125 0.375 4 1 C4 2.65 4 4.3 4 6 C2.35 6 0.7 6 -1 6 C-1.625 4.125 -1.625 4.125 -2 2 C-1.34 1.34 -0.68 0.68 0 0 Z " fill="#FAA421" transform="translate(156,20)"/>
<path d="M0 0 C2.0625 0.4375 2.0625 0.4375 4 1 C4.5625 2.9375 4.5625 2.9375 5 5 C4 6 4 6 1.4375 6.0625 C0.2309375 6.0315625 0.2309375 6.0315625 -1 6 C-1.042721 4.33388095 -1.04063832 2.66617115 -1 1 C-0.67 0.67 -0.34 0.34 0 0 Z " fill="#F9A421" transform="translate(131,20)"/>
<path d="M0 0 C2.125 0.375 2.125 0.375 4 1 C4 2.65 4 4.3 4 6 C2.35 6 0.7 6 -1 6 C-1.625 4.125 -1.625 4.125 -2 2 C-1.34 1.34 -0.68 0.68 0 0 Z " fill="#F9A421" transform="translate(119,20)"/>
<path d="M0 0 C2.0625 0.4375 2.0625 0.4375 4 1 C4.5625 2.9375 4.5625 2.9375 5 5 C4 6 4 6 1.4375 6.0625 C0.2309375 6.0315625 0.2309375 6.0315625 -1 6 C-1.042721 4.33388095 -1.04063832 2.66617115 -1 1 C-0.67 0.67 -0.34 0.34 0 0 Z " fill="#FAA421" transform="translate(94,20)"/>
<path d="M0 0 C2.125 0.375 2.125 0.375 4 1 C4 2.65 4 4.3 4 6 C2.35 6 0.7 6 -1 6 C-1.625 4.125 -1.625 4.125 -2 2 C-1.34 1.34 -0.68 0.68 0 0 Z " fill="#FAA421" transform="translate(82,20)"/>
<path d="M0 0 C1.9375 0.3125 1.9375 0.3125 4 1 C4.33 1.99 4.66 2.98 5 4 C4.67 4.66 4.34 5.32 4 6 C2.35 6 0.7 6 -1 6 C-1.33 5.01 -1.66 4.02 -2 3 C-1.34 2.01 -0.68 1.02 0 0 Z " fill="#FAA321" transform="translate(282,64)"/>
<path d="M0 0 C0.33 0 0.66 0 1 0 C1 1.65 1 3.3 1 5 C3.31 5 5.62 5 8 5 C8 5.33 8 5.66 8 6 C6.20866022 6.05391993 4.41686101 6.09275571 2.625 6.125 C1.62726563 6.14820312 0.62953125 6.17140625 -0.3984375 6.1953125 C-3 6 -3 6 -5 4 C-4.34 4 -3.68 4 -3 4 C-2.67 3.01 -2.34 2.02 -2 1 C-1.67 1.99 -1.34 2.98 -1 4 C-0.67 2.68 -0.34 1.36 0 0 Z " fill="#FEE7C4" transform="translate(280,110)"/>
<path d="M0 0 C3.3 0.33 6.6 0.66 10 1 C8.02 1.99 8.02 1.99 6 3 C5.34 3.66 4.68 4.32 4 5 C4 4.34 4 3.68 4 3 C2.68 2.34 1.36 1.68 0 1 C0 0.67 0 0.34 0 0 Z " fill="#FBB750" transform="translate(269,91)"/>
</svg>
