<svg xmlns="http://www.w3.org/2000/svg" width="512" height="512" viewBox="0 0 256 256"><path fill="#6bdddd" d="M237.162 100.9c-3.444-2.909-4.338-4.15-6.284-3.426-3.501 1.301-7.328 3.461-8.371-.122-2.846-9.783-2.666-10.463-4.454-11.094-10.001-3.53-5.234-1.523-8.737-9.245l-18.787-41.414c3.695-3.656 5.835-5 4.429-7.384-1.379-2.338-2.178-4.541-4.572-4.097-11.436 2.119-11.292 2.303-12.456 1.688-13.652-7.216-13.402-7.443-14.972-6.899-16.317 5.646-17.232 6.641-18.885 4.495-2.972-3.857-3.402-4.896-5.163-4.896-5.191 0-7.896.591-8.457-2.284-1.947-9.977-1.848-13.966-5.539-13.108-.428.099-18.552 4.281-18.953 4.459L79.395 19.376a2.83 2.83 0 0 1-2.684-.211c-10.375-6.727-11.771-8.434-13.863-6.263-6.534 6.781-6.522 6.965-7.383 7.322-17.652 7.304-17.49 6.837-18.018 8.572l-3.637 11.95a2.82 2.82 0 0 1-1.48 1.724c-13.532 6.496-14.549 6.391-14.549 8.761 0 10.52-.122 10.452.202 11.261 4.811 12.028 4.825 11.691 4.787 12.631-.621 15.527-.762 14.799-.168 15.788l12.659 21.099q.068.112.144.217l5.97 8.141a2.82 2.82 0 0 0 2.278 1.154h19.644c.747 0 1.464-.296 1.993-.823l10.655-10.609c3.923-3.906 6.449 5.624 10.403 4.883 3.11-.583 4.934-1.322 6.221.533 2.271 3.273 3.606 6.319 6.39 4.844 3.579-1.896 6.913-4.508 8.544-1.26 4.852 9.661 5.423 9.994 4.599 11.662-5.902 11.943-5.968 11.596-5.683 12.897l3.707 16.934c.061.28.165.549.307.797l9.063 15.86c1.834 3.209-6.168 11.774-5.175 14.936l13.445 42.779c4.947 13.603 4.622 13.631 6.187 14.257 8.712 3.485 11.002 5.163 12.585 2.429l4.949-8.548a2.83 2.83 0 0 1 2.149-1.394c10.375-1.092 10.217-.979 10.913-1.305 13.167-6.183 14.25-6.094 14.25-8.485 0-5.197-.275-6.11.959-7.196l11.614-10.22a2.83 2.83 0 0 0 .959-2.121c0-14.406-.333-14.402.994-15.53l11.542-9.82a2.82 2.82 0 0 0 .994-2.152c0-10.566.283-10.815-.855-11.923l-1.873-1.823a2.825 2.825 0 0 1 .552-4.468 2.824 2.824 0 0 0 1.172-3.571c-2.946-6.766-2.906-6.991-3.56-7.609-4.983-4.704-5.136-4.671-5.443-5.611-2.41-7.385-4.254-10.507-1.042-11.767 22.28-8.739 21.652-8.259 22.408-9.155 20.842-24.733 22.901-25.544 19.942-28.043M234.764 174.68l-4.454 2.475a2.34 2.34 0 0 1-1.136.294h-6.569c-1.04 0-1.955.686-2.246 1.685l-2.628 9.009a4.3 4.3 0 0 0-.171 1.198v6.274c0 .727-.169 1.443-.494 2.093l-4.862 9.724a2.34 2.34 0 0 0 .438 2.701l4.144 4.144a2.34 2.34 0 0 0 2.785.394l4.532-2.5c.48-.265.852-.69 1.05-1.201l4.588-11.799q.04-.101.088-.198l4.022-8.043a2.34 2.34 0 0 0-.189-2.406l-.581-.813a2.34 2.34 0 0 1-.027-2.681l4.778-6.983c.266-.389.409-.85.409-1.321-.001-1.785-1.917-2.912-3.477-2.046"/><path fill="#3762cc" d="M144.576 255.01c-1.859 0-4.228-.989-7.372-2.302a270 270 0 0 0-3.993-1.641c-2.09-.836-2.251-1.287-4.941-8.812-.623-1.742-1.398-3.911-2.383-6.618l-13.474-42.863c-.723-2.3.879-5.142 2.731-8.433.954-1.694 2.939-5.219 2.607-6.125l-9.055-15.845a4.8 4.8 0 0 1-.525-1.367l-3.707-16.929c-.376-1.725-.253-1.973 2.914-8.315.765-1.532 1.726-3.457 2.931-5.896.09-.182.106-.242.109-.252-.018-.44-.993-2.344-2.342-4.979a591 591 0 0 1-2.361-4.647c-.142-.282-.27-.41-.315-.424-.622-.188-2.664.968-3.884 1.658-.531.3-1.073.606-1.62.896-3.97 2.106-6.313-1.457-8.023-4.058-.3-.456-.613-.932-.946-1.413-.274-.396-.446-.477-2.896.029-.412.085-.849.176-1.314.263-2.859.537-4.894-1.777-6.522-3.637-.608-.696-1.877-2.145-2.343-2.155 0 0-.167.034-.495.361l-10.654 10.609a4.8 4.8 0 0 1-3.404 1.406H43.654a4.84 4.84 0 0 1-3.891-1.973l-5.97-8.14a4 4 0 0 1-.255-.386l-12.65-21.083c-.776-1.275-.776-1.275-.444-9 .086-2.007.197-4.581.33-7.896l.004-.127c-.052-.277-.62-1.681-1.751-4.478-.689-1.705-1.627-4.022-2.899-7.204-.38-.95-.38-1.123-.36-5.55.007-1.523.016-3.598.016-6.454 0-3.173 1.385-3.824 9.068-7.431a789 789 0 0 0 6.615-3.133.83.83 0 0 0 .432-.504l3.637-11.949c.695-2.283.875-2.356 10.279-6.191 2.299-.938 5.205-2.123 8.888-3.646q.05-.019.094-.041c.219-.134 1.133-1.092 2.647-2.68.952-.999 2.229-2.336 3.966-4.14 2.875-2.984 5.261-1.397 11.637 2.843 1.334.887 2.9 1.928 4.754 3.13a.82.82 0 0 0 .783.062L105.15 5.745c.267-.119.542-.241 18.845-4.472l.466-.107c1.405-.327 2.616-.162 3.6.487 2.041 1.346 2.56 4.259 3.501 9.547.244 1.37.52 2.914.855 4.638.11.563.148.776 4.189.695.706-.014 1.475-.028 2.305-.028 2.465 0 3.468 1.333 5.466 3.989.368.49.789 1.049 1.28 1.687.177.229.248.287.261.296.631.107 3.893-1.045 8.402-2.651a926 926 0 0 1 7.984-2.811c2.073-.716 2.505-.485 9.747 3.393 1.771.948 3.995 2.139 6.813 3.629.066.035.123.068.182.092.348.021 2.23-.327 5.354-.921 1.473-.28 3.312-.629 5.622-1.057 3.471-.644 5.004 2.106 6.126 4.113q.255.458.532.934c1.991 3.375-.39 5.646-3.145 8.275l-.605.578 18.207 40.134c1.221 2.69 1.534 4.376 1.722 5.383.041.223.092.492.13.63.445.316 2.188.928 4.368 1.693l1.361.479c2.431.857 2.77 2.059 4.398 7.835.353 1.25.778 2.758 1.31 4.586.104.355.212.475.233.485.581.283 2.828-.616 4.036-1.099.496-.198.993-.397 1.485-.58 2.745-1.018 4.365.388 6.814 2.52.431.375.911.792 1.456 1.253.536.452 1.65 1.394 1.776 2.961.203 2.522-1.672 4.709-10.686 15.22-2.854 3.329-6.407 7.471-10.795 12.677-.867 1.033-.867 1.033-9.313 4.311a3911 3911 0 0 0-13.894 5.417c-.332.13-.411.229-.412.229-.3.563.666 3.341 1.442 5.573.361 1.041.764 2.198 1.183 3.481.016.048.028.091.047.132.133.21.993 1.014 2.296 2.231a629 629 0 0 1 2.572 2.413c.787.743.955 1.137 2.269 4.203.426.994.988 2.308 1.753 4.063a4.823 4.823 0 0 1-2.002 6.099c-.309.179-.386.46-.404.612s-.012.443.243.692l1.873 1.823c1.525 1.483 1.521 2.251 1.48 8.235-.009 1.363-.02 3.042-.02 5.121a4.82 4.82 0 0 1-1.699 3.675l-11.542 9.82c-.079.067-.15.122-.208.187-.143.412-.129 2.811-.105 6.785.01 1.854.023 4.157.023 7.036a4.82 4.82 0 0 1-1.639 3.623l-11.612 10.219c-.277.244-.328.382-.296 3.308.007.679.016 1.466.016 2.387 0 3.205-1.369 3.833-8.969 7.318-1.733.795-3.85 1.766-6.432 2.978-.812.382-.893.39-5.155.824-1.495.152-3.549.361-6.397.661a.83.83 0 0 0-.628.408l-4.949 8.547c-.982 1.704-2.164 2.371-3.69 2.371m-10.084-7.74c.062.029.13.053.204.083 1.539.615 2.878 1.174 4.05 1.664 2.558 1.069 5.2 2.173 5.807 1.971-.002-.001.093-.072.254-.351l4.95-8.549a4.84 4.84 0 0 1 3.671-2.381c2.854-.3 4.912-.509 6.41-.662 2.288-.233 3.548-.361 3.789-.431a708 708 0 0 1 6.536-3.027c3.617-1.659 6.237-2.861 6.633-3.378-.009 0 .003-.09.003-.304 0-.904-.009-1.677-.016-2.344-.036-3.332-.053-4.853 1.653-6.354l11.613-10.22a.82.82 0 0 0 .28-.619c0-2.869-.014-5.166-.023-7.013-.046-7.889-.05-8.534 1.721-10.041l11.543-9.82a.82.82 0 0 0 .291-.628c0-2.089.011-3.776.02-5.147.02-2.894.032-4.805-.125-5.208-.023-.021-.081-.072-.145-.134l-1.873-1.823a4.78 4.78 0 0 1-1.424-4.048 4.79 4.79 0 0 1 2.366-3.582.823.823 0 0 0 .342-1.042c-.768-1.765-1.333-3.085-1.762-4.084-1.036-2.419-1.174-2.714-1.337-2.869-1.054-.994-1.891-1.775-2.558-2.399-2.669-2.494-3.013-2.814-3.414-4.044-.411-1.258-.805-2.391-1.159-3.41-1.767-5.081-3.162-9.095 1.287-10.84a3783 3783 0 0 1 13.908-5.423c4.995-1.938 7.274-2.823 7.655-3.088l.011-.029c4.435-5.262 7.993-9.411 10.852-12.746 5.778-6.737 9.349-10.901 9.708-12.207a4 4 0 0 0-.342-.314c-.563-.475-1.058-.906-1.502-1.292-2.277-1.982-2.384-1.939-2.796-1.788-.461.171-.928.358-1.393.544-2.509 1.003-5.104 2.038-7.274.981-.775-.378-1.808-1.199-2.32-2.963-.536-1.84-.964-3.36-1.319-4.618-.77-2.727-1.325-4.699-1.639-5.059.013.012-.058-.025-.241-.09l-1.356-.477c-5.663-1.989-6.533-2.295-7.104-5.366-.174-.935-.412-2.214-1.432-4.462l-18.787-41.414a2 2 0 0 1 .414-2.248c.593-.586 1.146-1.115 1.652-1.598 2.718-2.593 2.754-2.852 2.461-3.349a49 49 0 0 1-.578-1.014c-1.2-2.146-1.428-2.219-1.906-2.133-2.303.427-4.136.775-5.604 1.054-6.227 1.182-6.603 1.255-8.151.436a1329 1329 0 0 1-6.832-3.639c-3.664-1.961-5.875-3.146-6.401-3.214.02.012-.059.043-.149.075a889 889 0 0 0-7.951 2.799c-9.286 3.306-10.957 3.9-13.173 1.028-.502-.651-.932-1.223-1.309-1.724-1.746-2.321-1.875-2.394-2.27-2.394-.803 0-1.545.015-2.228.028-3.811.074-7.397.143-8.192-3.928-.341-1.749-.62-3.314-.867-4.703-.563-3.161-1.145-6.428-1.763-6.907-.002.007-.148-.013-.493.067l-.472.109c-15.01 3.47-17.749 4.148-18.234 4.28L80.207 21.204a4.8 4.8 0 0 1-4.584-.361c-1.869-1.212-3.448-2.262-4.793-3.156-2.972-1.976-5.555-3.709-6.246-3.674.003.008-.099.072-.295.276-1.732 1.797-3.003 3.13-3.952 4.125-2.851 2.989-3.084 3.233-4.106 3.657-3.69 1.527-6.603 2.714-8.906 3.654-4.676 1.907-7.323 2.986-7.898 3.438-.022.063-.04.132-.063.208l-3.639 11.957a4.83 4.83 0 0 1-2.527 2.944 779 779 0 0 1-6.646 3.148c-3.688 1.731-6.36 2.986-6.766 3.512.009 0-.002.09-.002.298 0 2.864-.009 4.944-.016 6.472-.011 2.383-.016 3.696.04 3.959l.034.086c1.271 3.177 2.206 5.489 2.894 7.191 2.08 5.142 2.08 5.142 2.035 6.264a2366 2366 0 0 1-.33 7.909c-.172 3.993-.262 6.09-.195 6.649l.017.027.057.094 12.66 21.1 6.012 8.204a.83.83 0 0 0 .665.337h19.644a.82.82 0 0 0 .582-.24l10.654-10.609c1.058-1.054 2.198-1.563 3.455-1.524 2.203.076 3.804 1.905 5.216 3.519.856.979 2.131 2.454 2.775 2.34.438-.082.851-.168 1.239-.248 2.522-.524 5.139-1.067 6.992 1.606a64 64 0 0 1 1.003 1.496c2.05 3.117 2.288 2.999 2.809 2.721.515-.273 1.024-.562 1.524-.844 2.446-1.383 4.756-2.691 7.017-2.002 1.169.356 2.086 1.182 2.726 2.456.935 1.861 1.71 3.375 2.347 4.619 2.855 5.575 3.369 6.579 2.259 8.827-1.208 2.444-2.172 4.375-2.938 5.91-1.593 3.191-2.555 5.118-2.629 5.558.004-.026.025.029.044.111l3.709 16.938a.8.8 0 0 0 .087.23l9.064 15.863c1.542 2.698-.471 6.273-2.603 10.057-.94 1.671-2.516 4.468-2.393 5.304l13.438 42.747c.959 2.632 1.736 4.807 2.361 6.555 1.296 3.63 2.096 5.866 2.453 6.358M218.448 216.958a4.35 4.35 0 0 1-3.077-1.266l-4.144-4.145a4.33 4.33 0 0 1-.813-5.009l4.862-9.724c.186-.37.283-.785.283-1.199v-6.274c0-.594.084-1.186.251-1.757l2.628-9.01a4.36 4.36 0 0 1 4.166-3.125h6.569a.35.35 0 0 0 .166-.043l4.453-2.474a4.3 4.3 0 0 1 4.308.053 4.3 4.3 0 0 1 2.14 3.741c0 .877-.262 1.724-.756 2.448l-4.78 6.985a.34.34 0 0 0 .004.389l.581.814a4.33 4.33 0 0 1 .351 4.462l-4.021 8.043-4.602 11.827a4.35 4.35 0 0 1-1.947 2.227l-4.533 2.5a4.3 4.3 0 0 1-2.089.537m4.156-37.509a.34.34 0 0 0-.326.245l-2.628 9.009a2.3 2.3 0 0 0-.091.638v6.274a6.7 6.7 0 0 1-.705 2.988l-4.862 9.723a.34.34 0 0 0 .063.392l4.144 4.144a.34.34 0 0 0 .404.057l4.533-2.5a.35.35 0 0 0 .151-.173l4.589-11.8c.045-.119.105-.256.174-.389l4.011-8.022a.34.34 0 0 0-.027-.349l-.581-.814a4.35 4.35 0 0 1-.05-4.972l4.778-6.983a.34.34 0 0 0 .059-.191.32.32 0 0 0-.168-.293.32.32 0 0 0-.336-.004l-4.454 2.475a4.36 4.36 0 0 1-2.108.546h-6.57zm12.161-4.769h.01z"/></svg>