<svg xmlns="http://www.w3.org/2000/svg" xml:space="preserve" viewBox="0 0 512 512"><path d="M473.651 88.256H38.292c-20.485 0-37.215 16.06-38.292 36.277v262.933c1.077 20.215 17.807 36.277 38.292 36.277h435.359c21.18 0 38.349-17.169 38.349-38.349V126.605c0-21.18-17.169-38.349-38.349-38.349" style="fill:#464655"/><path d="m256.029 105.913 11.195 58.488 32.726-49.752-12.039 58.321 49.273-33.441-33.44 49.274 58.32-12.039-49.752 32.726 58.488 11.195-58.488 11.195 49.752 32.726-58.32-12.039 33.44 49.273-49.273-33.441 12.039 58.32-32.726-49.751-11.195 58.488-11.195-58.488-32.726 49.751 12.04-58.32-49.275 33.441 33.442-49.273-58.321 12.039 49.751-32.726-58.488-11.195 58.488-11.195-49.751-32.726 58.321 12.039-33.442-49.274 49.275 33.441-12.04-58.321 32.726 49.752z" style="fill:#ffe15a"/><path d="M9.737 101.014C4.08 107.322.48 115.512 0 124.533v262.933c1.077 20.215 17.807 36.277 38.292 36.277h217.737zM256.029 423.742h217.622c21.18 0 38.349-17.169 38.349-38.349V126.605c0-9.802-3.683-18.741-9.732-25.52z" style="fill:#ff4b55"/><path d="M154.965 291.313h202.128l53.9-70.628H101.064z" style="fill:#4173cd"/><path d="m154.965 291.313 101.064 132.429 101.064-132.429z" style="fill:#f5f5f5"/></svg>