<svg xmlns="http://www.w3.org/2000/svg" xml:space="preserve" viewBox="0 0 1200 800"><path fill="#012A87" d="M1 534c0-88.354 0-176.708.456-265.638 153.576-.588 306.697-.598 459.817-.622 2.16 0 4.32-.158 6.955-.143 88.164.118 175.855.137 263.545.144.825 0 1.65-.159 2.916-.161 2.44.112 4.44.167 6.438.167 151.133.004 302.266.003 453.4.014 2.157 0 4.315.156 6.473.239 0 88.354 0 176.708-.456 265.638-153.576.588-306.697.598-459.817.622-2.16 0-4.32.158-6.954.143-88.165-.118-175.856-.137-263.546-.144-.825 0-1.65.159-2.916.161-2.44-.112-4.44-.167-6.438-.167-151.133-.004-302.266-.003-453.4-.014-2.157 0-4.315-.156-6.473-.239m415.122-160.037c-1.606.48-3.201 1.332-4.819 1.375-6.141.163-12.29.066-19.833.066l19.579 14.268-7.382 23.027c6.068-4.39 11.31-7.92 16.237-11.849 2.597-2.07 4.353-1.86 6.854.124 4.806 3.812 9.914 7.242 16.024 11.642-2.395-7.4-4.206-13.422-6.322-19.335-.943-2.636-.529-4.177 1.862-5.793 5.292-3.578 10.355-7.494 16.62-12.084-7.316 0-13.248-.32-19.127.108-4.202.305-5.844-1.306-6.844-5.15-1.48-5.691-3.547-11.231-5.72-17.935a3401 3401 0 0 1-7.129 21.536m381.75 37.142-6.91-21.365 19.533-14.336c-6.814 0-12.282-.475-17.627.132-5.483.622-7.639-1.64-8.83-6.588-1.267-5.267-3.266-10.357-5.265-16.506-2.144 6.523-4.393 11.86-5.576 17.424-1.038 4.883-3.511 5.927-7.998 5.627-5.545-.371-11.135-.089-18.098-.089 5.896 4.32 10.532 8.024 15.487 11.236 3.168 2.053 4.117 3.961 2.627 7.69-2.222 5.562-3.739 11.406-5.945 18.354 6.28-4.554 11.483-8.135 16.45-12.016 2.217-1.732 3.746-1.845 6.05-.088 5.146 3.924 10.556 7.5 16.101 10.525M497.125 480.14c4.998 3.8 9.877 7.772 15.044 11.325 2.534 1.743 2.983 3.28 1.928 6.13-2.23 6.017-4.029 12.194-6.31 19.248l19.612-14.169 19.452 14.068c-2.322-7.296-4.011-13.346-6.21-19.204-1.117-2.973-.38-4.465 2.078-6.127 5.17-3.497 10.132-7.3 16.258-11.764-7.751 0-14.207.212-20.63-.152-1.558-.089-3.794-1.77-4.37-3.245-2.384-6.095-4.249-12.393-6.632-19.608-2.09 6.457-4.1 11.902-5.576 17.489-1.093 4.137-2.924 6.035-7.54 5.631-5.454-.477-10.982-.095-17.104.378m171.742-5.723c-.561 4.261-2.903 5.631-7.19 5.33-5.747-.403-11.544-.1-18.614-.1 6 4.363 10.803 8.124 15.89 11.45 2.895 1.893 3.505 3.668 2.253 6.95-2.174 5.702-3.774 11.623-6.004 18.687l19.477-14.048 19.5 14.098c-2.3-7.169-4.148-13.502-6.402-19.688-.926-2.542-.436-3.842 1.713-5.314 5.308-3.633 10.444-7.518 16.796-12.135-7.653 0-13.932-.156-20.196.067-3.05.11-4.386-.951-5.224-3.876-1.773-6.188-3.97-12.254-6.248-19.14-2.046 6.216-3.807 11.565-5.751 17.719M606.592 295.85l-5.622-17.005c-2.384 7.366-4.461 13.422-6.273 19.556-.788 2.665-2.068 3.646-4.93 3.537-6.353-.242-12.721-.075-20.347-.075 6.285 4.585 11.267 8.448 16.5 11.935 2.39 1.594 2.864 3.091 1.927 5.722-2.152 6.046-4.029 12.19-6.412 19.504l19.594-14.096 19.554 14.037c-2.453-7.48-4.303-13.49-6.417-19.404-.935-2.614-.504-4.11 1.913-5.717 5.293-3.522 10.317-7.45 16.501-11.981-7.134 0-12.942-.331-18.692.108-4.35.332-6.488-1.204-7.296-6.121"/><path fill="#FFF" d="M467.753 267.497c-2.16.085-4.32.243-6.48.243-153.12.024-306.241.034-459.817.153C1 179.053 1 90.105 1 1c155.356 0 310.712 0 466.43.459.35 88.985.336 177.512.323 266.038M1201 267.534c-2.158.383-4.316.227-6.473.227-151.134-.011-302.267-.01-453.4-.014-1.999 0-3.997-.055-6.43-.602-.44-87.071-.443-173.624-.46-260.177 0-1.99-.155-3.979-.237-5.968h467zM1 534.466c2.158-.383 4.316-.227 6.473-.227 151.134.011 302.267.01 453.4.014 1.999 0 3.997.055 6.43.602.44 87.071.443 173.624.46 260.177 0 1.99.155 3.979.237 5.968H1zM734.247 534.503c2.16-.085 4.32-.243 6.48-.243 153.12-.024 306.241-.034 459.817-.153.456 88.84.456 177.788.456 266.893-155.356 0-310.712 0-466.43-.459-.35-88.985-.336-177.512-.323-266.038"/><path fill="#DC171D" d="M733.531 1c.551 1.99.705 3.979.706 5.968.017 86.553.02 173.106.018 260.094-.833.52-1.657.68-2.482.68-87.69-.008-175.38-.027-263.545-.145-.462-88.626-.449-177.153-.332-266.138C556.354 1 644.708 1 733.531 1M733.773 534.403c.46 88.626.448 177.153.33 266.138-88.457.459-176.811.459-265.634.459-.551-1.99-.705-3.979-.706-5.968-.017-86.553-.02-173.106-.018-260.094.833-.52 1.657-.68 2.482-.68 87.69.008 175.38.027 263.546.145"/><path fill="#F6F8FB" d="M416.28 373.56c2.32-6.98 4.482-13.559 6.97-21.133 2.174 6.704 4.24 12.244 5.721 17.935 1 3.844 2.642 5.455 6.844 5.15 5.879-.428 11.811-.108 19.127-.108-6.265 4.59-11.328 8.506-16.62 12.084-2.39 1.616-2.805 3.157-1.862 5.793 2.116 5.913 3.927 11.936 6.322 19.335-6.11-4.4-11.218-7.83-16.024-11.642-2.5-1.984-4.257-2.194-6.854-.124-4.927 3.928-10.169 7.46-16.237 11.849l7.382-23.027-19.58-14.268c7.544 0 13.693.097 19.834-.066 1.618-.043 3.213-.895 4.978-1.778M797.75 411.452c-5.424-3.372-10.834-6.948-15.98-10.872-2.304-1.757-3.833-1.644-6.05.088-4.967 3.881-10.17 7.462-16.45 12.016 2.206-6.948 3.723-12.792 5.945-18.354 1.49-3.729.541-5.637-2.627-7.69-4.955-3.212-9.59-6.916-15.487-11.236 6.963 0 12.553-.282 18.098.089 4.487.3 6.96-.744 7.998-5.627 1.183-5.564 3.432-10.9 5.576-17.424 1.999 6.149 3.998 11.24 5.265 16.506 1.191 4.948 3.347 7.21 8.83 6.588 5.345-.607 10.813-.132 17.627-.132l-19.533 14.336c2.326 7.193 4.618 14.28 6.787 21.712"/><path fill="#FAFBFD" d="M497.438 479.908c5.809-.24 11.337-.623 16.79-.146 4.617.404 6.448-1.494 7.54-5.631 1.477-5.587 3.488-11.032 5.577-17.49 2.383 7.216 4.248 13.514 6.631 19.61.577 1.474 2.813 3.155 4.37 3.244 6.424.364 12.88.152 20.63.152-6.125 4.464-11.087 8.267-16.257 11.764-2.457 1.662-3.195 3.154-2.078 6.127 2.199 5.858 3.888 11.908 6.21 19.204-7.189-5.198-13.276-9.6-19.452-14.068l-19.612 14.169c2.281-7.054 4.08-13.23 6.31-19.248 1.055-2.85.606-4.387-1.928-6.13-5.167-3.553-10.046-7.526-14.73-11.557M668.958 474.014c1.853-5.75 3.614-11.1 5.66-17.315 2.278 6.885 4.475 12.95 6.248 19.139.838 2.925 2.174 3.985 5.224 3.876 6.264-.223 12.543-.067 20.196-.067-6.352 4.617-11.488 8.502-16.796 12.135-2.15 1.472-2.64 2.772-1.713 5.314 2.254 6.186 4.103 12.52 6.402 19.688l-19.5-14.098-19.477 14.048c2.23-7.064 3.83-12.985 6.004-18.686 1.252-3.283.642-5.058-2.253-6.952-5.087-3.325-9.89-7.086-15.89-11.448 7.07 0 12.867-.304 18.614.1 4.287.3 6.629-1.07 7.281-5.734M606.729 296.229c.671 4.538 2.81 6.074 7.16 5.742 5.749-.44 11.557-.108 18.691-.108-6.184 4.531-11.208 8.459-16.501 11.98-2.417 1.609-2.848 3.104-1.913 5.718 2.114 5.915 3.964 11.924 6.417 19.404l-19.554-14.037-19.594 14.096c2.383-7.314 4.26-13.458 6.412-19.504.937-2.631.463-4.128-1.928-5.722-5.232-3.487-10.214-7.35-16.499-11.935 7.626 0 13.994-.167 20.346.075 2.863.109 4.143-.872 4.93-3.537 1.813-6.134 3.89-12.19 6.274-19.556 2.147 6.496 3.885 11.75 5.759 17.384"/></svg>