<svg xmlns="http://www.w3.org/2000/svg" width="512" height="512" viewBox="0 0 256 256"><path fill="#6bdddd" d="M206.336 82.04c0-8.67-.26-8.942.781-9.567 4.569-2.741 5.042-2.808 5.353-3.603 1.886-4.82 4.054-8.588 1.003-8.588h-3.701c-1.648 0-3.57-3.864-5.207-4.007-8.001-.696-8.383-.463-8.91-1.573-7.171-15.096-6.739-14.991-8.138-14.991-14.426 0-15.043-1.462-13.609 4.991 1.022 4.6 1.295 5.026.964 5.777l-3.798 8.633c-.79 1.795-16.884 3.224-15.854 3.115-.744.078-13.704-4.008-14.53-3.853-4.742.889-5.791 1.419-6.516.09-3.628-6.651-3.818-7.789-5.441-7.295l-6.704 2.04c-2.649.806.632 8.085-2.95 7.637l-4.046-.506c-.779-.097-5.026-3.91-4.487-3.454-2.462-2.083-5.073 4.994-7.559 4.352l-10.994-2.837c-.749-.193-7.864-6.733-8.032-7.22-2.113-6.163-2.027-6.363-2.614-6.821-4.615-3.604-5.657-4.958-6.959-3.601l-2.523 2.627c-2.736 2.849-6.143-7.302-9.045-5.919-.292.139-7.082 3.406-7.399 3.47-18.867 3.812-18.272 3.424-18.733 4.49l-2.195 5.077c-1.313 3.036 5.694 2.636 5.694 5.292v5.636c0 2.15-5.538 3.508-5.538 5.612v2.978c0 1.242-.561 1.257-6.33 4.502H17.637c-3.847-4.196-4.074-4.82-5.291-4.5-5.76 1.516-6.429 1.414-6.896 2.414L3 77.689c2.827 7.067 2.802 7.912 4.254 7.912 5.122 0 5.774-.235 6.493.423 2.099 1.924 4.686 3.628 2.734 5.092-3.955 2.967-3.732 2.397-3.732 2.397a1.61 1.61 0 0 0-1.527 2.118c1.919 5.756 1.846 6.022 2.453 6.489l4.044 3.111c1.467 1.128-.206 3.566.558 4.942 1.266 2.278 1.49 3.12 2.68 3.12.529 0 9.149-.079 9.637.125 5.58 2.337 5.975 2.27 6.21 3.343l1.33 6.085c.121.553-1.498 7.804-1.393 7.304-.189.9 4.162 9.105 3.791 8.363 1.07 2.139 8.467-.187 10.015 1.361 3.574 3.574 6.986 6.205 6.651 5.926.256.213.44.501.525.824 5.007 18.872 4.559 18.889 6.249 18.889 3.738 0 4.569.24 5.149-.856 4.439-8.384 7.549-13.642 7.497-13.552 1.193-2.088-4.661-10.473-2.058-11.96 1.274-.728 13.522-7.577 14.08-8.901 3.321-7.887 2.038-7.371 7.719-5.477l4.352 5.934 2.769 8.308c3.339 3.339 3.956 3.622 3.956 4.623 0 1.03-.292 3.306 1.699 3.195l5.422-.301 3.56-5.538 2.769 7.121v10.285c.282.565 3.56 6.89 3.56 7.501v3.892c0 .914 4.285 7.163 4.707 7.396 6.603 3.632 7.305 4.433 8.411 3.217 1.695-1.864 3.382-3.132 2.017-4.497-1.013-1.013-1.67-1.421-1.718-2.298-.5-8.995 1.877-4.065-12.229-16.001l.396-10.285 6.33 1.978 3.956 4.747 4.352 1.582c10.351-4.984 10.681-4.799 10.681-6.154 0-6.498 2.21-2.505-12.659-18.769l1.582-5.934c.248.071 8.208 2.365 8.464 2.387.59.049 9.124.858 9.676.651 14.139-5.302 14.15-5.053 14.564-6.053l4.482-10.831c-.153-.529-4.215-14.868-4.567-15.292-3.316-3.98-6.328-6.627-3.621-7.668 4.408-1.695 8.189-3.836 8.189-.806v1.91c0 3.882 9.099-.901 9.099 2.966 0 .531.065 4.487-.115 4.937-.924 2.31-1.715 3.478-.502 4.411.856.658 1.457 1.298 2.469.872 1.173-.494 2.776-1.457 3.569.13l1.296 2.591c.868 1.736-1.651 6.454.99 7.054 1.832.416 2.7.858 3.549.292 4.072-2.715 4.8-2.89 4.646-4.16-.552-4.556-.396-5.316-1.166-5.953-.422-.349-5.15-4.16-5.393-4.631-2.754-5.346-3.438-5.991-2.441-7.062l4.338-4.659c.378-.413 9.045-4.032 8.538-3.815M208.027 128.68l.952-.754a2.618 2.618 0 0 0-.292-4.306c-9.533-5.646-5.281 8.72-.66 5.06M242.288 81.49c1.98-1.411-1.325-7.233 1.969-7.456 1.587-.107 2.856-.436 3.459.819 1.126 2.343 1.388 3.511 2.808 3.415 1.284-.087 2.297.224 2.384 1.514.068 1.002.419 2.954-1.467 3.082-3.852.261-3.075-.264-5.015 4.377l-2.816-2.604c-2.609-.558-2.322-2.434-1.322-3.147M236.021 89.979c-7.948 9.34-5.486 4.87-9.079 16.727l-5.755 5.165-7.619.81-6.595 3.854 4.068 2.019 5.814-1.319c1.317 1.198 2.829 3.19 4.9.406 9.474-3.282 10.684-2.829 11.236-4.964 2.324-8.99 2.137-9.052 3.153-9.814 10.966-8.229 3.074-16.842-.123-12.884M118.141 178.498l5.977 2.746c.227.105 11.746 9.818 12.161 10.049 7.032 3.907 9.135 4.423 9.135 7.588 0 2.403.749 8.036-4.272 8.036-.99 0-1.947-.343-2.712-.972-8.391-6.897-8.309-6.669-8.85-7.753l-2.682-5.365c-1.339-2.678-8.261-5.308-9.368-8.205l-1.563-4.087c-.516-1.347.864-2.639 2.174-2.037M152.064 211.379l3.115-1.8 1.661-3.185h2.908l2.7 2.492c7.417 0 10.523.711 10.384.692 5.637-.989 8.309-.692 8.1-.692 2.551 3.061 1.508 2.019 4.569 4.569v2.7h-24.507l-3.323-2.908-3.531 1.246zM152.773 182.718h3.926c1.396 0 1.794-4.365 2.848-4.868 9.514-4.531 9.67-4.874 10.39-4.381 2.471 1.694 3.189 1.909 3.189 2.686v.907c0 1.449-2.158.489-1.881 2.06.035.198.602 3.525.686 3.707 1.895 4.107.953 1.863-.919 5.357-.896 1.672-2.962 5.937-4.375 5.309-.336-.149-3.559-1.644-3.907-1.631-7.153.255-4.573 1.224-9.958-4.162v-4.984zM185.953 183.692l-2.465 2.027c-1.072.881-4.754-.659-4.754 1.74 0 3.324.284 2.12-1.661 6.336 3.704 3.978 2.844 5.954 4.635 5.954 1.04 0 1.595-.654 1.595-1.418 0-1.75 1.347-2.19 2.242-1.55 2.041 1.458 3.183-2.506 1.564-3.414-4.247-2.381-4.146-1.551-.98-6.979 4.004-4.316 3.917-3.809-.176-2.696M211.133 199.748l-5.608-1.661-3.635 1.661-2.181-1.661 2.181-2.285v-2.008h-1.558l-2.077-2.561v-2.285l2.7-2.077h4.569l.415 2.7 1.454 1.661h3.946l2.285-4.361h3.946c3.283 3.535 2.172 2.538 4.777 4.361v21.807h-2.077c-8.199-10.513-5.537-6.09-9.137-13.291"/><path fill="#3762cc" d="M206.981 217.448a2 2 0 0 1-1.403-3.426l1.486-1.462a2 2 0 0 1 2.805 2.851l-1.486 1.462a2 2 0 0 1-1.402.575M201.564 220.689a2 2 0 0 1-.453-3.948l1.273-.298a2 2 0 1 1 .911 3.895l-1.273.298a2 2 0 0 1-.458.053M195.792 218.156h-2.268a2 2 0 0 1 0-4h2.268a2 2 0 0 1 0 4M136.694 182.94c-1.361 0-3.007-.928-5.481-2.322-.84-.474-1.835-1.034-3.022-1.687-1.051-.579-5.743-7.475-5.743-9.148v-3.632c-.173-.458-.809-1.896-3.113-6.401l-.236-.464a2 2 0 0 1-.211-.895v-9.911l-1.21-3.111-1.437 2.235a2 2 0 0 1-1.572.916l-5.422.301c-1.336.071-2.194-.462-2.671-.926-1.218-1.183-1.172-2.921-1.145-3.959l.003-.17c-.221-.269-.79-.82-1.387-1.4a170 170 0 0 1-1.98-1.946 2 2 0 0 1-.483-.782l-2.67-8.009-3.793-5.172q-.476-.164-.885-.309c-.542-.191-1.138-.4-1.519-.502-.265.496-.657 1.481-1.039 2.441-.325.816-.711 1.786-1.193 2.931-.348.825-.78 1.852-14.468 9.599l-.136.077c.031.917.898 3.111 1.384 4.339 1.172 2.963 2.097 5.304 1.092 7.063l-.027.046c-.134.226-3.148 5.344-7.439 13.449-1.052 1.988-2.727 1.965-5.255 1.934-.478-.006-1.027-.013-1.662-.013-1.221 0-2.468-.293-3.323-2.417-.516-1.282-1.09-3.5-2.349-8.362-.635-2.454-1.438-5.557-2.479-9.482a2 2 0 0 1-.13-.135c-1.209-.793-3.156-2.432-6.447-5.715-.566-.172-2.258-.075-3.287-.015-2.973.172-6.044.349-7.21-1.969l-.002-.003-.001-.004a2 2 0 0 1-.12-.308c-1.23-1.969-3.042-5.81-3.651-7.994a2.05 2.05 0 0 1-.189-1.365v-.003q.012-.055.026-.108c.229-.992 1.192-5.485 1.319-6.593l-1.233-5.643c-.43-.22-1.362-.602-2.412-1.032-.672-.275-1.476-.604-2.439-1.006-.519-.042-2.332-.105-8.616-.065l-.47.002c-2.196 0-3.027-1.548-3.906-3.188a69 69 0 0 0-.522-.961c-.67-1.207-.464-2.479-.297-3.502.047-.292.115-.707.116-.942l-3.892-2.993c-.942-.725-1.125-1.289-2.001-3.997-.275-.849-.636-1.964-1.13-3.445a3.62 3.62 0 0 1 .497-3.252 3.62 3.62 0 0 1 2.608-1.484c.334-.202 1.051-.672 2.48-1.734-.387-.427-1.047-1.001-1.528-1.421a64 64 0 0 1-.891-.787c-.342-.038-1.169-.025-2.111-.011-.804.012-1.821.027-3.125.027-2.538 0-3.142-1.558-4.757-5.721-.365-.94-.805-2.076-1.354-3.448a2 2 0 0 1 .044-1.588l2.45-5.25c.762-1.632 1.907-1.917 4.969-2.68.844-.21 1.9-.473 3.23-.823 2.178-.574 3.158.518 5.526 3.153.338.376.721.801 1.157 1.281h9.275c.909-.508 1.679-.933 2.331-1.292 1.101-.606 2.078-1.144 2.52-1.445l.001-2.743c0-2.15 1.956-3.381 3.682-4.467.595-.375 1.561-.982 1.857-1.339v-5.186c-.35-.243-1.184-.561-1.708-.76-1.51-.574-3.221-1.225-3.896-2.822-.252-.597-.444-1.561.074-2.76l2.195-5.078c.758-1.794.758-1.794 10.429-3.71 2.438-.483 5.565-1.103 9.585-1.914.343-.146 1.672-.747 6.809-3.211l.286-.137c2.833-1.347 5.017 1.488 6.774 3.766.548.71 1.403 1.818 1.96 2.291l2.251-2.343c2.342-2.44 4.63-.597 7.526 1.734.606.488 1.301 1.047 2.106 1.676.91.71 1.08 1.221 2.027 4.055.281.843.648 1.941 1.142 3.383 1.052 1.159 5.793 5.483 6.985 6.304l10.541 2.721c.42-.251 1.196-1.133 1.676-1.678 1.416-1.608 4.049-4.6 6.88-2.216l.009.008q.093.078.173.165c.728.663 2.801 2.411 3.541 2.865l3.334.417c.04-.483.021-1.187.008-1.662-.053-2.004-.134-5.032 2.553-5.849l6.704-2.041c2.908-.882 3.917 1.018 6.132 5.185.424.798.92 1.731 1.511 2.817.497-.047 1.415-.233 2.308-.413.635-.128 1.369-.276 2.22-.436.771-.145 1.504.001 8.973 2.16 2.208.639 5.194 1.502 5.967 1.653 3.063-.247 12.14-1.375 14.16-2.318l3.577-8.13c-.038-.301-.208-1.023-.401-1.845-.167-.709-.379-1.616-.641-2.793-.565-2.543-1.011-4.552.216-6.047 1.343-1.635 3.517-1.585 8.755-1.467 1.764.04 3.958.09 6.591.09h.009c2.362 0 2.586.481 6.279 8.37.911 1.944 2.066 4.414 3.554 7.549.585.104 1.881.207 3.455.331 1.05.083 2.338.185 3.925.322 1.582.138 2.734 1.411 3.849 2.642.395.436 1.034 1.142 1.369 1.358h3.516c1.685 0 2.55.766 2.979 1.409 1.221 1.83.203 4.277-1.206 7.664-.296.712-.609 1.463-.914 2.244-.485 1.239-1.171 1.641-3.445 2.969-.651.38-1.479.864-2.536 1.497-.056.623-.046 2.026-.033 3.73.008 1.063.018 2.358.019 3.943q.018.125.021.252a2.03 2.03 0 0 1-1.232 1.888l-.089.036c-.981.402-6.752 2.846-7.948 3.484l-3.973 4.267c.21.52.727 1.495 1.267 2.515.341.644.738 1.395 1.193 2.276.297.295 1.296 1.194 4.637 3.915l.356.291c1.207.999 1.322 2.103 1.573 4.52.074.714.167 1.606.303 2.733.277 2.28-1.039 3.136-3.661 4.843-.523.34-1.139.741-1.861 1.222-1.412.94-2.779.585-4.101.242a31 31 0 0 0-1.001-.249c-3.43-.779-2.834-4.524-2.548-6.323.093-.588.25-1.572.178-1.875l-1.099-2.182c-.232.084-.516.211-.714.3q-.233.105-.451.198c-1.988.836-3.426-.307-4.2-.921l-.266-.208c-2.25-1.73-1.258-4.07-.535-5.779q.157-.367.328-.785c.032-.335.069-1.284.046-3.954v-.029c-.603-.049-1.66.058-2.347.126-2.081.208-4.232.422-5.661-.869-.499-.452-1.094-1.271-1.094-2.609v-1.334c-.874.229-2.258.797-3.342 1.242-.521.214-1.06.435-1.61.652.499.757 1.513 1.924 2.304 2.835.514.592 1.062 1.222 1.617 1.889.368.441.59.708 4.813 15.529l.139.487c.126.436.101.902-.073 1.321l-4.482 10.831c-.653 1.578-.791 1.629-8.02 4.301-1.933.714-4.437 1.64-7.69 2.86-.551.206-.915.342-10.034-.484l-.509-.046c-.25-.021-.408-.034-6.892-1.895l-.775 2.906a769 769 0 0 0 6.302 6.782c5.94 6.332 6.425 6.849 6.212 10.527-.031.536-.069 1.181-.069 2.002 0 2.349-.896 2.772-6.722 5.529a799 799 0 0 0-5.092 2.427 2 2 0 0 1-1.551.077l-4.352-1.583a2 2 0 0 1-.853-.599l-3.578-4.294-3.272-1.023-.257 6.697a191 191 0 0 0 7.287 5.824c4.285 3.286 4.758 3.787 4.812 7.97.01.757.021 1.689.084 2.875.11.127.338.343.528.522q.282.264.614.593c2.541 2.54.091 5.105-1.225 6.484-.235.246-.48.503-.726.773-.767.831-1.507 1.193-2.357 1.193m-6.315-7.37c1.087.6 2.01 1.12 2.798 1.564 1.325.747 2.504 1.411 3.126 1.678.207-.222.394-.417.574-.606.344-.359.779-.815 1.033-1.144l-.277-.265c-.79-.747-1.684-1.593-1.767-3.085-.073-1.322-.086-2.345-.097-3.167-.019-1.475-.041-1.977-.229-2.277-.312-.497-1.388-1.322-3.017-2.57-1.753-1.345-4.403-3.376-8.181-6.572a2 2 0 0 1-.707-1.604l.396-10.286a1.998 1.998 0 0 1 2.595-1.832l6.33 1.978c.367.115.693.333.94.629l3.61 4.333 3.053 1.11c1.738-.833 3.172-1.512 4.356-2.073 2.137-1.011 3.772-1.785 4.434-2.188.007-.788.043-1.422.074-1.96.114-1.963.114-1.963-5.135-7.559a747 747 0 0 1-7.076-7.625 2 2 0 0 1-.457-1.865l1.583-5.934a2.003 2.003 0 0 1 2.482-1.408l.208.06c5.164 1.485 7.495 2.138 8.014 2.27l.398.036c6.145.557 7.955.632 8.514.631 3.141-1.178 5.574-2.077 7.462-2.775 3.118-1.152 5.122-1.893 5.77-2.225l4.156-10.041c-3.078-10.798-3.935-13.455-4.17-14.106-.475-.565-.942-1.103-1.383-1.611-2.32-2.67-3.997-4.6-3.479-6.677.182-.732.719-1.727 2.239-2.312a100 100 0 0 0 2.046-.822c3.271-1.342 5.633-2.313 7.454-1.091.642.43 1.407 1.295 1.407 2.973v1.534c.6.05 1.667-.057 2.357-.126 2.079-.208 4.226-.422 5.65.867.498.451 1.091 1.268 1.091 2.602l.003.379c.038 4.334-.069 4.818-.261 5.299-.149.373-.295.717-.43 1.036-.175.415-.383.904-.485 1.224l.089.071c.112.088.249.197.36.279l.168-.074c1.039-.466 4.203-1.883 5.765 1.241l1.295 2.591c.628 1.256.39 2.754.16 4.204-.086.545-.221 1.392-.206 1.867q.44.108.812.205c.349.091.771.2.987.228.688-.458 1.28-.843 1.787-1.173.76-.494 1.486-.967 1.842-1.248-.125-1.062-.211-1.889-.281-2.561-.086-.825-.167-1.61-.244-1.933l-.233-.19c-5.161-4.202-5.321-4.514-5.564-4.986-.49-.952-.915-1.754-1.275-2.435-1.757-3.319-2.639-4.985-.851-6.905l4.338-4.659c.333-.358.517-.555 5.086-2.532 1.271-.549 2.208-.955 2.915-1.249-.003-1.115-.01-2.066-.017-2.881-.036-4.948-.044-5.978 1.771-7.067 1.173-.704 2.078-1.232 2.781-1.643.805-.471 1.513-.884 1.781-1.081.304-.773.612-1.513.903-2.215.479-1.15 1.091-2.622 1.336-3.537h-3.117c-1.729 0-3.015-1.42-4.15-2.673-.396-.438-1.044-1.153-1.367-1.353-1.511-.131-2.745-.228-3.755-.308-4.631-.365-5.731-.452-6.651-2.387a1460 1460 0 0 1-3.666-7.784c-1.482-3.167-2.463-5.263-2.947-6.066a287 287 0 0 1-6.4-.091c-2.335-.053-4.559-.103-5.451.069.04.621.305 1.813.475 2.579.257 1.157.466 2.048.63 2.745.544 2.318.728 3.099.212 4.271l-3.798 8.634c-.524 1.19-1.575 2.196-9.764 3.389-.063.009-5.29.764-7.531.883a2 2 0 0 1-.18.027l-.002-.019.002.019c-.631.064-1.177-.051-7.245-1.806-2.557-.739-6.35-1.835-7.384-2.022-.721.137-1.352.265-1.906.376-3.116.628-5.174 1.045-6.476-1.343a301 301 0 0 1-1.667-3.104c-.722-1.357-1.364-2.565-1.753-3.136l-6.057 1.841c-.089.473-.064 1.417-.048 2.016.047 1.767.1 3.769-1.254 4.996-.508.46-1.41.972-2.807.796l-4.046-.506c-.778-.097-3.721-2.131-5.278-3.71-.435.324-1.119 1.1-1.556 1.597-1.398 1.587-3.132 3.562-5.464 2.963L91.491 60.34c-1.335-.345-8.998-7.263-9.424-8.509-.552-1.609-.954-2.813-1.258-3.723-.365-1.093-.641-1.918-.778-2.234-.798-.625-1.476-1.17-2.07-1.648-.906-.729-1.836-1.478-2.379-1.82l-2.277 2.368c-.952.991-1.978 1.15-2.667 1.117-2.058-.111-3.523-2.009-5.073-4.019-.615-.797-1.604-2.079-2.168-2.463-7.055 3.384-7.253 3.424-7.584 3.491-4.101.829-7.283 1.459-9.757 1.949-4.181.828-6.724 1.332-7.636 1.607l-1.947 4.502c.387.203 1.009.44 1.424.598 1.707.649 4.287 1.63 4.287 4.243v5.636c0 2.185-1.98 3.431-3.727 4.53-.576.363-1.509.95-1.812 1.297v2.763c0 2.186-1.157 2.823-4.592 4.714-.751.414-1.659.913-2.757 1.531a2 2 0 0 1-.98.257H17.637a2 2 0 0 1-1.474-.648 265 265 0 0 1-1.774-1.958c-.743-.826-1.403-1.561-1.769-1.896-1.262.33-2.248.575-3.047.774-1.055.263-1.986.495-2.382.643l-2.014 4.314c.41 1.034.754 1.921 1.049 2.681.537 1.384 1.013 2.611 1.301 3.166 1.174-.001 2.071-.014 2.792-.025 2.663-.042 3.655-.054 4.778.975.299.274.608.543.912.808 1.662 1.448 3.231 2.815 3.161 4.734-.026.708-.305 1.737-1.489 2.625-2.048 1.536-3.355 2.516-4.395 2.785.414 1.249.728 2.218.973 2.976.323.999.586 1.811.719 2.123l3.96 3.046c1.773 1.364 1.44 3.414 1.241 4.638-.052.319-.128.791-.112.993q.285.517.509.938c.211.394.444.828.604 1.077l.223-.001c9.152-.06 9.459.071 9.965.283 1.05.439 1.916.793 2.63 1.086 3.338 1.366 4.346 1.778 4.76 3.674l1.33 6.084c.099.452.164.75-.647 4.694-.307 1.492-.506 2.458-.666 3.105.423 1.324 2.663 5.778 3.4 7.141.654.201 2.451.097 3.552.033 2.621-.152 4.884-.283 6.235 1.069a78 78 0 0 0 6.361 5.686q.08.054.155.117l.003.003a3.6 3.6 0 0 1 1.175 1.845c1.058 3.988 1.873 7.135 2.516 9.619 1.047 4.043 1.742 6.728 2.146 7.783.51.002.963.008 1.367.013.687.008 1.394.018 1.777-.013 4.275-8.073 6.214-11.613 7.32-13.17.019-.655-.766-2.641-1.239-3.837-1.373-3.473-2.93-7.41.025-9.098l.477-.271c10.054-5.69 12.335-7.421 12.849-7.903.425-1.016.772-1.886 1.066-2.626 1.955-4.908 2.888-5.89 7.601-4.232q.628.223 1.43.493a2 2 0 0 1 .98.715l4.352 5.934q.185.252.285.55l2.62 7.857c.639.634 1.167 1.147 1.604 1.571 1.842 1.787 2.604 2.526 2.604 4.133q0 .187-.007.413c-.005.188-.013.5 0 .762l3.998-.221 3.008-4.68a1.99 1.99 0 0 1 1.883-.908 2 2 0 0 1 1.664 1.265l2.769 7.121c.09.231.136.477.136.725l.009 9.824c3.551 6.945 3.551 7.35 3.551 7.962v3.631c.493 1.132 3.115 5.054 3.932 6.043m-55.496-25.459a1 1 0 0 0-.092.219q.072-.101.14-.192zm-18.965-2.775.011-.013zm-17.232-16.777.013.003.002-.012-.002.011zm169.65-48.518h.01zm-2.789-1.838.01.024zm-50.531-19.965h-.005zM206.459 131.279c-1.155 0-2.306-.486-3.279-1.447-2.035-2.008-3.086-5.821-1.343-8.082.893-1.157 3.101-2.674 7.869.149a4.62 4.62 0 0 1 2.254 3.663 4.62 4.62 0 0 1-1.74 3.932l-.952.754c-.87.689-1.841 1.031-2.809 1.031m1.568-2.599h.01zm-3.048-4.39c-.125.579.293 2.115 1.138 2.811.309.255.385.235.667.011l.952-.754a.6.6 0 0 0 .233-.527.6.6 0 0 0-.302-.491c-1.593-.944-2.401-1.05-2.685-1.05zM246.426 89.241c-.498 0-.984-.187-1.358-.532l-2.448-2.264c-2.277-.693-2.843-2.245-2.982-2.917-.267-1.287.258-2.678 1.312-3.532.069-.4-.034-1.333-.098-1.911-.18-1.633-.385-3.484.745-4.834.421-.504 1.202-1.124 2.526-1.213q.313-.022.607-.05c1.373-.125 3.671-.329 4.79 1.998.183.381.344.732.491 1.052.197.429.432.94.597 1.223 2.986-.121 4.18 1.661 4.297 3.386l.02.25c.082.953.218 2.547-.835 3.775-.422.492-1.202 1.098-2.513 1.187q-.568.037-1.015.06c-.376.021-.792.043-1.04.073-.148.291-.375.86-.597 1.414-.181.453-.393.984-.653 1.605a2 2 0 0 1-1.846 1.23m-2.46-6.574.062.014c.351.075.676.243.939.487l.705.651c.985-2.197 1.798-2.738 4.671-2.894q.29-.015.634-.036a9 9 0 0 0-.038-.635 4 4 0 0 0-.281.009c-2.585.16-3.482-1.808-4.285-3.557q-.168-.369-.368-.793c-.234.003-.623.033-.919.059l-.378.033c-.013.45.066 1.167.119 1.642.173 1.57.404 3.659-.861 5.02m-1.677-1.177h.01zM219.647 121.053c-1.456 0-2.576-.877-3.392-1.631l-4.774 1.083c-.448.1-.919.046-1.332-.159l-4.067-2.019a2.002 2.002 0 0 1-.12-3.519l6.595-3.854c.244-.143.516-.232.797-.262l6.977-.742 4.857-4.359c.574-1.912.982-3.371 1.305-4.523 1.306-4.667 1.438-4.907 4.683-8.572.838-.946 1.91-2.157 3.307-3.797 1.15-1.409 2.862-2.002 4.586-1.581 2.215.539 3.993 2.577 4.53 5.192.399 1.942.587 7.015-6.259 12.151-.057.043-.107.078-.151.119-.146.259-.545 1.836-1.15 4.224a752 752 0 0 1-1.116 4.372c-.667 2.583-2.27 3.079-6.139 4.276-1.42.44-3.332 1.032-5.839 1.891-.906 1.034-1.91 1.604-2.99 1.694a3 3 0 0 1-.308.016m-2.794-5.817c.493 0 .974.182 1.346.521q.22.203.449.423c.277.265.718.687.978.835.098-.074.275-.235.522-.567.24-.322.571-.564.951-.696 2.837-.983 4.957-1.639 6.504-2.118 1.59-.492 3.092-.958 3.377-1.215-.003-.002.028-.071.072-.242.459-1.774.82-3.201 1.111-4.352 1.266-5.003 1.398-5.526 2.778-6.562 5.016-3.763 4.986-6.951 4.741-8.147-.275-1.337-1.082-1.995-1.557-2.11-.166-.041-.321-.051-.548.23l-.033.04c-1.425 1.675-2.519 2.909-3.373 3.874-2.729 3.082-2.729 3.082-3.825 6.998a229 229 0 0 1-1.49 5.139c-.106.35-.306.664-.578.908l-5.755 5.166a2 2 0 0 1-1.125.5l-7.193.765-3.024 1.767.11.054 5.12-1.161q.22-.05.442-.05m19.168-25.257h.01z"/><path fill="#3762cc" d="M141.143 208.917a6.3 6.3 0 0 1-3.982-1.427 1710 1710 0 0 0-4.079-3.341c-4.577-3.74-4.665-3.812-5.29-5.062l-2.683-5.365c-.399-.799-2.285-2.051-3.799-3.057-2.489-1.653-4.839-3.214-5.648-5.328l-1.563-4.087a3.6 3.6 0 0 1 .903-3.923 3.59 3.59 0 0 1 3.974-.646l5.977 2.747c.347.159.347.159 5.782 4.695 2.541 2.12 5.989 4.999 6.613 5.476a255 255 0 0 0 2.937 1.599c4.747 2.556 7.13 3.839 7.13 7.684 0 .235.008.503.016.794.062 2.167.156 5.441-1.895 7.551-1.09 1.121-2.568 1.69-4.393 1.69m-22.967-28.202 1.221 3.193c.351.919 2.532 2.367 4.125 3.425 2.205 1.464 4.288 2.848 5.165 4.6l2.682 5.365c.228.457.242.484 4.243 3.754 1.073.877 2.412 1.971 4.088 3.349.405.333.917.517 1.442.517 1.061 0 1.41-.359 1.525-.478.873-.898.805-3.246.765-4.649-.01-.333-.018-.64-.018-.909 0-1.291-.28-1.606-5.026-4.162a263 263 0 0 1-3.08-1.678c-.308-.171-.656-.439-7.137-5.848-2.105-1.757-4.469-3.729-5.085-4.222zM185.501 218.156h-24.507a2 2 0 0 1-1.317-.495l-2.443-2.138-2.428.857a2 2 0 0 1-2.33-.777l-2.077-3.115a2 2 0 0 1 .663-2.841l2.612-1.51 1.393-2.668a2 2 0 0 1 1.773-1.075h2.907c.503 0 .987.189 1.356.53l2.128 1.964c5.241.026 8.008.317 9.503.677 4.257-.734 6.623-.821 7.967-.666q.113-.013.23-.013v.043c1.181.175 1.459.551 1.616.762l.049.069c.354.426.635.768.867 1.05.953 1.159.953 1.159 2.112 2.112.316.259.707.58 1.205.996a2 2 0 0 1 .72 1.537v2.7a2 2 0 0 1-1.999 2.001m-23.755-4h21.464l-.172-.142c-1.407-1.157-1.507-1.256-2.664-2.664l-.416-.505c-1.063.036-3.283.092-6.749.698a2.1 2.1 0 0 1-.892-.031c-.365-.072-3.381-.625-9.871-.625-.503 0-.987-.189-1.356-.53l-2.125-1.962h-.913l-1.101 2.109a2 2 0 0 1-.772.806l-1.269.733.031.047 2.064-.728a2 2 0 0 1 1.982.38zM166.988 195.583c-.373 0-.76-.082-1.163-.261l-.277-.126c-1.936-.882-2.725-1.205-3.043-1.323a87 87 0 0 0-2.474.139c-3.455.234-4.059-.006-6.437-2.565-.551-.593-1.259-1.355-2.234-2.331a2 2 0 0 1-.586-1.414v-4.985a2 2 0 0 1 2-2h3.242c.166-.373.355-.923.484-1.295.496-1.438.965-2.795 2.189-3.378 2.29-1.09 4.037-1.938 5.379-2.589 4.871-2.364 5.497-2.666 7.001-1.636.592.406 1.082.725 1.482.986 1.439.939 2.576 1.68 2.576 3.35v.907c0 .884-.324 2.004-1.749 2.646.282 1.619.399 2.224.447 2.448l.067.146c1.125 2.433 1.689 3.654.047 5.248-.294.286-.66.641-1.163 1.579l-.264.5c-1.348 2.567-3.127 5.954-5.524 5.954m-4.209-5.72c.482 0 1.017.148 4.009 1.504.729-.83 1.796-2.86 2.182-3.596l.279-.528c.576-1.075 1.112-1.738 1.511-2.165-.135-.307-.315-.695-.5-1.095l-.145-.314c-.136-.296-.187-.405-.816-4.063l-.023-.138c-.121-.683-.174-2.216 1.489-3.049l-.4-.262c-.315-.206-.682-.445-1.107-.73-.637.266-1.871.864-3.445 1.628a774 774 0 0 1-5.071 2.443c-.141.3-.329.845-.462 1.231-.581 1.684-1.377 3.99-3.581 3.99h-1.926v2.163a90 90 0 0 1 1.751 1.845c.577.622 1.174 1.264 1.361 1.338.183.074 1.043.016 1.875-.042.748-.05 1.687-.114 2.899-.157zm10.437-11.088v.004zM181.708 201.748c-2.156 0-2.906-1.575-3.403-2.618-.443-.93-1.049-2.204-2.696-3.973a2 2 0 0 1-.352-2.201c.302-.655.551-1.181.756-1.614.746-1.574.746-1.574.73-2.765-.004-.309-.009-.675-.009-1.119 0-1.219.516-1.981.949-2.406 1.101-1.081 2.68-1.052 3.835-1.029.277.005.668.012.892-.007l2.273-1.87c.219-.18.473-.311.746-.385.529-.144.99-.277 1.382-.391 1.581-.459 3.076-.892 3.961.555.903 1.474-.001 2.438-1.983 4.548q-.46.49-1.043 1.115-.39.664-.715 1.209c-.37.622-.748 1.257-.983 1.704.261.15.586.326.89.49.342.185.725.392 1.151.631 1.156.648 1.824 1.938 1.789 3.451-.039 1.632-.862 3.085-2.096 3.702-.795.398-1.676.429-2.519.108-.264 1.667-1.704 2.865-3.555 2.865m-2.271-8.289a17.2 17.2 0 0 1 2.147 3.27c.312-.822.872-1.479 1.623-1.865a3.27 3.27 0 0 1 1.844-.344l-.018-.01c-1.579-.854-2.719-1.471-3.099-2.846-.322-1.167.058-2.142.931-3.675-.479.051-.964.042-1.423.033-.198-.004-.468-.01-.706-.003q.002.277.006.504c.028 2.05-.084 2.357-1.115 4.532zM222.349 215.041h-2.077a2 2 0 0 1-1.577-.77c-2.398-3.075-3.858-4.86-4.824-6.042-1.95-2.385-2.044-2.53-3.338-5.179a262 262 0 0 0-.802-1.632l-4.055-1.201-2.953 1.35a2 2 0 0 1-2.043-.228l-2.181-1.661a2 2 0 0 1-.235-2.972l1.106-1.159a2 2 0 0 1-.59-.493l-2.077-2.562a2 2 0 0 1-.446-1.259v-2.284c0-.621.289-1.207.78-1.585l2.7-2.077c.35-.269.779-.415 1.22-.415h4.569a2 2 0 0 1 1.977 1.696l.327 2.125.473.541h1.829l1.723-3.29a2 2 0 0 1 1.771-1.072h3.946a2 2 0 0 1 1.466.639c.574.618 1.014 1.099 1.364 1.48 1.186 1.293 1.186 1.293 2.097 1.916.261.178.583.398.997.688a2 2 0 0 1 .853 1.639v21.808a2 2 0 0 1-2 1.999m-16.823-18.954q.288 0 .568.083l5.607 1.661c.531.157.973.528 1.221 1.023.51 1.021.896 1.81 1.204 2.441 1.127 2.308 1.127 2.308 2.84 4.402.758.926 1.815 2.22 3.382 4.203v-17.617l-.106-.073c-1.292-.882-1.405-1.006-2.79-2.516l-.755-.822h-1.862l-1.723 3.29a2 2 0 0 1-1.771 1.072h-3.946a2 2 0 0 1-1.505-.683l-1.454-1.661a2 2 0 0 1-.472-1.014l-.155-1.004h-2.173l-1.38 1.062v.59l1.03 1.271h.604a2 2 0 0 1 2 2v2.008c0 .331-.082.653-.235.94l1.038-.474c.265-.122.548-.182.833-.182"/></svg>