<svg xmlns="http://www.w3.org/2000/svg" width="300" height="200" style="shape-rendering:geometricPrecision;text-rendering:geometricPrecision;image-rendering:optimizeQuality;fill-rule:evenodd;clip-rule:evenodd"><path fill="#bc1d2d" d="M211.5-.5h12l3 2q-4.775.936-8 4.5 1.375.561 2.5 1.5 3.493-5.971 2.5 0-1.257.512-1 2-3.96-.805 0 2.5-3.014 3.063-5-1l2-1q-2.457-.363-4.5-2.5a11.3 11.3 0 0 1-1.5 3.5l4 2q-1.184 4.646-3.5.5l-1 1a22.8 22.8 0 0 0-4-5 2.43 2.43 0 0 0-.5 2q-1.782-1.776-3.5 0-1.678-1.578-1.5-3.5 4.254-2.21 8-3.5v-5" style="opacity:1"/><path fill="#ae858d" d="M226.5 1.5q3.429.143 6 2-3.597.36-6-2" style="opacity:1"/><path fill="#b6a8ab" d="M211.5.5v4h-10q4.18-1.465 9-1-.356-1.936 1-3" style="opacity:1"/><path fill="#bb1d2e" d="M226.5 1.5q2.403 2.36 6 2 1.937-.356 3 1v1q-2.466-.32-4.5 1-1.6-2.674-4.5-1.5.834.575 1 1.5-.424 1.185-1.5 2-1.426-.576-2.5-1 .993-5.971-2.5 0a9.5 9.5 0 0 0-2.5-1.5q3.225-3.564 8-4.5" style="opacity:1"/><path fill="#ae949a" d="M235.5 4.5q2.11.71 2 3-1.5-.5-2-2z" style="opacity:1"/><path fill="#b90228" d="M227.5 6.5a2.43 2.43 0 0 1 2 .5q-1.647 1.155 0 2.5-.332 3.895-1.5 0a9.5 9.5 0 0 1-1.5 2.5q1.856.348 3 1.5-2.435-.21-3.5 2-1.076-.816-1.5-2 1.61-1.125.5-3l-1 1q-.417-1.373-1.5-2-.257-1.488 1-2 1.074.424 2.5 1 1.076-.816 1.5-2" style="opacity:1"/><path fill="#bb0227" d="m238.5 18.5-2 1q-1.443-3.729-2.5 0-2.779-2.594.5-3.5-2.789-2.38-4 1.5-3.18-1.355-1-4-1.144-1.152-3-1.5a9.5 9.5 0 0 0 1.5-2.5q1.168 3.895 1.5 0 1.083-.626 1.5-2 2.052 2.24.5 4.5a19 19 0 0 0 5 3q-1.73 1.37.5 2.5 1.63-3.647 1.5 1" style="opacity:1"/><path fill="#d6dfdd" d="M199.5 6.5v4h-2q.733-2.243 2-4" style="opacity:1"/><path fill="#a7818a" d="M237.5 7.5q2.11.71 2 3-2.11-.71-2-3" style="opacity:1"/><path fill="#b9a7aa" d="M167.5 9.5q6.35.058 12 2a44.8 44.8 0 0 1-10-1q-1.487.258-2-1" style="opacity:1"/><path fill="#be0025" d="M205.5 16.5q-1.083.627-1.5 2-1.077-1.425-2.5-.5.178 1.717 1 3.5-2.818-.16-1 1.5-1.983 3.251-2-.5l-2-3q1.345-1.647 2.5 0 .926-1.424-.5-2.5 3.976-4.81-.5-1.5-3.153-.93-2.5-3l3-2q1.426-2.128 1-5 4.648-.13 1 1.5 1.712 1.112 0 2.5a25.5 25.5 0 0 0 4 4.5q-1.647 1.155 0 2.5" style="opacity:1"/><path fill="#b70629" d="M169.5 10.5a44.8 44.8 0 0 0 10 1v1q-2.217-.393-4 1a175 175 0 0 0 3 3.5q-3.179.513-1 2.5-1.853.825-3-2 2.222-2.165-1-2a14.7 14.7 0 0 1-3.5-3q-1.057 3.729-2.5 0 1.5-.5 2-2" style="opacity:1"/><path fill="#ba0227" d="M222.5 9.5q1.083.627 1.5 2l1-1q1.11 1.875-.5 3l-3 1.5q1.984 1.224 2 3.5-2.51-1.264-3.5-4-1.047 1.785-2.5 3-2.197-1.358-4 0-.18-1.63-2-2-2.22 1.398-4 0 .837-1.935 3-2.5-.816-1.076-2-1.5a2.43 2.43 0 0 1 .5-2 22.8 22.8 0 0 1 4 5l1-1q2.316 4.146 3.5-.5l-4-2a11.3 11.3 0 0 0 1.5-3.5q2.043 2.137 4.5 2.5l-2 1q1.986 4.063 5 1-3.96-3.305 0-2.5" style="opacity:1"/><path fill="#bd0026" d="M235.5 5.5q.5 1.5 2 2-.11 2.29 2 3 .46 4.328-1 8 .13-4.647-1.5-1-2.23-1.13-.5-2.5a19 19 0 0 1-5-3q1.552-2.26-.5-4.5-.417 1.374-1.5 2-1.647-1.345 0-2.5a2.43 2.43 0 0 0-2-.5q-.166-.925-1-1.5 2.9-1.174 4.5 1.5 2.034-1.32 4.5-1" style="opacity:1"/><path fill="#a96065" d="M163.5 9.5q-1.627 3.13-5 4 1.627-3.13 5-4" style="opacity:1"/><path fill="#bd1a2d" d="M167.5 9.5q.513 1.258 2 1-.5 1.5-2 2-1.345 1.647-2.5 0a9.5 9.5 0 0 1-1.5 2.5q2.654 1.53 5 .5l1 1-2 2q1.923-.62 3 2-2.205 5.313-4.5-1a6.54 6.54 0 0 0-3 3q-.417-1.373-1.5-2-1.344 1.509-2 0 .416-3.519-1-6v-1q3.373-.87 5-4 2-2 4 0" style="opacity:1"/><path fill="#bb0127" d="M196.5 12.5q-.653 2.07 2.5 3 4.476-3.31.5 1.5 1.426 1.076.5 2.5-1.155-1.647-2.5 0-.375-2.133-2.5-3-1.077 1.425-2.5.5a19.6 19.6 0 0 1 2-3.5z" style="opacity:1"/><path fill="#b50f2a" d="M201.5 4.5h10q-3.746 1.29-8 3.5-.178 1.922 1.5 3.5 1.718-1.776 3.5 0 1.184.424 2 1.5-2.163.565-3 2.5v2q-1.24 1.408-2-1-1.647-1.345 0-2.5a25.5 25.5 0 0 1-4-4.5q1.712-1.388 0-2.5 3.648-1.63-1-1.5.426 2.872-1 5v-4q0-2 2-2" style="opacity:1"/><path fill="#bc0026" d="M179.5 12.5q1.937-.356 3 1-2.414 1.748-1 4-1.815.648-3 2h-1q-2.179-1.987 1-2.5a175 175 0 0 1-3-3.5q1.783-1.393 4-1" style="opacity:1"/><path fill="#b95152" d="M197.5 10.5h2l-3 2-2 1q-2.17-1.67-5-.5 5.298.437 1 3.5-.5-1.5-2-2-2.647-1.442-6-1-1.063-1.356-3-1v-1a163 163 0 0 0 18-1" style="opacity:1"/><path fill="#be0025" d="M182.5 13.5q3.353-.442 6 1-2.065 1.015-5 .5 2.437 1.278 1 3 2.639 1.47 5 2 .822 2.394-2 3.5-1.587-1.65-2.5-4-1.37 1.73-2.5-.5 2.01-3.267-1-1.5-1.414-2.252 1-4" style="opacity:1"/><path fill="#bc0025" d="M173.5 15.5q3.222-.165 1 2 1.147 2.825 3 2h1q.129 1.494-1 2.5a2.43 2.43 0 0 0 2 .5q1.737 2.175-1.5 3a14.6 14.6 0 0 1-4-6l-1 1q-.417-1.373-1.5-2 .423-1.917 2-3" style="opacity:1"/><path fill="#bd0025" d="M194.5 13.5a19.6 19.6 0 0 0-2 3.5q1.423.925 2.5-.5 2.125.867 2.5 3-.925.165-1.5 1-6.666-3.762-.5 1.5-1.423.925-2.5-.5.163 1.903-.5 3-1.722 2.092-3-.5 3.013-2.397 0-6 .834-.575 1-1.5 4.298-3.063-1-3.5 2.83-1.17 5 .5" style="opacity:1"/><path fill="#aa6066" d="M158.5 13.5v1a11.74 11.74 0 0 1-5 3q1.627-3.13 5-4" style="opacity:1"/><path fill="#bd0025" d="M158.5 14.5q1.416 2.481 1 6-.925-.165-1.5-1-.99 2.736-3.5 4-.627-1.083-2-1.5 1.818-1.66-1-1.5l2-3a11.74 11.74 0 0 0 5-3M167.5 12.5q1.443 3.729 2.5 0a14.7 14.7 0 0 0 3.5 3q-1.577 1.083-2 3l-1 2q-1.077-2.62-3-2l2-2-1-1q-2.346 1.03-5-.5a9.5 9.5 0 0 0 1.5-2.5q1.155 1.647 2.5 0" style="opacity:1"/><path fill="#bd0127" d="M207.5 15.5q1.78 1.398 4 0 1.82.37 2 2 1.205 1.385.5 3l-1-1q-1.423 2.39-3.5 4l-1-2q3.533-2.187-1-4z" style="opacity:1"/><path fill="#bd0025" d="M217.5 17.5q-3.192 1.17-.5 3 1.077-1.425 2.5-.5-1.129 1.006-1 2.5-2.158 1.514-4-1 .586 1.828-2 2.5 1.818 1.66-1 1.5-1.5-.5-2-2 2.077-1.61 3.5-4l1 1q.705-1.615-.5-3 1.803-1.358 4 0M224.5 13.5q.424 1.184 1.5 2 1.065-2.21 3.5-2-2.18 2.645 1 4a5.73 5.73 0 0 0 1 3 4.93 4.93 0 0 1-3-.5q-2.28-1.845-2.5-3.5-.532 1.514-2.5 2-.016-2.276-2-3.5z" style="opacity:1"/><path fill="#ba0227" d="M205.5 16.5q.76 2.408 2 1 4.533 1.813 1 4-1.083-.626-1.5-2-1.047 1.785-2.5 3l-2-1q-.822-1.783-1-3.5 1.423-.925 2.5.5.417-1.373 1.5-2" style="opacity:1"/><path fill="#a6747d" d="m153.5 17.5-2 3h-2q1.144-2.643 4-3" style="opacity:1"/><path fill="#ba0228" d="M231.5 20.5q-.516 1.774 2 2.5a10.5 10.5 0 0 1-3 2.5 513 513 0 0 0-3-4 4.46 4.46 0 0 0-1.5 2l-2.5-5q1.968-.486 2.5-2 .22 1.655 2.5 3.5 1.422.725 3 .5" style="opacity:1"/><path fill="#bc0126" d="M187.5 23.5q-1.478 1.278 0 4-3.313-2.094-4.5-6l-1 2q-1.006-1.128-2.5-1a2.43 2.43 0 0 1-2-.5q1.129-1.006 1-2.5 1.185-1.352 3-2 3.01-1.767 1 1.5 1.13 2.23 2.5.5.913 2.35 2.5 4" style="opacity:1"/><path fill="#b90228" d="M188.5 14.5q1.5.5 2 2-.166.925-1 1.5 3.013 3.603 0 6 1.278 2.592 3 .5.423 1.917 2 3-3.222-.165-1 2-3.737 1.56 0 2.5l-3 1.5q-1.428-2.418-1-4.5 3.314-1.436-.5-3.5-.417 1.374-1.5 2-1.478-2.722 0-4 2.822-1.106 2-3.5-2.361-.53-5-2 1.437-1.722-1-3 2.935.515 5-.5" style="opacity:1"/><path fill="#bc0126" d="m223.5 18.5 2.5 5a4.46 4.46 0 0 1 1.5-2 513 513 0 0 1 3 4q2.153 1.515 2.5 4l1-2q.417 1.374 1.5 2-.375 2.133-2.5 3-1.089-4.178-4.5-2-2.867-.111-3.5-3-.417 1.374-1.5 2-.822-1.783-1-3.5-1.873-1.11-3 .5-3.729-1.443 0-2.5-.834-.575-1-1.5-.129-1.494 1-2.5-1.423-.925-2.5.5-2.692-1.83.5-3 1.453-1.215 2.5-3 .99 2.736 3.5 4" style="opacity:1"/><path fill="#bd0026" d="M236.5 19.5q-1 0-1 1-2.317 3.565 1.5 7 1.466-1.911 2.5 0-1.083.626-1.5 2-1.466-1.911-2.5 0-1.083-.626-1.5-2l-1 2q-.347-2.485-2.5-4a10.5 10.5 0 0 0 3-2.5q-2.516-.726-2-2.5a5.73 5.73 0 0 1-1-3q1.211-3.88 4-1.5-3.279.906-.5 3.5 1.057-3.729 2.5 0" style="opacity:1"/><path fill="#b60c29" d="M239.5 10.5q1.257.513 1 2v9q-.375 2.133-2.5 3-.347-2.485-2.5-4 0-1 1-1l2-1q1.46-3.672 1-8" style="opacity:1"/><path fill="#b4acaf" d="M240.5 12.5q1.118 4.335 2 9h-2z" style="opacity:1"/><path fill="#bd0025" d="M170.5 20.5q1.514 2.152 4 2.5-1.374.417-2 1.5-2.137-2.297-2 1-1.93-1.902-3 1a12.4 12.4 0 0 1-2.5-4q-2.222 1.455-2.5 4l-2-1q1.201-2.313 1-5 1.083.627 1.5 2a6.54 6.54 0 0 1 3-3q2.295 6.313 4.5 1" style="opacity:1"/><path fill="#bb0127" d="m202.5 21.5 2 1q3.896.33 0 1.5 5.535.636.5 2.5a4.93 4.93 0 0 0-.5 3q-3.166 1.32-6 0l-3-2q1.034-1.911 2.5 0 1.026-1.925-.5-3.5.816-1.075 2-1.5.017 3.751 2 .5-1.818-1.66 1-1.5" style="opacity:1"/><path fill="#bd0025" d="m208.5 21.5 1 2q.5 1.5 2 2 .166.925 1 1.5-1.374.417-2 1.5-1.437-.68-2.5-2a2.43 2.43 0 0 0-.5 2q-.925-.165-1.5-1-.417 1.374-1.5 2a4.93 4.93 0 0 1 .5-3q5.035-1.864-.5-2.5 3.896-1.17 0-1.5 1.453-1.215 2.5-3 .417 1.374 1.5 2" style="opacity:1"/><path fill="#b90428" d="M235.5 20.5q2.153 1.515 2.5 4 2.125-.867 2.5-3h2q-1.262 2.82-1 6h-2q-1.034-1.911-2.5 0-3.817-3.435-1.5-7" style="opacity:1"/><path fill="#ba0126" d="M159.5 20.5q.656 1.509 2 0 .201 2.687-1 5v1q-1.853-.332-3-2-2.587 2.387-3-1 2.51-1.264 3.5-4 .575.835 1.5 1" style="opacity:1"/><path fill="#bc0026" d="m197.5 19.5 2 3q-1.184.425-2 1.5 1.526 1.575.5 3.5-1.466-1.911-2.5 0h-1q-1.577-1.083-2-3 .663-1.097.5-3 1.077 1.425 2.5.5-6.166-5.262.5-1.5.575-.835 1.5-1" style="opacity:1"/><path fill="#ae6165" d="M148.5 21.5a19.2 19.2 0 0 1-1 6l-2 1q.653-3.985 3-7" style="opacity:1"/><path fill="#bb0227" d="M171.5 18.5q1.083.627 1.5 2l1-1a14.6 14.6 0 0 0 4 6q3.237-.825 1.5-3 1.494-.128 2.5 1l1-2q1.187 3.906 4.5 6 1.205 1.385.5 3a18.2 18.2 0 0 0-5.5-2q-1.812-1.1-4-1-1.494-.128-2.5 1-3.267-1.698-3.5-4 .626-1.083 2-1.5-2.486-.348-4-2.5z" style="opacity:1"/><path fill="#bb0127" d="m160.5 25.5 2 1q1.65 1.657 2 4-1.647 1.65-.5 4 1.077-1.425 2.5-.5-1.321 1.063-2 2.5-2.147-2.105-3.5-5-2.316 4.146-3.5-.5a7.3 7.3 0 0 1 3-2l-2-1q1.373-.417 2-1.5z" style="opacity:1"/><path fill="#ba0126" d="M170.5 25.5a4.93 4.93 0 0 0 .5 3q1.962-.977 2.5 2-2.726 1.08-2 3-2.028-1.525-3-4a6.85 6.85 0 0 1-4 1q-.35-2.343-2-4 .278-2.545 2.5-4a12.4 12.4 0 0 0 2.5 4q1.07-2.902 3-1" style="opacity:1"/><path fill="#bc0025" d="M172.5 24.5q.233 2.302 3.5 4 1.006-1.128 2.5-1 .449 1.89 0 3.5-1.863.466-3-1.5-.91.186-1 1h-1q-.538-2.977-2.5-2a4.93 4.93 0 0 1-.5-3q-.137-3.297 2-1" style="opacity:1"/><path fill="#c34948" d="M242.5 21.5q7.305 2.325 6 10l-2-4q-2.399 1.593-5 0-.262-3.18 1-6" style="opacity:1"/><path fill="#bc0126" d="M154.5 23.5q.413 3.387 3 1 1.147 1.668 3 2-.627 1.083-2 1.5l2 1a7.3 7.3 0 0 0-3 2q1.184 4.646 3.5.5 1.353 2.895 3.5 5 .423 1.917 2 3-1.494-.129-2.5 1-1.423-2.39-3.5-4-1.494-.129-2.5 1-1.353-2.895-3.5-5 .822-1.783 1-3.5-2.099-1.593-3-4 .504-1.545 2-1.5" style="opacity:1"/><path fill="#bb0127" d="M218.5 22.5q.166.925 1 1.5-3.729 1.057 0 2.5-1.067 2.552-4 3-1.983-.255-3.5 1-1.076-.816-1.5-2 .626-1.083 2-1.5-.834-.575-1-1.5 2.818.16 1-1.5 2.586-.672 2-2.5 1.842 2.514 4 1" style="opacity:1"/><path fill="#bc0127" d="M239.5 27.5h2q2.601 1.593 5 0 .717 4.167-3 6l2 1a246 246 0 0 0-7 2h-1q-.679-1.437-2-2.5 3.282-2.772 0-4.5 1.034-1.911 2.5 0 .417-1.374 1.5-2" style="opacity:1"/><path fill="#bc0025" d="M194.5 27.5h1l3 2q1.658 2.7-2 3.5 1.596 2.265 4 .5a10.5 10.5 0 0 1-2.5 3q-2.966-.392-6.5-2-1 0-1-1l3-1.5q-3.737-.94 0-2.5-2.222-2.165 1-2M173.5 30.5h1q2.179 1.987-1 2.5a2.43 2.43 0 0 0 2 .5q-.762 2.6-2.5 1a2.43 2.43 0 0 0-.5 2q-1.083-.626-1.5-2-1 2-2 0-.476 2.7-2 1-.513 3.18-2.5 1 .679-1.437 2-2.5-1.423-.925-2.5.5-1.147-2.35.5-4a6.85 6.85 0 0 0 4-1q.972 2.475 3 4-.726-1.92 2-3" style="opacity:1"/><path fill="#ba0228" d="M178.5 27.5q2.188-.1 4 1-1.937 1.46 0 3-.519 1.794-1.5 0l-1.5 3a2.43 2.43 0 0 1-2-.5q1.794-.981 0-1.5-1.025.544-2 1a2.43 2.43 0 0 1-2-.5q3.179-.513 1-2.5.09-.814 1-1 1.137 1.966 3 1.5.449-1.61 0-3.5" style="opacity:1"/><path fill="#ba0127" d="M207.5 28.5q-.76 2.038-3 3-.167 2.413 1 5-3.353-1.09-4-3h-1q-2.404 1.765-4-.5 3.658-.8 2-3.5 2.834 1.32 6 0 1.083-.626 1.5-2 .575.835 1.5 1" style="opacity:1"/><path fill="#b92832" d="M147.5 27.5q.63 3.261 0 6 .533 1.533 2 2l-1 2q-1.345-1.647-2.5 0l-1-4q-.417 1.374-1.5 2v-2q.444-2.855 2-5z" style="opacity:1"/><path fill="#bd0026" d="M219.5 26.5q2.873 2.874 0 5a47 47 0 0 1 3 7q-1.487-.258-2 1l-2-1q.626-1.083 2-1.5-1.188-3.504-4-1.5a10.8 10.8 0 0 0-3-2.5q4-1 0-2 1.374-.417 2-1.5 2.933-.448 4-3" style="opacity:1"/><path fill="#bb0126" d="M219.5 26.5q1.127-1.61 3-.5.178 1.717 1 3.5.679 1.438 2 2.5l-2 1q2 1 0 2 4.809 1.39 1 3.5h-2a47 47 0 0 0-3-7q2.873-2.126 0-5" style="opacity:1"/><path fill="#ba0427" d="M149.5 20.5h2q2.818-.16 1 1.5 1.373.417 2 1.5-1.496-.045-2 1.5.901 2.407 3 4-.178 1.717-1 3.5-3.729 1.443 0 2.5-2.701.476-1 2a2.43 2.43 0 0 1-2 .5q-1.647-1.345 0-2.5-1.405-1.038-2 .5-1.467-.467-2-2 .63-2.739 0-6 .975-2.902 1-6 0-1 1-1" style="opacity:1"/><path fill="#ba0228" d="M228.5 30.5q-1.702 1.461-3 3.5a34.5 34.5 0 0 0 5 4.5q-2.933 3.95-6 0 3.809-2.11-1-3.5 2-1 0-2l2-1q-1.321-1.062-2-2.5 1.083-.626 1.5-2 .633 2.889 3.5 3" style="opacity:1"/><path fill="#bc0025" d="M235.5 29.5q3.282 1.728 0 4.5 1.321 1.063 2 2.5-1.5.5-2 2a2.43 2.43 0 0 1-2-.5q1.794-.981 0-1.5-1.858.664-3 2a34.5 34.5 0 0 1-5-4.5q1.298-2.039 3-3.5 3.411-2.178 4.5 2 2.125-.867 2.5-3" style="opacity:1"/><path fill="#b1102b" d="m246.5 27.5 2 4v5h-10a246 246 0 0 1 7-2l-2-1q3.717-1.833 3-6" style="opacity:1"/><path fill="#b3979c" d="M84.5 32.5a721 721 0 0 1 7 4q-4.27-.078-7-3z" style="opacity:1"/><path fill="#bb0127" d="M179.5 34.5a2.43 2.43 0 0 1 2 .5q-1.374.417-2 1.5-3.71-.618-4 3-2.535-.534-3-3a2.43 2.43 0 0 1 .5-2q1.738 1.6 2.5-1 .975-.456 2-1 1.794.519 0 1.5a2.43 2.43 0 0 0 2 .5M210.5 28.5q.424 1.185 1.5 2 1.517-1.255 3.5-1-.626 1.083-2 1.5 4 1 0 2a10.8 10.8 0 0 1 3 2.5q2.812-2.004 4 1.5-1.374.417-2 1.5-2.15.263-5 2 1.094-3.398-2.5-6-3.17 2.657.5 4.5-2.864.671-3.5-2.5-2.633 2.47-3.5 5-.201-2.687 1-5-1.167-2.587-1-5 2.24-.962 3-3a2.43 2.43 0 0 1 .5-2q1.063 1.32 2.5 2" style="opacity:1"/><path fill="#a77980" d="M67.5 33.5q-.71 2.11-3 2 .71-2.11 3-2" style="opacity:1"/><path fill="#bc0126" d="M67.5 33.5q2.682-.428 5 1-.978 2.925 3 3a2.43 2.43 0 0 1-.5 2q-2.097-.825-4-1-.538 4.566-2 1-.476 2.7-2 1a2.43 2.43 0 0 0-.5 2q-1.495-.129-2.5 1-1.545-2.485-4.5-4-.165-.925-1-1.5 2.822-.297 5-1.5 1 0 1-1 2.29.11 3-2" style="opacity:1"/><path fill="#bc0025" d="M190.5 33.5q0 1 1 1-.626 1.083-2 1.5 1.17 1.61-.5 3.5-1.466-1.911-2.5 0-1.393-2.154-3.5-4-.417 1.374-1.5 2-.513-1.258-2-1 .626-1.083 2-1.5a2.43 2.43 0 0 0-2-.5l1.5-3q.981 1.794 1.5 0-1.937-1.54 0-3a18.2 18.2 0 0 1 5.5 2q.705-1.615-.5-3 1.083-.626 1.5-2 3.814 2.064.5 3.5-.428 2.082 1 4.5" style="opacity:1"/><path fill="#bfadb1" d="M64.5 35.5q0 1-1 1h-10q-1.602-1.401-4-1v6q-1.453-3.16-1-7 7.983.72 16 1" style="opacity:1"/><path fill="#ba3339" d="M84.5 32.5v1q-2.352 3.646-4.5 0-1.45 4.26 2.5 6h-2a16.3 16.3 0 0 1-5-2q-3.978-.075-3-3-2.318-1.428-5-1 .627-1.083 2-1.5 7.776-1.224 15 .5" style="opacity:1"/><path fill="#bc0126" d="M172.5 36.5q.465 2.466 3 3v1q-1.911 1.035 0 2.5 1.89 1.67 3.5.5 1.11 1.875-.5 3-1.935.837-2.5 3-1-2-2 0a12.6 12.6 0 0 1-2.5-4 2.43 2.43 0 0 0-.5-2q-1.006 1.128-2.5 1 .88-1.9 0-3-2.486 1.849-5 2.5 2-1 0-2 2.428-.354 3-2.5-1.577-1.083-2-3 1.987 2.18 2.5-1 1.524 1.7 2-1 1 2 2 0 .417 1.374 1.5 2" style="opacity:1"/><path fill="#b90228" d="M200.5 33.5h1q-2.366 3.453 2 4.5a16.5 16.5 0 0 1-6 1.5q.166-3.222-2-1-2.224-3.669-3.5 1l-1-1a10.1 10.1 0 0 0-1.5 4 10.2 10.2 0 0 0-3-3q1.034-1.911 2.5 0 1.67-1.89.5-3.5 1.374-.417 2-1.5 3.534 1.608 6.5 2a10.5 10.5 0 0 0 2.5-3" style="opacity:1"/><path fill="#b40527" d="M56.5 36.5h7q-2.178 1.203-5 1.5.835.575 1 1.5-1.248 1.242 1 2.5-1.856.348-3 1.5-5.458-2.665-1-7" style="opacity:1"/><path fill="#b89296" d="M143.5 33.5v2q.11 2.29-2 3 .444-2.855 2-5" style="opacity:1"/><path fill="#be333a" d="M148.5 37.5a10.2 10.2 0 0 1-3 3q-3.734-.39-5 3a13.2 13.2 0 0 0-5-2v-1a31.7 31.7 0 0 1 6-2q2.11-.71 2-3 1.083-.626 1.5-2l1 4q1.155-1.647 2.5 0" style="opacity:1"/><path fill="#b7a8ab" d="M248.5 32.5q1.426 2.128 1 5a72.4 72.4 0 0 0-12 .5 19.6 19.6 0 0 1-2 3.5v-3q.5-1.5 2-2h11z" style="opacity:1"/><path fill="#b90e2a" d="M53.5 36.5q-3.513.412 0 2.5-.27 4.134 0 9.5h-1q-1 0-1-1a69 69 0 0 0-2-9v-3q2.398-.401 4 1" style="opacity:1"/><path fill="#bb0326" d="M84.5 33.5q2.73 2.922 7 3h1q-.11 2.29 2 3a11.74 11.74 0 0 0 3 5q-2.625 1.1-5 1-2.05-3.947-2.5 1a11.4 11.4 0 0 0-1.5-3.5q1.818-1.66-1-1.5-.907-2.972-3-1-1.487.258-2-1-3.95-1.74-2.5-6 2.148 3.646 4.5 0" style="opacity:1"/><path fill="#bd0025" d="M154.5 32.5q2.147 2.105 3.5 5 1.006-1.129 2.5-1-1.542 1.93 1 3.5-.903 2.344-2.5-.5-.76 2.244 1.5 3.5-.834.575-1 1.5a61 61 0 0 1-3.5-6q-1.036 3.587-3 0-.417 1.374-1.5 2v-3a2.43 2.43 0 0 0 2-.5q-1.701-1.524 1-2-3.729-1.057 0-2.5" style="opacity:1"/><path fill="#bb0127" d="M75.5 37.5q2.324 1.411 5 2 2.504 2.057 2 4.5L81 45.5l-3-4q-1.076.816-1.5 2-3 2.94-5 0a20.4 20.4 0 0 0-5-1 2.43 2.43 0 0 1 .5-2q1.524 1.7 2-1 1.462 3.566 2-1 1.903.175 4 1a2.43 2.43 0 0 0 .5-2" style="opacity:1"/><path fill="#b08c91" d="M92.5 36.5q2.11.71 2 3-2.11-.71-2-3" style="opacity:1"/><path fill="#bc0026" d="M151.5 37.5v3q-.129 1.495 1 2.5-2.35.912-4 2.5h-1q-1.584-2.064-4-2.5 2.361-.53 5-2a4.93 4.93 0 0 0-3-.5 10.2 10.2 0 0 0 3-3l1-2q.595-1.538 2-.5-1.647 1.155 0 2.5" style="opacity:1"/><path fill="#bc0126" d="M179.5 36.5q1.487-.258 2 1a81 81 0 0 1-3 2.5q1.574.739 3-.5 1.197.686 1 2h-1a56 56 0 0 0-4.5 1q-1.076-.816-1.5-2v-1q.29-3.618 4-3M197.5 39.5a56 56 0 0 1-4 1q1.512 3 4 5 .016 2.276 2 3.5-1.984 1.224-2 3.5-1.184-.424-2-1.5.826-2.098 1-4-1.5-1-3 0 1.73 1.37-.5 2.5-1.718-.179-3.5-1v-1q1.496.045 2-1.5a11.8 11.8 0 0 0-2-3.5 10.1 10.1 0 0 1 1.5-4l1 1q1.276-4.669 3.5-1 2.166-2.222 2 1" style="opacity:1"/><path fill="#bd0026" d="m218.5 38.5 2 1q.657-.098 1 .5l-2 1q2.639 1.47 5 2l-2 1q2 1.5 0 3a51 51 0 0 0 4 2.5q-1.083.626-1.5 2-.417-1.374-1.5-2-3.008-1.13-2-3.5-1.321-1.062-2-2.5-1.453-1.215-2.5-3a6.98 6.98 0 0 1-2.5 3.5l1 3q-1.374.417-2 1.5-1.184-.424-2-1.5.291-2.145 0-4.5a31 31 0 0 0 2-2q2.85-1.737 5-2" style="opacity:1"/><path fill="#b08990" d="M135.5 40.5v1h-5a29.2 29.2 0 0 0-9-1q1.142-1.336 3-2a27.4 27.4 0 0 0 11 2" style="opacity:1"/><path fill="#bb0126" d="M186.5 39.5a10.2 10.2 0 0 1 3 3 11.8 11.8 0 0 1 2 3.5q-.504 1.545-2 1.5l-2-2q-1.201-3.012-4-1.5-.576-1.426-1-2.5.197-1.314-1-2-1.426 1.239-3 .5a81 81 0 0 0 3-2.5q1.083-.626 1.5-2 2.107 1.846 3.5 4" style="opacity:1"/><path fill="#bd0025" d="M87.5 41.5q-1.584 2.229 1 4.5a9.5 9.5 0 0 0-1.5 2.5q-1.524-1.7-2 1-1.775-1.847-3.5 0 2.902 1.07 1 3-.925-.165-1.5-1-1.561 1.456-2.5 3-2.187-.12-4-1.5 3.103-.486 1-2.5a31 31 0 0 0 2-2q2.976.175 5-2 2.347-3.059 2-6 2.093-1.972 3 1" style="opacity:1"/><path fill="#bca7ab" d="M94.5 39.5q3 2 5 5h-2a11.74 11.74 0 0 1-3-5" style="opacity:1"/><path fill="#ba0227" d="M145.5 40.5a4.93 4.93 0 0 1 3 .5q-2.639 1.47-5 2 2.416.436 4 2.5-1.638-.242-4 1-1.5-2-3 0-2-1.5 0-3 1.266-3.39 5-3" style="opacity:1"/><path fill="#bb0126" d="M213.5 40.5a31 31 0 0 1-2 2q.291 2.355 0 4.5.816 1.076 2 1.5l-2 2h-2q-2.388 1.653-2.5-2-1.006-1.128-2.5-1 .626-1.083 2-1.5-1.712-1.112 0-2.5-1.341-.025-3-1 0-1 1-1 .867-2.53 3.5-5 .636 3.171 3.5 2.5-3.67-1.843-.5-4.5 3.594 2.602 2.5 6" style="opacity:1"/><path fill="#bc0827" d="M220.5 39.5q.513-1.258 2-1h2q3.067 3.95 6 0 1.184.425 2 1.5-3.547 1.518-4 4 2.886.27 5 .5a44 44 0 0 0-3 2q-1.5.5-2 2 0 1-1 1h-1a51 51 0 0 1-4-2.5q2-1.5 0-3l2-1q-2.361-.53-5-2l2-1q-.343-.598-1-.5" style="opacity:1"/><path fill="#bb0126" d="M121.5 41.5v-1q4.605-.198 9 1-.837 1.935-3 2.5.612 4.292-2.5.5-.598.342-.5 1-2.818.16-1-1.5-.85-1.492-2-2.5" style="opacity:1"/><path fill="#bd0026" d="M201.5 33.5q.647 1.91 4 3-1.201 2.313-1 5-1 0-1 1-2.712 1.225-4.5-2-1.63 3.647-1.5-1a16.5 16.5 0 0 0 6-1.5q-4.366-1.047-2-4.5" style="opacity:1"/><path fill="#b72935" d="M235.5 38.5v3q.147 3.08-2 5h-3a44 44 0 0 1 3-2q-2.114-.23-5-.5.453-2.482 4-4-.816-1.075-2-1.5 1.142-1.336 3-2 1.794.519 0 1.5a2.43 2.43 0 0 0 2 .5" style="opacity:1"/><path fill="#bd0025" d="M59.5 39.5q2.955 1.515 4.5 4 1.005-1.129 2.5-1a20.4 20.4 0 0 1 5 1q-1.875.116-2.5 2l-1-1-1 3q-3.838-6.404-4.5 1-2.093 1.972-3-1 1.15-1.008 2-2.5-2.245-1.842-4-1.5 1.144-1.152 3-1.5-2.248-1.258-1-2.5M121.5 41.5q1.15 1.008 2 2.5-1.818 1.66 1 1.5-2.092 1.722.5 3a19.9 19.9 0 0 0 5.5-1q-.166.925-1 1.5 2.517.726 2 2.5-.5 1.5-2 2a19.6 19.6 0 0 0-3.5-4l-1 2q-1.062-1.32-2.5-2v-1q-2.637-1.912-5-3 1.5-2.5 4-4" style="opacity:1"/><path fill="#ba0227" d="M197.5 39.5q-.13 4.647 1.5 1 1.788 3.225 4.5 2 1.659.975 3 1-1.712 1.388 0 2.5-1.374.417-2 1.5-1.257.513-1 2h-1q-1.937-1.46 0-3-2.121-4.876-5-1-2.488-2-4-5a56 56 0 0 0 4-1" style="opacity:1"/><path fill="#9c626c" d="M49.5 38.5a69 69 0 0 1 2 9q-2.67-2.235-2-6z" style="opacity:1"/><path fill="#b80227" d="M130.5 41.5h5q2.733.496 5 2-2 1.5 0 3-1.152 1.144-1.5 3l-1-4q-.575.835-1.5 1-2.644-6.942-7-1 .544 1.026 1 2a19.9 19.9 0 0 1-5.5 1q-2.592-1.278-.5-3-.098-.658.5-1 3.112 3.792 2.5-.5 2.163-.565 3-2.5" style="opacity:1"/><path fill="#ba0127" d="M159.5 44.5q-.353.895-1.5 1-1.517-.588-1.5-2a7.5 7.5 0 0 0-2 3q-1.996-3.823-3 1l-3-2q1.65-1.588 4-2.5-1.129-1.005-1-2.5 1.083-.626 1.5-2 1.964 3.587 3 0a61 61 0 0 0 3.5 6" style="opacity:1"/><path fill="#ba0228" d="M160.5 36.5q2.077 1.61 3.5 4 1.006-1.129 2.5-1-.572 2.146-3 2.5 2 1 0 2 2.514-.651 5-2.5.88 1.1 0 3-2.349-.84-4 2-2.81.884-5-2 .166-.925 1-1.5-2.26-1.256-1.5-3.5 1.597 2.844 2.5.5-2.542-1.57-1-3.5" style="opacity:1"/><path fill="#bb0126" d="M202.5 49.5q-1.937 1.563 0 3.5a2.43 2.43 0 0 1-2 .5q-.907-2.972-3-1 .016-2.276 2-3.5-1.984-1.224-2-3.5 2.879-3.876 5 1-1.937 1.54 0 3" style="opacity:1"/><path fill="#ba0228" d="M71.5 43.5v5a36 36 0 0 0-2 4.5l2 2q-2.19-.533-4 .5-.369-3.441 1.5-6l-1 1-4-4q-.417 1.374-1.5 2 .662-7.404 4.5-1l1-3 1 1q.625-1.884 2.5-2" style="opacity:1"/><path fill="#bd0025" d="M71.5 43.5q2 2.94 5 0l3 1.5q.823 2.394-2 3.5-1.437-.68-2.5-2-.538 4.567-2 1-.575.835-1.5 1z" style="opacity:1"/><path fill="#b90228" d="M80.5 39.5h2q.513 1.258 2 1 .347 2.941-2 6-2.024 2.175-5 2 2.823-1.106 2-3.5l-3-1.5q.424-1.184 1.5-2l3 4 1.5-1.5q.504-2.443-2-4.5" style="opacity:1"/><path fill="#bd0127" d="M53.5 36.5h3q-4.458 4.336 1 7 1.755-.342 4 1.5-.85 1.492-2 2.5-1.258.513-1 2-.974.456-2 1-1.794-.519 0-1.5a2.43 2.43 0 0 0-2-.5h-1q-.27-5.366 0-9.5-3.513-2.088 0-2.5" style="opacity:1"/><path fill="#93656d" d="M121.5 40.5v1q-2.5 1.5-4 4-1 0-1 1h-16l-1-2a47.7 47.7 0 0 0 16 .5q2.421-3.19 6-4.5" style="opacity:1"/><path fill="#bb0127" d="M168.5 44.5q1.494.128 2.5-1 .696.891.5 2-5.443 1.503 0 4.5a2.43 2.43 0 0 1-2 .5q-2.22-3.154-3.5 0-1.291-1.871-1.5-4 1.651-2.84 4-2" style="opacity:1"/><path fill="#bc0025" d="M159.5 44.5q2.19 2.884 5 2 .209 2.129 1.5 4 1.28-3.154 3.5 0-1.083.626-1.5 2a19.9 19.9 0 0 1-5.5-1q-.679-1.437-2-2.5l1-1q-2.594-2.778-3.5.5-1.224-1.985-3.5-2a7.5 7.5 0 0 1 2-3q-.017 1.412 1.5 2 1.147-.105 1.5-1" style="opacity:1"/><path fill="#bd0025" d="M181.5 41.5h1q.424 1.074 1 2.5 2.799-1.512 4 1.5-3.896.33 0 1.5a15.3 15.3 0 0 0-1.5 4.5q-.434-2.316-2-4 1.512 2.8-1.5 4 .305-2.835-2-4.5.255-2.355 1-5.5M67.5 55.5v1q-1.515-2.153-4-2.5l2-2a14.7 14.7 0 0 1-3-3.5q1.083-.626 1.5-2l4 4 1-1q-1.869 2.559-1.5 6" style="opacity:1"/><path fill="#bb0128" d="M116.5 47.5q-1.647 1.345 0 2.5-3.442 1.593-2 4.5-2.037.483-5 0-.166-3.222 2-1-.586-1.828 2-2.5-2.064-3.814-3.5-.5-1.964-3.587-3 0-2.316-4.146-3.5.5 1.128 1.005 1 2.5l-3-1.5q2-1 0-2 2.701-.476 1-2 6.982-.75 14-.5" style="opacity:1"/><path fill="#bb0126" d="M136.5 46.5q1.457 2.193-1 4-1.487-.258-2 1h-2q.517-1.774-2-2.5.834-.575 1-1.5a44 44 0 0 0-1-2q4.356-5.942 7 1" style="opacity:1"/><path fill="#bb0127" d="M204.5 47.5q1.494-.128 2.5 1 .112 3.653 2.5 2 .21 2.436-2 3.5.343.598 1 .5a2.43 2.43 0 0 1-.5 2q-1.466-1.911-2.5 0-1.15-1.008-2-2.5a6.54 6.54 0 0 0 3-3q-1.423-.925-2.5.5a2.43 2.43 0 0 1-.5-2q-.257-1.487 1-2" style="opacity:1"/><path fill="#bc0025" d="M219.5 43.5q.679 1.438 2 2.5-1.008 2.37 2 3.5v3q.098.658-.5 1a23.6 23.6 0 0 0-3.5-3q-1.712-1.388 0-2.5-5.508-3.051 0-4.5" style="opacity:1"/><path fill="#c9c3c6" d="M230.5 46.5h3q-2.145 1.556-5 2 .5-1.5 2-2" style="opacity:1"/><path fill="#b90228" d="M77.5 48.5a31 31 0 0 1-2 2q2.103 2.014-1 2.5 1.813 1.38 4 1.5-.655 2.361-3 3.5l1 1q-6.528.629-1 2a2.43 2.43 0 0 1-2 .5q-3.08-.147-5 2h-1v-2a51 51 0 0 1 2.5-4q1.462 3.567 2-1l1 1q2.742-2.854-.5-5.5l2-1q-2.163-.565-3-2.5.925-.165 1.5-1 1.462 3.567 2-1 1.063 1.32 2.5 2" style="opacity:1"/><path fill="#ba0127" d="M87.5 41.5q2.818-.16 1 1.5a11.4 11.4 0 0 1 1.5 3.5q.45-4.947 2.5-1v2a59 59 0 0 1-8 4q.544 1.026 1 2a5.73 5.73 0 0 1-3-1q1.902-1.93-1-3 1.725-1.847 3.5 0 .476-2.7 2-1a9.5 9.5 0 0 1 1.5-2.5q-2.584-2.271-1-4.5" style="opacity:1"/><path fill="#bd0025" d="M92.5 47.5q3.886 1.537 2.5 5 3.67-2.244 2.5 1-.465 1.857-1.5 0l-1 3q-.853-4.355-5-6a2.43 2.43 0 0 0-.5 2q-1.083.626-1.5 2-1.005-1.128-2.5-1a44 44 0 0 0-1-2 59 59 0 0 0 8-4" style="opacity:1"/><path fill="#ba0228" d="M97.5 44.5h2l1 2a19.6 19.6 0 0 0-2 3.5l2 1a12 12 0 0 1-1 3.5q-.513-1.258-2-1 1.17-3.244-2.5-1 1.386-3.463-2.5-5v-2q2.375.1 5-1" style="opacity:1"/><path fill="#be0025" d="M140.5 46.5q-.013 2.712 1.5 5l1-1q-.102 2.763.5 5-1.494.128-2.5-1a10.3 10.3 0 0 0-1.5-4q-2.285.44-4 0 2.457-1.807 1-4 .925-.165 1.5-1l1 4q.348-1.856 1.5-3" style="opacity:1"/><path fill="#ba0228" d="M143.5 46.5q-3.192 1.17-.5 3 2.349.84 4-2l1 2q1.077-1.425 2.5-.5a55 55 0 0 1-2 4.5q-1.817-1.16 0-2.5-1.866-.684-2.5 1.5l-1-1q-.45 2.349 1.5 4-1.083.626-1.5 2-.417-1.374-1.5-2-.602-2.237-.5-5l-1 1q-1.513-2.288-1.5-5 1.5-2 3 0" style="opacity:1"/><path fill="#bb0127" d="M154.5 46.5q2.276.015 3.5 2 .906-3.278 3.5-.5l-1 1q1.321 1.063 2 2.5-1.345 1.647-2.5 0-.926 1.424.5 2.5l-2 1q1.129 1.005 1 2.5a5.73 5.73 0 0 0-3-1q1.205-1.385.5-3-1.651-2.84-4-2a10.1 10.1 0 0 1-1.5-4q1.004-4.823 3-1M175.5 40.5q.424 1.185 1.5 2a56 56 0 0 1 4.5-1q-.745 3.145-1 5.5 2.305 1.665 2 4.5-1 0-1 1 .257 1.487-1 2 0-1-1-1-.129-1.495 1-2.5-4.446-1.26-1-3-.834-.575-1-1.5 1.61-1.125.5-3-1.61 1.17-3.5-.5-1.911-1.465 0-2.5" style="opacity:1"/><path fill="#b90227" d="M197.5 52.5q-1.893.61-4 1a26 26 0 0 1 4 4.5q-2.244.76-3.5-1.5-.575.835-1.5 1a12.9 12.9 0 0 0-.5-5q-1.561-1.456-2.5-3v-1q1.782.821 3.5 1 2.23-1.13.5-2.5 1.5-1 3 0-.174 1.902-1 4 .816 1.076 2 1.5" style="opacity:1"/><path fill="#a6868d" d="M52.5 48.5h2a5.73 5.73 0 0 1-1 3h-2a5.73 5.73 0 0 0 1-3" style="opacity:1"/><path fill="#bd0025" d="M109.5 54.5q-2.19-1.39-2.5-3-1.447.645-1.5 2h-1q.128-1.495-1-2.5 1.184-4.646 3.5-.5 1.036-3.587 3 0 1.436-3.314 3.5.5-2.586.672-2 2.5-2.166-2.222-2 1" style="opacity:1"/><path fill="#bb0127" d="M117.5 45.5q2.363 1.088 5 3-2.139 1.952-4 4.5a32.9 32.9 0 0 1 6 5.5v1q-1 0-1 1-1 0-1-1l-2-2q-1.91-4.531-6-3-1.442-2.907 2-4.5-1.647-1.155 0-2.5v-1q0-1 1-1M219.5 43.5q-5.508 1.449 0 4.5-1.712 1.112 0 2.5a23.6 23.6 0 0 1 3.5 3q.598-.342.5-1 3.577 4.068 7 8-1.987 2.18-2.5-1-1 2-2 0-.906 3.278-3.5.5l1-1a4.93 4.93 0 0 0-3-.5v3q-2.6-.762-1-2.5a2.43 2.43 0 0 0-2-.5q-.332-1.852-2-3 1.392-1.902.5-4-2.456 2-2.5 4-4.273-1.373-2-5l2-2q.626-1.083 2-1.5l-1-3a6.98 6.98 0 0 0 2.5-3.5q1.047 1.785 2.5 3" style="opacity:1"/><path fill="#b60727" d="M54.5 48.5a2.43 2.43 0 0 1 2 .5q-1.794.981 0 1.5 1.026-.544 2-1 2.265 1.206 4 3.5.733 2.328-2 3.5-2.374 3.012-3 7a16.9 16.9 0 0 0-1-8q-2.151-1.633-3-4a5.73 5.73 0 0 0 1-3" style="opacity:1"/><path fill="#ba0227" d="M135.5 50.5q1.715.44 4 0a10.3 10.3 0 0 1 1.5 4q1.006 1.128 2.5 1 1.083.626 1.5 2 .417-1.374 1.5-2 1.782-1.776 3.5 0l1-2q1.6 1.035 3.5 1.5-1.856.348-3 1.5-3.354 1.334-6 4 1.12.355 2.5 1 .705 1.615-.5 3a10.2 10.2 0 0 0-3 3q-.627-1.083-2-1.5l3-3a31.3 31.3 0 0 0-5-4.5q-2.506.252-4 2-3.729-1.443 0-2.5-.343-.598-1-.5 1.185-1.94 3-3.5-3.464 1.386-5-2.5.513-1.258 2-1" style="opacity:1"/><path fill="#bd0025" d="M147.5 45.5h1l3 2a10.1 10.1 0 0 0 1.5 4q2.349-.84 4 2 .705 1.615-.5 3 0 1-1 1-1.602-1.401-4-1 1.144-1.152 3-1.5a11.4 11.4 0 0 1-3.5-1.5l-1 2q-1.718-1.776-3.5 0-1.95-1.651-1.5-4l1 1q.634-2.184 2.5-1.5-1.817 1.34 0 2.5a55 55 0 0 0 2-4.5q-1.423-.925-2.5.5l-1-2q-1.651 2.84-4 2-2.692-1.83.5-3 2.362-1.242 4-1" style="opacity:1"/><path fill="#b90228" d="m187.5 45.5 2 2v2q-1.725-2.026-2 .5.48 2.48 3 3a9.5 9.5 0 0 0-1.5 2.5l-3-3q-1 4-2 0-1.155 1.647-2.5 0 0-1 1-1 3.012-1.2 1.5-4 1.566 1.684 2 4a15.3 15.3 0 0 1 1.5-4.5q-3.896-1.17 0-1.5" style="opacity:1"/><path fill="#c9bfc2" d="M226.5 49.5h1l1 4q-2.406-1.18-2-4" style="opacity:1"/><path fill="#b9182d" d="M59.5 47.5q.907 2.972 3 1 1.185 1.94 3 3.5l-2 2q2.485.347 4 2.5.338 5.335-2.5 1-1.148.105-1.5 1h-1q-1.487.258-2-1v-1q2.733-1.172 2-3.5-1.735-2.294-4-3.5-.258-1.487 1-2" style="opacity:1"/><path fill="#bd0024" d="M100.5 46.5h16v1q-7.018-.25-14 .5 1.701 1.524-1 2 2 1 0 2l3 1.5h1q1.988 3.895-3 4a10.2 10.2 0 0 1-3-3 12 12 0 0 0 1-3.5l-2-1a19.6 19.6 0 0 1 2-3.5" style="opacity:1"/><path fill="#bd0026" d="M131.5 51.5h2q1.536 3.886 5 2.5a14.7 14.7 0 0 0-3 3.5q-1.587-1.65-2.5-4a4.93 4.93 0 0 0-.5 3 13.1 13.1 0 0 0-6-2.5 4.93 4.93 0 0 1 3-.5q1.5-.5 2-2" style="opacity:1"/><path fill="#bd0025" d="M171.5 45.5a12.6 12.6 0 0 0 2.5 4q1-2 2 0 .565-2.163 2.5-3 .166.925 1 1.5-3.446 1.74 1 3-1.129 1.005-1 2.5-.925-.165-1.5-1-.417 1.374-1.5 2-1.647-1.345 0-2.5-3.936-3.538-2 1l-2 1q2.487 1.088 1.5 3.5l-1-2q.102 2.763-.5 5-1 0-1-1 .13-4.647-1.5-1-.598-.342-.5-1 1.779-3.562 0-7a2.43 2.43 0 0 0 2-.5q-5.443-2.997 0-4.5M200.5 53.5v1a31 31 0 0 1-2 2q1.543-.306 3 1.5-.178 1.718-1 3.5-2.317-.305-4-2a7.25 7.25 0 0 0-2.5 2q-.513-3.18-2.5-1-1.972-2.093 1-3 .925-.165 1.5-1 1.256 2.26 3.5 1.5a26 26 0 0 0-4-4.5 32 32 0 0 0 4-1q2.093-1.972 3 1" style="opacity:1"/><path fill="#b19ba0" d="M239.5 53.5q2.647-1.442 6-1a108 108 0 0 1-2.5 16q-2.786 1-4.5-2a5.6 5.6 0 0 1 3 1l1-1.5q.947-5.775 2-11.5-2.318-1.428-5-1" style="opacity:1"/><path fill="#b90227" d="m89.5 52.5 2 3q-4.26.46-2.5 4l-3-3q-.565 2.163-2.5 3 .255-1.983-1-3.5 2.163-.565 3-2.5 1.495-.128 2.5 1 .417-1.374 1.5-2" style="opacity:1"/><path fill="#bb0127" d="M97.5 53.5q1.487-.258 2 1a10.2 10.2 0 0 0 3 3q-1.257.513-1 2-1.437-.68-2.5-2-1.524 1.7-2-1L92.5 60q1.884.625 2 2.5-1.083.626-1.5 2-.575-.835-1.5-1a82 82 0 0 0-3-2.5l5-3q-1.32-1.062-2-2.5l-2-3a2.43 2.43 0 0 1 .5-2q4.147 1.645 5 6l1-3q1.035 1.857 1.5 0" style="opacity:1"/><path fill="#c8b7ba" d="M228.5 53.5q2.29-.11 3 2-2.29.11-3-2" style="opacity:1"/><path fill="#9f5f66" d="M51.5 51.5q.57 3.297-2 5 .444-2.855 2-5" style="opacity:1"/><path fill="#bb0127" d="M82.5 52.5q1.337.915 3 1-.837 1.935-3 2.5 1.255 1.517 1 3.5-1.857.465 0 1.5l-5 2.5v-1a31.7 31.7 0 0 0-.5-5q1.974 3.792 3.5 0-1.032-2.032-3-3 .939-1.543 2.5-3 .575.835 1.5 1" style="opacity:1"/><path fill="#bd0025" d="M120.5 57.5q-2.841 3.198-4.5-2l-3 3q-1.006-1.128-2.5-1-1.144-1.152-3-1.5 1.373-.417 2-1.5 2.963.483 5 0 4.09-1.531 6 3" style="opacity:1"/><path fill="#bc0026" d="M122.5 48.5v1q3.847 3.072 4 7.5-.504 1.545-2 1.5a32.9 32.9 0 0 0-6-5.5q1.861-2.548 4-4.5" style="opacity:1"/><path fill="#ba0227" d="M122.5 49.5q1.438.68 2.5 2l1-2a19.6 19.6 0 0 1 3.5 4 4.93 4.93 0 0 0-3 .5 13.1 13.1 0 0 1 6 2.5q.16 2.818-1.5 1l-1.5 1.5 4 1-1 1a19.6 19.6 0 0 0 2 3.5q-4.169 4.323-2-1.5-2.586-.672-2-2.5-1.24 2.493-3.5 4-2.345-2.666-2.5-5v-1q1.496.045 2-1.5-.153-4.428-4-7.5" style="opacity:1"/><path fill="#ae7b7f" d="M238.5 53.5q-.5 1.5-2 2h-1q.71-2.11 3-2" style="opacity:1"/><path fill="#bd0025" d="M71.5 48.5q.837 1.935 3 2.5l-2 1q3.242 2.646.5 5.5l-1-1q-.538 4.567-2 1a51 51 0 0 0-2.5 4q-.513-1.258-2-1-.5-1.5-2-2 .352-.895 1.5-1 2.838 4.335 2.5-1v-1q1.81-1.033 4-.5l-2-2a36 36 0 0 1 2-4.5" style="opacity:1"/><path fill="#bb0229" d="M176.5 54.5q-1.248 1.242 1 2.5-3.803 1.392-3 5.5-.925.165-1.5 1 .163-1.903-.5-3 .602-2.237.5-5l1 2q.987-2.412-1.5-3.5l2-1q-1.936-4.538 2-1-1.647 1.155 0 2.5" style="opacity:1"/><path fill="#bd0025" d="M202.5 49.5h1a2.43 2.43 0 0 0 .5 2q1.077-1.425 2.5-.5a6.54 6.54 0 0 1-3 3q.85 1.492 2 2.5.657-.098 1 .5a9.5 9.5 0 0 0-1.5 2.5l-3.5-3.5q1.818-1.66-1-1.5v-1a2.43 2.43 0 0 0 2-.5q-1.937-1.937 0-3.5" style="opacity:1"/><path fill="#ba0228" d="M200.5 54.5q2.818-.16 1 1.5l3.5 3.5a9.5 9.5 0 0 1 1.5-2.5q-.343-.598-1-.5 1.034-1.911 2.5 0a2.43 2.43 0 0 0 .5-2q3.668 1.302 7.5 5 .575-.835 1.5-1a4.93 4.93 0 0 1-.5 3q-1.035-1.857-1.5 0-1.344 1.509-2 0-1.647-1.345 0-2.5-1.578-1.68-3.5-1.5-1.512 2.639-4.5 3.5 3.587 1.963 0 3 .834.575 1 1.5-1.437.68-2.5 2l-1-4q-2.5 1.26-.5-1.5a2.43 2.43 0 0 0-2-.5q.822-1.782 1-3.5-1.457-1.806-3-1.5a31 31 0 0 0 2-2" style="opacity:1"/><path fill="#bd0026" d="M209.5 50.5h2q-2.273 3.627 2 5 .044-2 2.5-4 .892 2.098-.5 4 1.668 1.148 2 3-.925.165-1.5 1-3.832-3.698-7.5-5-.657.098-1-.5 2.21-1.064 2-3.5" style="opacity:1"/><path fill="#bd0025" d="M156.5 56.5a5.73 5.73 0 0 1 3 1q2.511 4.13 5 1 1.443 3.729 2.5 0l1.5 1.5a36 36 0 0 0-4.5 3.5q-.513-3.18-2.5-1a2.43 2.43 0 0 0-.5-2q-1 2-2 0-1 4-2 0-.417 1.374-1.5 2-.679-1.437-2-2.5 2.517-.726 2-2.5 1 0 1-1" style="opacity:1"/><path fill="#bc0126" d="M189.5 49.5q.939 1.543 2.5 3 .74 2.45.5 5-2.972.907-1 3-.679 1.438-2 2.5a14.7 14.7 0 0 1 3 3.5 6.85 6.85 0 0 0 1 4q-.686 1.195-2 1-2.17-1.67-5-.5 2.41 1.574 2 4.5-2-4-6-6a15.4 15.4 0 0 0-2-4.5q.105-1.148 1-1.5 1.46-1.936 3 0 1.817-1.16 0-2.5l2-1q-2-2 0-4-4.098-1.357-2 2-.445 4.322-3 2 .834-.575 1-1.5-.04-2.55-2-4 1.257-.513 1-2 1.345 1.647 2.5 0 1 4 2 0l3 3a9.5 9.5 0 0 1 1.5-2.5q-2.52-.52-3-3 .275-2.526 2-.5" style="opacity:1"/><path fill="#bb2933" d="M223.5 49.5q1.083.626 1.5 2 .417-1.374 1.5-2-.406 2.82 2 4 .71 2.11 3 2h5q-1.422 2.217-4 3-1.857.465 0 1.5a2.43 2.43 0 0 1-2 .5 2071 2071 0 0 0-7-8z" style="opacity:1"/><path fill="#bb0227" d="M238.5 53.5h1q2.682-.428 5 1a601 601 0 0 0-2 11.5l-1 1.5a5.6 5.6 0 0 0-3-1q-1.478-2.862-5-3-1.501-1.933.5-4 1.217 2.19 2.5 1-1.23-2.417-4-2 2.578-.783 4-3 1.5-.5 2-2" style="opacity:1"/><path fill="#bd0025" d="M91.5 55.5q.68 1.438 2 2.5l-5 3q1.605 1.278 3 2.5-1.487-.258-2 1-2.146-.57-2.5-3l-2 2q-3.792-1.528-4.5 3l-2-2v-1l5-2.5q-1.857-1.035 0-1.5 1.935-.837 2.5-3l3 3q-1.76-3.54 2.5-4" style="opacity:1"/><path fill="#bd0025" d="M101.5 59.5q.627 1.083 2 1.5-.834.575-1 1.5-1.774-.517-2.5 2-2.23-1.13-.5-2.5-4.118-4.088-3 0-1.46 3.997-2 .5-.116-1.875-2-2.5l4.5-3.5q.476 2.7 2 1 1.063 1.32 2.5 2" style="opacity:1"/><path fill="#bc0126" d="M169.5 50.5q1.779 3.438 0 7-1.782-.821-3.5-1-.417 1.374-1.5 2-2.489 3.13-5-1 .129-1.495-1-2.5l2-1q-1.426-1.076-.5-2.5 1.155 1.647 2.5 0 2.757.903 5.5 1 .417-1.374 1.5-2" style="opacity:1"/><path fill="#ba0228" d="M169.5 57.5q-.098.658.5 1 1.63-3.647 1.5 1-2.322.481-2 3-1.345 1.647-2.5 0-1.08 2.334-3.5 3l-2-3q1.987-2.18 2.5 1a36 36 0 0 1 4.5-3.5l-1.5-1.5q-1.057 3.729-2.5 0 1.083-.626 1.5-2 1.718.179 3.5 1" style="opacity:1"/><path fill="#bd162b" d="M51.5 51.5h2q.849 2.367 3 4a16.9 16.9 0 0 1 1 8l-4-1q-1.144-2.643-4-3-1.687-1.728 0-3 2.57-1.703 2-5" style="opacity:1"/><path fill="#bd0025" d="M144.5 67.5q-2.02 1.007-3.5 0a2.43 2.43 0 0 0-.5 2q-5.664-2.23 1-3.5-2-1 0-2-3.268-.663-2-3a4.93 4.93 0 0 0-3-.5q1.494-1.748 4-2a31.3 31.3 0 0 1 5 4.5l-3 3q1.373.417 2 1.5" style="opacity:1"/><path fill="#bb0125" d="M179.5 53.5q1 0 1 1 1.96 1.45 2 4-1.437-.68-2.5-2a9.5 9.5 0 0 1-1.5 2.5 14.7 14.7 0 0 1 3 3.5q-2.317 1.095-2.5 4-1.062-1.32-2.5-2 2.436-4.287-2-2-.803-4.108 3-5.5-2.248-1.258-1-2.5 1.083-.626 1.5-2 .575.835 1.5 1" style="opacity:1"/><path fill="#b3989f" d="M49.5 59.5q2.856.357 4 3-2.856-.357-4-3" style="opacity:1"/><path fill="#a68084" d="M62.5 58.5h1q1.5.5 2 2-2.29.11-3-2" style="opacity:1"/><path fill="#bd0025" d="M78.5 54.5q1.968.968 3 3-1.526 3.792-3.5 0 .463 2.627.5 5-2.64 1.142-5-1a2.43 2.43 0 0 0 2-.5q-5.528-1.371 1-2l-1-1q2.345-1.139 3-3.5M151.5 56.5q-1.81 2.07 1 3.5-1.457 1.806-3 1.5.432 2.04 1 4-.925.165-1.5 1-.417-1.373-1.5-2 1.205-1.385.5-3a21 21 0 0 0-2.5-1q2.646-2.666 6-4" style="opacity:1"/><path fill="#bb0126" d="M171.5 59.5q0 1 1 1 .663 1.097.5 3 .575-.835 1.5-1 4.436-2.287 2 2-3.324 4.458-8 2.5 2.305-2.202 1-4.5-.322-2.519 2-3" style="opacity:1"/><path fill="#bd0025" d="M213.5 61.5q-2.11 3.81-3.5-1-1.046 3.126-3.5 5-.166-.925-1-1.5 3.587-1.037 0-3 2.988-.861 4.5-3.5 1.922-.18 3.5 1.5-1.647 1.155 0 2.5" style="opacity:1"/><path fill="#b9aaad" d="M60.5 56.5v1q-1.453 3.16-1 7-3.765.67-6-2l4 1q.626-3.988 3-7" style="opacity:1"/><path fill="#b06e6d" d="M65.5 60.5q1.487-.258 2 1v2q-1.352-1.185-2-3" style="opacity:1"/><path fill="#bb0126" d="M109.5 54.5q-.627 1.083-2 1.5 1.856.348 3 1.5.116 1.875 2 2.5-2.425 1.638-3 4.5-3.247-.225-7-2 .166-.925 1-1.5-1.373-.417-2-1.5-.257-1.487 1-2 4.988-.105 3-4 .053-1.356 1.5-2 .31 1.61 2.5 3" style="opacity:1"/><path fill="#b90227" d="m120.5 57.5 2 2q-3.195 3.52-6.5-1-5.035 1.864.5 2.5a23 23 0 0 1-5 2q2.701.476 1 2-1.615.705-3-.5.575-2.862 3-4.5-1.884-.625-2-2.5 1.494-.128 2.5 1l3-3q1.659 5.198 4.5 2" style="opacity:1"/><path fill="#ba0227" d="M181.5 63.5v-1a14.7 14.7 0 0 0-3-3.5 9.5 9.5 0 0 0 1.5-2.5q1.063 1.32 2.5 2-.166.925-1 1.5 2.555 2.322 3-2-2.098-3.357 2-2-2 2 0 4l-2 1q1.817 1.34 0 2.5-1.54-1.936-3 0" style="opacity:1"/><path fill="#be0025" d="M217.5 58.5a2.43 2.43 0 0 1 2 .5q-1.6 1.738 1 2.5v1q-1.496-.045-2 1.5.786 2.316 0 4a2.43 2.43 0 0 1-2 .5q-.406-2.895-3-4 1.573-.147 3.5 0 .358-1.932-1.5-3 .465-1.857 1.5 0a4.93 4.93 0 0 0 .5-3" style="opacity:1"/><path fill="#bb0127" d="M232.5 58.5q2.77-.417 4 2-1.283 1.19-2.5-1-2.001 2.067-.5 4a2.43 2.43 0 0 0-2 .5l3 2.5a6.85 6.85 0 0 0-1 4q-3.222.165-1-2a10.8 10.8 0 0 1-2.5-3q-.417 1.373-1.5 2-1.647-1.345 0-2.5l-2-2q2.668 1.47 5-1-.834-.575-1-1.5a2.43 2.43 0 0 0 2-.5q-1.857-1.035 0-1.5" style="opacity:1"/><path fill="#b90228" d="M151.5 56.5q2.398-.401 4 1 .517 1.774-2 2.5 1.321 1.063 2 2.5a8.44 8.44 0 0 0-4 .5 22.8 22.8 0 0 0 5 4q.449 1.61 0 3.5h-1q-.679-1.437-2-2.5 1.794-.981 0-1.5a6.8 6.8 0 0 0-1.5 3q-.615-2.1-1.5-4a56 56 0 0 1-1-4q1.543.306 3-1.5-2.81-1.43-1-3.5" style="opacity:1"/><path fill="#bc0126" d="M73.5 61.5q2.36 2.142 5 1v2q-.412 3.513-2.5 0-.582 1.392-2 2a13 13 0 0 0-5.5-1v-2q1.92-2.147 5-2" style="opacity:1"/><path fill="#ba0228" d="M102.5 62.5q3.753 1.775 7 2v2a5.73 5.73 0 0 0-3 1q.059-1.884-1.5-3-2.49-.265-5 2-2.565-4.818-4.5-.5 2.81 1.43 1 3.5-1.588-1.65-2.5-4a14.4 14.4 0 0 0-4.5 0v-1q.513-1.258 2-1 .925.165 1.5 1 .417-1.374 1.5-2 .54 3.497 2-.5-1.118-4.088 3 0-1.73 1.37.5 2.5.726-2.517 2.5-2" style="opacity:1"/><path fill="#bd0025" d="M122.5 59.5q0 1 1 1l-1 2q-6.718 1.24-1 6.5-1.128 1.005-1 2.5-1.645-2.404-4-4.5l1-1q-2.706-2.718-3 .5-1.257.513-1 2-2.404 1.765-4-.5 3.895-1.17 0-1.5v-2q1.385 1.205 3 .5 1.701-1.524-1-2a23 23 0 0 0 5-2q-5.535-.636-.5-2.5 3.305 4.52 6.5 1" style="opacity:1"/><path fill="#bc0025" d="M124.5 59.5q.155 2.334 2.5 5 2.26-1.507 3.5-4-.586 1.828 2 2.5-2.169 5.823 2 1.5 2 0 2 2-1.096.663-3 .5-1.129 1.005-1 2.5 0 3-3 3 .642-2.857-2-5.5l1-1q-2.247-.877-3 1.5-1.494.128-2.5-1-.093-2.422-.5-4l1-2q0-1 1-1" style="opacity:1"/><path fill="#bc0126" d="M135.5 57.5q.657-.098 1 .5-3.729 1.057 0 2.5.538 2.807 3 4.5l-3 1.5q0-2-2-2a19.6 19.6 0 0 1-2-3.5l1-1-4-1 1.5-1.5q1.66 1.818 1.5-1a4.93 4.93 0 0 1 .5-3q.913 2.35 2.5 4" style="opacity:1"/><path fill="#bb0126" d="m161.5 62.5 2 3q-2.02 1.007-3.5 0 .854 3.29-1 6-1.006-1.128-2.5-1 .449-1.89 0-3.5a22.8 22.8 0 0 1-5-4 8.44 8.44 0 0 1 4-.5q1.083-.626 1.5-2 1 4 2 0 1 2 2 0 .696.891.5 2" style="opacity:1"/><path fill="#bb0127" d="M200.5 61.5q-1.65 1.588-4 2.5 2.547 2.104 1.5 5.5 2.5-1.26.5 1.5.816 1.076 2 1.5v2l-2 1q-4.094-3.798-6-9a14.7 14.7 0 0 0-3-3.5q1.321-1.062 2-2.5 1.987-2.18 2.5 1a7.25 7.25 0 0 1 2.5-2q1.683 1.695 4 2" style="opacity:1"/><path fill="#bc0125" d="M200.5 61.5a2.43 2.43 0 0 1 2 .5q-2 2.76.5 1.5l1 4q1.063-1.32 2.5-2-1.1 2.625-1 5-3.08-.147-5 2-1.184-.424-2-1.5 2-2.76-.5-1.5 1.047-3.396-1.5-5.5 2.35-.912 4-2.5" style="opacity:1"/><path fill="#bc0026" d="M230.5 60.5q.166.925 1 1.5-2.332 2.47-5 1l2 2q-1.647 1.155 0 2.5-.657-.098-1 .5 5.007 2.777 4 8.5-2.317-1.095-2.5-4a9.2 9.2 0 0 1-4.5 2q-1.061-2.817-3.5-5-.417 1.373-1.5 2-1.81-2.07 1-3.5 2.176.394 4-.5.31-3.165-2.5-6l-1 2q-.598-.342-.5-1v-4a4.93 4.93 0 0 1 3 .5l-1 1q2.594 2.778 3.5-.5 1 2 2 0 .513 3.18 2.5 1" style="opacity:1"/><path fill="#bb6060" d="M233.5 63.5q3.522.138 5 3-1.345-1.647-2.5 0a128 128 0 0 0-2.5 9v-5a6.85 6.85 0 0 1 1-4l-3-2.5a2.43 2.43 0 0 1 2-.5" style="opacity:1"/><path fill="#ba0228" d="M213.5 61.5q.656 1.509 2 0 1.858 1.068 1.5 3-1.927-.147-3.5 0-2.07 1.81-3.5-1a29.6 29.6 0 0 1-2.5 4.5q1.823 3.144 2.5-.5 1 4 2 0a9.5 9.5 0 0 0 2.5 1.5q-1.647 1.155 0 2.5-2.548.18-5 1-2.506-.252-4-2-.1-2.375 1-5 2.454-1.874 3.5-5 1.39 4.81 3.5 1" style="opacity:1"/><path fill="#b90227" d="m78.5 64.5 2 2q-2.865 3.66-5 7-1.717-1.94 1-3.5a9.5 9.5 0 0 1-2.5-1.5q-1.574 2.41-4.5 2a20.7 20.7 0 0 0-1-5q2.85-.1 5.5 1 1.418-.608 2-2 2.088 3.513 2.5 0" style="opacity:1"/><path fill="#ba0127" d="M89.5 64.5v1q-.424 1.074-1 2.5 1.824 3.144 2.5-.5.78 2.684-1 5-.575-.835-1.5-1l-2-1q-1.913-3.345-6-4 .708-4.528 4.5-3l2-2q.354 2.43 2.5 3" style="opacity:1"/><path fill="#ba0227" d="M122.5 62.5q.407 1.578.5 4 1.006 1.128 2.5 1-2.153 1.515-2.5 4-1.455-.186-2.5 0-.128-1.495 1-2.5-5.718-5.26 1-6.5" style="opacity:1"/><path fill="#bc0026" d="M147.5 64.5q1.083.627 1.5 2 .575-.835 1.5-1 .885 1.9 1.5 4a6.8 6.8 0 0 1 1.5-3q1.794.519 0 1.5 1.321 1.063 2 2.5v1q-4.917-.542-9.5 0-.926-1.424.5-2.5-1.373-.417-2-1.5a10.2 10.2 0 0 1 3-3" style="opacity:1"/><path fill="#ba0228" d="M181.5 62.5v1q-.895.352-1 1.5a15.4 15.4 0 0 1 2 4.5q-2.434-1.485-3 2-2.435-.21-3.5 2-.417-1.373-1.5-2-.362-5.248 2.5-1a9.5 9.5 0 0 1 1.5-2.5q-1.984-1.224-2-3.5 1.438.68 2.5 2 .183-2.905 2.5-4" style="opacity:1"/><path fill="#bb0127" d="M219.5 71.5q-2.466-.465-3-3a2.43 2.43 0 0 0 2-.5q.786-1.684 0-4 .504-1.545 2-1.5-.098.658.5 1l1-2q2.81 2.835 2.5 6-1.824.894-4 .5-2.81 1.43-1 3.5" style="opacity:1"/><path fill="#bfadb2" d="M67.5 63.5h1v2a20.7 20.7 0 0 1 1 5q-2.495-2.908-2-7" style="opacity:1"/><path fill="#bc0025" d="M96.5 69.5q.5 1.5 2 2 2.29-.11 3 2-1.875.116-2.5 2-1.524-1.7-2 1-2.23-1.13-.5-2.5a9.5 9.5 0 0 1-2.5-1.5l-3 3-1-2q-.598.342-.5 1-2.972-.907-1-3 .925.165 1.5 1 1.78-2.316 1-5-.676 3.644-2.5.5.576-1.426 1-2.5 2.325-.354 4.5 0 .912 2.35 2.5 4" style="opacity:1"/><path fill="#ba0228" d="M136.5 60.5a4.93 4.93 0 0 1 3 .5q-1.268 2.337 2 3-2 1 0 2-6.664 1.27-1 3.5-2 1.5 0 3-2.601-1.593-5 0v-1q.13-4.647-1.5-1-.575-.835-1.5-1-.129-1.495 1-2.5 1.904.163 3-.5l3-1.5q-2.462-1.694-3-4.5" style="opacity:1"/><path fill="#bd0026" d="M80.5 66.5q4.087.655 6 4-1.89-.449-3.5 0a34 34 0 0 1-1.5 7.5l3 1.5q1.532.752.5 2-1.076-1.425-2.5-.5-1.174 3.177-4 4.5-2.41-4.783 2-8-1.47-2.667 1-5-.084-1.855-1.5-3 .926 2.392-1 4-2.5-1.26-.5 1.5L77 76.5q-.348-1.855-1.5-3 2.135-3.34 5-7" style="opacity:1"/><path fill="#bc0026" d="M169.5 62.5q1.305 2.298-1 4.5 4.676 1.958 8-2.5.016 2.276 2 3.5a9.5 9.5 0 0 0-1.5 2.5q-2.862-4.248-2.5 1-2.818-.16-1 1.5-1.278 2.592-3 .5-1.812-1.1-4-1l-1.5-3-3 3-1.5-1.5q3.16-1.895 3-5.5 2.42-.666 3.5-3 1.155 1.647 2.5 0" style="opacity:1"/><path fill="#b7102a" d="M233.5 70.5v6l-2 2v-2q1.007-5.723-4-8.5.343-.598 1-.5 1.083-.627 1.5-2a10.8 10.8 0 0 0 2.5 3q-2.222 2.165 1 2" style="opacity:1"/><path fill="#bd0026" d="M106.5 67.5q-1.774-.516-2.5 2-1-4-2 0l-1-2a16.6 16.6 0 0 1-2.5 4q-1.5-.5-2-2 1.81-2.07-1-3.5 1.935-4.318 4.5.5 2.51-2.265 5-2 1.559 1.116 1.5 3" style="opacity:1"/><path fill="#ba0227" d="M109.5 66.5q3.895.33 0 1.5 1.596 2.265 4 .5.166.925 1 1.5-1.373.417-2 1.5-1.494-.128-2.5 1l-2-2q-1.112 1.71-2.5 0-4.051.714-1.5 3 2.369-1.008 3.5 2-1.494-.128-2.5 1a31 31 0 0 1-3.5-3q-.71-2.11-3-2a16.6 16.6 0 0 0 2.5-4l1 2q1-4 2 0 .726-2.516 2.5-2a5.73 5.73 0 0 1 3-1" style="opacity:1"/><path fill="#ba0427" d="m86.5 70.5 2 1q-1.972 2.093 1 3 .015 2.276 2 3.5-1.373.417-2 1.5-.442 2.885-2.5 5-1-4-2 0-1.61-1.17-3.5.5 1.855.348 3 1.5h-5q-1 0-1-1 2.826-1.323 4-4.5 1.424-.925 2.5.5 1.032-1.248-.5-2l-3-1.5a34 34 0 0 0 1.5-7.5q1.61-.449 3.5 0" style="opacity:1"/><path fill="#ba0227" d="M163.5 65.5q.16 3.605-3 5.5l1.5 1.5 3-3 1.5 3q-1.815.648-3 2-3.42.22-7-1l-1-2v-1h1q1.494-.128 2.5 1 1.854-2.71 1-6 1.48 1.007 3.5 0" style="opacity:1"/><path fill="#bc0026" d="M205.5 70.5q1.494 1.748 4 2a20.2 20.2 0 0 1 5-1 5.73 5.73 0 0 0-1 3q-2.849-.817-5 2-1.807-2.456-4-1-1.443-3.729-2.5 0-.575-.835-1.5-1v-2q1.92-2.147 5-2" style="opacity:1"/><path fill="#bc0126" d="M120.5 71.5q1.045-.186 2.5 0 .347-2.485 2.5-4 3.729 1.443 0 2.5l2 1q-1.068 3.04-3 3 1.61.31 3 2.5-2.224 1.11-5 1-2.643-1.144-3-4a26.7 26.7 0 0 0-5-7q.294-3.218 3-.5l-1 1q2.355 2.096 4 4.5" style="opacity:1"/><path fill="#ba0126" d="M135.5 71.5v1q1 3.26 3.5 1 1.588.195 2.5 1.5a14.4 14.4 0 0 0 0 4.5q-3.193.024-5.5-2-1.21 5.923-1.5 0-.745-3.145-1-5.5a2.43 2.43 0 0 1 2-.5" style="opacity:1"/><path fill="#bc0126" d="M174.5 71.5q1.083.627 1.5 2 1.065-2.21 3.5-2 2.48 1.657 5 .5-1.454 2.637-3.5 1.5a2.43 2.43 0 0 0-.5 2q-.166.925-1 1.5a11.67 11.67 0 0 1 6 2.5 16.5 16.5 0 0 0-6 1.5q1.374.417 2 1.5v2q-1.46 2.226-4 1.5l1-1q-1.321-1.062-2-2.5a5.58 5.58 0 0 0-1-3q1.824-.894 4-.5l-3.5-3.5q-3.001 5.886-5.5 0v-2q1.722 2.092 3-.5-1.818-1.66 1-1.5" style="opacity:1"/><path fill="#bd0025" d="M182.5 69.5q4 2 6 6v1q-2.361-.655-3.5-3-1.593 3.442-4.5 2a2.43 2.43 0 0 1 .5-2q2.046 1.137 3.5-1.5-2.52 1.157-5-.5.566-3.485 3-2M213.5 64.5q2.594 1.105 3 4 .534 2.535 3 3 3.192 1.17.5 3-1-2-2 0l-2-4q-.575.835-1.5 1-1.647-1.345 0-2.5a9.5 9.5 0 0 1-2.5-1.5q-1 4-2 0-.677 3.644-2.5.5 1.44-2.13 2.5-4.5 1.43 2.81 3.5 1" style="opacity:1"/><path fill="#bb0127" d="M112.5 71.5q7.068.876 1 4.5a7.3 7.3 0 0 0 3 2l-2 1 1 5q-2.072 3.445-3 5.5a12.9 12.9 0 0 0-.5-5q-1.003 3.792-2.5 0 2.09-1.78-.5-2-3.748 2.013-.5 3.5-.722 1.512-.5 3.5-2.425-1.56-3.5-3 1.647-1.345 0-2.5 2.701-.476 1-2 3.587-1.037 0-3a18.5 18.5 0 0 0 2-3.5q-1.131-3.008-3.5-2-2.551-2.286 1.5-3 1.388 1.71 2.5 0l2 2q1.006-1.128 2.5-1M129.5 72.5q.627 1.083 2 1.5-1.255 1.517-1 3.5a5.73 5.73 0 0 0-3-1q-1.39-2.19-3-2.5 1.932.04 3-3l-2-1q3.729-1.057 0-2.5.753-2.377 3-1.5l-1 1q2.642 2.643 2 5.5" style="opacity:1"/><path fill="#bd0026" d="M135.5 71.5a2.43 2.43 0 0 0-2 .5q.255 2.355 1 5.5h-4q-.255-1.983 1-3.5-1.373-.417-2-1.5 3 0 3-3 .925.165 1.5 1 1.63-3.647 1.5 1" style="opacity:1"/><path fill="#ba0227" d="M144.5 67.5q.627 1.083 2 1.5-1.426 1.076-.5 2.5 4.583-.542 9.5 0l1 2q-.762 2.6-2.5 1l-1.5 3v1q-.925.165-1.5 1-1.665-2.306-4.5-2-.16-2.818 1.5-1 1.25-2.25 3.5-3.5-3.147-.02-5.5.5-2.148-2.908-5.5-4a2.43 2.43 0 0 1 .5-2q1.48 1.007 3.5 0" style="opacity:1"/><path fill="#bd0026" d="M166.5 72.5q2.188-.1 4 1v2q-3.513.412 0 2.5-1.129 1.005-1 2.5-2.6-.762-1-2.5a10.1 10.1 0 0 0-4-1.5q-3.266 1.506-1-2 1.185-1.352 3-2" style="opacity:1"/><path fill="#bd0025" d="M140.5 69.5q3.352 1.092 5.5 4 2.353-.52 5.5-.5-2.25 1.25-3.5 3.5-1.66-1.818-1.5 1-1.587-1.65-2.5-4l-1 1q-1.062-1.32-2.5-2-2-1.5 0-3" style="opacity:1"/><path fill="#ba0227" d="M224.5 74.5q1.663 1.185 4 1.5-1.884.625-2 2.5-1.657-1.65-4-2-1.083.627-1.5 2-1.401-5.197-4.5-1 2.451.018 4.5 3-.533 2.19.5 4-1 0-1 1a2.43 2.43 0 0 0-2 .5q.082 3.438 0 6.5-1.345-1.647-2.5 0 .745-2.547-.5-5 .519-1.794 1.5 0 1.026-1.926-.5-3.5l3-3q-3.478-.337-6-4 3.729-1.057 0-2.5a5.73 5.73 0 0 1 1-3q.925-.165 1.5-1l2 4q1-2 2 0 2.692-1.83-.5-3 1.083-.627 1.5-2 2.439 2.183 3.5 5" style="opacity:1"/><path fill="#9e888e" d="M72.5 73.5q1.185.424 2 1.5-2.337.315-4 1.5-1.184-.424-2-1.5 2.337-.315 4-1.5" style="opacity:1"/><path fill="#bd0026" d="M114.5 66.5a26.7 26.7 0 0 1 5 7q-1.214 1.453-3 2.5 1.724 2.406 0 5l.5 1.5 3-3 1.5 1.5q-1.25 3.122 0 6.5a4.93 4.93 0 0 1-3-.5q1.794-.981 0-1.5a7.25 7.25 0 0 0-2.5 2l-1-1a8.4 8.4 0 0 0-.5 4v1a2.43 2.43 0 0 1-.5 2q-1-2-2 0a2.43 2.43 0 0 1-.5-2q-4.242-5.547 1-2 .928-2.055 3-5.5l-1-5 2-1a7.3 7.3 0 0 1-3-2q6.068-3.624-1-4.5.627-1.083 2-1.5-.834-.575-1-1.5-.257-1.487 1-2" style="opacity:1"/><path fill="#b71c2d" d="M75.5 73.5q1.152 1.145 1.5 3l1.5-1.5q-2-2.76.5-1.5 1.926-1.608 1-4 1.416 1.145 1.5 3-2.47 2.333-1 5-4.41 3.217-2 8-2.5-1.5-4-4 0-2-2-2l-2-3q1.663-1.185 4-1.5-.816-1.076-2-1.5a6.54 6.54 0 0 1-3-3q2.926.41 4.5-2a9.5 9.5 0 0 0 2.5 1.5q-2.717 1.56-1 3.5" style="opacity:1"/><path fill="#bb0227" d="M101.5 73.5q-1.647 1.345 0 2.5l-2 1q2.925-.185 5 3a6.54 6.54 0 0 1-3 3 4.45 4.45 0 0 1 2 1.5q-2.545 1.296-3.5 4-1.062-1.32-2.5-2 3.192-1.17.5-3-2.097.825-4 1l-1-2q-1.574 1.526-3.5.5 1.936-1.937 0-3.5.627-1.083 2-1.5-1.985-1.224-2-3.5-.098-.658.5-1l1 2 3-3a9.5 9.5 0 0 0 2.5 1.5q-1.73 1.37.5 2.5.476-2.7 2-1 .625-1.884 2.5-2" style="opacity:1"/><path fill="#bd0025" d="M101.5 73.5a31 31 0 0 0 3.5 3q1.006-1.128 2.5-1a18.5 18.5 0 0 1-2 3.5q3.587 1.963 0 3 1.701 1.524-1 2 1.647 1.155 0 2.5-.465 1.857-1.5 0a2.43 2.43 0 0 0-.5 2q-1.863 3.015-5 0-1.509-.657 0-2 1.438.68 2.5 2 .955-2.704 3.5-4a4.45 4.45 0 0 0-2-1.5 6.54 6.54 0 0 0 3-3q-2.075-3.185-5-3l2-1q-1.647-1.155 0-2.5" style="opacity:1"/><path fill="#bb0126" d="M140.5 72.5q1.438.68 2.5 2l1-1q.913 2.35 2.5 4 .679 1.438 2 2.5l-1 5q.816 1.076 2 1.5-.513 1.257-2 1-1.083.627-1.5 2-1.236-3.63-3.5-6-1.527 1.039-3 2a10.1 10.1 0 0 1-4-1.5q2.25-1.25 3.5-3.5 1.511 3.362 2.5-1a14.4 14.4 0 0 1 0-4.5q-.912-1.305-2.5-1.5-2.5 2.26-3.5-1 2.399-1.593 5 0" style="opacity:1"/><path fill="#bd0026" d="M156.5 73.5q3.58 1.22 7 1-2.266 3.506 1 2 2.179 1.987-1 2.5 3.442 1.476-1 2.5-2.166-2.222-2 1a13.1 13.1 0 0 0-6-2.5q3.279-.906.5-3.5-1.006 1.128-2.5 1l1.5-3q1.738 1.6 2.5-1" style="opacity:1"/><path fill="#ba0227" d="M188.5 76.5q.626 1.083 2 1.5-1.006 1.48 0 3.5l-3-1.5q1.794-.981 0-1.5-1.025.544-2 1a11.67 11.67 0 0 0-6-2.5q.834-.575 1-1.5 2.907 1.442 4.5-2 1.139 2.345 3.5 3" style="opacity:1"/><path fill="#bd0025" d="M192.5 66.5q1.906 5.202 6 9 1.163 2.832 0 6-.867 1.57-2-.5l1-1a10.1 10.1 0 0 0-4-1.5q.111-2.866 3-3.5-2.594-2.779-3.5.5-1.381-1.812-1.5-4 1.314.195 2-1a6.85 6.85 0 0 1-1-4" style="opacity:1"/><path fill="#ba0228" d="M119.5 73.5q.357 2.856 3 4-.166.925-1 1.5 1.457 1.561 3 2.5-1.647 1.345 0 2.5-3.975 3.123 1 5-1.373.417-2 1.5 0 1-1 1-.67-4.536-2.5-1-.634-2.184-2.5-1.5 1.73 1.37-.5 2.5-.513-3.18-2.5-1a8.4 8.4 0 0 1 .5-4l1 1a7.25 7.25 0 0 1 2.5-2q1.794.519 0 1.5 1.422.725 3 .5-1.25-3.378 0-6.5l-1.5-1.5-3 3-.5-1.5q1.724-2.594 0-5 1.786-1.047 3-2.5" style="opacity:1"/><path fill="#bc0025" d="M127.5 76.5a5.73 5.73 0 0 1 3 1q-.16 2.818 1.5 1 2.475 2.313-1.5 3a5.73 5.73 0 0 1-3-1q-1.437-.68-2.5-2 .163 1.904-.5 3-1.543-.939-3-2.5.834-.575 1-1.5 2.776.11 5-1" style="opacity:1"/><path fill="#ba0228" d="M130.5 77.5h4q.29 5.923 1.5 0 2.307 2.024 5.5 2-.989 4.362-2.5 1-1.25 2.25-3.5 3.5a10.1 10.1 0 0 0 4 1.5l-1 2-2 1q-.513-1.257-2-1 .449-1.89 0-3.5-2.332-2.47-5-1 .834-.575 1-1.5 3.975-.687 1.5-3-1.66 1.818-1.5-1" style="opacity:1"/><path fill="#bd0025" d="M146.5 77.5q2.835-.306 4.5 2 .575-.835 1.5-1 .657-.098 1 .5a62 62 0 0 1-4 6.5v1q-1.184-.424-2-1.5l1-5q-1.321-1.062-2-2.5" style="opacity:1"/><path fill="#ba0228" d="M170.5 75.5q2.499 5.886 5.5 0l3.5 3.5q-2.176-.394-4 .5a5.58 5.58 0 0 1 1 3q-3.377-.852-3.5-3-2.525.275-.5 2a5.73 5.73 0 0 1-3-1q-.129-1.495 1-2.5-3.513-2.088 0-2.5" style="opacity:1"/><path fill="#bc0026" d="M191.5 71.5q.119 2.188 1.5 4 .906-3.279 3.5-.5-2.889.634-3 3.5.679 1.438 2 2.5-2 2.76.5 1.5 2.692 1.83-.5 3l-5-4q-1.006-2.02 0-3.5-1.374-.417-2-1.5v-1q.41-2.926-2-4.5 2.83-1.17 5 .5" style="opacity:1"/><path fill="#bb0126" d="M213.5 74.5q3.729 1.443 0 2.5 2.522 3.663 6 4l-3 3q1.526 1.574.5 3.5-.981-1.794-1.5 0 1.245 2.453.5 5 1.155-1.647 2.5 0l3-2q1.314-.195 2 1-.547 4.88-5 6.5 1.984 1.224 2 3.5-2.636-1.188-4-4-2.695 2.148-4-1-.255-1.983 1-3.5l-4-2a7.3 7.3 0 0 0 3-2 457 457 0 0 0-3-4q1.75-.75 2.5-2.5 1.63 3.647 1.5-1-1.711-1.259-4-2-1.329-1.238-1-3 2.151-2.817 5-2" style="opacity:1"/><path fill="#ba0228" d="M208.5 76.5q-.329 1.762 1 3 2.289.741 4 2-3.061-.531-5.5 0l-1-2q-1.45 1.767-1.5 4a44 44 0 0 0-2-1q2.179-1.987-1-2.5 1.392-.582 2-2-1.252-1.695 0-2.5 2.193-1.456 4 1" style="opacity:1"/><path fill="#bd0025" d="M222.5 76.5q.666 2.42 3 3.5-4 1 0 2-1.293 4.101-2.5.5-.417 1.373-1.5 2-1.033-1.81-.5-4-2.049-2.982-4.5-3 3.099-4.197 4.5 1 .417-1.373 1.5-2" style="opacity:1"/><path fill="#bb142c" d="M222.5 76.5q2.343.35 4 2 .147 1.573 0 3.5 1.764 2.872 3-.5 1.237 2.79 3 5v2q.257 1.487-1 2h-2l-4-2q3.681-7.572-2.5-2-1.006-1.128-2.5-1 0-1 1-1 1.083-.627 1.5-2 1.207 3.601 2.5-.5-4-1 0-2-2.334-1.08-3-3.5" style="opacity:1"/><path fill="#b6949c" d="M72.5 79.5q2 0 2 2-1.5-.5-2-2" style="opacity:1"/><path fill="#ba0227" d="M185.5 79.5a14.6 14.6 0 0 0 1.5 6 7.3 7.3 0 0 1 2-3q-.533 2.19.5 4a2.43 2.43 0 0 0 .5 2h3q.724 1.422.5 3-.424 1.185-1.5 2-1.48-1.007-3.5 0-2.994 2.886-6 .5.696-4.098 3-9-2.486-.347-4-2.5-.626-1.083-2-1.5a16.5 16.5 0 0 1 6-1.5" style="opacity:1"/><path fill="#be0026" d="M231.5 76.5v2l1 8q-1.763-2.21-3-5-1.236 3.372-3 .5.147-1.927 0-3.5.116-1.875 2-2.5-2.337-.315-4-1.5a9.2 9.2 0 0 0 4.5-2q.183 2.905 2.5 4" style="opacity:1"/><path fill="#ba0228" d="M160.5 82.5v1q-3.325-1.09-7 .5a9.5 9.5 0 0 0-1.5 2.5q-1.006-1.128-2.5-1a62 62 0 0 0 4-6.5q-.343-.598-1-.5v-1q1.494.128 2.5-1 2.779 2.594-.5 3.5a13.1 13.1 0 0 1 6 2.5" style="opacity:1"/><path fill="#bc0026" d="m190.5 81.5 5 4q-.93 3.716-3 0a5.6 5.6 0 0 1-3 1q-1.033-1.81-.5-4a7.3 7.3 0 0 0-2 3 14.6 14.6 0 0 1-1.5-6q.975-.456 2-1 1.794.519 0 1.5z" style="opacity:1"/><path fill="#bb0126" d="M204.5 75.5q-1.252.805 0 2.5-.608 1.418-2 2 3.179.513 1 2.5v2l-2-1q-.566-3.485-3-2 1.163-3.168 0-6l2-1q.925.165 1.5 1 1.057-3.729 2.5 0" style="opacity:1"/><path fill="#bd0025" d="M169.5 80.5q1.337.915 3 1 .784 3.312 4 4.5-1.13 2.23-2.5.5a2.43 2.43 0 0 0-.5 2 19.6 19.6 0 0 1-2-3.5q-1.405-1.038-2 .5a5.73 5.73 0 0 0-3-1q2.03-1.54 3-4" style="opacity:1"/><path fill="#bc0127" d="M193.5 78.5q2.133.314 4 1.5l-1 1q1.133 2.07 2 .5 2.434-1.485 3 2-3.033 1.51-4 5a44 44 0 0 0-2-3q3.192-1.17.5-3-2.5 1.26-.5-1.5-1.321-1.062-2-2.5" style="opacity:1"/><path fill="#b28186" d="M233.5 76.5q.32 2.466-1 4.5 3.936 3.935 0 7.5v-2l-1-8z" style="opacity:1"/><path fill="#bb0228" d="M176.5 82.5q.679 1.438 2 2.5l-1 1q2.54.726 4-1.5 2.058 4.43-2 7.5l2 1q-1.884.625-2 2.5h-1q-1.006-2.02 0-3.5-2.701-.476-1-2a28 28 0 0 1-4-1.5 2.43 2.43 0 0 1 .5-2q1.37 1.73 2.5-.5-3.216-1.188-4-4.5-2.025-1.725.5-2 .123 2.148 3.5 3" style="opacity:1"/><path fill="#bc0025" d="M127.5 80.5q1.337.915 3 1-.166.925-1 1.5 2.668-1.47 5 1 .449 1.61 0 3.5l-8-3z" style="opacity:1"/><path fill="#bd0025" d="m160.5 83.5-1 2q-2.6.762-1 2.5-4.065 3.525 1 6-1.984 1.224-2 3.5-2.197 1.358-4 0 .627-1.083 2-1.5-1.619-4.35 1-8.5-1.968-5.46-3.5 1-1.077-1.425-2.5-.5 1.006 1.48 0 3.5-1.5-.5-2-2l-1-2q1.487.257 2-1v-1q1.494-.128 2.5 1a9.5 9.5 0 0 1 1.5-2.5q3.675-1.59 7-.5" style="opacity:1"/><path fill="#bb0126" d="M164.5 76.5q2.133.314 4 1.5-1.6 1.738 1 2.5-.97 2.46-3 4-1.647 1.345 0 2.5a18.1 18.1 0 0 0-4.5 5.5q-2.65-3.985 2.5-5.5-2.594-2.779-3.5.5-1.076-.816-1.5-2l1-2v-1q-.166-3.222 2-1 4.442-1.024 1-2.5 3.179-.513 1-2.5" style="opacity:1"/><path fill="#bc0026" d="m127.5 80.5-1 4q-1.248 1.243 1 2.5-1.526 1.574-.5 3.5l1-2q1.275 2.265 2.5 4.5-.105 1.148-1 1.5-1.953-3.483-6-4 .627-1.083 2-1.5-4.975-1.877-1-5-1.647-1.155 0-2.5.663-1.096.5-3 1.063 1.32 2.5 2" style="opacity:1"/><path fill="#bb0227" d="M203.5 84.5q2.02 1.007 3.5 0 2.532 1.238.5 3a6.8 6.8 0 0 0 3 1.5q-2.451.74-5 .5-1 0-1 1-2.133-.375-3-2.5-.822-2.394 2-3.5" style="opacity:1"/><path fill="#bd0025" d="M213.5 81.5q.13 4.647-1.5 1-.75 1.75-2.5 2.5 1.296 1.705 3 4a7.3 7.3 0 0 1-3 2l4 2q-1.255 1.517-1 3.5a82 82 0 0 1-2.5-3q-1.512.722-3.5.5 3.755 2.676 0 5 2.334 1.08 3 3.5-2.188-.1-4 1-.626-1.083-2-1.5l1-1a4.93 4.93 0 0 0-3-.5q-1.368-1.858-.5-4 1.112 1.71 2.5 0a13 13 0 0 1 4-4.5q-1.884-.625-2-2.5 2.549.24 5-.5a6.8 6.8 0 0 1-3-1.5q2.032-1.762-.5-3-1.48 1.007-3.5 0v-2q.975.456 2 1 .05-2.233 1.5-4l1 2q2.439-.531 5.5 0" style="opacity:1"/><path fill="#a4757a" d="M79.5 86.5h5q4.715.704 7 5-3.065-.797-5-3.5-2.91-1.114-5.5.5-1.076-.816-1.5-2" style="opacity:1"/><path fill="#bd0026" d="M89.5 79.5q1.936 1.563 0 3.5 1.926 1.026 3.5-.5l1 2q1.903-.175 4-1 2.692 1.83-.5 3-1.509 1.343 0 2-.802 2.919-4 3h-2q-2.285-4.296-7-5-1.145-1.152-3-1.5 1.89-1.67 3.5-.5 1-4 2 0 2.058-2.115 2.5-5" style="opacity:1"/><path fill="#ba0227" d="m126.5 84.5 8 3q1.487-.257 2 1-3.353 1.122 1 2.5l-1 3q4 1 0 2 3.256 1.76 3 5.5-3.01 1.769-1-1.5a28 28 0 0 1-4-1.5q1.205-1.385.5-3-1.5 2-3 0-2.23 1.13-.5 2.5-2.067 2-4 .5a5.73 5.73 0 0 1-1-3q2.093 1.972 3-1 .895-.352 1-1.5-1.225-2.235-2.5-4.5l-1 2q-1.026-1.926.5-3.5-2.248-1.257-1-2.5" style="opacity:1"/><path fill="#bd0025" d="m201.5 83.5 2 1q-2.822 1.106-2 3.5.867 2.125 3 2.5-1.647 1.345 0 2.5-1.13 2.23-2.5.5-.677 3.644-2.5.5 1.26-2.5-1.5-.5-1.036-3.587-3 0-.417-1.373-1.5-2a4.93 4.93 0 0 0-.5-3h-3a2.43 2.43 0 0 1-.5-2 5.6 5.6 0 0 0 3-1q2.07 3.716 3 0a44 44 0 0 1 2 3q.967-3.49 4-5M138.5 87.5q1.941 1.185 3.5 3l1-2q.75 1.75 2.5 2.5a6.98 6.98 0 0 0-3.5 2.5l-1-2q-1 2-2 0-.522 2.46 1.5 4 1.185 1.94 3 3.5a16.6 16.6 0 0 0-4 2.5q.256-3.74-3-5.5 4-1 0-2l1-3q-4.353-1.378-1-2.5z" style="opacity:1"/><path fill="#ba0227" d="m153.5 97.5-2-1a71 71 0 0 0-4-3 21 21 0 0 0 2.5-1l3 3q.419-2.868-2.5-4 1.006-2.02 0-3.5 1.423-.925 2.5.5 1.532-6.46 3.5-1-2.619 4.15-1 8.5-1.373.417-2 1.5" style="opacity:1"/><path fill="#bd0025" d="M112.5 89.5q-5.242-3.547-1 2-1.172 3.192-3 .5l1-1q-1.5-1-3 0 2.134 5.913 6.5 3.5.75 1.75 2.5 2.5l-3 1.5q-.424-1.184-1.5-2-.977 2.603.5 5-.686 1.197-2 1-1.737-1.609 0-3.5-2.285-1.791-3.5-4.5-1.26 4.446-3 1-.575.835-1.5 1 1.011-2.287 3-4-1.712-1.388 0-2.5-1.373-.417-2-1.5a2.43 2.43 0 0 1 .5-2q1.035 1.857 1.5 0 1.075 1.44 3.5 3-.222-1.988.5-3.5-3.248-1.487.5-3.5 2.59.22.5 2 1.497 3.792 2.5 0 .74 2.45.5 5" style="opacity:1"/><path fill="#ba0227" d="M166.5 84.5a5.73 5.73 0 0 1 3 1q-.822 1.783-1 3.5 2.332 2.47 5 1-1.73 1.37.5 2.5l1-2q2.052 2.29 1.5 4.5-1.863.466-3-1.5a18 18 0 0 0-3.5 2q-1.66-1.818-1.5 1-6.644 1.11-1-2.5a20.5 20.5 0 0 0-3.5-2.5q-3.473 2.523-5 7-.575-.835-1.5-1 .016-2.276 2-3.5-5.065-2.475-1-6-1.6-1.738 1-2.5.424 1.185 1.5 2 .906-3.279 3.5-.5-5.15 1.515-2.5 5.5a18.1 18.1 0 0 1 4.5-5.5q-1.647-1.155 0-2.5" style="opacity:1"/><path fill="#bd0025" d="M225.5 88.5q-1.782-.821-3.5-1-2.592 1.278-.5 3l-3 2q.082-3.062 0-6.5a2.43 2.43 0 0 1 2-.5q1.494-.128 2.5 1 6.181-5.572 2.5 2" style="opacity:1"/><path fill="#ba0227" d="M97.5 88.5q3.137 3.015 5 0 .627 1.083 2 1.5-1.712 1.112 0 2.5-1.989 1.713-3 4-.513 1.257-2 1-1.627-3.13-5-4l-1-2q3.198-.081 4-3" style="opacity:1"/><path fill="#bd0026" d="M122.5 91.5q-.207 2.99-2 5-1.629-2.923-6-5v-1q1.987-2.18 2.5 1 2.23-1.13.5-2.5 1.866-.684 2.5 1.5 1.83-3.536 2.5 1" style="opacity:1"/><path fill="#bb0126" d="M123.5 90.5q4.047.517 6 4-.907 2.972-3 1-1.083.627-1.5 2-1.962-.977-2.5 2 1.69 2.375 0 6-4.647.13-1-1.5l-2-1q1.003-3.393 1-6.5 1.793-2.01 2-5 1 0 1-1" style="opacity:1"/><path fill="#bc0025" d="M148.5 89.5q.5 1.5 2 2 2.919 1.132 2.5 4l-3-3q-1.38.645-2.5 1a71 71 0 0 1 4 3 5.73 5.73 0 0 0-3 1q-3.066-.797-5-3.5a33 33 0 0 0 5-4.5" style="opacity:1"/><path fill="#bd0025" d="M173.5 88.5q1.899.885 4 1.5-1.701 1.524 1 2-1.006 1.48 0 3.5-4.796 2.69-10 1-.16-2.818 1.5-1a18 18 0 0 1 3.5-2q1.137 1.966 3 1.5.552-2.21-1.5-4.5l-1 2q-2.23-1.13-.5-2.5-2.668 1.47-5-1 .178-1.717 1-3.5.595-1.538 2-.5a19.6 19.6 0 0 0 2 3.5" style="opacity:1"/><path fill="#c2c1c1" d="M229.5 90.5h2a44 44 0 0 1-6 2q1.025-2.515 4-2" style="opacity:1"/><path fill="#a68589" d="M91.5 91.5h2l1 2q-2.29.11-3-2" style="opacity:1"/><path fill="#ba0127" d="m147.5 87.5 1 2a33 33 0 0 1-5 4.5q1.934 2.703 5 3.5v5q0 1-1 1-3.37-3.103-5-8-1.135-1.91-2 0-2.022-1.54-1.5-4 1 2 2 0l1 2a6.98 6.98 0 0 1 3.5-2.5q-1.75-.75-2.5-2.5l-1 2a14.7 14.7 0 0 0-3.5-3l1-2q1.473-.961 3-2 2.264 2.37 3.5 6 .417-1.373 1.5-2" style="opacity:1"/><path fill="#bc3e41" d="m225.5 88.5 4 2q-2.975-.515-4 2-.756 6-4 11h-1v-2q-.016-2.276-2-3.5 4.453-1.62 5-6.5-.686-1.195-2-1-2.092-1.722.5-3 1.718.179 3.5 1" style="opacity:1"/><path fill="#b29093" d="M94.5 93.5q3.373.87 5 4-3.373-.87-5-4" style="opacity:1"/><path fill="#bd0025" d="M181.5 82.5q1.514 2.153 4 2.5-2.304 4.902-3 9 3.006 2.386 6-.5v2l1 2q-1.494-.128-2.5 1l-1-2q-.768 3.868-2.5 7v1a31 31 0 0 1-3.5 3q-4.788-3.805 1-3a9.5 9.5 0 0 1 1.5-2.5q-2.44.645-4.5.5l-1-2a11.67 11.67 0 0 1-2.5 6q0-1-1-1 .166-.925 1-1.5-1.856-.348-3-1.5a2.43 2.43 0 0 0 2-.5q-1.374-.417-2-1.5 2.02-1.007 3.5 0 1.26-4.446 3-1 1.986-2.07 4-1 1-1 0-2-1.426-.576-2.5-1 .116-1.875 2-2.5l-2-1q4.058-3.07 2-7.5z" style="opacity:1"/><path fill="#b90228" d="M205.5 89.5q.116 1.875 2 2.5a13 13 0 0 0-4 4.5q-1.388 1.71-2.5 0-.868 2.142.5 4h-2a9.17 9.17 0 0 0-2-4.5l1-1a18.1 18.1 0 0 0-6 .5q-1.803-1.358-4 0v-2q2.02-1.007 3.5 0 1.076-.816 1.5-2 1.083.627 1.5 2 1.964-3.587 3 0 2.76-2 1.5.5 1.823 3.144 2.5-.5 1.37 1.73 2.5-.5-1.647-1.155 0-2.5 0-1 1-1" style="opacity:1"/><path fill="#bc0025" d="m168.5 96.5 3 4q.626 1.083 2 1.5a2.43 2.43 0 0 1-2 .5 503 503 0 0 1-8-3q-.918 2.183-3 5-.538-2.977-2.5-2-4.101-1.293-.5-2.5-1.647-1.155 0-2.5.925.165 1.5 1 1.527-4.477 5-7a20.5 20.5 0 0 1 3.5 2.5q-5.644 3.61 1 2.5" style="opacity:1"/><path fill="#bd0026" d="M192.5 95.5a18.1 18.1 0 0 1 6-.5l-1 1a9.17 9.17 0 0 1 2 4.5q-2.379-1.37-4.5 0-3.814-2.064-.5-3.5-.816-1.076-2-1.5" style="opacity:1"/><path fill="#ba0228" d="M111.5 91.5a2.43 2.43 0 0 0 .5 2q1-2 2 0a2.43 2.43 0 0 0 .5-2q4.371 2.077 6 5 .003 3.107-1 6.5l2 1q-3.647 1.63 1 1.5v1h-3q-.057 3.204-2 4-1 0-1-1-1.205-1.385-.5-3 1.077 1.426 2.5.5-1.583-4.8 0-9l-1.5-1.5q-.75 1.75-2.5 2.5 3.279.906.5 3.5a16.6 16.6 0 0 0-2.5-4l3-1.5q-1.75-.75-2.5-2.5-4.366 2.412-6.5-3.5 1.5-1 3 0l-1 1q1.828 2.692 3-.5" style="opacity:1"/><path fill="#b90227" d="M178.5 95.5h1q1.074.424 2.5 1 1 1 0 2-2.014-1.07-4 1-1.74-3.446-3 1-1.48-1.007-3.5 0l-3-4q5.204 1.69 10-1" style="opacity:1"/><path fill="#bc0026" d="M212.5 96.5q1.305 3.148 4 1 1.364 2.812 4 4v2a4.93 4.93 0 0 1-3-.5q-2-1 0-2-2.594-2.779-3.5.5-1.077-1.426-2.5-.5.954 3.245 3 6.5-3.233 4.44 3 5.5l-2 1v3a2.43 2.43 0 0 1-2 .5l-3-2q0-1 1-1a2.43 2.43 0 0 0 2-.5q-2.462-1.694-3-4.5a2.43 2.43 0 0 0 2-.5q-1.296-3.107-4-5 .834-.575 1-1.5-.666-2.42-3-3.5 3.755-2.324 0-5 1.988.222 3.5-.5a82 82 0 0 0 2.5 3" style="opacity:1"/><path fill="#bd0125" d="m151.5 96.5 2 1a54 54 0 0 1 2 8h-1q-4.168-1.675-1-3.5a11.3 11.3 0 0 1-3.5-1.5q-.417 1.373-1.5 2v-5a5.73 5.73 0 0 1 3-1" style="opacity:1"/><path fill="#b90328" d="M189.5 97.5q-.166.925-1 1.5 3.912 2.905 0 5.5-1.788-1.599 1-2.5-2-3-4 0 1.426 1.077.5 2.5-1.006-1.128-2.5-1 1.732-3.132 2.5-7l1 2q1.006-1.128 2.5-1" style="opacity:1"/><path fill="#bd0025" d="M192.5 95.5q-.626 1.083-2 1.5 2.54 5.115 7 6-1.46.523-2.5 2.5-2.088-3.513-2.5 0h-2l-2-1q3.912-2.595 0-5.5.834-.575 1-1.5l-1-2q2.197-1.358 4 0" style="opacity:1"/><path fill="#b91a2d" d="M109.5 102.5q-2.317-.305-4-2-.91.186-1 1h-1q-2.5-1.5-4-4 1.487.257 2-1 .925-.165 1.5-1 1.74 3.446 3-1 1.215 2.709 3.5 4.5-1.737 1.891 0 3.5" style="opacity:1"/><path fill="#bc0126" d="M134.5 98.5q-.116 1.875-2 2.5 1.884.625 2 2.5.098.658-.5 1l-4-4q-.575.834-1.5 1-3.078-.83-1-3 1.933 1.5 4-.5-1.73-1.37.5-2.5 1.5 2 3 0 .705 1.615-.5 3M112.5 98.5a16.6 16.6 0 0 1 2.5 4q2.779-2.594-.5-3.5 1.75-.75 2.5-2.5l1.5 1.5q-1.583 4.2 0 9-1.423.926-2.5-.5-.705 1.615.5 3h-2q-1.144-2.643-4-3-.71-2.11-3-2a6.55 6.55 0 0 0-3-3q.09-.814 1-1 1.683 1.695 4 2 1.314.197 2-1-1.477-2.397-.5-5 1.076.816 1.5 2" style="opacity:1"/><path fill="#bc0025" d="M134.5 98.5q1.899.885 4 1.5-2.01 3.269 1 1.5.495 4.443 4 3l3 6q-1.853.332-3 2-1.794-.519 0-1.5a2.43 2.43 0 0 0-2-.5q-3.008-1.131-2-3.5-1.116-1.559-3-1.5-.5-1.5-2-2-.116-1.875-2-2.5 1.884-.625 2-2.5" style="opacity:1"/><path fill="#ba0228" d="M171.5 102.5q1.144 1.152 3 1.5-.834.575-1 1.5-2.48.24-4 2-1.184-.424-2-1.5 1.526-1.574.5-3.5-1.524 1.701-2-1a11.3 11.3 0 0 1-3.5 1.5l2 1q-3.967.887-2 4-.834 1.516-2 2.5-1.356-1.064-1-3 0-1-1-1l2-2q2.082-2.817 3-5a503 503 0 0 0 8 3" style="opacity:1"/><path fill="#bb0026" d="m147.5 103.5-4 1q-3.505 1.443-4-3a16.6 16.6 0 0 1 4-2.5 14.7 14.7 0 0 1-3-3.5q.865-1.91 2 0 1.63 4.897 5 8" style="opacity:1"/><path fill="#aa0927" d="M220.5 103.5v2a17.7 17.7 0 0 0-6-.5l2 1q-1.374.417-2 1.5-2.046-3.255-3-6.5 1.423-.926 2.5.5.906-3.279 3.5-.5-2 1 0 2a4.93 4.93 0 0 0 3 .5" style="opacity:1"/><path fill="#ad858b" d="M103.5 101.5h1a6.55 6.55 0 0 1 3 3q-2.856-.357-4-3" style="opacity:1"/><path fill="#ba0227" d="m154.5 105.5-2 5q-3.305.653-6 0l-3-6 4-1q1 0 1-1 1.083-.627 1.5-2a11.3 11.3 0 0 0 3.5 1.5q-3.168 1.825 1 3.5" style="opacity:1"/><path fill="#bd0025" d="M126.5 95.5a5.73 5.73 0 0 0 1 3q-2.078 2.17 1 3-.16 2.818 1.5 1l1.5 1.5q-.178 1.718-1 3.5-.867 1.57-2-.5l1-1q-1.89-1.67-3.5-.5-2.482-3.37-1-7-.513 3.179-2.5 1 .538-2.977 2.5-2 .417-1.373 1.5-2M169.5 107.5q-.5 1.5-2 2a2.43 2.43 0 0 0-.5-2q-2.767 1.816-2.5 4a6.85 6.85 0 0 0-4-1q1.166-.984 2-2.5-1.967-3.113 2-4l-2-1a11.3 11.3 0 0 0 3.5-1.5q.476 2.701 2 1 1.026 1.926-.5 3.5.816 1.076 2 1.5" style="opacity:1"/><path fill="#b90228" d="M134.5 103.5q1.5.5 2 2-1.578.407-4 .5a23 23 0 0 0 5 2q-3.587 1.964 0 3-1.373.417-2 1.5-1.083-.627-1.5-2-.598.342-.5 1-2.18-1.53-1-3.5a2.43 2.43 0 0 0-2-.5q.822-1.782 1-3.5l-1.5-1.5q-1.66 1.818-1.5-1 .925-.166 1.5-1l4 4q.598-.342.5-1" style="opacity:1"/><path fill="#bb0126" d="M153.5 97.5q1.803 1.358 4 0-1.647 1.345 0 2.5-3.601 1.207.5 2.5 1.962-.977 2.5 2l-2 2a5.73 5.73 0 0 1-3-1 54 54 0 0 0-2-8" style="opacity:1"/><path fill="#ba0228" d="M192.5 95.5q1.184.424 2 1.5-3.314 1.436.5 3.5 2.121-1.37 4.5 0-2 2.5 0 5a18.5 18.5 0 0 0-3.5 2 18.5 18.5 0 0 0-3.5-2q.412-3.513 2.5 0 1.04-1.977 2.5-2.5-4.46-.885-7-6 1.374-.417 2-1.5" style="opacity:1"/><path fill="#bb0127" d="M199.5 100.5h2a4.93 4.93 0 0 1 3 .5l-1 1q1.374.417 2 1.5-1.76 1.52-2 4-.679 1.438-2 2.5 1.818 1.66-1 1.5-3.568-1.593 0-4a44 44 0 0 1-1-2q-2-2.5 0-5" style="opacity:1"/><path fill="#ba0227" d="M209.5 102.5q-.166.925-1 1.5 2.704 1.893 4 5a2.43 2.43 0 0 1-2 .5q-1.732-.118-4-1-2.103-2.014 1-2.5-1.321-1.062-2-2.5 1.812-1.1 4-1" style="opacity:1"/><path fill="#bbb4b3" d="M220.5 103.5h1l1 2h-2z" style="opacity:1"/><path fill="#a47a83" d="M107.5 104.5q2.29-.11 3 2-2.29.11-3-2" style="opacity:1"/><path fill="#ba0127" d="M130.5 107.5a2.43 2.43 0 0 1 2 .5q-1.18 1.97 1 3.5-2.376 5.244-3.5 0a2.43 2.43 0 0 0-.5 2 25.4 25.4 0 0 0-5-7q-1.343 1.509-2 0v-1q1.69-3.625 0-6 1.987 2.179 2.5-1-1.482 3.63 1 7 1.61-1.17 3.5.5l-1 1q1.133 2.07 2 .5" style="opacity:1"/><path fill="#bd0025" d="M136.5 105.5q1.884-.059 3 1.5-1.008 2.369 2 3.5.362 5.248-2.5 1-.417 1.373-1.5 2-.513-1.257-2-1 .627-1.083 2-1.5-3.587-1.036 0-3a23 23 0 0 1-5-2q2.422-.093 4-.5" style="opacity:1"/><path fill="#b90227" d="M183.5 104.5q-.129 1.494 1 2.5l-3 3q1.374.417 2 1.5-4.243.197-4-3a60 60 0 0 1-6 .5q.63 3.117 3 6.5-1.494-.128-2.5 1a29.5 29.5 0 0 0-2.5-4.5q1.701-1.524-1-2 .54-2.468 4-3.5a11.67 11.67 0 0 0 2.5-6l1 2q2.06.145 4.5-.5a9.5 9.5 0 0 0-1.5 2.5q-5.788-.805-1 3a31 31 0 0 0 3.5-3" style="opacity:1"/><path fill="#a9777f" d="M110.5 106.5q2.856.357 4 3-2.856-.357-4-3" style="opacity:1"/><path fill="#bd0025" d="M122.5 106.5q.657 1.509 2 0-1.007 2.02 0 3.5-2.486.347-4 2.5a5.73 5.73 0 0 0-3-1v-1q1.943-.796 2-4z" style="opacity:1"/><path fill="#bc0025" d="m188.5 104.5 2 1a2.43 2.43 0 0 1-.5 2q-1.077-1.426-2.5-.5 1.595 1.782 4 1.5a4.93 4.93 0 0 1-.5 3q-1.738-1.6-2.5 1-1.083-.627-1.5-2-1 4-2 0-.575.834-1.5 1-.626-1.083-2-1.5l3-3q-1.129-1.006-1-2.5v-1q1.494-.128 2.5 1 .926-1.423-.5-2.5 2-3 4 0-2.788.901-1 2.5" style="opacity:1"/><path fill="#ba0227" d="M154.5 105.5h1q1.337.915 3 1 1 0 1 1-1.152 1.144-1.5 3-1.461-3.567-2 1l-1-3q-.59 3.324 1.5 6-3.41-.685-4-4z" style="opacity:1"/><path fill="#bc0026" d="M173.5 105.5q1 0 1 1-3.46 1.032-4 3.5 2.701.476 1 2a29.5 29.5 0 0 1 2.5 4.5q1.006-1.128 2.5-1v2q-1.345 1.647-2.5 0 .102 2.763-.5 5h-1a14.4 14.4 0 0 0-4.5 0q-.576-2.545.5-5a18.5 18.5 0 0 1 2-3.5q-1.5-1-3 0l1 1q-1.89 1.67-3.5.5-1.511 3.362-2.5-1 1.144-1.152 3-1.5 2.611-1.625 2-3.5 1.5-.5 2-2 1.52-1.76 4-2" style="opacity:1"/><path fill="#bc0126" d="M183.5 111.5q2.883 2.19 2 5-3 0-3 3-2.11 3.809-3.5-1-.417 1.373-1.5 2a5.73 5.73 0 0 1-1-3v-2q-2.37-3.383-3-6.5a60 60 0 0 0 6-.5q-.243 3.197 4 3" style="opacity:1"/><path fill="#bc0025" d="M192.5 105.5a18.5 18.5 0 0 1 3.5 2 18.5 18.5 0 0 1 3.5-2q.456.975 1 2-3.568 2.407 0 4-3.184 2.544-2 6-1.194 4.678 3 8l-1 2q-1.214-1.453-3-2.5.977-1.962-2-2.5-1.892-2.979 1-5.5-2.701-.476-1-2-2.651-4.298-4-8 .834-.575 1-1.5" style="opacity:1"/><path fill="#be0025" d="M205.5 103.5q.679 1.438 2 2.5-3.103.486-1 2.5 2.268.882 4 1 .538 2.807 3 4.5a2.43 2.43 0 0 1-2 .5q-2.466-1.225-3.5-4l-1 2q-1-2-2 0-3.144-1.823.5-2.5-.85-1.492-2-2.5.24-2.48 2-4" style="opacity:1"/><path fill="#a6868a" d="M114.5 109.5h2q0 1 1 1v1q-2.29.11-3-2" style="opacity:1"/><path fill="#bc142b" d="M220.5 105.5h2q2.406 1.18 2 4v1q-1.722-2.092-3 .5l1 3q-2.075 3.185-5 3 .834.575 1 1.5a9.2 9.2 0 0 0-4.5 2 4.93 4.93 0 0 1-.5-3 2.43 2.43 0 0 0 2-.5v-3l2-1q-6.233-1.06-3-5.5.626-1.083 2-1.5l-2-1a17.7 17.7 0 0 1 6 .5" style="opacity:1"/><path fill="#b29297" d="M117.5 111.5a5.73 5.73 0 0 1 3 1q2.326 3.619 2 8-1.284-5.06-5-9" style="opacity:1"/><path fill="#bb0126" d="M188.5 112.5q3.729 1.443 0 2.5l2 1q-1.374.417-2 1.5-1.937.356-3-1 .883-2.81-2-5 .925-.166 1.5-1 1 4 2 0 .417 1.373 1.5 2" style="opacity:1"/><path fill="#ba0228" d="M203.5 107.5q1.15 1.008 2 2.5-3.644.677-.5 2.5 1-2 2 0l1-2q1.034 2.775 3.5 4-1 0-1 1-.09.814-1 1l-1-2q-2.553 2.683-.5 5l1-2q1 2 2 0 3 1.5 0 3l-1-1q-.99 2.736-3.5 4h-1q.822-1.782 1-3.5a2.43 2.43 0 0 0-2-.5q2.179-1.987-1-2.5 1.13-2.23 2.5-.5 1-1.5 0-3-1.72 1.437-3-1a11.3 11.3 0 0 1-3.5 1.5l2 1q-2 1 0 2a4.93 4.93 0 0 1-3 .5q-1.184-3.456 2-6 2.818.16 1-1.5 1.321-1.062 2-2.5" style="opacity:1"/><path fill="#b90227" d="M141.5 110.5a2.43 2.43 0 0 1 2 .5q-1.794.981 0 1.5 1.147-1.668 3-2-2.179 1.987 1 2.5-5.528 1.371 1 2a72 72 0 0 0-5 3.5q-.849-2.368-3-4-2.133 1.915-3-1 1.083-.627 1.5-2 2.862 4.248 2.5-1" style="opacity:1"/><path fill="#b1888f" d="M224.5 109.5q2.476 2.853 1 6 0-1-1-1v-5" style="opacity:1"/><path fill="#ba0227" d="M124.5 106.5a25.4 25.4 0 0 1 5 7q-2.152 2.227.5 4l1-2q.417 1.373 1.5 2-2.317 5.583-4.5 0-.75 1.75-2.5 2.5 4 1.5 0 3 1.426 1.077.5 2.5-1.062-1.321-2.5-2 .356-1.936-1-3 .326-4.381-2-8 1.514-2.153 4-2.5-1.007-1.48 0-3.5" style="opacity:1"/><path fill="#bc0026" d="M146.5 110.5q2.695.653 6 0 .59 3.315 4 4l-1 2a17.9 17.9 0 0 0-6 4q-3.04-.937-5.5 0a2.43 2.43 0 0 1-.5-2 72 72 0 0 1 5-3.5q-6.528-.629-1-2-3.179-.513-1-2.5" style="opacity:1"/><path fill="#ba0228" d="M190.5 105.5h2q-.166.925-1 1.5 1.349 3.702 4 8-1.701 1.524 1 2-2.892 2.521-1 5.5l-3-1.5q2-1 0-2 3.601-1.207-.5-2.5-1.43 2.81-3.5 1 .626-1.083 2-1.5l-2-1q3.729-1.057 0-2.5.762-2.6 2.5-1a4.93 4.93 0 0 0 .5-3q-2.405.282-4-1.5 1.423-.926 2.5.5a2.43 2.43 0 0 0 .5-2" style="opacity:1"/><path fill="#bd0025" d="M204.5 119.5q-2.508-1.936-5.5 0a2.43 2.43 0 0 1-.5-2 4.93 4.93 0 0 0 3-.5q-2-1 0-2l-2-1a11.3 11.3 0 0 0 3.5-1.5q1.28 2.437 3 1 1 1.5 0 3-1.37-1.73-2.5.5 3.179.513 1 2.5" style="opacity:1"/><path fill="#bc0026" d="M135.5 112.5q1.487-.257 2 1 .867 2.915 3 1 2.151 1.632 3 4-2.51 1.264-3.5 4-2.767-1.816-2.5-4a31 31 0 0 1-2 2 10.2 10.2 0 0 1-3-3q-1.083-.627-1.5-2l-1 2q-2.652-1.773-.5-4a2.43 2.43 0 0 1 .5-2q1.124 5.244 3.5 0-.098-.658.5-1 .417 1.373 1.5 2" style="opacity:1"/><path fill="#be0024" d="M224.5 110.5v4q.13 4.647-1.5 1-2.107 1.846-3.5 4 0-1-1-1-.166-.925-1-1.5 2.925.185 5-3l-1-3q1.278-2.592 3-.5" style="opacity:1"/><path fill="#b90228" d="M162.5 114.5q.989 4.362 2.5 1 1.61 1.17 3.5-.5l-1-1q1.5-1 3 0a18.5 18.5 0 0 0-2 3.5q-2.802 1.144-5 3-2.05-2.029-3 1 1.113 2.774 3 2-.5 1.5-2 2-1.483-3.13-4-5 1.131-3.008 3.5-2 3-1.5 0-3l-1 1q-5.043-4.847 0-2 1.155-1.647 2.5 0" style="opacity:1"/><path fill="#bc0126" d="M185.5 116.5q1.063 1.356 3 1 2.07 1.81 3.5-1 4.101 1.293.5 2.5 2 1 0 2l3 1.5q-1.4 4.566-6 5a5.73 5.73 0 0 0-3 1q-3.896-.332 0-1.5-1-3-4-4 1.006-1.48 0-3.5 0-3 3-3" style="opacity:1"/><path fill="#bb0025" d="M155.5 116.5q.305 2.835-2 4.5 1.129 1.006 1 2.5v1a50 50 0 0 0-4 0q-1.393-1.783-1-4a17.9 17.9 0 0 1 6-4" style="opacity:1"/><path fill="#bb0126" d="M159.5 107.5q-.356 1.936 1 3a6.85 6.85 0 0 1 4 1q-.267-2.184 2.5-4 .696.891.5 2 .611 1.875-2 3.5-1.856.348-3 1.5-1.345-1.647-2.5 0-5.043-2.847 0 2l1-1q3 1.5 0 3-2.369-1.008-3.5 2 .166.925 1 1.5-2.101.615-4 1.5.129-1.494-1-2.5 2.305-1.665 2-4.5l1-2q-2.09-2.676-1.5-6l1 3q.539-4.567 2-1 .348-1.856 1.5-3" style="opacity:1"/><path fill="#b90327" d="M176.5 117.5a5.73 5.73 0 0 0 1 3q-.166.925-1 1.5a15.4 15.4 0 0 0 6 3 9.5 9.5 0 0 0-1.5 2.5q-1.774-1.846-3.5 0a10.3 10.3 0 0 0 4 1.5q-1.374.417-2 1.5-2.872-.426-5 1h-1q-1.725 2.025-2-.5.614-4.393 4-7-1.374-.417-2-1.5.602-2.237.5-5 1.155 1.647 2.5 0" style="opacity:1"/><path fill="#ba0227" d="M143.5 118.5a2.43 2.43 0 0 0 .5 2q2.46-.937 5.5 0-.393 2.217 1 4a50 50 0 0 1 4 0q.837 1.935 3 2.5-1.647 1.155 0 2.5-1.487-.257-2 1-1.987-2.179-2.5 1-3.814-2.064-.5-3.5l-2.5-2.5q-1.046 3.126-3.5 5h-1q.129-1.494-1-2.5l3-3a9.5 9.5 0 0 1-1.5-2.5q-1.5 4-3 0-1.047 1.786-2.5 3a81 81 0 0 1-2.5-3q-1.962.977-2.5-2a31 31 0 0 0 2-2q-.267 2.184 2.5 4 .99-2.736 3.5-4" style="opacity:1"/><path fill="#bb0126" d="M198.5 117.5a2.43 2.43 0 0 0 .5 2q2.992-1.936 5.5 0a2.43 2.43 0 0 1 2 .5q-.178 1.718-1 3.5-1.52 1.76-4 2-4.194-3.322-3-8" style="opacity:1"/><path fill="#bc0026" d="M132.5 117.5a10.2 10.2 0 0 0 3 3q.538 2.977 2.5 2a81 81 0 0 0 2.5 3q1.884-.059 3 1.5a17.2 17.2 0 0 1-4 5.5l2 1a5.58 5.58 0 0 0-1 3q-1 0-1 1-2.05 2.029-3-1 1.543.306 3-1.5-2.81-1.43-1-3.5-2.841-1.651-2-4l-4-4q-.294-3.218-3-.5l1 1q-3.25 1.25-4.5 4.5-1-2-2 0a12.9 12.9 0 0 1-.5-5q1.438.679 2.5 2 .926-1.423-.5-2.5 4-1.5 0-3 1.75-.75 2.5-2.5 2.183 5.583 4.5 0" style="opacity:1"/><path fill="#bb2934" d="M182.5 119.5q1.006 2.02 0 3.5 3 1 4 4-3.896 1.168 0 1.5v1q-3.325 1.303-7 1 .626-1.083 2-1.5a10.3 10.3 0 0 1-4-1.5q1.726-1.846 3.5 0a9.5 9.5 0 0 1 1.5-2.5 15.4 15.4 0 0 1-6-3q.834-.575 1-1.5 1.083-.627 1.5-2 1.39 4.809 3.5 1" style="opacity:1"/><path fill="#bd0025" d="m210.5 115.5 3 2a4.93 4.93 0 0 0 .5 3 9.2 9.2 0 0 1 4.5-2q1 0 1 1l-1 2q-2.298-1.305-4.5 1-1.077-1.426-2.5-.5a19 19 0 0 0 5 3l-2 1q.356 3.432 0 7.5-6.798.477-13-1 4.068-.356 7.5 0 2.23-1.13.5-2.5 2.914-1.79-.5-4.5-.926 1.423.5 2.5-2.701.476-1 2-6.747-.067-1-3-.178-1.718-1-3.5 2.51-1.264 3.5-4l1 1q3-1.5 0-3-1 2-2 0l-1 2q-2.053-2.317.5-5l1 2q.91-.186 1-1" style="opacity:1"/><path fill="#bb2b36" d="M224.5 114.5q1 0 1 1l5 4a6.85 6.85 0 0 1-4-1 25.5 25.5 0 0 0-4.5 4q-1.66-1.818-1.5 1l-2-2 1-2q1.393-2.154 3.5-4 1.63 3.647 1.5-1" style="opacity:1"/><path fill="#bd0126" d="M230.5 119.5q.41 2.926-2 4.5a9.5 9.5 0 0 1 1.5 2.5q1.61-1.17 3.5.5a72.4 72.4 0 0 1-12 .5 5.58 5.58 0 0 1 1-3q-.686-1.197-2-1-.16-2.818 1.5-1a25.5 25.5 0 0 1 4.5-4 6.85 6.85 0 0 0 4 1" style="opacity:1"/><path fill="#be0025" d="M168.5 117.5q-1.076 2.455-.5 5a14.4 14.4 0 0 1 4.5 0q-1.647 1.345 0 2.5-2.29 2.052-4.5 1.5-4.101-1.293-.5-2.5-2.437-1.28-1-3a4.93 4.93 0 0 0-3-.5q2.198-1.856 5-3" style="opacity:1"/><path fill="#bb0c29" d="m218.5 121.5 2 2q1.314-.197 2 1a5.58 5.58 0 0 0-1 3q-1.875-.116-2.5-2-2.738 2.97-2.5 7 0 1-1 1h-1q.356-4.068 0-7.5l2-1a19 19 0 0 1-5-3q1.423-.926 2.5.5 2.202-2.305 4.5-1" style="opacity:1"/><path fill="#b72532" d="M195.5 122.5q2.977.538 2 2.5 1.786 1.047 3 2.5-.516 1.774 2 2.5-1.884.625-2 2.5h-1a36.2 36.2 0 0 0-7-4q-1.063-1.356-3-1 4.6-.434 6-5" style="opacity:1"/><path fill="#bd0025" d="m132.5 123.5 4 4q-2.298 1.305-4.5-1-.75 1.75-2.5 2.5a7.3 7.3 0 0 0 3 2 18.2 18.2 0 0 0-2 5.5l-4-1q.627-1.083 2-1.5.841-2.349-2-4 1.758-3.55 6-6.5" style="opacity:1"/><path fill="#bc0026" d="M163.5 120.5q.92 3.763 2 7.5l-1 1q1.321 1.063 2 2.5l-2 2h-2a240 240 0 0 0-1-4.5q-2.142-.868-4 .5-1.647-1.345 0-2.5-2.163-.565-3-2.5v-1a28 28 0 0 1 4-1.5q-.834-.575-1-1.5 2.517 1.87 4 5 1.5-.5 2-2-1.887.774-3-2 .95-3.029 3-1" style="opacity:1"/><path fill="#ba0227" d="M205.5 123.5h1q.822 1.782 1 3.5-5.747 2.933 1 3-1.701-1.524 1-2-1.426-1.077-.5-2.5 3.414 2.71.5 4.5 1.73 1.37-.5 2.5-3.432-.356-7.5 0h-1q.116-1.875 2-2.5-2.516-.726-2-2.5l1-2q2.48-.24 4-2" style="opacity:1"/><path fill="#bb0127" d="M163.5 120.5a4.93 4.93 0 0 1 3 .5q-1.437 1.72 1 3-3.601 1.207.5 2.5 2.21.552 4.5-1.5-1.647-1.155 0-2.5h1q.626 1.083 2 1.5-3.386 2.607-4 7 .275 2.525 2 .5v3l-2 4q.042-3.123-2-5.5a3.65 3.65 0 0 0 1-1.5q-1.8-1.188-4 0-.679-1.437-2-2.5l1-1a186 186 0 0 1-2-7.5" style="opacity:1"/><path fill="#be5452" d="M230.5 119.5a82 82 0 0 1 7.5 4q.804 3.101-1.5 5.5a42.3 42.3 0 0 1-15-.5 10.68 10.68 0 0 0-5 4q-.238-4.03 2.5-7 .625 1.884 2.5 2a72.4 72.4 0 0 0 12-.5q-1.89-1.67-3.5-.5a9.5 9.5 0 0 0-1.5-2.5q2.41-1.574 2-4.5" style="opacity:1"/><path fill="#b71e2f" d="M122.5 120.5q1.356 1.064 1 3a12.9 12.9 0 0 0 .5 5q1-2 2 0 1.25-3.25 4.5-4.5l-1-1q2.706-2.718 3 .5-4.242 2.95-6 6.5 2.841 1.651 2 4-1.373.417-2 1.5-1.314.197-2-1-.791-2.754-2-5v-9" style="opacity:1"/><path fill="#ba0227" d="M136.5 127.5q-.841 2.349 2 4-2.384 3.623-6.5 6-.575-.834-1.5-1a18.2 18.2 0 0 1 2-5.5 7.3 7.3 0 0 1-3-2q1.75-.75 2.5-2.5 2.202 2.305 4.5 1" style="opacity:1"/><path fill="#c1b7b9" d="M189.5 127.5q1.937-.356 3 1a19.2 19.2 0 0 0-6 1v-1a5.73 5.73 0 0 1 3-1" style="opacity:1"/><path fill="#bd0025" d="M155.5 130.5q1.205 1.385.5 3-1.524-1.701-2 1-1.63-3.647-1.5 1-3.846-2.718-6-5 2.454-1.874 3.5-5l2.5 2.5q-3.314 1.436.5 3.5.513-3.179 2.5-1" style="opacity:1"/><path fill="#bc122a" d="m162.5 133.5-2 2q-.513 1.257-2 1-1.83 2.325 0 5-2.188-.1-4 1-1.91-.647-3-4-.166-.925-1-1.5 1.373-.417 2-1.5-.13-4.647 1.5-1 .476-2.701 2-1 .705-1.615-.5-3 .513-1.257 2-1 1.858-1.368 4-.5.557 2.405 1 4.5" style="opacity:1"/><path fill="#b48e92" d="M122.5 125.5v4q-1.303 3.325-1 7v2q-1.259-1.711-2-4a84 84 0 0 1 3-9" style="opacity:1"/><path fill="#bd0025" d="M145.5 130.5q-3.937 1.411 0 3.5a81 81 0 0 0-3 2.5h-2a5.58 5.58 0 0 1 1-3l-2-1a17.2 17.2 0 0 0 4-5.5q-1.116-1.559-3-1.5 1.453-1.214 2.5-3 1.5 4 3 0 .561 1.374 1.5 2.5l-3 3q1.129 1.006 1 2.5" style="opacity:1"/><path fill="#bb0128" d="M145.5 130.5h1q2.154 2.282 6 5-.627 1.083-2 1.5.834.575 1 1.5a4.93 4.93 0 0 0-3 .5l2 6q-1.615.705-3-.5.166-.925 1-1.5-2.841-1.651-2-4a7.3 7.3 0 0 1 3-2q-2.968-3.022-5.5.5-.575-.834-1.5-1a81 81 0 0 1 3-2.5q-3.937-2.089 0-3.5" style="opacity:1"/><path fill="#b90527" d="M171.5 138.5v2h-2q-2.128-1.426-5-1v-4q2-1 0-2l2-2q2.2-1.188 4 0a3.65 3.65 0 0 1-1 1.5q2.042 2.377 2 5.5" style="opacity:1"/><path fill="#d0d5d5" d="M179.5 130.5a26.3 26.3 0 0 1-5 2v-1q2.128-1.426 5-1" style="opacity:1"/><path fill="#bc0127" d="M122.5 129.5q1.209 2.246 2 5 .686 1.197 2 1l4 1v2q-.925-.166-1.5-1-.417 1.373-1.5 2-.375-2.133-2.5-3-1.48 1.006-3.5 0-.303-3.675 1-7" style="opacity:1"/><path fill="#b26e73" d="M199.5 132.5h2q6.202 1.477 13 1h1q-.467 1.467-2 2-3.58-.871-7.5 0-4.44.689-6.5-3" style="opacity:1"/><path fill="#ad9c9e" d="M162.5 133.5h2q2 1 0 2-.5-2-1 0h-3z" style="opacity:1"/><path fill="#95636c" d="M173.5 131.5h1v1a5.73 5.73 0 0 0 1 3q-1.487.257-2-1z" style="opacity:1"/><path fill="#bb0126" d="m147.5 144.5-2-2h-3q-.084-4.525-1-1-1.184-.424-2-1.5 1.911-1.466 0-2.5 0-1 1-1h2q.925.166 1.5 1 2.532-3.522 5.5-.5a7.3 7.3 0 0 0-3 2q-.841 2.349 2 4-.834.575-1 1.5" style="opacity:1"/><path fill="#a98e94" d="M158.5 136.5a20.7 20.7 0 0 0 1 5h-1q-1.83-2.675 0-5" style="opacity:1"/><path fill="#bd0025" d="M138.5 131.5q-1.81 2.07 1 3.5-1.457 1.806-3 1.5.95 3.029 3 1 1.911 1.034 0 2.5.816 1.076 2 1.5v2q-1.345-1.647-2.5 0a7.3 7.3 0 0 1-2-3q-1.436 3.314-3.5-.5l1-1a8.4 8.4 0 0 0-4-.5v-2q.925.166 1.5 1 4.116-2.377 6.5-6" style="opacity:1"/><path fill="#ab9095" d="M163.5 135.5h1v4q2.872-.426 5 1h-6z" style="opacity:1"/><path fill="#b93b3f" d="M173.5 134.5q.513 1.257 2 1 2.901.915 5 3 1.445 1.295 0 2a5.58 5.58 0 0 0-3-1q-5.311-2.034-1 2 .257 1.487-1 2-1.487.257-2-1-.5-1.5-2-2v-2z" style="opacity:1"/><path fill="#b5a3a6" d="M177.5 139.5q-1.257.513-1 2-4.311-4.034 1-2" style="opacity:1"/><path fill="#bc3339" d="M121.5 136.5q2.02 1.006 3.5 0 2.125.867 2.5 3-1.857.465 0 1.5l3 1q-1.006 1.48 0 3.5.13 4.617 4 7-1.201 2.313-1 5-1.76-1.52-2-4 .322-2.519-2-3-1.1-1.812-1-4 0-3-3-3-.71-2.11-3-2a5.73 5.73 0 0 1-1-3z" style="opacity:1"/><path fill="#bc0127" d="M130.5 138.5a8.4 8.4 0 0 1 4 .5l-1 1q2.064 3.814 3.5.5a7.3 7.3 0 0 0 2 3q1.155-1.647 2.5 0-.627 1.083-2 1.5 1.936 4.538-2 1 1.26-2.5-1.5-.5-.417-1.373-1.5-2-2.343.35-4 2-1.006-2.02 0-3.5l-3-1q-1.857-1.035 0-1.5 1.083-.627 1.5-2 .575.834 1.5 1" style="opacity:1"/><path fill="#bd0025" d="M151.5 138.5q1.09 3.353 3 4-.837 1.935-3 2.5-.449 1.61 0 3.5-4.944.075-4-4 1.385 1.205 3 .5l-2-6a4.93 4.93 0 0 1 3-.5" style="opacity:1"/><path fill="#aa9197" d="M180.5 138.5q2.322.481 2 3-3.297.57-5-2 1.703 2.57 5 2 .322-2.519-2-3" style="opacity:1"/><path fill="#b0848f" d="M122.5 141.5q2.29-.11 3 2-2.29.11-3-2" style="opacity:1"/><path fill="#bb0125" d="M158.5 141.5q.41 2.926-2 4.5l1 1-4 1a14.4 14.4 0 0 1 0 4.5q-1 0-1-1-1.144-1.152-3-1.5 1.373-.417 2-1.5-.449-1.89 0-3.5 2.163-.565 3-2.5 1.812-1.1 4-1" style="opacity:1"/><path fill="#bbaeb4" d="M170.5 140.5h1q1.5.5 2 2-2.29.11-3-2" style="opacity:1"/><path fill="#af9499" d="M125.5 143.5q3 0 3 3a6.55 6.55 0 0 1-3-3" style="opacity:1"/><path fill="#b90227" d="m145.5 142.5 2 2q-.944 4.075 4 4-.627 1.083-2 1.5 1.856.348 3 1.5h-1q-1.983-.255-3.5 1-2.26-5.604-2.5 0-3.123-.042-5.5 2a2.43 2.43 0 0 1-.5-2q.356-1.936-1-3 .09-.814 1-1a6.8 6.8 0 0 1 1.5 3q1-2 2 0 2.592-2.541-1.5-3.5 2-1 0-2 1.75-.75 2.5-2.5 1.66 1.818 1.5-1" style="opacity:1"/><path fill="#d8d6d6" d="M176.5 141.5q1.914 1.329 0 3-.91-.186-1-1 1.257-.513 1-2" style="opacity:1"/><path fill="#bb0127" d="M134.5 143.5q-.679 1.438-2 2.5 2.412.703 5 2-1.129 1.006-1 2.5 1.5 3.5-2 2-3.87-2.383-4-7 1.657-1.65 4-2" style="opacity:1"/><path fill="#bd0025" d="M145.5 142.5q.16 2.818-1.5 1-.75 1.75-2.5 2.5 2 1 0 2 4.092.959 1.5 3.5-1-2-2 0a6.8 6.8 0 0 0-1.5-3q-.91.186-1 1l-2 1q-.129-1.494 1-2.5-2.588-1.297-5-2 1.321-1.062 2-2.5 1.083.627 1.5 2 2.76-2 1.5.5 3.936 3.538 2-1 1.373-.417 2-1.5v-2q.916-3.525 1 1z" style="opacity:1"/><path fill="#bc222f" d="M158.5 141.5h1q1.76 1.52 2 4-.11 2.29 2 3 .357 2.856 3 4 1.76 1.52 2 4-.513 1.257-2 1-1.18-2.406-4-2v6q-1.002-4.118-4-7.5l1-1q-2.247-.877-3 1.5h-2q-1 0-1-1v-1a14.4 14.4 0 0 0 0-4.5l4-1-1-1q2.41-1.574 2-4.5" style="opacity:1"/><path fill="#ab868b" d="M161.5 145.5q2.11.71 2 3-2.11-.71-2-3" style="opacity:1"/><path fill="#bb0227" d="M138.5 149.5q1.356 1.064 1 3-1.214 1.453-3 2.5 1.116 1.558 3 1.5v1h-6q-.201-2.687 1-5 3.5 1.5 2-2z" style="opacity:1"/><path fill="#af8185" d="M163.5 148.5q2.643 1.144 3 4-2.643-1.144-3-4" style="opacity:1"/><path fill="#b78283" d="M129.5 150.5q2.322.481 2 3-1.352-1.185-2-3" style="opacity:1"/><path fill="#be0026" d="M151.5 151.5a420 420 0 0 0-7 5h-5q-1.884.058-3-1.5 1.786-1.047 3-2.5a2.43 2.43 0 0 0 .5 2q2.377-2.042 5.5-2 .24-5.604 2.5 0 1.517-1.255 3.5-1" style="opacity:1"/><path fill="#bd0025" d="M153.5 153.5q0 1 1 1 .166.925 1 1.5-4.894 1.304-1 4-1.373.417-2 1.5h-2q-1.984-4.171.5-8l1 2q.417-1.373 1.5-2" style="opacity:1"/><path fill="#b20226" d="M162.5 161.5v1q-2.867.111-3.5 3-2.178-2.11.5-4.5-1.116-1.558-3-1.5 3.977-2.549 0-5 .753-2.377 3-1.5l-1 1q2.998 3.382 4 7.5" style="opacity:1"/><path fill="#a16971" d="M166.5 157.5a4.93 4.93 0 0 0-3 .5q-.677 2.984 2 5.5a5.73 5.73 0 0 1-3-1v-7q2.82-.406 4 2" style="opacity:1"/><path fill="#9e8186" d="M133.5 157.5h6q1.314-.197 2 1-1.783 1.393-4 1z" style="opacity:1"/><path fill="#ba0227" d="M151.5 151.5h1q0 1 1 1v1q-1.083.627-1.5 2l-1-2q-2.484 3.829-.5 8l-2-1a10.1 10.1 0 0 1-4-1.5q-1.647-1.155 0-2.5a420 420 0 0 1 7-5" style="opacity:1"/><path fill="#bb0127" d="M154.5 154.5h2q3.977 2.451 0 5a24 24 0 0 1-3.5 5 4.93 4.93 0 0 1-.5-3q.627-1.083 2-1.5-3.894-2.696 1-4-.834-.575-1-1.5" style="opacity:1"/><path fill="#8f8d8f" d="M168.5 156.5q4.316 3.519-1 2.5-.834-.575-1-1.5 1.487.257 2-1" style="opacity:1"/><path fill="#b71229" d="M139.5 157.5v-1h5q-1.647 1.345 0 2.5a10.1 10.1 0 0 0 4 1.5q-.423 1.917-2 3-3.264-2.698-7-1a5.58 5.58 0 0 1 1 3q-1.5-.5-2-2l-1-4q2.217.393 4-1-.686-1.197-2-1" style="opacity:1"/><path fill="#b18e95" d="m137.5 159.5 1 4q-4.54-1.888-1-4" style="opacity:1"/><path fill="#bb0126" d="M146.5 163.5q.456.975 1 2a71 71 0 0 0-4 2q-1.083-1.577-3-2a5.58 5.58 0 0 0-1-3q3.736-1.698 7 1" style="opacity:1"/><path fill="#bc0126" d="M156.5 159.5q1.884-.058 3 1.5-2.678 2.39-.5 4.5.633-2.889 3.5-3-.493 3.756-4 5.5a113 113 0 0 1-15 .5v-1a71 71 0 0 1 4-2 44 44 0 0 1-1-2q1.577-1.083 2-3l2 1h2a4.93 4.93 0 0 0 .5 3 24 24 0 0 0 3.5-5" style="opacity:1"/><path fill="#b64245" d="M162.5 162.5q1.337.915 3 1 1.487-.257 2 1a11.74 11.74 0 0 1-3 5q-1 0-1 1h-1q-9.7-.885-19-2a113 113 0 0 0 15-.5q3.507-1.744 4-5.5" style="opacity:1"/><path fill="#bd3e42" d="M167.5 164.5q4.35 1.415 7 5-4.014-2.622-5.5 2-1-4-2 0-1.062-1.321-2.5-2a11.74 11.74 0 0 0 3-5" style="opacity:1"/><path fill="#b28083" d="M140.5 165.5q1.917.423 3 2v1q-2.466-.465-3-3" style="opacity:1"/><path fill="#bb1229" d="M174.5 169.5q3.788 4.786 0 9-1.487.257-2-1-.71-2.11-3-2-1.144-2.643-4-3-.5-1.5-2-2 0-1 1-1 1.438.679 2.5 2 1-4 2 0 1.486-4.622 5.5-2" style="opacity:1"/><path fill="#bda5a9" d="M143.5 171.5q.895-.958 2.5-1 5.025.668 9.5 2a73.3 73.3 0 0 1-12-1" style="opacity:1"/><path fill="#ae9195" d="M162.5 170.5h1q1.5.5 2 2-2.29.11-3-2" style="opacity:1"/><path fill="#b91b2c" d="M143.5 171.5q5.949.993 12 1 2.398-.401 4 1a50.5 50.5 0 0 0-10 .5 54 54 0 0 0 3 6 16.6 16.6 0 0 0-4 2.5q.308-2.456-1.5-5a6.8 6.8 0 0 1-1.5 3l-1-.5a74 74 0 0 0-3-6.5q.5-1.5 2-2" style="opacity:1"/><path fill="#a7676c" d="M165.5 172.5q2.856.357 4 3-2.856-.357-4-3" style="opacity:1"/><path fill="#b2999e" d="M174.5 169.5q3.096.393 4 3.5-1.92 3.197 0 6.5-2.61 1.964-4-1 3.788-4.214 0-9" style="opacity:1"/><path fill="#ac8d92" d="m140.5 174.5 2 5q-4.038-1.636-2-5" style="opacity:1"/><path fill="#b88688" d="M159.5 173.5q2.595.789 4 3-3.198-.081-4-3" style="opacity:1"/><path fill="#bb0127" d="M159.5 173.5q.802 2.919 4 3l-4 3q-1.983.255-3.5-1-2.04 4.352-5.5 5-1.487.257-2-1a16.6 16.6 0 0 1 4-2.5 54 54 0 0 1-3-6 50.5 50.5 0 0 1 10-.5" style="opacity:1"/><path fill="#b4a2a9" d="M169.5 175.5q2.29-.11 3 2-2.29.11-3-2" style="opacity:1"/><path fill="#b8232f" d="M141.5 173.5a74 74 0 0 1 3 6.5l1 .5a6.8 6.8 0 0 0 1.5-3q1.808 2.544 1.5 5 .513 1.257 2 1l-1 2q-1.657-1.65-4-2l-3-4-2-5q0-1 1-1" style="opacity:1"/><path fill="#b98487" d="M165.5 177.5q3.381.936 5 4-3.442-.954-5-4" style="opacity:1"/><path fill="#c04143" d="M163.5 176.5q1.487-.257 2 1 1.558 3.046 5 4 1.911 1.034 0 2.5-3.147 1.017-6-.5-1.684-1.886-2 1a29.6 29.6 0 0 0-3-5z" style="opacity:1"/><path fill="#a39395" d="M164.5 183.5q-1.257.513-1 2-1 0-1-1 .316-2.886 2-1" style="opacity:1"/><path fill="#ba0427" d="M159.5 179.5a29.6 29.6 0 0 1 3 5q0 1 1 1a238 238 0 0 1 2.5 13q-2.176-2.946-5.5-4-1 0-1 1 .329 1.763-1 3a34.3 34.3 0 0 1-1.5-8l-6-2q-.279 3.804-1.5 7v-10l1-2q3.46-.648 5.5-5 1.517 1.255 3.5 1" style="opacity:1"/><path fill="#a88a91" d="M145.5 183.5q2.343.35 4 2v10q-1.228-4.207-1.5-9a10.5 10.5 0 0 1-2.5-3" style="opacity:1"/><path fill="#af8a90" d="M163.5 185.5q3.475 6.44 4 14h-3q-1.5-2.5-4-4v-1q3.324 1.054 5.5 4a238 238 0 0 0-2.5-13" style="opacity:1"/><path fill="#9c6e78" d="M159.5 195.5h1v4h-4a32.5 32.5 0 0 0-.5-8q-2.034-1.32-4.5-1a13.1 13.1 0 0 1-1 7q-1.197-.686-1-2 1.221-3.196 1.5-7l6 2a34.3 34.3 0 0 0 1.5 8q1.329-1.237 1-3" style="opacity:1"/></svg>