<svg xmlns="http://www.w3.org/2000/svg" xml:space="preserve" viewBox="0 0 512 512"><path d="M38.345 423.724h435.31c21.177 0 38.345-17.167 38.345-38.345v-73.471H0v73.471c0 21.178 17.167 38.345 38.345 38.345" style="fill:#73af00"/><path d="M512 126.621c0-21.177-17.167-38.345-38.345-38.345H38.345C17.167 88.276 0 105.443 0 126.621v73.471h512z" style="fill:#ff4b55"/><path d="M0 200.09h512V311.9H0z" style="fill:#ffe15a"/><path d="m244.598 205.956-.653.817a26 26 0 0 0-1.47 2.254c-1.145 1.999-2.347 5.098-2.38 8.792-.012 1.801.36 3.988.974 5.727.666 1.92 1.771 3.756 3.168 5.396 1.399 1.655 3.268 2.931 5.267 3.873.991.503 2.079.792 3.158 1.058.535.163 1.105.171 1.654.279.276.052.562.029.841.051l.422.019.211.011.105.006.053.003.026.001c-.085.003.227-.004-.184.007.684-.04 1.514-.045 2.078-.114.492-.115.906-.095 1.47-.262 1.08-.266 2.167-.555 3.158-1.058 1.998-.942 3.868-2.218 5.267-3.873 1.397-1.64 2.502-3.476 3.168-5.396.638-1.953.979-3.822.974-5.736-.031-3.678-1.234-6.788-2.379-8.785a23 23 0 0 0-1.494-2.276l-.607-.776-.053-.067a1.116 1.116 0 0 1 1.482-1.629l.937.6c.578.434 1.474 1.047 2.439 2.039 1.937 1.918 4.451 5.334 5.358 10.298.449 2.376.498 5.25-.121 8.075-.6 2.854-1.817 5.805-3.782 8.387-1.93 2.594-4.523 4.888-7.606 6.435-1.521.811-3.176 1.4-4.874 1.81-.814.239-1.847.338-2.767.483-.862.095-1.475.097-2.226.15l-.292.001-.082-.004-.164-.008-.328-.017-.657-.035c-.437-.035-.876-.029-1.309-.104-.863-.152-1.741-.223-2.583-.466-1.698-.409-3.354-.999-4.874-1.81-3.083-1.547-5.676-3.842-7.606-6.435-1.964-2.583-3.181-5.534-3.782-8.387-.642-3.04-.562-5.596-.12-8.084.905-4.949 3.421-8.377 5.357-10.291.961-.988 1.86-1.607 2.463-2.061l.891-.559a1.124 1.124 0 0 1 1.472 1.661" style="fill:#73af00"/><path d="M253.782 293.866v13.971c0 1.394-1.685 2.092-2.67 1.107l-.769-.769a3.4 3.4 0 0 1-.998-2.408v-11.901z" style="fill:#ff4b55"/><path d="M247.126 291.647v10.141c0 .609.242 1.194.673 1.625l1.545 1.545v-13.311z" style="fill:#ffe15a"/><path d="M244.908 291.647v5.442c0 .777.309 1.522.857 2.071l1.361 1.361v-8.874z" style="fill:#73af00"/><path d="M258.219 293.866v13.971c0 1.394 1.685 2.092 2.67 1.107l.769-.769a3.4 3.4 0 0 0 .998-2.408v-11.901z" style="fill:#ff4b55"/><path d="M264.874 291.647v10.141c0 .609-.242 1.194-.673 1.625l-1.545 1.545v-13.311z" style="fill:#ffe15a"/><path d="M267.093 291.647v5.442c0 .777-.309 1.522-.857 2.071l-1.361 1.361v-8.874z" style="fill:#73af00"/><path d="m267.093 251.715 24.403-17.748v36.498c0 10.474-8.491 18.964-18.964 18.964-3.554 0-7.037-.999-10.051-2.882l-13.135-8.21v-26.93z" style="fill:#ff4b55"/><path d="M282.622 240.42v25.607c0 10.474-8.491 18.964-18.964 18.964-1.575 0-3.127-.227-4.64-.61l-9.673-6.046v-26.93l17.748.308z" style="fill:#ffe15a"/><path d="M275.967 245.261v16.531c0 10.474-8.491 18.964-18.964 18.964-1.575 0-3.128-.227-4.64-.61l-3.018-1.886v-26.854l17.748.308z" style="fill:#73af00"/><path d="m292.826 229.974 9.763-4.88-7.1 8.873h-3.993z" style="fill:#f5f5f5"/><path d="m280.404 262.807 24.403-17.748v36.498c0 10.474-8.491 18.964-18.964 18.964-3.554 0-7.037-.999-10.051-2.882l-13.135-8.21v-26.93z" style="fill:#ff4b55"/><path d="M289.278 256.353v16.531c0 10.474-8.491 18.964-18.964 18.964-1.575 0-3.127-.227-4.64-.61l-3.018-1.886V262.5l17.748.308z" style="fill:#73af00"/><path d="m306.137 241.066 9.763-4.881-7.1 8.874h-3.993z" style="fill:#f5f5f5"/><path d="m273.748 258.37 24.403-17.748v36.498c0 10.474-8.491 18.964-18.964 18.964-3.554 0-7.037-.999-10.051-2.882L256 284.992v-26.93z" style="fill:#ff4b55"/><path d="M289.278 247.076v25.607c0 10.474-8.491 18.964-18.964 18.964-1.575 0-3.127-.227-4.64-.61L256 284.992v-26.93l17.748.308z" style="fill:#ffe15a"/><path d="M282.622 251.916v16.531c0 10.474-8.491 18.964-18.964 18.964-1.575 0-3.127-.227-4.64-.61L256 284.916v-26.854l17.748.308z" style="fill:#73af00"/><path d="m299.482 236.629 9.762-4.881-7.1 8.874h-3.992z" style="fill:#f5f5f5"/><path d="m244.908 251.715-24.403-17.748v36.498c0 10.474 8.491 18.964 18.964 18.964 3.554 0 7.037-.999 10.051-2.882l13.135-8.21v-26.93z" style="fill:#ff4b55"/><path d="M229.378 240.42v25.607c0 10.474 8.491 18.964 18.964 18.964 1.575 0 3.127-.227 4.64-.61l9.673-6.046v-26.93l-17.748.308z" style="fill:#ffe15a"/><path d="M236.034 245.261v16.531c0 10.474 8.491 18.964 18.964 18.964 1.575 0 3.128-.227 4.64-.61l3.018-1.886v-26.854l-17.748.308z" style="fill:#73af00"/><path d="m219.174 229.974-9.762-4.88 7.1 8.873h3.992z" style="fill:#f5f5f5"/><path d="m231.597 262.807-24.403-17.748v36.498c0 10.474 8.491 18.964 18.964 18.964 3.554 0 7.037-.999 10.051-2.882l13.135-8.21v-26.93z" style="fill:#ff4b55"/><path d="M222.723 256.353v16.531c0 10.474 8.491 18.964 18.964 18.964 1.575 0 3.127-.227 4.64-.61l3.018-1.886V262.5l-17.748.308z" style="fill:#73af00"/><path d="m205.863 241.066-9.761-4.881 7.099 8.874h3.992z" style="fill:#f5f5f5"/><path d="m238.252 258.37-24.403-17.748v36.498c0 10.474 8.491 18.964 18.964 18.964 3.554 0 7.037-.999 10.051-2.882l13.135-8.21v-26.93z" style="fill:#ff4b55"/><path d="M222.723 247.076v25.607c0 10.474 8.491 18.964 18.964 18.964 1.575 0 3.127-.227 4.64-.61l9.673-6.046v-26.93l-17.748.308z" style="fill:#ffe15a"/><path d="M229.378 251.916v16.531c0 10.474 8.491 18.964 18.964 18.964 1.575 0 3.127-.227 4.64-.61l3.018-1.886v-26.854l-17.748.308z" style="fill:#73af00"/><path d="m226.947 291.354-2.925-2.925a4.44 4.44 0 0 1 .106-6.378l48.417-45.496 6.275 6.275-45.496 48.417a4.434 4.434 0 0 1-6.377.107" style="fill:#ffbe5a"/><circle cx="225.49" cy="289.89" r="2.218" style="fill:#ffbe5a"/><ellipse cx="275.685" cy="239.694" rx="4.436" ry="2.218" style="fill:#f5f5f5" transform="rotate(-134.999 275.686 239.696)"/><path d="m285.053 291.354 2.925-2.925a4.44 4.44 0 0 0-.106-6.378l-48.417-45.496-6.275 6.275 45.496 48.417a4.434 4.434 0 0 0 6.377.107" style="fill:#ffbe5a"/><circle cx="286.51" cy="289.89" r="2.218" style="fill:#ffbe5a"/><ellipse cx="236.327" cy="239.701" rx="4.436" ry="2.218" style="fill:#f5f5f5" transform="rotate(-45.001 236.325 239.705)"/><ellipse cx="256" cy="266.14" rx="19.616" ry="23.294" style="fill:#ffbe5a"/><path d="m256 245.059 1.042 4.519 2.386-3.976-.407 4.619 3.499-3.043-1.814 4.268 4.268-1.814-3.044 3.498 4.62-.406-3.977 2.387 4.52 1.041-4.52 1.041 3.977 2.387-4.62-.406 3.044 3.497-4.268-1.814 1.814 4.269-3.499-3.044.407 4.619-2.386-3.975-1.042 4.518-1.041-4.518-2.386 3.975.406-4.619-3.498 3.044 1.813-4.269-4.267 1.814 3.043-3.497-4.619.406 3.976-2.387-4.519-1.041 4.519-1.041-3.976-2.387 4.619.406-3.043-3.498 4.267 1.814-1.813-4.268 3.498 3.043-.406-4.619 2.386 3.976z" style="fill:#ff4b55"/><path d="M280.542 265.719s-7.349 1.941-12.132-2.08c-5.316-4.469-9.302-6.579-11.01-7.371a2.15 2.15 0 0 0-1.825-.001c-1.224.565-3.476 1.736-5.468 3.49-2.912 2.566-11.855 7.626-13.657 7.626v11.029l14.073 12.196 16.639-.486z" style="fill:#73af00"/><path d="M256 294.975c-14.068 0-25.513-12.938-25.513-28.84s11.444-28.84 25.513-28.84 25.513 12.938 25.513 28.84-11.445 28.84-25.513 28.84m0-51.025c-10.398 0-18.857 9.953-18.857 22.185S245.602 288.32 256 288.32s18.857-9.953 18.857-22.185S266.398 243.95 256 243.95" style="fill:#3cc8ff"/><path d="m252.178 288.946.489 1.465 1.545.012c.2.001.282.257.122.375l-1.242.918.466 1.473a.208.208 0 0 1-.32.232l-1.257-.898-1.257.898a.209.209 0 0 1-.32-.232l.466-1.473-1.242-.918a.208.208 0 0 1 .122-.375l1.545-.012.489-1.465a.207.207 0 0 1 .394 0M245.242 285.964l.489 1.465 1.545.012c.2.001.282.257.122.375l-1.242.918.466 1.473a.208.208 0 0 1-.32.232l-1.257-.898-1.257.898a.209.209 0 0 1-.32-.232l.466-1.473-1.242-.918a.208.208 0 0 1 .122-.375l1.545-.012.489-1.465c.063-.19.332-.19.394 0M239.673 280.904l.489 1.465 1.545.012c.2.001.282.257.122.375l-1.242.918.466 1.473a.208.208 0 0 1-.32.232l-1.257-.898-1.257.898a.209.209 0 0 1-.32-.232l.466-1.473-1.242-.918a.208.208 0 0 1 .122-.375l1.545-.012.489-1.465a.207.207 0 0 1 .394 0M235.875 274.167l.489 1.465 1.545.012c.2.001.282.257.122.375l-1.242.918.466 1.473a.208.208 0 0 1-.32.232l-1.257-.898-1.257.898a.209.209 0 0 1-.32-.232l.466-1.473-1.242-.918a.208.208 0 0 1 .122-.375l1.545-.012.489-1.465a.207.207 0 0 1 .394 0M234.199 266.333l.489 1.465 1.545.012c.2.001.282.257.122.375l-1.242.918.466 1.473a.208.208 0 0 1-.32.232l-1.257-.898-1.257.898a.209.209 0 0 1-.32-.232l.466-1.473-1.242-.918a.208.208 0 0 1 .122-.375l1.545-.012.489-1.465c.062-.19.331-.19.394 0M259.812 288.946l-.489 1.465-1.545.012c-.2.001-.282.257-.122.375l1.242.918-.466 1.473a.208.208 0 0 0 .32.232l1.257-.898 1.257.898a.209.209 0 0 0 .32-.232l-.466-1.473 1.242-.918a.208.208 0 0 0-.122-.375l-1.545-.012-.489-1.465a.207.207 0 0 0-.394 0M266.748 285.964l-.489 1.465-1.545.012a.208.208 0 0 0-.122.375l1.242.918-.466 1.473a.208.208 0 0 0 .32.232l1.257-.898 1.257.898a.209.209 0 0 0 .32-.232l-.466-1.473 1.242-.918a.208.208 0 0 0-.122-.375l-1.545-.012-.489-1.465c-.063-.19-.332-.19-.394 0M272.317 280.904l-.489 1.465-1.545.012c-.2.001-.282.257-.122.375l1.242.918-.466 1.473a.208.208 0 0 0 .32.232l1.257-.898 1.257.898a.209.209 0 0 0 .32-.232l-.466-1.473 1.242-.918a.208.208 0 0 0-.122-.375l-1.545-.012-.489-1.465c-.062-.19-.331-.19-.394 0M276.115 274.167l-.489 1.465-1.545.012c-.2.001-.282.257-.122.375l1.242.918-.466 1.473a.208.208 0 0 0 .32.232l1.257-.898 1.257.898a.209.209 0 0 0 .32-.232l-.466-1.473 1.242-.918a.208.208 0 0 0-.122-.375l-1.545-.012-.489-1.465a.207.207 0 0 0-.394 0M277.791 266.333l-.489 1.465-1.545.012a.208.208 0 0 0-.122.375l1.242.918-.466 1.473a.208.208 0 0 0 .32.232l1.257-.898 1.257.898a.209.209 0 0 0 .32-.232l-.466-1.473 1.242-.918a.208.208 0 0 0-.122-.375l-1.545-.012-.489-1.465c-.062-.19-.33-.19-.394 0" style="fill:#ffbe5a"/><path d="m246.361 280.358.737 3.526h.318v-2.406s.524 1.678 1.266 2.406h.6c-.287-.369-.803-1.135-.803-1.927 0-1.091.868-1.24.868-2.407h.744v4.333h.435l.806-3.861s.664 2.415 1.914 3.861h.556c-.401-.589-1.234-2.109-1.081-4.407 0 0 1.191-.596 1.191-2.208v-2.294c0-.429.349-.778.778-.778h.535s-.796-1.544-1.647-1.768v-.968l-.641.969c-.612.132-.973.698-.973 1.304v1.397a.78.78 0 0 1-.778.778h-2.781c-.823 0-2.142.823-2.142 1.878s.791 1.747.791 1.747z" style="fill:#f5f5f5"/><path d="M258.819 276.843h-.255c-2.016.11-3.142 1.436-3.142 1.436l2.045 2.045v3.848h2.447v-3.848l2.045-2.045c.002 0-1.124-1.325-3.14-1.436" style="fill:#ffbe5a"/><path d="M263.12 270.55h.739v13.634h-.739z" style="fill:#f5f5f5"/><path d="m263.511 270.445-3.987 4.819s-.52-2.323 1.803-4.61l-5.13.936s1.56-2.912 5.65-2.6l-4.194-3.501s3.605-.207 5.442 2.496c0 0 1.039-3.119 3.951-3.258l-2.403 3.651s2.403-1.225 5.731-.15l-4.957 1.318s2.773.277 3.917 4.333l-4.298-2.946s1.318 1.56.832 4.61zM212.519 236.629l-9.763-4.881 7.1 8.874h3.993z" style="fill:#f5f5f5"/><path d="m262.941 230.978 26.337-8.104-13.981-5.242a22.2 22.2 0 0 0-7.789-1.412h-2.633a2.22 2.22 0 0 0-2.218 2.218v2.218h-13.312v-2.218a2.22 2.22 0 0 0-2.218-2.218h-2.633c-2.66 0-5.299.479-7.789 1.412l-13.981 5.242 26.337 8.104a2.22 2.22 0 0 1 1.332 3.113l-3.266 6.531h17.748l-3.266-6.531a2.218 2.218 0 0 1 1.332-3.113" style="fill:#825546"/><circle cx="256" cy="222.87" r="4.436" style="fill:#f5f5f5"/><path d="M258.219 222.874a2.22 2.22 0 0 1-2.218 2.218h-8.874l3.787-3.787c.416-.416.98-.65 1.569-.65H256a2.22 2.22 0 0 1 2.219 2.219" style="fill:#ffbe5a"/></svg>