<svg xmlns="http://www.w3.org/2000/svg" xml:space="preserve" viewBox="0 0 496 496"><path d="M322.555 303.435c3.975-.933 7.425-2.082 10.595-4.027 3.222-1.977 6.863-2.258 10.542-2.667 6.69-.744 12.868-1.33 17.218-8.608 2.893-4.841 8.269-9.02 14.057-11.598 1.77-.788 3.381-1.93 5.344-3.07-.812-.988-1.252-1.683-1.838-2.216-25.777-23.452-45.243-51.924-64.276-80.742-1.836-2.781-3.663-5.569-5.512-8.342-3.888-5.835-4.249-4.827-10.874-2.774-3.878 1.202-4.233 6.434-9.104 5.318 3.02 2.622 2.94 5.25 1.383 8.215-1.203 2.29-.8 4.89-.803 7.381-.01 8.957-.004 17.914-.004 27.483-5.336-2.811-7.768-7.767-11.07-11.876-3.373-4.195-5.709-8.915-7.81-13.868s-.92-10.424-2.627-15.367c-2.755 11.313-8.32 21.67-9.271 33.46-9.19-9.067-10.879-20.279-8.695-31.998 3.165-16.983 16.062-23.357 31.758-26.688-1.6-1.29-3.582-1.891-3.927-4.363-.868 2.8-3.85.86-5.117 3.272-1.383 2.63-3.859 1.896-5.333.197-6.899 5.801-13.802 11.262-17.516 19.749-.896-10.389 1.194-19.845 8.112-27.528 10.934-12.144 23.18-8.409 35.108-1.679 1.249-1.653.852-3.026.591-4.262-4.064-19.275 8.013-32.045 27.867-30.793 8.845.558 17.955-.004 26.635 2.892 6.873 2.293 13.525 4.83 18.113 10.866.397.522.722 1.114.99 1.714.121.268.021.634.021.935-5.373 2.86-10.873-.819-16.51.649-5.545 1.443-11.614.868-17.891 1.203-.566 1.519-.923 3.053 2.08 3.005 6.345-.1 12.068 2.064 17.641 4.836 1.317.655 2.806 1.287 4.236 1.336 6.127.212 10.846 3.035 14.523 7.669 2.389 3.01 3.927 2.895 5.802-.504 7.566-13.718 16.862-16.477 30.402-8.514 7.667 4.51 16.177 8.061 21.429 15.93 2.125 3.185 4.19 6.32 3.713 10.487-7.351-2.21-7.86-2.544-9.332-5.764-6.02 1.141-10.14-3.727-16.669-4.085 11.887 7.43 17.855 18.125 20.592 31.052-9.934-6.814-20.471-12.453-31.296-18.647 5.524 8.937 5.538 18.495 1.015 29.051-4.191-7.149-4.874-14.99-10.74-20.885-1.703 4.613-1.12 8.628-.59 12.419 3.288 23.473 10.523 45.69 21.953 66.491 2.608 4.748 6.41 7.944 12.009 8.59 1.9.22 3.547 1.073 4.707 2.575 1.942 2.516 4.648 4.024 7.526 4.652 7.057 1.538 9.808 6.68 11.63 12.788.338 1.133.8 3.042 1.592 2.873 6.12-1.309 6.364 5.353 10.04 7.103 3.854 1.835 7.683 3.29 11.283 5.974 4.196 3.13 10.27 1.947 15.483 2.918 2.254.42 4.457.722 6.348 1.815-.384 2.202-1.822 1.848-2.846 2.028-13.882 2.45-27.688 5.038-41.956 4.718-16.638-.373-33.262 2.01-49.94.85-15.79-1.1-31.648-1.063-47.407-2.089-11.698-.761-23.47-1.853-36.426-3.098 3.75-4.764 8.55-4.896 13.042-6.442m49.465-125.54c-5.415-1.873-8.49-.814-11.811 3.35-4.264 5.35-7.877 10.956-10.365 17.41-.968 2.511-2.029 5.473-4.36 7.473-6.06-6.977-.319-19.32-11.442-23.486-5.572 7.653-5.61 7.682-.272 14.732 13.624 17.993 29.25 34.028 47.11 47.851 1.315 1.019 2.471 2.574 4.92 2.415-5.445-20.275-7.987-40.684-10.756-61.059-.388-2.849.36-6.136-3.024-8.686m-51.432-6.706c-.888-.306-.559-2.003-2.348-1.683.422 5.11 3.028 9.086 6.033 13.274 3.087-7.848 3.087-7.848-3.685-11.591m9.657-13.891c-1.039-.862-1.419-2.772-3.58-2.135-1.416 4.228 2.437 4.36 4.558 5.531 2.61 1.442 2.394-1.005 2.904-2.524-1.196-.17-2.288-.324-3.882-.872M13.88 331.17c10.426-32.49 28.245-59.146 57.059-77.463 11.527-7.328 24.196-11.065 38.102-7.935 5.815 1.31 10.504 4.133 13.194 9.672 1.18 2.433 1.367 4.814-.739 6.904-1.899 1.884-4.104 1.98-6.46 1.012-.614-.253-1.294-.426-1.817-.809-10.095-7.395-20.39-4.808-29.453 1.063-25.616 16.592-42.513 40.131-50.349 69.526-4.932 18.504 4.279 30.658 23.394 33.53 11.29 1.696 22.538 1.489 33.777-.46 1.626-.283 3.337-.552 4.948-.348 4.363.554 5.97 4.663 3.247 8.097-1.82 2.295-4.353 3.604-7.063 4.517-19.834 6.683-39.683 6.653-59.072-1.234-17.51-7.122-24.128-21.87-19.78-41.788.283-1.299.607-2.589 1.013-4.283"/><path d="M300.334 310.959c0 1.818-.006 3.15.005 4.48.078 9.429.63 10.146 9.22 13.444 7.361 2.826 14.07 6.612 19.632 12.436 8.584 8.99 8.718 28.436-7.936 33.701-8.298 2.623-16.777 4.274-25.375 5.035-8.417.746-12.311-3.274-12.213-11.796.35-30.597 2.01-61.14 3.843-91.677.308-5.141.097-10.31 1.148-15.403.458-2.218.924-4.435 3.553-4.796 2.548-.35 4.568.963 5.81 3.115 1.788 3.095 2.172 6.561 2.297 10.09.481 13.629.598 27.256.016 41.37m-2.116 44.59c-.021 2.327-.063 4.654-.059 6.98.004 1.96.808 3.375 2.977 2.983 4.89-.884 9.867-1.534 14.343-3.934 2.046-1.097 3.132-2.832 3.429-5.168.817-6.43-6.763-14.326-14.222-14.742-4.356-.242-6.315 3.245-6.426 11.438-.006.499-.012.997-.042 2.443"/><path d="M247.956 269.443c.115 16.261.118 32.068.28 47.873.082 8.146.364 8.364 7.784 11.176 8.327 3.156 16.218 6.987 21.825 14.29 9.034 11.768 4.935 26.898-8.873 32.138-8.293 3.146-17.08 4.389-25.843 5.136-7.876.67-12.473-3.683-12.225-11.637.633-20.265 1.628-40.52 2.574-60.774.643-13.778 1.448-27.548 2.176-41.322.044-.83-.05-1.681.095-2.492.54-3.035.29-6.982 4.412-7.399 4.347-.438 5.838 3.203 6.854 6.647.558 1.893.613 3.935.941 6.364m.31 73.53c-3.984 6.517-2.754 13.753-2.727 20.785.008 1.966 1.952 2.052 3.47 1.752 4.385-.864 8.826-1.534 12.989-3.285 4.021-1.692 5.306-4.875 4.523-8.899-1.324-6.805-10.828-12.528-18.255-10.353M442.397 367.465c-3.142-8.82-6.97-17.01-8.238-26.024-.492-3.494-.837-6.953.18-10.393.95-3.212 2.425-6.212 6.381-5.763 4.04.459 6.182 3.299 6.234 7.247.057 4.35.16 8.607 2.333 12.825 1.053-2.725 1.853-5.221 2.957-7.575 3.414-7.278 8.598-12.535 17.149-12.417 9.428.13 17.623 3.614 21.636 12.632 5.673 12.746 4.717 25.638-1.41 38.112-1.095 2.228-2.52 4.723-5.52 4.306-3.316-.46-3.835-3.572-4.163-6.116-.617-4.793-.496-9.653.281-14.446.747-4.603-.178-9.001-1.814-13.191-2.04-5.227-6.17-5.95-10.19-2.05-3.747 3.634-5.466 8.399-6.604 13.253-1.519 6.473-2.548 13.084-1.746 19.783.379 3.16-1.056 5.176-3.68 6.393-2.655 1.232-4.964.156-6.669-1.93-3.43-4.198-5.306-9.2-7.117-14.646M432.369 365.763c.465 3.055.691 5.728 1.347 8.29 1.074 4.194-.444 6.897-4.422 8.084-4.13 1.232-7.685-.75-9.21-4.749-.687-1.802-.254-4.037-2.34-5.656-3.458 2.448-7.349 4.19-11.605 5.08-3.856.804-7.625.566-11.3-.785-5.325-1.96-6.972-5.267-4.82-10.533 3.618-8.853 10.695-15.12 16.983-21.96 2.072-2.252 4.765-4.093 5.434-7.67-3.78-1.243-6.757.006-9.695 1.616-1.446.792-2.872 1.85-4.432 2.158-3.346.66-6.506-.214-8.092-3.427-1.613-3.266.143-5.88 2.913-7.594 8.88-5.494 18.362-6.136 27.605-1.612 6.044 2.96 7.464 9.502 8.47 15.638 1.233 7.53 2.094 15.122 3.164 23.12m-26.868.859c6.779-3.283 9.194-9.364 10.645-16.082-5.27 3.678-9.44 8.271-12.74 13.643-1.035 1.686-1.726 3.29 2.095 2.439M127.465 324.446c11.023 1.33 15.804 5.442 17.614 16.298 1.884 11.295 2.838 22.738 5.09 33.991.716 3.574-.8 6.405-4.385 7.333-3.877 1.004-7.19.027-9.213-3.955-.977-1.921-.277-4.402-2.157-5.999-2.223-.09-3.498 1.766-5.279 2.556-2.772 1.23-5.656 2.123-8.624 2.385-5.236.461-10.908.465-13.951-4.49-2.94-4.787.17-9.318 3.026-13.263 3.808-5.26 8.072-10.156 12.733-14.7 2.582-2.517 5.36-4.928 6.71-8.894-3.897-1.04-7.08-.024-10.07 1.856-1.565.984-3.112 2.06-4.973 2.183-3.386.223-6.466-.742-7.83-4.087-1.318-3.232.823-5.414 3.303-7.017 5.343-3.453 11.256-4.789 18.006-4.197m-6.393 42.474c6.432-2.96 11.294-10.196 11.06-16.863-5.088 4.115-9.224 8.742-12.45 14.147-.486.816-2.6 2.836 1.39 2.716M375.917 379.35c-13.546 3.313-28.742-2.975-33.863-13.748-5.54-11.654-1.27-30.021 8.806-37.828a20.5 20.5 0 0 1 7.588-3.684c5.853-1.473 12.175 1.11 15.163 6.102 2.83 4.729 2.11 10.33-2.203 15.157-3.076 3.44-6.811 5.746-11.638 6.034-4.492.268-5.774 2.438-3.6 6.58 3.326 6.335 9.269 8.794 15.977 9.632 2.453.306 4.975.282 7.436-.417 3.392-.963 6.698-.536 7.97 3.04 1.357 3.818-2.202 5.085-4.749 6.449-2.036 1.09-4.308 1.742-6.887 2.683m-16.292-40.732c-.244 1.329.343 1.985 1.57 1.42 1.741-.802 3.332-1.88 2.925-4.263-2.286-.35-3.282.925-4.495 2.843M194.41 326.929c1.978 4.494.165 6.796-3.653 8.484-10.888 4.812-17.284 12.6-16.46 25.206.325 4.966.435 10.036-1.84 14.7-1.49 3.058-3.381 6.183-7.326 5.687-3.63-.455-4.803-3.626-5.671-6.822-.846-3.11-.766-6.267-.777-9.42-.03-8.489-.133-16.98.051-25.464.16-7.328 3.034-10.093 10.222-9.476 4.2.36 7.308-1.756 10.802-3.193 4.765-1.96 9.596-4.419 14.651.298M218.777 347.385c.887 7.55 1.733 14.648 2.428 21.761.241 2.474.312 5-.46 7.438-1.03 3.252-3.415 4.965-6.664 5.156-3.127.184-5.393-1.459-6.642-4.356-1.204-2.79-1.532-5.76-1.794-8.76-.341-3.9-.301-7.828-4.787-10.053-2.439-1.21-2.65-4.226-1.936-6.744 1.953-6.882 3.763-13.82 6.646-20.402 1.255-2.865 2.837-5.543 6.511-5.127 3.54.4 4.691 3.075 5.508 6.226 1.236 4.772.19 9.656 1.19 14.86M203.816 311.788c-1.871-6.386-.104-11.078 4.501-12.075 4.145-.897 8.05-.373 10.299 3.859 1.903 3.581.522 8.404-2.815 10.585-4.119 2.694-8.132 2.013-11.985-2.37"/></svg>