<svg xmlns="http://www.w3.org/2000/svg" fill-rule="evenodd" clip-rule="evenodd" image-rendering="optimizeQuality" shape-rendering="geometricPrecision" text-rendering="geometricPrecision" viewBox="0 0 512 356.18"><g fill-rule="nonzero"><path fill="#009543" d="M28.137 0H483.86C499.337 0 512 12.663 512 28.14v299.9c0 15.477-12.663 28.14-28.14 28.14H28.137C12.663 356.18 0 343.517 0 328.04V28.14C0 12.663 12.663 0 28.137 0"/><path fill="#FBDE4A" d="M3.484 341.559 345.043 0H483.86C499.337 0 512 12.663 512 28.14v299.9c0 15.477-12.663 28.14-28.14 28.14H28.137c-10.584 0-19.852-5.925-24.653-14.621"/><path fill="#DC241F" d="M166.957 356.18 508.516 14.621A27.9 27.9 0 0 1 512 28.14v299.9c0 15.477-12.663 28.14-28.14 28.14z"/></g></svg>