<svg xmlns="http://www.w3.org/2000/svg" xml:space="preserve" viewBox="0 0 2560 1707"><path fill="#FFF" d="M2 1368c0-340.717 0-681.433.917-1023.277 3.25-1.15 5.582-1.192 7.915-1.192 847.072-.003 1694.144-.003 2541.216.017 3.317 0 6.635.295 9.952.452 0 340.716 0 681.433-.913 1022.866-3.245.695-5.577.653-7.91.653-847.076-.003-1694.152-.003-2541.228.018-3.316 0-6.633.302-9.949.463m1206.838-275.58c-1.604 1.864-3.208 3.728-5.994 6.21-89.239 83.918-194.228 115.03-313.933 89.342-184.18-39.523-300.423-224.688-258.368-408.536 33.87-148.07 161.68-256.291 313.73-264.94 65.375-3.718 126.977 10.523 184.482 42.063 25.848 14.176 48.926 32.134 71.318 52.887 2.545 2.287 5.09 4.574 8.121 7.984l1.704.019c-.215-.821-.431-1.642-1.22-3.647-2.143-2.733-4.285-5.466-6.86-9.47-98.959-136.815-270.838-202.09-436.74-165.858-243.199 53.11-389.748 305.25-315.908 543.111 60.652 195.38 254.04 323.98 462.572 296.793 70.72-9.22 135.049-34.473 193.019-75.857 40.218-28.712 74.687-63.187 103.502-105.008.542-1.898 1.084-3.795 2.487-4.983l.738-1.329c-.488.28-.975.56-2.65 1.218m364.696-113.735 1.594.192c-.389-.281-.778-.562-1.24-2.231l-87.913-121.356 88.783-122.328-1.205-1.818-143.956 46.624-89.36-122.836-1.757.69v151.774l-147.218 47.93 147.11 47.928v152.115c16.426-19.603 31.178-39.954 45.963-60.282 15.027-20.66 30.085-41.297 45.136-61.953 3.145.91 5.372 1.487 7.557 2.194 42.69 13.816 85.364 27.678 128.084 41.4 2.859.918 6.055.787 8.422 1.957"/><path fill="#E30C19" d="M2562 343.064c-3.317.779-6.635.484-9.952.484-847.072-.02-1694.144-.02-2541.216-.017-2.333 0-4.665.042-7.915.267a5303 5303 0 0 1-.003-170.66c3.246-.71 5.578-.67 7.91-.67 847.075.003 1694.15.003 2541.224-.017 3.317 0 6.635-.294 9.952-.451z"/><path fill="#FFF" d="M2562 1538v171.9H2c0-56.75 0-113.4.932-170.974C856.576 1538 1709.288 1538 2562 1538M2562 171.068c-3.317 1.089-6.635 1.383-9.952 1.383-847.074.02-1694.15.02-2541.224.017-2.332 0-4.664-.04-7.91-.265C2 115.35 2 58.7 2 2.093h2560z"/><path fill="#E30A17" d="M2562 1537.068C1709.288 1538 856.576 1538 2.932 1538 2 1481.955 2 1425.91 2 1368.932c3.316-1.093 6.633-1.395 9.95-1.395 847.075-.02 1694.151-.02 2541.227-.018 2.333 0 4.665.042 7.91.273.913 56.253.913 112.298.913 169.276"/><path fill="#E30B18" d="M1199.61 608.234c-21.93-19.54-45.007-37.499-70.855-51.675-57.505-31.54-119.107-45.78-184.482-42.062-152.05 8.648-279.86 116.87-313.73 264.94-42.055 183.847 74.189 369.012 258.368 408.535 119.705 25.687 224.694-5.424 315.318-89.543 1.917-.17 2.45-.139 2.983-.107-27.764 41.012-62.233 75.487-102.451 104.199-57.97 41.384-122.3 66.636-193.019 75.857-208.531 27.188-401.92-101.414-462.572-296.793-73.84-237.86 72.71-490 315.907-543.111 165.903-36.231 337.782 29.043 436.64 167.047-.769 1.697-1.438 2.205-2.107 2.713"/><path fill="#E30C19" d="M1574.206 977.872c-3.04-.358-6.235-.227-9.094-1.145-42.72-13.722-85.394-27.584-128.084-41.4-2.185-.707-4.412-1.285-7.557-2.194-15.051 20.656-30.11 41.293-45.136 61.953-14.785 20.328-29.537 40.68-45.963 60.282V903.253l-147.11-47.928 147.218-47.93V655.62l1.756-.69 89.36 122.837 143.957-46.624 1.205 1.818-88.783 122.328c29.345 40.507 58.629 80.931 88.008 122.006.096.65.223.577.223.577"/><path fill="#E82F3A" d="M1199.842 608.84c.437-1.114 1.106-1.622 2.092-2.684 2.46 2.18 4.601 4.913 6.63 8.551-.36 1.137-.608 1.368-.855 1.6-2.546-2.287-5.09-4.574-7.867-7.467M1207.738 1097.917c-1.059.373-1.592.342-2.919.203.81-1.972 2.415-3.836 4.576-5.943.557-.243.494-.357.494-.357-.542 1.898-1.084 3.795-2.151 6.097"/><path fill="#E82F3A" d="M1208.85 615.3c.617.507.833 1.328 1.048 2.149-.568-.007-1.136-.013-1.947-.58.005-.794.252-1.025.9-1.57"/><path fill="#E30C19" d="M1574.02 977.988c.33.326.719.607 1.108.888-.531-.064-1.063-.128-1.258-.598.336-.406.209-.333.15-.29"/><path fill="#E82F3A" d="M1209.989 1091.988c.524-.227 1.011-.507 1.499-.787-.246.443-.492.886-1.169.974-.43-.355-.367-.241-.33-.187"/></svg>