<svg xmlns="http://www.w3.org/2000/svg" width="512" height="512"><path fill="#f5f5f5" d="M39.349 423.724C17.617 423.724 0 406.106 0 384.374V127.627c0-21.733 17.618-39.351 39.351-39.351H472.65c21.733 0 39.351 17.618 39.351 39.351v256.778c0 21.715-17.603 39.318-39.318 39.318H39.349z"/><path fill="#41479b" d="M8.827 220.693h203.032a8.83 8.83 0 0 0 8.829-8.829V97.105a8.825 8.825 0 0 0-8.829-8.829H38.345C17.167 88.276 0 105.444 0 126.621v85.243c0 4.874 3.955 8.829 8.827 8.829M503.171 291.313H300.135a8.83 8.83 0 0 0-8.827 8.827v114.756a8.827 8.827 0 0 0 8.827 8.827h173.52c21.176 0 38.345-17.167 38.345-38.344v-85.24c0-4.876-3.955-8.826-8.829-8.826m0 0"/><path fill="#ff4b55" d="M473.655 88.276h-173.52a8.83 8.83 0 0 0-8.827 8.829v114.759c0 4.874 3.955 8.829 8.827 8.829h203.036c4.874 0 8.829-3.955 8.829-8.829v-85.243c0-21.177-17.169-38.345-38.345-38.345M220.688 414.896V300.14a8.825 8.825 0 0 0-8.829-8.827H8.827A8.83 8.83 0 0 0 0 300.14v85.24c0 21.176 17.167 38.344 38.345 38.344h173.514a8.825 8.825 0 0 0 8.829-8.828m0 0"/><path fill="#64b496" d="M250.931 281.17s5.274 1.934 4.585 8.555l2.134-.044s-1.348-7.651-2.456-8.565c-1.113-.917-4.263.054-4.263.054m0 0"/><path fill="#64b496" d="M256.215 280.151c-2.236 0-6.142-.005-10.259-1.114.917-.956 2.187-2.875 2.187-6.225 0-5.249-3.619-1.905-3.619-1.905s-2.377 2.003-.938 7.354a20.8 20.8 0 0 1-4.121-2.109c.825-1.035 2.471-3.452 3.427-7.28 0 0-6.025-1.193-7.675 3.349a20.7 20.7 0 0 1-2.592-4.316c1.548.015 3.71-1.006 3.71-6.904 0 0-3.935.01-4.99 3.422-.415-1.431-.727-2.959-.961-4.575 1.571.459 5.634.786 5.634-8.032 0 0-4.877.01-6.005 4.331a49 49 0 0 1-.074-3.422c2.364-1.241 5.635-3.965 5.294-9.561 0 0-2.246.507-4.307 2.236.405-2.119.235-5.224-3.017-7.817 0 0-2.987 5.294 1.377 9.585a9 9 0 0 0-.981 1.816c-.982-1.494-2.554-2.88-5.089-3.725 0 0-1.166 7.085 5.45 10.049.156 4.141.8 7.792 1.914 10.971-1.895-1.665-3.427-3.965-3.427-3.965 0-7.87-6.455-8.071-6.455-8.071-1.201 8.985 5.439 9.351 5.439 9.351l3.637 3.97c-7.871-1.314-7.871 5.244-7.871 5.244 5.25 1.314 7.871-1.309 7.871-1.309l2.842 1.455c-5.035.151-6.777 5.102-6.777 5.102 6.327 1.055 10.952-.434 12.529-1.055 6.372 4.454 14.224 4.459 17.852 4.459v-1.309zm0 0"/><path fill="#64b496" d="M255.77 280.151c2.236 0 6.147-.005 10.259-1.114-.917-.956-2.182-2.875-2.182-6.225 0-5.249 3.614-1.905 3.614-1.905s2.378 2.003.943 7.354a21 21 0 0 0 4.121-2.109c-.826-1.035-2.476-3.452-3.429-7.28 0 0 6.026-1.193 7.671 3.349a21 21 0 0 0 2.598-4.316c-1.548.015-3.711-1.006-3.711-6.904 0 0 3.936.01 4.986 3.422.415-1.431.732-2.959.961-4.575-1.568.459-5.63.786-5.63-8.032 0 0 4.874.01 6.006 4.331q.087-1.657.074-3.422c-2.369-1.241-5.635-3.965-5.299-9.561 0 0 2.251.507 4.312 2.236-.406-2.119-.24-5.224 3.017-7.817 0 0 2.987 5.294-1.378 9.585a9.3 9.3 0 0 1 .981 1.816c.981-1.494 2.554-2.88 5.089-3.725 0 0 1.166 7.085-5.45 10.049-.156 4.141-.805 7.792-1.914 10.971 1.895-1.665 3.427-3.965 3.427-3.965 0-7.87 6.45-8.071 6.45-8.071 1.206 8.985-5.439 9.351-5.439 9.351l-3.637 3.97c7.87-1.314 7.87 5.244 7.87 5.244-5.244 1.314-7.87-1.309-7.87-1.309l-2.837 1.455c5.034.151 6.772 5.102 6.772 5.102-6.324 1.055-10.952-.434-12.525-1.055-6.371 4.454-14.222 4.459-17.851 4.459zm0 0"/><path fill="#41479b" d="M233.861 222.953a45 45 0 0 0-11.959 11.167q2.115 1.561 4.224 3.115c2.891-3.921 6.485-7.241 10.552-9.854zm0 0"/><path fill="#ff6b71" d="M256.014 257.064h18.365v10.499a5.25 5.25 0 0 1-5.244 5.249h-7.876c-2.154 0-4.047 1.055-5.245 2.661zm0 0"/><path fill="#5f64b9" d="M259.95 245.258v-14.434h19.677l-5.249 5.249v14.434H259.95zm0 0"/><path fill="#f5f5f5" d="M267.821 250.502h6.557v6.557h-6.557z"/><path fill="#ff6b71" d="M256.014 257.064h-18.369v10.499a5.25 5.25 0 0 0 5.249 5.249h7.871c2.159 0 4.052 1.055 5.249 2.661zm0 0"/><path fill="#f5f5f5" d="M252.734 273.124a6.6 6.6 0 0 1 3.251 2.31h.059a6.6 6.6 0 0 1 3.252-2.31v-10.811h-6.562zm0 0"/><path fill="#5f64b9" d="M252.079 245.258v-14.434h-19.682l5.249 5.249v14.434h14.434v-5.249zm0 0"/><path fill="#f5f5f5" d="M237.65 250.502h6.557v6.557h-6.557z"/><path fill="#41479b" d="M244.208 237.387v3.936l3.936 2.621v-2.621zm0 0"/><path fill="#f5f5f5" d="M248.144 241.323v3.935l5.244 2.627v-1.314zm0 0"/><path fill="#41479b" d="M267.821 237.387v3.936l-3.936 2.621v-2.621zm0 0"/><path fill="#f5f5f5" d="M263.885 241.323v3.935l-5.249 2.627v-1.314zm0 0"/><path fill="#ff4b55" d="M263.93 266.249h-15.831c-3.594 0-6.512-2.935-6.512-6.557v-20.294l14.526 9.795 14.33-9.795v20.294c-.001 3.622-2.916 6.557-6.513 6.557m0 0"/><g fill="#41479b"><path d="m246.83 242.636-5.249-3.935v14.429l5.249 2.626zM265.199 242.636l5.244-3.935v14.429l-5.244 2.626zM248.139 255.761h15.742v6.557h-15.742z"/></g><path fill="#ff4b55" d="m248.144 243.944 7.87 3.941 7.871-3.941v11.811h-15.741zm0 0"/><path fill="#f5f5f5" d="M261.917 245.184v13.194a1.97 1.97 0 0 1-1.967 1.967h-7.871a1.97 1.97 0 0 1-1.967-1.967v-13.14l-3.936-2.631v15.771a5.91 5.91 0 0 0 5.904 5.904h7.871a5.91 5.91 0 0 0 5.904-5.904v-15.864zm0 0"/><path fill="#f5f5f5" d="M263.29 254.349c-2.207.201-4.697.425-7.276 1.319-2.583-.894-5.067-1.117-7.28-1.319-3.696-.331-5.889-.654-7.147-2.885v3.789c1.927 1.255 4.375 1.485 6.914 1.714 2.28.2 4.639.415 7.05 1.329l.464.175.465-.175c2.411-.914 4.77-1.124 7.05-1.329 2.544-.229 4.99-.459 6.919-1.714v-3.799c-1.257 2.242-3.453 2.564-7.159 2.895m0 0"/><path fill="#ffe15a" d="M258.636 241.977h-1.967v-1.967h-1.309v1.967h-1.972v1.314h1.972v5.902h1.309v-5.902h1.967zm0 0"/><path fill="#464655" d="m243.08 236.747.723-.717 11.529 11.529-.723.717zm0 0"/><path fill="#ffe15a" d="m241.278 234.223 1.441 2.881 1.44-1.441zm0 0"/><path fill="#464655" d="m245.624 234.761.825-.601 9.6 13.179-.825.6zm0 0"/><path fill="#ffe15a" d="m244.228 231.982.976 3.071 1.645-1.196zm0 0"/><path fill="#464655" d="m240.926 239.252.581-.835 13.369 9.336-.585.835zm0 0"/><path fill="#ffe15a" d="m238.71 237.108 1.924 2.584 1.166-1.67zm0 0"/><path fill="#464655" d="m257.416 248.266-.724-.717 11.529-11.529.723.719zm0 0"/><path fill="#ffe15a" d="m270.746 234.223-1.446 2.881-1.44-1.441zm0 0"/><path fill="#464655" d="m256.805 247.924-.82-.601 9.6-13.179.825.601zm0 0"/><path fill="#ffe15a" d="m267.796 231.982-.976 3.071-1.65-1.196zm0 0"/><path fill="#464655" d="m257.742 248.617-.581-.835 13.365-9.335.586.835zm0 0"/><path fill="#ffe15a" d="m273.309 237.108-1.919 2.584-1.166-1.67zm0 0"/><path fill="#f5f5f5" d="M255.345 272.436s-5.072-5.449-4.086-10.449c.791-4.024 3.192-8.457 5.072-9.536 0 0 2.656-.166 1.987 2.144-.664 2.309-1.474 2.9-1.24 5.175.411 3.941 1.046 8.603-1.733 12.666m0 0"/><path fill="#41479b" d="M256.889 252.479c-.317-.044-.562-.029-.562-.029-1.875 1.079-4.276 5.513-5.067 9.536-.45 2.275.361 4.639 1.371 6.542-.64-8.246 1.768-11.17 4.258-16.049m0 0"/><path fill="#ff4b55" d="M257.079 259.774c-.234-2.275.576-2.871 1.24-5.18.469-1.616-.692-2.018-1.43-2.115 0 0-1.695 3.893-1.802 6.504-.098 2.295.489 11.641.264 13.457 2.773-4.067 2.138-8.729 1.728-12.666m0 0"/><path fill="#f5f0f0" d="M253.636 254.423a4.62 4.62 0 0 1 3.999-1.24c-.687-2.222-1.381-4.444-2.07-6.665a4.62 4.62 0 0 0-3.999 1.24c.689 2.221 1.382 4.444 2.07 6.665m0 0"/><path fill="#f5f5f5" d="M257.635 253.183a4.62 4.62 0 0 1 4-1.245q-1.033-3.327-2.071-6.66a4.62 4.62 0 0 0-3.999 1.24c.689 2.221 1.383 4.443 2.07 6.665m0 0"/><path fill="#5f64b9" d="M250.024 224.355a39.76 39.76 0 0 0-20.371 5.069l-2.569-4.575a45 45 0 0 1 23.056-5.742c-.039 1.751-.082 3.5-.116 5.248m0 0"/><path fill="#41479b" d="M278.167 222.953a45.1 45.1 0 0 1 11.959 11.167q-2.115 1.561-4.224 3.115a39.9 39.9 0 0 0-10.552-9.854zm0 0"/><path fill="#5f64b9" d="M262.005 224.355a39.8 39.8 0 0 1 20.371 5.069q1.281-2.288 2.569-4.575a45 45 0 0 0-23.061-5.742q.063 2.626.121 5.248m0 0"/><path fill="#41479b" d="M266.507 222.953a39.77 39.77 0 0 0-20.991 0l-1.381-5.059a45 45 0 0 1 23.759 0c-.464 1.686-.923 3.376-1.387 5.059m0 0"/><path fill="#ff6b71" d="M238.431 281.757a95.3 95.3 0 0 0-16.529 5.986q1.119 2.373 2.236 4.746a90 90 0 0 1 15.957-5.742zM273.597 281.757a95.5 95.5 0 0 1 16.529 5.986q-1.122 2.373-2.237 4.746a90 90 0 0 0-15.961-5.742zm0 0"/><path fill="#ff4b55" d="M277.117 285.814a90 90 0 0 0-41.982 0c-.41-1.699-.815-3.402-1.225-5.102a95.2 95.2 0 0 1 44.434 0q-.614 2.552-1.227 5.102m0 0"/><path fill="#ff4b55" d="m256.014 287.24-3.617.907a1.312 1.312 0 0 1-1.631-1.274v-1.885c0-.854.801-1.479 1.631-1.274l3.617.902zM256.014 284.618l3.619-.908a1.315 1.315 0 0 1 1.631 1.274v1.89c0 .85-.806 1.48-1.631 1.27l-3.619-.904zm0 0"/><path fill="#ff6b71" d="M256.293 287.24h-.561a1.03 1.03 0 0 1-1.03-1.03v-.562c0-.571.459-1.03 1.03-1.03h.561c.571 0 1.035.459 1.035 1.03v.562a1.035 1.035 0 0 1-1.035 1.03m0 0"/></svg>