<svg xmlns="http://www.w3.org/2000/svg" width="512" height="512" viewBox="0 0 256 256"><path fill="#6bdddd" d="M34.615 80.866c-4.807 9.615-5.092 9.625-4.802 10.547L32 98.358c.726 2.307 4.724-.151 5.647 1.946l2.576 5.855c1.153 2.62-6.379 4.382-7.286 6.36-3.039 6.63-3.498 6.972-2.728 7.935l1.16 1.45c2.104 2.63-7.823 7.259-4.975 9.632 1.946 1.622 2.393 2.245 3.412 1.876.322-.117 13.983-5.097 14.325-5.12 13.214-.922 13.332-.595 13.764-1.89 1.958-5.874 2.462-6.477 1.413-7.323-11.163-9.016-4.936-.777-13.941-25.54-.29-.796 2.047-7.425 1.817-6.709 1.104-3.451-7.682-.945-5.724-4.582a1.5 1.5 0 0 0-1.321-2.211c-4.239 0-4.987-.244-5.524.829M25.185 101.712c0 5.146.108 5.285-.194 5.82-3.02 5.354-3.025 5.849-4.176 5.849-4.761 0-5.246-.184-5.886.329-5.941 4.753-7.249 6.414-8.449 4.733-3.199-4.479-4.051-5.119-3.134-6.266 1.322-1.653 1.832-2.033 1.832-2.816 0-4.441-.271-5.259.486-5.953 2.625-2.406 3-3.047 3.908-3.047 4.895 0 5.526.229 6.202-.411 3.332-3.157 5.319-5.796 6.547-3.647 2.712 4.744 2.864 4.789 2.864 5.409"/><path fill="#6bdddd" d="M246.526 145.676c0-102.497 1.009-97.627-2.357-98.974-3.577-1.431-5.287-2.179-6.349-2.506-.866-.266-1.301-.252-1.966-.098-9.336 2.154-12.898 2.86-14.511 3.429-1.012.357-1.257.661-1.68 1.234l-25.038 33.98a3.74 3.74 0 0 1-2.15 1.423l-10.751 2.56a3.75 3.75 0 0 1-2.422-.235l-6.395-2.913a3.75 3.75 0 0 1-2.195-3.412v-4.031a3.75 3.75 0 0 0-1.422-2.939l-4.994-3.953a3.75 3.75 0 0 1-1.403-3.312l.058-.581a3.75 3.75 0 0 1 4.103-3.357l11.385 1.139a3.75 3.75 0 0 0 4.118-3.56l.334-7.357a3.75 3.75 0 0 0-2.353-3.651l-16.193-6.477a3.7 3.7 0 0 1-.73-.391l-14.414-9.902a3.75 3.75 0 0 0-2.123-.659H127.1a3.75 3.75 0 0 0-2.357.833c-22.839 18.461-21.573 17.338-22.041 17.974L85.91 72.729a3.75 3.75 0 0 1-1.833 1.333l-16.66 5.553a3.75 3.75 0 0 0-2.483 4.329l3.615 17.17a3.75 3.75 0 0 0 4.465 2.891l19.048-4.144a3.75 3.75 0 0 1 4.43 2.739l3.236 12.721a3.75 3.75 0 0 0 3.633 2.825h.608a3.75 3.75 0 0 0 3.325-2.016l4.221-8.1c.234-.449.556-.846.948-1.167l3.528-2.892a3.75 3.75 0 0 0 1.133-4.217l-4.429-11.799a3.75 3.75 0 0 1 .794-3.902c5.4-5.674 16.874-20.354 21.738-15.123 1.438 1.546 5.89 5.273 1.987 8.212-8.905 6.703-11.757 7.852-10.327 11.297 4.56 10.985 5.292 15.428 9.585 13.982l6.824-2.298c3.924-1.322 6.749 3.834 3.581 6.446-6.218 5.126-6.225 4.988-6.697 5.964-7.104 14.668-6.69 14.301-7.966 15.08-17.558 10.718-9.979 8.635-32.403 8.635-36.41 0-35.141-.485-36.687 1.275-8.397 9.561-8.062 9.469-9.442 9.88-19.171 5.709-21.195 5.397-21.195 9.106 0 1.196-.603 6.097 3.749 6.097 9.172 0 11.196-.595 12.53 2.072 6.83 13.66 7.469 13.908 6.454 16.082-4.408 9.445-2.076 7.885-15.747 7.885-19.398 0-20.681-.726-21.882 2.407-6.026 15.72-6.733 16.112-5.324 18.253 6.023 9.155 6.288 10.461 8.903 10.461h19.334a3.75 3.75 0 0 0 3.231-1.848c5.132-8.724 4.963-8.788 6.196-9.446.558-.298 8.409-4.429 8.891-4.831l9.657-8.047a3.75 3.75 0 0 1 3.344-.748c7.286 1.895 7.581 2.171 8.994 1.663 10.811-3.893 14.349-6.217 16.25-2.283 5.09 10.532 4.907 10.75 6.456 11.501 12.596 6.108 13.991 7.554 16.42 5.352l1.779-1.613c1.951-1.769 1.518-4.945-.835-6.127l-6.953-3.494a3.75 3.75 0 0 1-2.066-3.35c0-5.921-.774-9.597 2.996-10.37 2.092-.429 2.96-.758 4.272-.206 14.071 5.923 13.812 5.53 14.646 7.037 6.821 12.324 6.553 11.986 7.069 12.539 6.356 6.811 6.849 7.974 9.242 7.729 1.684-.173 4.213-.062 5.129-2.702 3.652-10.517 3.646-12.242 6.474-12.723 7.152-1.217 8.783-1.042 9.845-3.312 9.994-21.371 9.564-20.118 9.564-21.284 0-11.222-.796-14.211 2.84-15.12 1.537-.384 4.544-1.604 6.2 1.235 1.819 3.119 2.537 5.191 5.181 5.191 6.247 0 7.066.26 8.422-.887 4.895-4.142 6.619-6.453 9.51-4.719 2.229 1.337 2.453 4.141.887 5.818l-1.88 2.014c-1.829 1.959-1.07 5.149 1.445 6.076 19.123 7.046 18.533 6.692 19.323 7.334l5.656 4.596c1.982 1.61 4.958.811 5.867-1.575 3.219-8.451 3.236-8.231 3.236-9.184v-11.456a3.75 3.75 0 0 1 1.438-2.952l2.327-1.821a3.748 3.748 0 0 0 .18-5.754l-3.958-3.518a3.77 3.77 0 0 1-1.253-2.805"/><path fill="#6bdddd" d="M89.015 209.09v9.007a4.2 4.2 0 0 0 1.143 2.88l2.424 2.572a4.2 4.2 0 0 0 6.075.038l.994-1.029a4.2 4.2 0 0 0 .124-5.703l-4.113-4.642a1 1 0 0 0-.137-.128l-4.904-3.784a.997.997 0 0 0-1.606.789"/><path fill="#3762cc" d="M29.269 135.522c-1.289 0-2.258-.83-3.341-1.758a64 64 0 0 0-.814-.691c-.98-.817-1.213-1.772-1.235-2.431-.068-2.009 1.651-3.654 3.473-5.395.716-.684 1.854-1.772 2.219-2.39l-.922-1.154c-1.397-1.744-.848-2.915.975-6.797.406-.866.901-1.922 1.496-3.22.652-1.421 2.313-2.296 4.237-3.308.85-.447 2.347-1.235 2.885-1.759l-2.305-5.238c-.268-.02-.694.004-.998.021-1.299.07-4.008.215-4.845-2.444l-2.187-6.946c-.458-1.456-.229-1.904 1.959-6.189.713-1.396 1.675-3.28 2.961-5.853 1.001-2.002 2.658-1.987 5.379-1.949.547.006 1.186.014 1.935.014 1.244 0 2.367.638 3.005 1.706.508.851.63 1.843.36 2.765.307.054.639.102.891.138 1.634.233 3.486.497 4.422 1.99.353.563.687 1.508.272 2.805a2 2 0 0 1-.089.228c-.376 1.039-1.469 4.408-1.639 5.508 2.722 7.509 4.062 12.045 4.866 14.771 1.233 4.177 1.233 4.177 3.989 6.225 1.036.77 2.455 1.824 4.347 3.352 1.949 1.574 1.382 3.221.139 6.83-.257.745-.561 1.627-.912 2.682-.768 2.303-1.688 2.361-8.85 2.813-1.692.107-3.811.241-6.467.425-.846.272-4.814 1.681-13.719 4.922l-.27.098a3.6 3.6 0 0 1-1.217.229m-1.221-5.208q.26.22.483.413c.302.258.632.542.854.71h.002c14.005-5.098 14.217-5.113 14.603-5.14 2.765-.193 4.956-.331 6.699-.441 2.664-.168 4.578-.289 5.419-.422.31-.922.58-1.709.813-2.383.381-1.104.721-2.091.857-2.634a119 119 0 0 0-3.946-3.035c-3.739-2.779-3.942-3.23-5.44-8.304-.854-2.896-2.146-7.272-4.904-14.855-.385-1.057.646-5.086 1.591-7.412a20 20 0 0 0-1.247-.206c-1.656-.236-3.534-.504-4.348-2.117-.272-.54-.478-1.371-.107-2.454q-.672-.005-1.219-.012c-.755-.009-1.479-.018-1.889.009a730 730 0 0 1-2.841 5.612c-.855 1.674-1.457 2.853-1.651 3.344l2.029 6.446c.261.01.64-.01.918-.025 1.31-.07 3.747-.2 4.754 2.09l2.576 5.854c1.437 3.265-2.338 5.251-4.836 6.565-.867.457-2.166 1.14-2.497 1.509a377 377 0 0 1-1.478 3.178c-.591 1.257-1.08 2.301-1.278 2.841l.966 1.209c2.172 2.714-.711 5.47-2.815 7.482-.645.617-1.644 1.573-2.068 2.178m17.231-44.092.047.015v-.001zm-10.664-5.356h.01z"/><path fill="#3762cc" d="M7.533 121.084q-.217 0-.439-.03c-.883-.117-1.636-.604-2.239-1.449-.568-.794-1.061-1.467-1.482-2.042-2.056-2.805-3.297-4.498-1.587-6.635.311-.389.577-.708.805-.981.224-.269.473-.566.589-.731-.002-1.021-.018-1.843-.03-2.512-.046-2.422-.068-3.638 1.164-4.77a103 103 0 0 0 1.547-1.451c1.438-1.369 2.23-2.123 3.714-2.123 1.247 0 2.22.015 2.988.026.859.013 1.619.024 1.96-.006.502-.478.971-.942 1.41-1.376 2.188-2.161 3.772-3.727 5.716-3.455.695.095 1.678.478 2.411 1.76a386 386 0 0 0 1.629 2.825c1.27 2.185 1.498 2.579 1.498 3.577 0 1.326.007 2.318.013 3.069.018 2.433.021 2.872-.463 3.731-.57 1.01-1.031 1.845-1.413 2.536-1.79 3.241-2.394 4.333-4.506 4.333-1.222 0-2.164-.012-2.901-.021-.817-.01-1.536-.018-1.854.006-1.014.813-1.89 1.532-2.65 2.157-2.962 2.433-4.336 3.562-5.88 3.562m-2.389-7.949c.282.464.855 1.247 1.455 2.063.35.478.749 1.022 1.197 1.646.69-.452 1.857-1.411 3.076-2.412.802-.659 1.729-1.421 2.809-2.284 1.036-.83 1.854-.818 4.285-.788.664.008 1.498.019 2.558.021.281-.427.761-1.294 1.298-2.267.373-.676.822-1.488 1.371-2.462.017-.292.012-.989.006-1.842-.005-.735-.013-1.7-.013-2.979-.133-.268-.488-.881-.957-1.687-.341-.588-.776-1.338-1.332-2.306-.588.466-1.435 1.303-2.153 2.013a96 96 0 0 1-1.594 1.551c-1.095 1.038-2.136 1.021-4.648.985-.72-.011-1.623-.024-2.769-.026-.229.176-.678.604-1.115 1.021-.393.375-.87.829-1.465 1.376-.033.342-.02 1.087-.004 1.87.014.72.03 1.613.03 2.733 0 1.33-.67 2.132-1.518 3.148q-.229.274-.517.626m18.043-11.423h1.999l-2-.017zM40.507 221.764H21.173c-3.234 0-4.21-1.515-7.839-7.15-.757-1.175-1.652-2.565-2.735-4.211-1.7-2.583-1.261-3.705 2.16-12.432.799-2.037 1.779-4.539 2.968-7.637 1.475-3.848 3.499-3.831 14.729-3.736 2.462.021 5.43.045 9.02.045 1.987 0 3.639.033 5.023.06 2.9.057 4.815.096 5.54-.305.607-.335 1.187-1.635 2.146-3.787.349-.783.748-1.677 1.225-2.699.366-.786.405-.868-3.106-7.766a958 958 0 0 1-3.324-6.576c-.479-.958-.871-1.073-6.524-1.001-1.209.016-2.603.034-4.217.034-2.093 0-3.362-.861-4.06-1.583-1.85-1.917-1.748-4.795-1.699-6.179q.009-.2.01-.335c0-4.498 2.295-5.155 13.322-8.316 2.531-.726 5.595-1.604 9.301-2.708.518-.154.549-.163 4.437-4.623a1439 1439 0 0 1 4.074-4.66l.094-.107c1.694-1.954 1.691-1.955 19.294-1.889 4.767.018 10.896.041 18.802.041 3.787 0 6.712.059 9.063.106 8.702.175 8.707.176 15.478-4.164 1.765-1.131 3.96-2.539 6.821-4.285.127-.078.2-.114.266-.168.32-.309 1.346-2.446 3.391-6.705.912-1.9 2.067-4.308 3.552-7.372.572-1.182.779-1.352 4.248-4.191.789-.646 1.765-1.445 2.977-2.444 1.022-.842.556-1.891.388-2.192-.165-.298-.809-1.235-2.058-.814l-6.824 2.299c-5.343 1.797-7.103-2.642-10.013-10-.597-1.509-1.27-3.212-2.059-5.111-1.787-4.304 1.122-6.429 6.916-10.665a338 338 0 0 0 4.055-2.997c.485-.365.743-.713.767-1.034.079-1.074-1.63-2.805-2.451-3.637a32 32 0 0 1-.563-.581c-.31-.333-.62-.47-1.068-.47h-.02c-3.701.032-10.691 7.818-14.868 12.469a161 161 0 0 1-2.867 3.141 1.76 1.76 0 0 0-.372 1.82l4.43 11.799a5.75 5.75 0 0 1-1.738 6.467l-3.528 2.892a1.7 1.7 0 0 0-.44.542l-4.223 8.102a5.73 5.73 0 0 1-5.098 3.092h-.608a5.745 5.745 0 0 1-5.572-4.332l-3.235-12.72a1.74 1.74 0 0 0-2.067-1.278l-19.048 4.145a5.7 5.7 0 0 1-4.347-.792 5.7 5.7 0 0 1-2.501-3.641l-3.614-17.17a5.745 5.745 0 0 1 3.807-6.638l16.66-5.554c.345-.115.64-.329.854-.62l16.793-22.791c.436-.619.436-.619 8.149-6.84 3.19-2.574 7.74-6.243 14.246-11.501a5.76 5.76 0 0 1 3.613-1.278h19.979c1.167 0 2.293.349 3.255 1.01l14.415 9.903q.16.11.339.182l16.195 6.478a5.75 5.75 0 0 1 3.607 5.599l-.335 7.357c-.07 1.569-.793 3.059-1.981 4.087s-2.765 1.528-4.333 1.373l-11.386-1.139a1.74 1.74 0 0 0-1.281.387 1.74 1.74 0 0 0-.633 1.18l-.058.579c-.06.598.185 1.175.654 1.547l4.993 3.954a5.72 5.72 0 0 1 2.182 4.507v4.031a1.75 1.75 0 0 0 1.023 1.591l6.396 2.913c.352.161.756.2 1.13.11l10.751-2.56a1.75 1.75 0 0 0 1.002-.663l25.038-33.98c.588-.797 1.12-1.404 2.625-1.935 1.199-.423 3.12-.856 7.329-1.807 1.943-.438 4.366-.985 7.397-1.685 1.083-.25 1.869-.213 3.004.136.795.244 1.827.665 3.537 1.361.815.332 1.789.729 2.967 1.199q.161.062.306.11c2.519.858 2.998 2.601 3.242 7.756.259 5.451.227 16.113.162 37.353-.041 13.387-.097 31.72-.097 55.612 0 .499.214.976.587 1.307l3.958 3.518c1.278 1.136 1.98 2.768 1.927 4.477s-.856 3.294-2.203 4.348l-2.327 1.822a1.73 1.73 0 0 0-.671 1.377v11.456c0 1.118-.063 1.284-1.698 5.537-.428 1.115-.974 2.535-1.669 4.36a5.69 5.69 0 0 1-3.88 3.505 5.69 5.69 0 0 1-5.117-1.089l-5.79-4.703c-.275-.181-2.154-.868-6.691-2.526-2.73-.998-6.55-2.395-11.929-4.376-1.812-.667-3.159-2.187-3.605-4.065s.073-3.841 1.391-5.252l1.879-2.013c.362-.389.528-.913.455-1.437-.053-.377-.254-.909-.909-1.302-1.007-.604-1.474-.457-5.064 2.692-.64.561-1.342 1.176-2.124 1.838-1.681 1.422-2.991 1.408-6.865 1.375-.8-.007-1.737-.015-2.849-.015-3.439 0-4.782-2.4-6.204-4.941-.219-.391-.451-.807-.705-1.243-.562-.961-1.259-1.057-3.413-.457q-.31.088-.575.155c-1.289.322-1.468.845-1.367 8.076.021 1.479.044 3.169.044 5.103l.001.102c.021 1.203.021 1.203-4.471 10.762-1.316 2.802-3.036 6.463-5.283 11.268-1.331 2.846-3.467 3.183-8.146 3.921-.916.144-1.966.31-3.176.516-1.01.172-1.218.428-3.262 6.527-.459 1.372-1 2.984-1.658 4.881-1.245 3.587-4.523 3.848-6.284 3.989q-.278.02-.531.046c-2.962.303-4.137-.979-8.026-5.229-.803-.877-1.749-1.911-2.881-3.125-.54-.578-.54-.578-3.108-5.241-.972-1.764-2.329-4.228-4.248-7.694a4 4 0 0 0-.198-.339c-.299-.329-2.698-1.328-6.675-2.981-1.784-.742-4.01-1.668-6.799-2.842-.501-.212-.772-.178-2.235.14l-.859.183c-1.277.262-1.541.788-1.434 5.777.018.821.036 1.7.036 2.633 0 .666.369 1.264.963 1.563l6.953 3.494a5.75 5.75 0 0 1 1.279 9.396l-1.777 1.613c-3.004 2.723-5.289 1.584-12.858-2.186a581 581 0 0 0-5.778-2.848c-1.879-.912-2.172-1.525-4.967-7.39-.642-1.345-1.43-2.999-2.417-5.042-.655-1.358-1.366-1.375-8.723 1.417a303 303 0 0 1-5.049 1.878c-1.741.628-2.521.421-6.851-.732-.909-.242-2.002-.533-3.325-.877a1.75 1.75 0 0 0-1.56.349l-9.656 8.047c-.26.216-.583.486-8.718 4.788l-.511.271c-.455.243-.492.263-2.959 4.498a987 987 0 0 1-2.456 4.199 5.8 5.8 0 0 1-4.962 2.826m-14.2-31.188c-6.391 0-6.483.247-6.846 1.19-1.192 3.11-2.177 5.621-2.978 7.665-3.104 7.919-3.052 8-2.543 8.773a490 490 0 0 1 2.756 4.245c3.424 5.316 3.544 5.316 4.477 5.316h19.334a1.76 1.76 0 0 0 1.508-.862 944 944 0 0 0 2.446-4.184c2.81-4.823 3.039-5.217 4.532-6.013l.524-.278c6.211-3.284 7.745-4.155 8.087-4.374l9.597-7.998a5.75 5.75 0 0 1 5.127-1.147c1.333.347 2.432.639 3.348.883 3.898 1.038 3.953 1.019 4.466.833 1.871-.674 3.523-1.3 4.985-1.855 7.095-2.69 11.376-4.313 13.743.583.991 2.051 1.782 3.711 2.426 5.061 2.484 5.212 2.531 5.234 3.103 5.511 2.28 1.106 4.195 2.06 5.815 2.867 7.405 3.689 7.541 3.573 8.388 2.804l1.778-1.613c.435-.394.638-.952.559-1.532s-.424-1.063-.948-1.327l-6.952-3.494a5.72 5.72 0 0 1-3.167-5.137c0-.903-.019-1.753-.035-2.547-.098-4.522-.19-8.794 4.63-9.782l.815-.173c1.634-.354 2.928-.636 4.634.083 2.782 1.171 5.004 2.095 6.783 2.835 7.536 3.135 7.83 3.257 8.827 5.06 1.93 3.486 3.289 5.953 4.262 7.718 2.098 3.808 2.334 4.233 2.514 4.425 1.158 1.241 2.112 2.284 2.923 3.17 3.704 4.049 3.839 4.037 4.668 3.95q.296-.03.62-.054c1.857-.148 2.488-.349 2.823-1.313.653-1.881 1.189-3.48 1.645-4.84 2.215-6.61 2.884-8.604 6.385-9.2a245 245 0 0 1 3.222-.523c4.453-.703 4.765-.848 5.146-1.664 2.248-4.808 3.969-8.471 5.286-11.274 2.826-6.015 3.995-8.504 4.101-8.98l-.011-.183c0-1.913-.023-3.585-.044-5.047-.101-7.241-.15-10.875 4.397-12.013q.217-.055.472-.127c1.697-.473 5.679-1.583 7.941 2.295.268.458.512.894.741 1.305 1.423 2.542 1.752 2.894 2.713 2.894 1.125 0 2.074.008 2.884.016 3.583.031 3.755-.014 4.246-.43.763-.645 1.447-1.246 2.071-1.792 3.526-3.091 6.071-5.327 9.76-3.114 1.544.927 2.568 2.448 2.812 4.175a5.73 5.73 0 0 1-1.492 4.722l-1.879 2.014c-.406.436-.561 1.019-.423 1.598s.537 1.031 1.097 1.237c5.375 1.98 9.191 3.375 11.919 4.373 7.151 2.614 7.151 2.614 7.943 3.261l5.687 4.621c.442.358 1.01.478 1.558.332a1.73 1.73 0 0 0 1.18-1.066c.697-1.83 1.244-3.254 1.674-4.371 1.432-3.726 1.432-3.754 1.432-4.102v-11.456c0-1.78.804-3.431 2.206-4.527l2.327-1.821c.561-.439.66-1.017.67-1.323s-.054-.889-.586-1.362l-3.957-3.517a5.75 5.75 0 0 1-1.931-4.297c0-23.898.056-42.235.097-55.624.086-28.262.119-39.353-.609-41.282l-.085-.028c-.158-.054-.325-.111-.502-.182a569 569 0 0 1-2.989-1.208c-1.607-.655-2.577-1.05-3.204-1.242-.512-.158-.593-.139-.929-.062-3.039.702-5.468 1.25-7.416 1.689-3.929.887-5.901 1.332-6.88 1.677-.46.162-.46.162-.734.535l-25.038 33.98a5.76 5.76 0 0 1-3.296 2.182l-10.752 2.56a5.77 5.77 0 0 1-3.714-.361l-6.396-2.912a5.76 5.76 0 0 1-3.365-5.232v-4.031c0-.538-.242-1.037-.664-1.371l-4.993-3.954a5.72 5.72 0 0 1-2.152-5.079l.058-.58a5.72 5.72 0 0 1 2.08-3.879 5.7 5.7 0 0 1 4.213-1.271l11.386 1.139c.477.051.95-.1 1.317-.417s.581-.759.603-1.243l.335-7.358a1.75 1.75 0 0 0-1.098-1.703l-16.193-6.478a5.7 5.7 0 0 1-1.118-.598l-14.416-9.903a1.74 1.74 0 0 0-.99-.307H127.1c-.398 0-.789.138-1.099.389-6.508 5.26-11.059 8.93-14.25 11.504-5.335 4.304-7.133 5.753-7.39 6.02l-.052.082L87.52 73.915a5.7 5.7 0 0 1-2.811 2.043L68.05 81.512a1.746 1.746 0 0 0-1.158 2.019l3.614 17.17c.097.459.367.853.761 1.108.395.255.866.34 1.323.241l19.048-4.144a5.73 5.73 0 0 1 6.794 4.2l3.235 12.72a1.75 1.75 0 0 0 1.695 1.318h.608c.654 0 1.248-.36 1.551-.94l4.222-8.101a5.7 5.7 0 0 1 1.453-1.79l3.528-2.892a1.75 1.75 0 0 0 .528-1.967l-4.429-11.798a5.78 5.78 0 0 1 1.219-5.984c.806-.848 1.75-1.899 2.788-3.055 6.755-7.522 12.757-13.752 17.811-13.796h.052c1.556 0 2.938.603 4 1.746.135.145.299.311.481.495 1.423 1.442 3.805 3.855 3.593 6.741-.077 1.046-.547 2.579-2.35 3.936a345 345 0 0 1-4.101 3.031c-5.781 4.226-6.089 4.679-5.582 5.901.799 1.923 1.48 3.646 2.084 5.174 3.027 7.657 3.533 8.181 5.017 7.68l6.823-2.299c2.697-.907 5.442.161 6.832 2.663 1.372 2.47.821 5.439-1.34 7.221a1045 1045 0 0 1-2.988 2.453c-2.993 2.451-3.008 2.48-3.182 2.839-1.481 3.059-2.635 5.463-3.546 7.359-3.665 7.634-3.665 7.634-5.138 8.531a340 340 0 0 0-6.787 4.263c-7.647 4.901-7.98 4.99-17.717 4.795a417 417 0 0 0-8.981-.105c-7.912 0-14.046-.023-18.816-.041-10.526-.041-15.324-.058-16.097.313-.031.036-.089.113-.16.196l-.11.126c-1.676 1.907-3.003 3.43-4.065 4.649-4.475 5.133-4.648 5.333-6.309 5.828a891 891 0 0 1-9.342 2.719c-10.424 2.988-10.424 3.185-10.424 4.471 0 .126-.005.288-.012.477-.027.767-.091 2.564.579 3.259.086.089.349.361 1.182.361 1.594 0 2.97-.018 4.164-.034 5.838-.079 8.493-.111 10.155 3.211 1.326 2.653 2.419 4.798 3.311 6.55 3.896 7.653 4.396 8.636 3.167 11.272-.466.999-.855 1.873-1.196 2.638-2.861 6.415-3.797 6.615-11.419 6.461a237 237 0 0 0-4.944-.059c-3.604 0-6.582-.025-9.053-.046-1.602-.012-2.961-.02-4.115-.02"/><path fill="#3762cc" d="M95.64 226.868h-.041a6.15 6.15 0 0 1-4.472-1.947l-2.424-2.572a6.18 6.18 0 0 1-1.688-4.252v-9.006c0-1.152.642-2.183 1.676-2.69a2.98 2.98 0 0 1 3.151.318l4.904 3.784q.216.165.405.377l4.12 4.65c2.134 2.407 2.054 6.105-.182 8.419l-.994 1.029a6.15 6.15 0 0 1-4.455 1.89m-4.624-15.737v6.965c0 .563.213 1.1.598 1.509l2.424 2.572c.416.441.98.687 1.587.69a2.23 2.23 0 0 0 1.597-.671l.993-1.028a2.21 2.21 0 0 0 .064-2.987l-4.048-4.569zm3.288 2.537.007.006z"/></svg>