<svg xmlns="http://www.w3.org/2000/svg" xml:space="preserve" viewBox="0 0 2560 1707"><path fill="#078930" d="M4 2h2558c0 568.062 0 1136.124-.62 1704.845-3.603-1.459-6.532-3.657-9.574-5.685A15435585 15435585 0 0 0 1411.72 941.119c-3.03-2.02-6.268-3.725-9.684-6.254-4.999-15.676-11.664-30.093-14.759-45.543 3.093-2.382 5.403-4.249 7.803-5.994 36.333-26.419 72.704-52.787 109.008-79.246 14.239-10.376 28.336-20.946 43.073-31.584 1.947-1.005 3.318-1.853 4.922-3.226-2.352-5.15-6.819-3.154-10.396-3.167-42.552-.161-85.105-.142-127.657-.09-22.271.027-44.542.212-67.254-.242-21.575-63.77-40.732-127.635-63.719-190.394-7.526 20.183-13.975 40.242-20.558 60.256-7.645 23.244-15.47 46.43-23.102 69.68-6.621 20.17-13.081 40.393-20.536 60.606-17.062.04-33.2-.035-49.336.161-3.878.047-7.745.991-12.253 1.625-1.49.032-2.344-.04-3.63-.41-1.425-.549-2.42-.798-3.968-1.136-.929-.107-1.303-.125-2.025-.706-3.66-2.8-6.961-5.055-10.287-7.272C763.355 508.841 389.345 259.503 15.348 10.144 11.477 7.563 7.778 4.72 4 2"/><path fill="#FCDD09" d="M3 2c4.779 2.72 8.477 5.563 12.348 8.144 373.997 249.358 748.007 498.697 1122.015 748.039 3.326 2.217 6.627 4.472 9.888 7.427-.572.98-1.003 1.346-2.27 1.898-40.255.096-79.581.107-118.907.157-2.648.003-5.297.29-7.94.494-.217.017-.451.402-.589.662-.144.274-.183.604-.45 1.561 54.168 39.387 108.53 78.916 162.978 118.505-20.755 64.996-42.099 128.868-62.452 193.05l1.926 1.162 163.998-119.058 163.591 118.809c.41-5.366-.509-9.86-1.903-14.2-14.263-44.384-28.603-88.743-42.92-133.108 3.14 1.852 6.379 3.557 9.408 5.577 380.04 253.328 760.067 506.679 1140.085 760.04 3.042 2.029 5.97 4.227 9.573 6.593.288.915-.01 2.136-.385 2.16-2.656.166-5.327.088-7.994.088H2C2 1140.667 2 571.333 3 2"/><path fill="#DA131A" d="M1402.037 934.865c14.593 45.042 28.933 89.4 43.196 133.784 1.394 4.341 2.312 8.835 1.903 14.2l-163.59-118.808-163.999 119.058-1.926-1.162c20.353-64.182 41.697-128.054 62.452-193.05l-162.978-118.505c.267-.957.306-1.287.45-1.56.138-.261.372-.646.588-.663 2.644-.205 5.293-.49 7.94-.494 39.327-.05 78.653-.06 119.626.021 2.632.089 3.618.076 5.237.111a36 36 0 0 0 3.14-.2c.853.07 1.707.142 4.125.307 18.887.138 36.21.277 53.531.124 2.69-.023 5.37-1.38 8.054-2.12 6.53-20.2 12.99-40.424 19.612-60.594 7.631-23.249 15.457-46.435 23.102-69.68 6.583-20.013 13.032-40.072 20.558-60.255 22.987 62.759 42.144 126.625 63.858 190.849.58 1.023 1.056 1.845 1.266 2.04.211.195 1.032.39 1.032.39s.811-.249 1.741-.357c42.07-.132 83.211-.193 124.352-.165 22.888.015 45.776.177 68.988.807.98 1.592 1.635 2.651 2.29 3.71-14.16 10.483-28.257 21.053-42.496 31.43-36.304 26.458-72.675 52.826-109.008 79.245-2.4 1.745-4.71 3.612-7.803 5.994 3.095 15.45 9.76 29.867 14.76 45.543"/><path fill="#23692A" d="M1543.971 768.41c-22.888-.097-45.776-.26-68.664-.274-41.14-.028-82.281.033-124.855.02a148 148 0 0 1-2.48-.083s-.476-.822-.615-1.277c22.132-.569 44.403-.754 66.674-.78 42.552-.053 85.105-.072 127.657.089 3.577.013 8.044-1.982 9.947 2.62-3.008-.121-5.336-.219-7.664-.315"/><path fill="#25692A" d="M1218.862 765.921c-1.76.727-4.44 2.084-7.13 2.107-17.32.153-34.644.014-52.894-.227 2.943-.728 6.81-1.672 10.688-1.719 16.135-.196 32.274-.122 49.336-.16"/><path fill="#C0131A" d="M1544.295 768.943c2.004-.437 4.332-.34 7.108.305-.923 1.397-2.294 2.245-4.241 3.25-1.232-.904-1.887-1.963-2.867-3.555"/><path fill="#F6A60D" d="M1150.302 767.749c-.985.013-1.97.026-3.675-.14-.379-.653.052-1.02.972-1.436.773-.137 1.147-.119 2.085.362.564.463.618 1.214.618 1.214"/><path fill="#25692A" d="M1150.936 767.797c-.634-.048-.688-.8-.697-1.173.985-.125 1.979.124 3.405.673-.404.383-1.239.466-2.708.5"/><path fill="#C0131A" d="M1348.182 768.268c.139-.18.487-.164 1.34-.004.503.145-.308.393-.308.393s-.82-.194-1.032-.389"/></svg>