<svg xmlns="http://www.w3.org/2000/svg" xml:space="preserve" width="512" height="512" viewBox="0 0 256 256"><circle cx="128" cy="128" r="125" fill="#A4C9FF"/><path fill="#6BDDDD" d="m50.484 45.066 3.707 3.338a3.35 3.35 0 0 0 4.169.25c39.077-27.508 36.474-25.995 37.988-25.995h11.206a3.35 3.35 0 0 0 3.252-2.547l2.885-11.69c.568-2.302-1.374-4.466-3.72-4.127-29.494 4.26-55.655 18.817-74.723 39.911h12.995c.828 0 1.626.306 2.241.86M158.118 46.566l-7.539 24.372a3.35 3.35 0 0 1-1.755 2.032l-5.2 2.486A3.35 3.35 0 0 0 141.753 78l-7.744 53.719a8.1 8.1 0 0 0 .207 3.294l2.097 7.615c.236.856.12 1.775-.319 2.547-5.818 10.241-5.695 10.677-7.493 11.152l-17.917 4.733a3.35 3.35 0 0 0-2.316 2.16l-3.287 9.669a3.35 3.35 0 0 1-4.635 1.935l-15.371-7.466a3.35 3.35 0 0 1-1.859-3.439l1.436-11.198a3.35 3.35 0 0 1 .703-1.662l9.201-11.541c.451-.566.772-1.245.823-1.967a3.35 3.35 0 0 0-4.312-3.454l-6.62 2.005a3.35 3.35 0 0 1-3.798-1.41l-10.391-16.356a3.36 3.36 0 0 0-1.382-1.226l-11.293-5.401a3.35 3.35 0 0 0-3.142.133l-15.874 9.323a3.35 3.35 0 0 0-1.632 2.513l-3.068 27.234c-.443 3.934-6.55 3.807-7.802.981l-6.914-15.614a3.35 3.35 0 0 0-3.063-1.993H3.157c2.157 43.545 26.61 81.205 62.167 101.856l-.01.02c9.61 5.581 20.692 10.198 32.174 13.079l6.178-4.438 19.971-18.739a13.82 13.82 0 0 0 4.365-10.081v-40.596c0-1.178.619-2.27 1.63-2.874l11.037-6.602a3.35 3.35 0 0 0 1.588-2.346l2.014-12.6a3.35 3.35 0 0 1 3.308-2.821h8.047a3.35 3.35 0 0 1 1.995.659l8.751 6.487c.725.538 1.637.76 2.528.616l29.804-4.805a3.35 3.35 0 0 0 2.727-2.536l4.504-19.054a3.35 3.35 0 0 1 3.869-2.523l30.3 5.612a3.35 3.35 0 0 0 1.97-.233l8.9-3.956c1.225-.544 2.024-1.764 1.995-3.104-.37-17.513-5.246-36.251-7.232-37.949-6.236-5.335-6.314-5.55-7.176-5.874l-22.861-8.58a3.35 3.35 0 0 1-2.01-2.104l-4.896-15.118a3.35 3.35 0 0 0-3.428-2.309l-12.81.927a3.35 3.35 0 0 1-2.05-.522l-14.097-9.043a3.35 3.35 0 0 0-1.808-.53h-13.283a3.35 3.35 0 0 0-3.2 2.361"/><path fill="#3762CC" d="M128 255C57.972 255 1 198.028 1 128S57.972 1 128 1s127 56.972 127 127-56.972 127-127 127m0-250C60.178 5 5 60.178 5 128s55.178 123 123 123 123-55.178 123-123S195.822 5 128 5"/><path fill="#3762CC" d="M56.43 51.272a5.34 5.34 0 0 1-3.577-1.382l-3.706-3.337h-.001a1.35 1.35 0 0 0-.902-.346H35.248a2 2 0 0 1-1.483-3.341C53.6 20.923 80.563 6.522 109.686 2.315a5.33 5.33 0 0 1 4.714 1.702 5.35 5.35 0 0 1 1.233 4.884l-2.885 11.69a5.34 5.34 0 0 1-5.193 4.068H96.349q-.116 0-.216-.005c-.99.486-5.146 3.423-15.49 10.73-5.162 3.647-12.012 8.486-21.131 14.905a5.34 5.34 0 0 1-3.082.983m-4.608-7.692 3.707 3.337a1.34 1.34 0 0 0 1.68.101c9.117-6.418 15.965-11.256 21.126-14.902C94.701 20.554 94.691 20.555 96.26 20.654l11.295.004c.622 0 1.161-.422 1.311-1.026l2.885-11.69a1.35 1.35 0 0 0-.315-1.24 1.33 1.33 0 0 0-1.177-.428C83.561 10.13 58.737 22.835 39.867 42.206h8.376c1.324 0 2.596.488 3.579 1.374M97.487 251.242q-.245 0-.486-.06c-11.299-2.835-22.604-7.431-32.692-13.29a2 2 0 0 1-.254-.175C26.795 215.959 3.288 177.354 1.16 134.386a2 2 0 0 1 .548-1.478 2 2 0 0 1 1.449-.621h12.832a5.36 5.36 0 0 1 4.892 3.183l6.914 15.615c.232.527 1.391 1.003 2.544.827.88-.135 1.365-.546 1.441-1.222l3.068-27.233a5.37 5.37 0 0 1 2.606-4.014l15.874-9.323a5.34 5.34 0 0 1 5.017-.213l11.294 5.401a5.35 5.35 0 0 1 2.208 1.957l10.391 16.356c.323.509.955.742 1.529.568l6.62-2.005a5.35 5.35 0 0 1 4.888.939 5.36 5.36 0 0 1 1.999 4.57c-.076 1.076-.51 2.139-1.255 3.073l-9.2 11.541a1.36 1.36 0 0 0-.283.67L85.1 164.174a1.35 1.35 0 0 0 .749 1.386l15.371 7.466c.476.23.899.119 1.109.031s.587-.31.758-.811l3.287-9.669a5.34 5.34 0 0 1 3.698-3.451l17.917-4.733c.559-.147.63-.167 3.494-5.285a793 793 0 0 1 2.771-4.921 1.36 1.36 0 0 0 .129-1.029l-2.097-7.615a10 10 0 0 1-.258-4.109l7.744-53.72a5.34 5.34 0 0 1 2.986-4.063l5.201-2.486c.339-.162.596-.46.706-.817l7.541-24.373h-.001a5.32 5.32 0 0 1 5.111-3.769h13.282c1.026 0 2.024.292 2.888.846l14.098 9.043c.247.159.532.233.825.21l12.812-.927a5.326 5.326 0 0 1 5.476 3.688l4.895 15.118c.128.394.423.703.811.848l22.857 8.579c.973.365 1.263.617 4.045 3.02.909.785 2.111 1.824 3.729 3.208 3.024 2.587 7.584 22.937 7.932 39.427a5.32 5.32 0 0 1-3.183 4.974l-8.899 3.956a5.34 5.34 0 0 1-3.147.372l-30.3-5.611a1.346 1.346 0 0 0-1.559 1.016l-4.504 19.054a5.34 5.34 0 0 1-4.354 4.051l-29.805 4.806a5.38 5.38 0 0 1-4.037-.984l-8.751-6.486a1.34 1.34 0 0 0-.804-.266h-8.047c-.667 0-1.228.478-1.333 1.137l-2.014 12.6a5.34 5.34 0 0 1-2.536 3.747l-11.037 6.602a1.36 1.36 0 0 0-.656 1.158v40.596c0 4.354-1.821 8.56-4.996 11.539l-19.971 18.739-6.379 4.604a2.02 2.02 0 0 1-1.167.372m-30.908-16.658c9.436 5.447 19.954 9.754 30.499 12.489l4.964-3.254 20.226-19.213a11.87 11.87 0 0 0 3.732-8.622v-40.596c0-1.871.997-3.63 2.603-4.591l11.038-6.602c.343-.206.576-.55.64-.945l2.014-12.6a5.326 5.326 0 0 1 5.282-4.506h8.047c1.14 0 2.271.374 3.186 1.052l8.752 6.487c.289.215.659.308 1.018.249l29.805-4.806a1.35 1.35 0 0 0 1.099-1.022l4.504-19.053a5.34 5.34 0 0 1 6.181-4.029l30.299 5.611c.27.051.545.018.795-.094l8.898-3.955a1.33 1.33 0 0 0 .808-1.234c-.365-17.362-5.068-34.559-6.588-36.521-1.596-1.365-2.785-2.393-3.687-3.172-2.344-2.024-2.556-2.196-2.837-2.301L215 74.777a5.32 5.32 0 0 1-3.209-3.36l-4.896-15.118a1.35 1.35 0 0 0-1.381-.93l-12.814.926a5.36 5.36 0 0 1-3.274-.833l-14.097-9.042a1.34 1.34 0 0 0-.729-.213h-13.282c-.596 0-1.113.382-1.289.95l-7.54 24.372a5.36 5.36 0 0 1-2.804 3.245l-5.2 2.486a1.35 1.35 0 0 0-.753 1.024l-7.744 53.72a6 6 0 0 0 .156 2.478l2.097 7.615a5.4 5.4 0 0 1-.508 4.065c-1.122 1.975-2.022 3.584-2.758 4.898-3.272 5.848-3.693 6.6-5.964 7.199l-17.917 4.733a1.35 1.35 0 0 0-.933.871l-3.287 9.669a5.352 5.352 0 0 1-7.402 3.09l-15.371-7.466a5.35 5.35 0 0 1-2.968-5.492l1.436-11.198a5.36 5.36 0 0 1 1.122-2.654l9.201-11.542c.234-.294.373-.6.392-.86a1.33 1.33 0 0 0-.503-1.162 1.35 1.35 0 0 0-1.233-.238l-6.62 2.005a5.364 5.364 0 0 1-6.066-2.252l-10.391-16.355a1.35 1.35 0 0 0-.558-.494l-11.293-5.401a1.35 1.35 0 0 0-1.266.054L39.48 122.89a1.36 1.36 0 0 0-.657 1.013l-3.068 27.233c-.282 2.504-2.125 4.315-4.81 4.728-2.52.386-5.664-.576-6.809-3.161l-6.913-15.614a1.35 1.35 0 0 0-1.234-.803H5.276c2.717 40.868 25.422 77.433 61.053 98.126q.133.08.25.172m91.539-188.019h.01z"/><path fill="#FFEA92" d="m196.954 97.812 3.297 13.495c.437 1.789 2.629 2.462 3.999 1.229l11.306-10.177c1.467-1.321.836-3.743-1.089-4.181l-14.603-3.318c-1.766-.401-3.339 1.195-2.91 2.952"/><path fill="#F9A7A7" d="M68.846 118.895c0-15.711-12.737-28.448-28.448-28.448S11.95 103.184 11.95 118.895c0 4.972 1.278 9.643 3.52 13.71l21.967 40.529c1.274 2.351 4.649 2.351 5.924 0l21.967-40.529a28.3 28.3 0 0 0 3.518-13.71"/><path fill="#3762CC" d="M40.398 176.897a5.37 5.37 0 0 1-4.721-2.811L13.71 133.557a30.5 30.5 0 0 1-3.761-14.663c0-16.789 13.659-30.447 30.448-30.447s30.448 13.659 30.448 30.447a30.5 30.5 0 0 1-3.768 14.675l-21.96 40.517a5.36 5.36 0 0 1-4.719 2.811m0-84.449c-14.584 0-26.448 11.864-26.448 26.447 0 4.455 1.131 8.861 3.271 12.745l21.974 40.541c.351.647.958.717 1.203.717s.853-.07 1.203-.717l21.967-40.529a26.5 26.5 0 0 0 3.278-12.757c.001-14.583-11.864-26.447-26.448-26.447"/><circle cx="40.271" cy="118.895" r="15.739" fill="#F9CFCF"/><path fill="#3762CC" d="M40.271 136.634c-9.781 0-17.739-7.958-17.739-17.739s7.958-17.739 17.739-17.739 17.739 7.958 17.739 17.739-7.957 17.739-17.739 17.739m0-31.478c-7.576 0-13.739 6.163-13.739 13.739s6.163 13.739 13.739 13.739 13.739-6.164 13.739-13.739-6.162-13.739-13.739-13.739"/><path fill="#4671C6" d="M248.877 39.021c0-15.711-12.737-28.448-28.448-28.448s-28.448 12.737-28.448 28.448c0 4.972 1.278 9.643 3.52 13.71h-.001l21.967 40.529c1.274 2.351 4.649 2.351 5.924 0l21.967-40.529a28.33 28.33 0 0 0 3.519-13.71"/><path fill="#3762CC" d="M220.429 97.023a5.37 5.37 0 0 1-4.721-2.81l-21.967-40.529a30.5 30.5 0 0 1-3.761-14.663c0-16.789 13.659-30.448 30.448-30.448s30.448 13.659 30.448 30.448a30.5 30.5 0 0 1-3.768 14.675l-21.96 40.517a5.36 5.36 0 0 1-4.719 2.81m0-84.45c-14.584 0-26.448 11.864-26.448 26.448 0 4.455 1.131 8.861 3.271 12.745l21.974 40.542c.35.646.958.716 1.203.716s.854-.07 1.204-.716l21.966-40.529a26.5 26.5 0 0 0 3.278-12.757c0-14.585-11.864-26.449-26.448-26.449"/><circle cx="220.301" cy="39.021" r="15.739" fill="#E0EBFC"/><path fill="#3762CC" d="M220.302 56.76c-9.781 0-17.739-7.958-17.739-17.739s7.958-17.739 17.739-17.739 17.738 7.958 17.738 17.739-7.957 17.739-17.738 17.739m0-31.478c-7.576 0-13.739 6.163-13.739 13.739s6.163 13.739 13.739 13.739c7.575 0 13.738-6.164 13.738-13.739s-6.163-13.739-13.738-13.739"/><path fill="#FFEA92" d="M201.881 100.012a4.412 4.412 0 0 1-.502 8.316 385 385 0 0 0-7.451 2.187 4.41 4.41 0 0 1-5.505-2.936 4.41 4.41 0 0 1 2.936-5.505 388 388 0 0 1 7.622-2.237 4.4 4.4 0 0 1 2.9.175m-22.473 7.071a4.413 4.413 0 0 1-.261 8.24 446 446 0 0 0-7.327 2.606 4.413 4.413 0 0 1-3.031-8.288 448 448 0 0 1 7.473-2.658 4.4 4.4 0 0 1 3.146.1m-22.055 8.28a4.41 4.41 0 0 1-.048 8.158l-1.803.735a461 461 0 0 0-5.384 2.245 4.412 4.412 0 0 1-3.447-8.123q2.723-1.155 5.487-2.287l1.835-.747a4.4 4.4 0 0 1 3.36.019m-21.605 9.389a4.413 4.413 0 0 1 .156 8.069 435 435 0 0 0-7.018 3.344 4.41 4.41 0 1 1-3.867-7.93 441 441 0 0 1 7.162-3.413 4.4 4.4 0 0 1 3.567-.07m-21.075 10.529a4.41 4.41 0 0 1 .377 7.956 378 378 0 0 0-6.804 3.737 4.412 4.412 0 0 1-4.329-7.689 386 386 0 0 1 6.965-3.826 4.41 4.41 0 0 1 3.791-.178m-20.392 11.797a4.412 4.412 0 0 1 .633 7.808 289 289 0 0 0-6.502 4.192 4.412 4.412 0 1 1-4.882-7.35 300 300 0 0 1 6.701-4.321 4.41 4.41 0 0 1 4.05-.329m-19.404 13.353a4.411 4.411 0 0 1 .969 7.574 182 182 0 0 0-5.997 4.777 4.41 4.41 0 0 1-6.213-.565 4.41 4.41 0 0 1 .566-6.213 191 191 0 0 1 6.288-5.011 4.41 4.41 0 0 1 4.387-.562m-17.628 15.596a4.412 4.412 0 0 1 1.513 7.088c-1.804 1.924-3.422 3.819-4.81 5.634a4.412 4.412 0 1 1-7.008-5.362c1.566-2.047 3.377-4.169 5.382-6.307a4.41 4.41 0 0 1 4.923-1.053"/></svg>