<svg xmlns="http://www.w3.org/2000/svg" xml:space="preserve" viewBox="0 0 450 300"><path fill="#010100" d="M451 101v199.948H1c0-66.302 0-132.656.468-199.46 90.215-.442 179.961-.428 269.707-.433 59.942-.004 119.883-.036 179.825-.055M82.231 165.216c2.285-.527 4.57-1.054 7.75-1.471 7.523-.563 14.125 1.632 20.78 6.825-9.957.888-19.73-.904-26.978 6.547l13.924-3.817-.936 6.829c6.397-6.48 16.68-8.276 25.516-4.663-7.424 2.597-15.274 3.704-20.83 9.36 4.872-1.18 9.513-2.811 14.205-4.28 4.465-1.398 8.982-2.626 14.683-4.278-3.233 6.428-5.99 10.586-11.892 11.247-1.265.142-2.476.948-3.666 1.54-5.473 2.722-6.358 5.831-3.367 11.691 2.048-9.219 3.868-10.94 13.83-12.3-.61 2.296-1.127 4.242-1.897 6.508.286.091.572.182 1.486.245.95.764 1.899 1.527 2.841 2.3.417-7.182 5.63-9.194 14.827-5.5-1.209 1.026-2.31 1.96-4.134 2.959l-2.943.44c.276.475.552.95.419 2.065-3.55 5.124-3.717 10.636-1.204 16.46.45.025.9.05 1.509.8 7.563 4.027 15.461 3.304 23.752 1.02-4.165 9.499-10.2 15.647-20.653 16.365 7.456 2.99 14.303 2.13 21.032-.964 1.194-.55 2.557-.73 3.77-1.114 0 0-.068-.042.075.722-2.107 9.403-7.094 16.257-18.279 18.734 11.027 1.903 18.722-2.125 26.092-8.41-.387 9.655-2.447 17.655-11.293 22.606 5.91 1.27 8.066.042 20.78-11.389 1.908 9.518 1.041 17.974-6.736 24.993 4.093-1.793 7.936-3.764 10.897-6.641 2.93-2.847 4.97-6.61 7.594-10.24 3.597 8.379 4.49 16.27-1.344 24.302l-.27 1.106c.54-.205 1.08-.41 2.286-.761 6.993-4.4 9.87-11.534 12.113-19.446 6.028 8.104 8.161 16.169 4.288 25.331 7.379-5.574 9.053-13.515 9.521-22.657 7.82 7.075 11.93 14.534 9.08 24.683 6.397-7.247 6.884-15.654 4.982-25.089 8.821 5.3 14.58 11.649 14.282 22.042 4.81-8.291 2.937-16.492.24-25.047 4.172 2.005 8.453 3.81 11.457 6.869 2.903 2.958 4.49 7.208 6.51 10.643 2.2-5.903 1.57-8.888-5.145-23.105 10.27.515 14.846 3.608 21.697 14.814.847-9.933-4.369-17-10.832-23.744 9.725-.936 17.726.992 23.824 8.511-1.083-9.196-7.338-14.225-14.795-19.241 1.847-.262 2.768-.393 4.148.005 20.768 10.54 41.532 21.087 62.306 31.615 3.116 1.58 6.209 3.244 9.45 4.521 1.266.5 2.911.04 4.384.016-.844-1.136-1.452-2.695-2.579-3.327-3.038-1.703-6.33-2.946-9.463-4.488-20.138-9.908-40.261-19.848-59.527-29.955 6.745-.86 12.024 2.485 17.74 6.492 6.167 2.814 12.303 5.697 18.506 8.427 12.035 5.296 24.108 10.505 36.164 15.755 2.235.973 4.235 1.5 4.362-2.232-19.87-8.181-39.704-16.348-60.044-25.041-.363-.631-.727-1.262-.37-2.06 8.524 3.173 17.084 6.253 25.563 9.54 11.145 4.321 22.197 8.882 33.37 13.129 1.546.588 3.55-.03 5.343-.09l.015-1.726c-.853-.436-1.672-.96-2.563-1.295-20.667-7.77-41.337-15.53-62.025-23.244-1.203-.449-2.56-.485-3.83-.696 0 0 .017.017-.149-.537-.348-.146-.697-.292-1.577-.65-.553-.508-1.105-1.015-.827-1.71 13.44 4.363 26.888 8.709 40.321 13.096 10.28 3.358 20.521 6.837 30.843 10.06 1.201.376 2.804-.536 4.221-.852l-.326-1.483-68.702-21.56.42-1.507c1.572.314 3.168.538 4.711.957a2858 2858 0 0 1 22.14 6.114c13.782 3.864 27.553 7.768 41.338 11.62 2.204.616 4.56 1.249 5.226-2.749-7.832-1.956-15.42-3.698-22.92-5.754-19.73-5.41-39.423-10.958-58.25-16.812 5.17 1.06 10.338 2.12 15.985 3.72 4.004.911 8.02 1.778 12.011 2.743 17.263 4.173 34.508 8.42 51.8 12.473 1.354.317 3.013-.666 4.53-1.044-1.32-.94-2.519-2.289-3.99-2.735-3.004-.912-6.164-1.293-9.243-1.97-18.632-4.097-37.26-8.216-56.435-12.674-5.266-6.157-12.363-8.628-20.734-9.678 7.273-6.836 14.932-9.894 24.441-7.397-6.38-6.606-14.403-7.325-23.267-6.687 5.989-8.276 12.902-12.97 23.413-11.801-6.086-4.377-6.086-4.377-24.646-3.013 4.03-9.11 10.06-15.299 21.86-15.412-10.309-4.492-18.64-1.57-26.938 2.612 2.443-9.572 6.379-17.127 16.016-20.42-4.198-.05-8.36-.008-12.028 1.36-3.922 1.465-7.377 4.18-11.15 6.417.268-9.259 2.51-17.427 12.664-22.722-10.835-.055-16.449 6.023-22.348 12.888-1.332-9.476-1.36-17.774 5.806-24.692-8.821 2.355-13.323 8.622-17.059 16.334-4.39-9.059-4.63-17.31 1.522-25.527l-.005-.77c-.351.154-.703.307-1.716.633-7.57 4.276-10.587 11.705-12.96 19.914-6.182-8.118-8.103-16.279-4.215-25.48-7.444 5.847-9.247 13.79-9.529 22.937-7.634-6.72-11.62-14.103-9.658-24.055-5.852 7.142-6.363 15.227-4.464 24.285-9.161-5.21-14.49-11.827-14.766-22.143-1.324 4.168-2.463 8.339-2.264 12.445.21 4.338 1.697 8.615 2.608 12.834-8.873-3.299-16.242-8.138-17.923-18.68-2.62 9.176.312 16.833 5.594 24.527-10.82-1.109-18.45-5.142-22.238-16.51-.731 11.224 3.98 18.365 10.728 24.848-10.042 1.502-17.917-1.087-23.814-9.364l-.788-.617c.087.55.173 1.101.305 2.403 2.661 4.451 5.323 8.902 7.261 13.485-2.094-1.387-4.998-2.3-6.133-4.246-3.587-6.15-6.502-12.69-9.706-19.066-.417-.83-1.003-1.574-1.51-2.358l-1.13.615c1.247 8.955 6.373 16.281 10.488 24.353-2.093-.75-3.945-1.8-5.305-3.298-4.579-5.041-8.982-10.242-13.453-15.381l-1.227.898c2.685 4.71 5.423 9.39 8 14.158.406.751.087 1.894-.565 2.793-.446-.034-.891-.069-1.503-.78l-12.836-17.71-1.917 1.387c4.004 5.699 8.008 11.397 11.21 17.064-1.719-.476-3.437-.952-5.302-2.07l-8.813-12.584-1.357.906c1.077 1.727 2.15 3.456 3.233 5.179 1.986 3.161 3.978 6.319 5.3 9.34l-26.138-32.02 6.359 14.775-.987.599c-5.157-6.777-10.314-13.554-15.64-20.623l-.378-.076c.07.233.142.467.214 1.46 2.414 5.01 4.83 10.02 6.578 15.082-1.364-1.095-2.728-2.19-4.355-3.908a3062 3062 0 0 0-11.141-13.733l-1.258.114c.338.311.676.622 1.173 1.601 3.566 4.452 7.133 8.903 10.925 13.957 1.775 1.963 3.55 3.926 5.66 6.463 6.699 5.365 12.684 12.431 20.294 15.628 7.92 3.326 12.875 10.006 20.238 13.596-2.139-.274-3.984-1.116-5.755-2.091-6.793-3.74-13.556-7.536-20.345-11.286-2.836-1.567-5.707-3.072-8.786-5.225-5.317-5.17-10.53-10.455-15.986-15.474-4.474-4.115-9.24-7.913-14.086-12.129l-.404-.042c.056.255.113.51.274 1.463 6.489 12.965 17.9 20.477 29.56 27.612-7.214.397-11.577-4.793-16.748-8.467-8.735-6.206-17.558-12.285-26.603-18.683l-.44-.01c.092.234.183.468.635 1.27 3.734 3.273 7.468 6.545 10.91 10.158 0 0-.286.345-1.01.25l-6.176-1.605-.195.71 15.364 9.006-.808 1.183-20.922-4.312-.276 1.116 16.817 4.428c-8.887 3.4-11.085 6.148-10.147 11.312 8.15-8.22 18.083-10.774 25.506-6.016-3.122.413-5.706.755-8.313.886l-.23-.078s.316.233.295.973l9.539 7.3c-2.114.516-3.315.808-5.28 1.066-2.494.91-4.988 1.82-8.023 3.15l-1.39 4.32.976.282c.554-1.479 1.109-2.958 2.396-4.628m165.224 126.213s.012.07 0 0"/><path fill="#012587" d="M451 100.531c-59.942.488-119.883.52-179.825.524-89.746.005-179.492-.009-269.707-.035C1 67.69 1 34.378 1 1.034h450zm-65.07-36.97c.357-.108.715-.216 1.796-.413 2.853-1.953 6.16-3.479 8.466-5.943 5.226-5.588 5.07-14.306.192-18.441-4.317-3.658-11.687-2.18-16.874 3.404-.678.73-1.494 1.445-1.864 2.327a705 705 0 0 0-6.681 16.52c-.646 1.657-.992 3.43-1.476 5.15l-1.457-.347c.126-1.385.11-2.8.4-4.15 1.994-9.25 4.124-18.471 6.068-27.732 1.765-8.414.283-16.19-5.061-23.086-4.148-5.35-6.294-5.335-10.138.108-4.968 7.036-6.731 14.852-4.91 23.225 2.676 12.298 5.692 24.522 8.637 37.092 1.034-.08 2.503-.194 4.563-.224.47-.361.94-.722 1.999-.677 1.565-1.451 3.452-2.683 4.63-4.4 2.378-3.474 3.857-7.692 6.671-10.7 2.715-2.902 5.602-1.38 6.025 2.617.12 1.14-.064 2.311-.678 3.996-.373.302-.747.604-.742 1.383l.681.044c-.36-.167-.721-.333-.247.247M92.322 83.551l8.036.662c-5.181-2.72-4.8-10.78-13.157-10.593-8.263.185-8.025 8.18-13.317 10.583l10.085-.645c.217 11.51.251 11.646 3.803 14.997 3.494-4.26 3.31-9.18 3.288-14.63.146-.163.291-.325 1.262-.375M235.037 68.12c1.273-3.216 2.009-6.826 3.992-9.518 1.539-2.089 4.635-3.03 7.04-4.48.413 2.676.819 5.355 1.253 8.029.044.271.257.515.402.767 7.302-1.225 13-7.375 13.41-14.455.244-4.23-.493-8.76-4.576-10.159-3.346-1.146-8.057-1.011-11.156.552-3.422 1.727-6.708 5.288-8.25 8.834-2.808 6.459-4.286 13.497-6.84 20.28-.348.001-.696.004-1.122-.817 2.084-10.56 4.052-21.143 6.284-31.67 1.97-9.286.846-17.799-5.33-25.312-3.763-4.58-5.64-4.608-9.178.266-5.107 7.036-7.232 14.81-5.354 23.496 2.448 11.316 4.818 22.649 6.386 34.016-.278.011-.556.023-.997-.77-2.024-6.628-3.233-13.675-6.356-19.737-2.089-4.056-6.473-7.46-10.6-9.793-4.497-2.541-9.303-.494-11.695 3.436-4.94 8.114 1.933 20.821 11.828 21.404-.07-.838-.336-1.687-.164-2.435.454-1.98 1.097-3.917 1.666-5.87 2.134.966 5.161 1.362 6.219 3.017 2.262 3.54 3.505 7.732 4.994 12.321l-1.231 2.98h21.952c-1.173-1.596-1.926-2.62-2.577-4.382M66.29 62.909l-.385.507c.326-.206.652-.411.21-.927l.697-8.233c2.457 1.303 5.484 2.098 7.215 4.046 1.882 2.117 2.385 5.404 3.84 7.983.71 1.263 2.215 2.08 3.36 3.098l1.075-1.237c-1.28-9.28-3.252-18.355-9.607-25.727-5.147-5.97-12.82-7.415-17.212-3.557-4.938 4.337-4.814 13.272.744 18.827 2.397 2.395 5.69 3.916 8.662 5.688.413.246 1.33-.355 1.4-.467m10.335-39.624c.015 3.133-.497 6.377.136 9.379 2.528 11.982 5.412 23.888 8.237 36.14h4.58c2.687-12.967 5.605-25.726 7.895-38.598 1.427-8.02-1.79-14.95-6.928-21.082-2.561-3.057-5.25-3.197-7.22.089-2.523 4.209-4.388 8.812-6.7 14.072m43.188 16.32c-5.637-4.348-12.071-3.612-17.572 2.362-6.854 7.443-8.66 16.876-9.499 27.003 1.724-.586 3.26-1.488 4.024-2.829 1.13-1.985 1.184-4.79 2.656-6.328 2.214-2.312 5.958-5.883 7.801-5.254 3.75 1.279 2 5.482 1.084 8.634-.039.132.09.313.14.472 12.364-4.228 17.071-13.554 11.366-24.06m222.977 20.423 1.685-5.85c2.019.86 4.727 1.183 5.903 2.696 2.072 2.667 3.513 5.954 4.645 9.182.978 2.79 2.071 3.878 5.657 1.85-2.189-6.588-3.753-13.458-6.774-19.612-1.928-3.928-5.5-7.718-9.301-9.836-2.786-1.552-7.548-1.295-10.696-.025-4.012 1.617-4.745 6.157-4.27 10.333.948 8.345 6.612 12.415 14.207 15.198a72 72 0 0 1-1.056-3.936m21.866 38.267c5.367-3.964 2.905-9.852 3.5-14.987 1.805.252 3.427.562 5.063.683 1.523.113 3.06.024 4.5.024-2.119-2.844-4.055-5.248-5.769-7.801-1.738-2.59-11.842-3.165-13.825-.683-2.211 2.768-4.441 5.521-6.948 8.635l9.524-.61c1.154 4.967 2.248 9.676 3.955 14.739M219.383 75.479l-6.92 8.692 10.447-.668c.333 5.03-1.251 10.747 4.063 15.992.997-3.387 2.012-5.817 2.372-8.341.365-2.548.08-5.19.08-7.702l9.63.774c-2.213-3.085-4.13-5.87-6.188-8.55-.531-.692-1.506-1.5-2.263-1.486-3.578.068-7.152.402-11.22 1.289"/><path fill="#F9DB09" d="M307.037 244.015c-5.215-3.527-10.494-6.872-18.022-5.968-1.937.377-3.092.711-4.246 1.045l-3.69.524c7.457 5.016 13.712 10.045 14.795 19.241-6.098-7.519-14.1-9.447-23.824-8.511 6.463 6.743 11.68 13.81 10.832 23.744-6.85-11.206-11.426-14.299-21.697-14.814 6.715 14.217 7.346 17.202 5.145 23.105-2.02-3.435-3.607-7.685-6.51-10.643-3.004-3.06-7.285-4.864-11.457-6.87 2.697 8.556 4.57 16.757-.24 25.048.297-10.393-5.46-16.741-14.282-22.042 1.902 9.435 1.415 17.842-4.982 25.089 2.85-10.15-1.26-17.608-9.08-24.683-.468 9.142-2.142 17.083-9.52 22.657 3.872-9.162 1.739-17.227-4.289-25.331-2.243 7.912-5.12 15.046-12.67 19.302-.71-.285-.863-.426-1.015-.568 5.39-7.664 4.497-15.556.9-23.935-2.625 3.63-4.664 7.393-7.594 10.24-2.961 2.877-6.804 4.848-10.897 6.641 7.777-7.02 8.644-15.475 6.736-24.993-12.714 11.431-14.87 12.66-20.78 11.389 8.846-4.951 10.906-12.95 11.293-22.607-7.37 6.286-15.065 10.314-26.092 8.41 11.185-2.476 16.172-9.33 18.42-19.187.004-.606-.132-.758-.268-.91l.124.675c-1.285.351-2.648.532-3.842 1.08-6.729 3.095-13.576 3.955-21.032.965 10.454-.718 16.488-6.866 20.653-16.365-8.29 2.284-16.19 3.007-23.414-1.38 9.292-.988 16.498-4.6 21.464-12.555-3.39 0-6.472 0-9.838-.215-1.199-.33-2.114-.445-3.334-.744-2.079-.85-3.852-1.517-5.795-2.42-1.024-.693-1.878-1.15-2.731-1.606l-.828-1.425a26 26 0 0 1 3.718-.336c7.695-.056 14.134-1.531 19.464-6.77.363-.391.508-.66.625-.94.006-.015-.23-.16-.365-.2-4.484-1.286-8.97-2.567-13.728-4.074-1.267-.84-2.263-1.455-3.386-2.357-1.347-1.445-2.565-2.604-3.633-4.105 1.225-.149 2.383-.15 3.358.272 4.773 2.059 9.55 2.461 14.85.356.97-.252 1.51-.451 2.357-.748 3.67-1.702 2.917-2.783-.053-3.915-6.542-2.493-10.358-7.8-13.25-13.62 1.79.383 3.495.403 4.537 1.245 6.605 5.336 13.537 3.213 20.192 1.663l-6.528-5.338c-2.662-4.452-5.324-8.903-7.877-13.853.108-.5.366-.75.366-.75 5.906 7.74 13.78 10.329 23.823 8.827-6.748-6.483-11.46-13.624-10.728-24.849 3.788 11.37 11.418 15.402 22.238 16.51-5.282-7.693-8.214-15.35-5.594-24.525 1.68 10.54 9.05 15.38 17.923 18.68-.911-4.22-2.397-8.497-2.608-12.835-.2-4.106.94-8.277 2.264-12.445.276 10.316 5.605 16.934 14.766 22.143-1.899-9.058-1.388-17.143 4.464-24.285-1.962 9.952 2.024 17.335 9.658 24.055.282-9.146 2.085-17.09 9.529-22.937-3.888 9.201-1.967 17.362 4.215 25.48 2.373-8.209 5.39-15.638 13.421-19.874.462.04.721.295.721.295-5.613 8.019-5.373 16.27-.983 25.33 3.736-7.713 8.238-13.98 17.06-16.335-7.168 6.918-7.139 15.216-5.807 24.692 5.9-6.865 11.513-12.943 22.348-12.888-10.154 5.295-12.396 13.463-12.665 22.722 3.774-2.237 7.23-4.952 11.151-6.416 3.668-1.37 7.83-1.41 12.028-1.36-9.637 3.292-13.573 10.847-16.016 20.419 8.298-4.182 16.629-7.104 26.937-2.612-11.8.113-17.83 6.301-21.86 15.412 18.561-1.364 18.561-1.364 24.647 3.013-10.511-1.168-17.424 3.525-23.413 11.8 8.864-.637 16.886.082 23.267 6.688-9.509-2.497-17.168.56-24.441 7.397 8.37 1.05 15.468 3.52 21.089 10.234.401 1.074.448 1.592.494 2.11-5.169-1.06-10.338-2.12-16.176-3.02-1.43.463-2.192.768-3.286 1.16-.853.505-1.372.923-2.243 1.299-1.32.432-2.287.907-4.007 1.75 3.51 1.465 6.015 2.51 8.662 3.821.707.453 1.27.64 1.795.824-.04-.002-.104.045-.104.045.552.507 1.104 1.014 2.042 1.884.71.523 1.034.682 1.358.842 0 0-.016-.017.06.28 1.161 1.615 2.245 2.934 3.329 4.252.364.631.728 1.262 1.334 2.504.25 1.074.26 1.537.268 2"/><path fill="#017800" d="M158.388 188.411c-5.106 5.12-11.545 6.595-18.879 6.619.688-1.071 1.79-2.005 2.998-3.03-9.197-3.695-14.41-1.683-14.823 5.494-.946-.768-1.895-1.531-3.309-2.43a2.05 2.05 0 0 1-.769-.43l1.644-6.189c-9.962 1.36-11.782 3.082-13.83 12.301-2.99-5.86-2.106-8.97 3.367-11.692 1.19-.591 2.401-1.397 3.666-1.54 5.902-.66 8.659-4.818 11.892-11.246-5.7 1.652-10.218 2.88-14.683 4.278-4.692 1.469-9.333 3.1-14.205 4.28 5.556-5.656 13.406-6.763 20.83-9.36-8.835-3.613-19.12-1.818-25.516 4.663l.936-6.829-13.924 3.817c7.247-7.451 17.021-5.659 26.977-6.547-6.654-5.193-13.256-7.388-21.24-7.13-.47-.64-.477-.977-.484-1.314 1.201-.292 2.402-.584 4.516-1.1-3.663-2.802-6.6-5.051-9.546-7.658-.007-.358-.035-.326-.035-.326l8.29-1.097c-7.423-4.758-17.356-2.205-25.506 6.016-.938-5.164 1.26-7.913 10.147-11.312l-16.817-4.428.276-1.116 20.922 4.312.808-1.183-15.364-9.006.195-.71c2.059.535 4.118 1.07 6.705 1.81.915.168 1.301.13 1.688.093l-.915-.888c-3.734-3.273-7.468-6.545-11.275-10.208-.074-.39.136-.605.136-.605 8.787 6.133 17.61 12.212 26.345 18.418 5.171 3.674 9.534 8.864 17.092 8.147.344-.32.522-.49.522-.49 2.855 1.533 5.726 3.038 8.562 4.605 6.789 3.75 13.552 7.545 20.345 11.286 1.771.975 3.616 1.817 5.755 2.091-7.363-3.59-12.318-10.27-20.238-13.596-7.61-3.197-13.595-10.263-20.303-16.122.26-.712.53-.929.958-1.252-.001-.351-.16-.597-.32-.817-.001.025.046.043.074-.271-.335-.795-.697-1.276-1.068-1.74-.01.018.027.027.027.027-2.415-5.01-4.83-10.019-7.16-15.49.084-.463.25-.631.25-.631l15.47 20.33.987-.598-6.36-14.776c9.139 11.195 17.639 21.608 26.704 31.856.783-.788 1-1.411 1.218-2.034 1.719.476 3.437.952 5.768 1.625 1.44.044 2.269-.109 3.097-.262.446.035.891.07 1.734.436 1.023 1.393 1.65 2.455 2.276 3.516 3.283 5.804 7.099 11.11 13.64 13.603 2.971 1.132 3.723 2.213-.135 3.624a1065 1065 0 0 1-10.651-5.183l-.791 1.575 8.845 4.7c-4.87 2.052-9.648 1.65-14.42-.41-.976-.42-2.134-.42-3.713-.21a775 775 0 0 1-8.471 5.843l.824 1.44 11.762-2.952c.995.615 1.99 1.23 2.747 2.216-3.009.878-5.796 1.297-8.54 1.913-2.625.588-5.203 1.38-7.802 2.083l.349 1.191zm-45.419-26.85.433-.008c-.078-.234-.157-.469-.59-1.287-2.213-2.343-3.982-5.936-9.395-2.305 3.708 1.347 6.492 2.358 9.552 3.6m.632-19.265-1.552-2.127-.87.805c.676.586 1.352 1.171 2.422 1.322m3.19 4.547-.765-1.519c-.212.172-.623.47-.606.496.317.503.685.973 1.372 1.023m28.766 23.504-.118.212s.262-.037.118-.212"/><path fill="#017600" d="m296.813 231.117-8.52-3.554c1.72-.843 2.688-1.318 4.356-1.798 1.209-.449 1.718-.893 2.227-1.337.761-.306 1.522-.61 2.513-.894 19.936 5.515 39.629 11.062 59.36 16.473 7.5 2.056 15.087 3.798 22.92 5.754-.667 3.998-3.023 3.365-5.227 2.749-13.785-3.852-27.556-7.756-41.337-11.62a2858 2858 0 0 0-22.14-6.114c-1.544-.419-3.14-.643-4.712-.957l-.42 1.507 68.702 21.56.326 1.483c-1.417.316-3.02 1.228-4.221.853-10.322-3.224-20.563-6.703-30.843-10.06-13.433-4.388-26.88-8.734-40.736-13.004-.415.095-.35.048-.488-.192-.678-.443-1.22-.646-1.76-.849m3.615-3.008c-.405-.003-.811-.022-1.214.01-.052.004-.085.263-.127.405.414-.018.828-.035 1.34-.415"/><path fill="#047700" d="M145.387 158.96c-1.017-1.043-1.644-2.105-2.333-3.467-.079-1.262.24-2.405-.166-3.156-2.577-4.767-5.315-9.448-8-14.158l1.227-.898c4.47 5.14 8.874 10.34 13.453 15.381 1.36 1.498 3.212 2.548 5.305 3.298-4.115-8.072-9.241-15.398-10.489-24.353l1.13-.615c.508.784 1.094 1.528 1.511 2.358 3.204 6.375 6.119 12.916 9.706 19.066 1.135 1.946 4.039 2.86 6.495 4.18 2.523 1.702 4.684 3.469 6.89 5.273-6.655 1.55-13.587 3.673-20.192-1.663-1.042-.842-2.747-.862-4.537-1.245"/><path fill="#017700" d="M284.998 239.357c.925-.599 2.08-.933 3.586-1.222 20.48 9.975 40.603 19.915 60.74 29.823 3.134 1.542 6.426 2.785 9.464 4.488 1.127.632 1.735 2.19 2.58 3.327-1.474.023-3.119.483-4.385-.016-3.241-1.277-6.334-2.942-9.45-4.521-20.774-10.528-41.538-21.074-62.535-31.88"/><path fill="#017400" d="M314.244 226.644c-.285-.788-.332-1.306-.46-2.207 18.547 3.73 37.175 7.848 55.807 11.945 3.079.677 6.24 1.058 9.243 1.97 1.471.446 2.67 1.795 3.99 2.735-1.517.378-3.176 1.36-4.53 1.044-17.292-4.052-34.537-8.3-51.8-12.473-3.992-.965-8.007-1.832-12.25-3.014"/><path fill="#017500" d="M305.796 239.428c-1.445-1.235-2.529-2.554-3.697-4.177 1.2-.078 2.557-.042 3.76.407a24272 24272 0 0 1 62.025 23.244c.89.335 1.71.859 2.563 1.295l-.015 1.727c-1.793.06-3.797.677-5.344.089-11.172-4.247-22.224-8.808-33.369-13.128-8.48-3.288-17.039-6.368-25.923-9.457M307.288 244.255c-.26-.703-.269-1.166-.267-1.977 19.845 7.82 39.679 15.986 59.549 24.167-.127 3.733-2.127 3.205-4.362 2.232-12.056-5.25-24.13-10.459-36.164-15.755-6.203-2.73-12.339-5.613-18.756-8.667"/><path fill="#040500" d="M139.159 198.666c1.773.666 3.546 1.333 5.468 2.49-1.184 2.945-2.516 5.399-3.847 7.852l1.236.73 6.386-7.93h9.554c-4.966 7.954-12.172 11.567-21.544 12.193-.868-.028-1.317-.053-2.075-.528-.158-5.793.666-10.895 4.822-14.807"/><path fill="#017800" d="M106.955 151.05c-12.262-6.58-23.672-14.092-30.102-27.516.06-.46.28-.684.28-.684 4.637 3.938 9.403 7.736 13.877 11.851 5.457 5.02 10.669 10.304 16.098 15.784.112.31-.066.48-.153.565"/><path fill="#007100" d="M140.903 154.688c-.745.491-1.574.644-2.613.616-4.215-5.88-8.219-11.578-12.223-17.277l1.917-1.387c4.278 5.903 8.557 11.806 12.919 18.048"/><path fill="#097100" d="M138.989 198.43c-3.986 4.148-4.81 9.25-4.987 15.002-1.87-5.333-1.703-10.845 2.051-16.289 1.058.137 1.912.593 2.936 1.287"/><path fill="#006D00" d="M132.048 153.342c-.144.944-.362 1.567-.811 2.424-2.221-2.925-4.213-6.083-6.2-9.244-1.082-1.723-2.155-3.452-3.232-5.179l1.357-.906c2.938 4.195 5.876 8.39 8.886 12.905"/><path fill="#006B00" d="M85.185 117.777c3.602 4.458 7.204 8.916 10.735 13.86-.199.607-.327.728-.456.85-3.566-4.451-7.133-8.902-10.633-13.86.066-.504.354-.85.354-.85M102.141 137.913c-.27.217-.54.434-.967.858-1.934-1.755-3.709-3.718-5.597-5.982.016-.424.144-.545.475-.841 1.566.921 2.93 2.016 4.627 3.085.333-.027.297-.036.27.259.34.777.708 1.259 1.076 1.74 0 0-.047-.017-.016.197.032.214.132.684.132.684"/><path fill="#006000" d="M88.654 162.109c.39.354.396.69.418 1.277-2.27.776-4.556 1.303-7.384 1.778-.542-.052-.898-.342-.898-.342 2.494-.91 4.988-1.82 7.864-2.713M81.322 165.26c-.378 1.626-.933 3.105-1.487 4.584l-.977-.282c.464-1.44.927-2.88 1.661-4.53.27-.21.627.08.803.228"/><path fill="#F9DB09" d="M192.966 284.982c-.316.422-.856.626-1.395.831.09-.368.18-.737.492-1.29.374-.041.526.1.903.459M155.688 142.302c-.217-.427-.303-.977-.39-1.528.263.206.525.412.783.886-.004.268-.262.518-.393.642"/><path fill="#006B00" d="M84.751 118.294c-.483-.14-.82-.451-1.159-.762.42-.038.839-.076 1.425.066.168.18-.12.525-.266.696"/><path fill="#017500" d="M301.963 234.702c-.24.117-.565-.042-1.009-.459.23-.11.578.036 1.01.459"/><path fill="#F9DB09" d="M247.461 291.464c.006.034-.006-.035 0 0M259.78 115.787c.22-.28.572-.433.923-.587.002.257.003.514-.264.869-.27.099-.53-.156-.66-.282"/><path fill="#017800" d="M124.062 195.078c-.137.058-.423-.033-.582-.284.126-.16.432.134.582.284M93.851 119.135c-.155-.151-.226-.385-.297-.618a.9.9 0 0 1 .462.222c.085.146-.08.314-.165.396M76.801 123.185c-.168-.145-.225-.4-.281-.655.135.014.27.028.509.18.104.14-.116.364-.228.475M62.945 125.041c-.199-.128-.29-.362-.382-.597.147.004.294.007.57.144.128.132-.082.347-.188.453M84.016 152.998c.018-.012-.297-.245-.297-.245s.23.078.24.184c.012.105.04.073.057.061"/><path fill="#F8DA0B" d="m367 70.968-3.972.307c-2.945-12.57-5.961-24.794-8.637-37.092-1.821-8.373-.058-16.19 4.91-23.225 3.844-5.443 5.99-5.459 10.138-.108 5.344 6.895 6.826 14.672 5.06 23.086-1.943 9.26-4.073 18.482-6.067 27.732-.29 1.35-.274 2.765-.4 4.15l1.457.348c.484-1.72.83-3.494 1.476-5.151a705 705 0 0 1 6.681-16.52c.37-.882 1.186-1.598 1.864-2.327 5.187-5.585 12.557-7.062 16.874-3.404 4.879 4.135 5.034 12.853-.192 18.441-2.305 2.464-5.613 3.99-8.872 5.517-.441-.737-.477-1.05-.513-1.363.045-1.157.23-2.329.109-3.468-.423-3.997-3.31-5.52-6.025-2.618-2.814 3.009-4.293 7.227-6.672 10.7-1.177 1.718-3.064 2.95-4.942 3.886a84 84 0 0 1-1.141-2.039z"/><path fill="#F7D90C" d="M76.706 22.873c2.23-4.847 4.095-9.45 6.618-13.66 1.97-3.285 4.659-3.145 7.22-.088 5.138 6.132 8.355 13.061 6.928 21.082-2.29 12.872-5.208 25.631-7.894 38.598h-4.581c-2.825-12.252-5.71-24.158-8.237-36.14-.633-3.002-.121-6.246-.054-9.792"/><path fill="#F8DA0B" d="M222.833 67.906c-2.403-11.325-4.773-22.658-7.22-33.974-1.88-8.687.246-16.46 5.353-23.496 3.538-4.874 5.415-4.845 9.179-.266 6.175 7.513 7.298 16.026 5.33 25.311-2.233 10.528-4.201 21.112-6.451 32.406-2.175.496-4.183.258-6.191.02"/><path fill="#F5D80C" d="M120.044 39.914c5.473 10.198.766 19.524-11.598 23.752-.05-.159-.179-.34-.14-.472.917-3.152 2.666-7.355-1.084-8.634-1.843-.629-5.587 2.942-7.8 5.254-1.473 1.537-1.526 4.343-2.657 6.328-.765 1.341-2.3 2.243-4.024 2.829.838-10.127 2.645-19.56 9.5-27.003 5.5-5.974 11.934-6.71 17.803-2.054M342.859 60.421c.338 1.316.607 2.24.986 3.544-7.595-2.783-13.259-6.853-14.207-15.198-.475-4.176.258-8.716 4.27-10.333 3.148-1.27 7.91-1.527 10.696.025 3.801 2.118 7.373 5.908 9.301 9.836 3.021 6.154 4.585 13.024 6.774 19.611-3.586 2.029-4.679.94-5.657-1.85-1.132-3.227-2.573-6.514-4.645-9.18-1.176-1.514-3.884-1.837-5.903-2.697-.561 1.95-1.123 3.9-1.615 6.242"/><path fill="#F6D90C" d="M66.903 62.813c-.684.209-1.601.81-2.014.564-2.973-1.772-6.265-3.293-8.662-5.688-5.558-5.555-5.682-14.49-.744-18.827 4.392-3.858 12.065-2.413 17.212 3.557 6.355 7.372 8.327 16.447 9.607 25.727l-1.075 1.237c-1.145-1.018-2.65-1.835-3.36-3.098-1.455-2.58-1.958-5.866-3.84-7.983-1.731-1.948-4.758-2.743-7.215-4.046-.232 2.744-.464 5.489-.357 8.405.34.173.448.152.448.152"/><path fill="#F7D90B" d="M217.065 68.856c-1.66-3.924-2.904-8.116-5.166-11.656-1.058-1.655-4.085-2.051-6.22-3.018-.568 1.954-1.211 3.89-1.665 5.87-.172.749.095 1.598.164 2.436-9.895-.583-16.767-13.29-11.828-21.404 2.392-3.93 7.198-5.977 11.695-3.436 4.127 2.333 8.511 5.737 10.6 9.793 3.123 6.062 4.332 13.11 6.255 20.474-1.345.804-2.59.873-3.835.941M230.834 67.982c2.032-6.796 3.51-13.834 6.318-20.293 1.542-3.546 4.828-7.107 8.25-8.834 3.099-1.563 7.81-1.698 11.156-.552 4.083 1.398 4.82 5.93 4.575 10.16-.41 7.08-6.107 13.23-13.414 14.456-.14-.254-.353-.498-.397-.77-.434-2.673-.84-5.352-1.253-8.029-2.405 1.451-5.501 2.392-7.04 4.48-1.983 2.693-2.719 6.303-4.42 9.94-1.544.096-2.66-.231-3.775-.558"/><path fill="#F1D50F" d="M90.601 84.391c.48 4.984.665 9.905-2.829 14.164-3.552-3.351-3.586-3.487-3.803-14.997l-10.085.645c5.292-2.403 5.054-10.398 13.317-10.583 8.357-.187 7.976 7.874 13.157 10.593-2.679-.22-5.357-.442-8.664-.83-.782.223-.938.616-1.093 1.008"/><path fill="#F2D60E" d="M364.348 98.119c-1.4-4.886-2.494-9.595-3.648-14.563l-9.524.61c2.507-3.113 4.737-5.866 6.948-8.634 1.983-2.482 12.087-1.907 13.825.683 1.714 2.553 3.65 4.957 5.768 7.801-1.438 0-2.976.089-4.499-.024-1.636-.12-3.258-.43-5.063-.683-.595 5.135 1.867 11.023-3.807 14.81"/><path fill="#F2D50E" d="M219.63 75.155c3.822-.563 7.396-.897 10.974-.965.757-.014 1.732.794 2.263 1.486 2.057 2.68 3.975 5.465 6.189 8.55l-9.63-.774c0 2.513.284 5.154-.08 7.702-.361 2.524-1.376 4.954-2.373 8.341-5.314-5.245-3.73-10.961-4.063-15.992l-10.446.668c2.525-3.172 4.722-5.932 7.166-9.016"/><path fill="#18367C" d="M230.573 67.975c1.376.334 2.492.66 3.985.935 1.13.971 1.883 1.995 3.056 3.592h-21.952a97 97 0 0 0 1.317-3.313c1.331-.401 2.576-.47 4.003-.872.46-.346.738-.358 1.434-.39 2.425.218 4.433.456 6.647.371.553-.325.901-.328 1.51-.323"/><path fill="#F6D80C" d="M367.295 71.01c.083-1.092.462-2.14.84-3.19.277.508.554 1.016.848 1.836-.453.673-.922 1.034-1.688 1.353M386.523 61.623c.32.049.356.362.435 1.144-.313.578-.67.686-1.392.431-.365-.363-.448-.406-.448-.406.373-.301.747-.603 1.405-1.169"/><path fill="#F6D90C" d="M66.84 62.816c-.283.189-.609.394-.935.6.128-.169.256-.338.691-.555.307-.048.2-.027.244-.045"/><path fill="#F6D80C" d="M385.148 62.825c.308.156.669.322 1.03.489-.228-.015-.455-.03-.871-.283-.189-.239-.106-.196-.159-.206"/><path fill="#050E00" d="M158.612 188.291c-10.14.12-20.056.12-29.972.12l-.349-1.191c2.599-.703 5.177-1.495 7.802-2.083 2.744-.616 5.531-1.035 8.812-1.687 4.997 1.135 9.483 2.416 13.967 3.703.136.039.37.184.365.2-.117.28-.262.548-.625.938"/><path fill="#060E00" d="M141.758 180.721c-3.793 1.27-7.714 2.255-11.634 3.239l-.824-1.44c2.655-1.813 5.31-3.626 8.32-5.5 1.573 1.097 2.791 2.256 4.138 3.701"/><path fill="#077000" d="M148.118 201.593c-1.845 2.858-3.974 5.501-6.102 8.144l-1.236-.73c1.331-2.452 2.663-4.906 4.152-7.667 1.072-.192 1.987-.077 3.186.253"/><path fill="#000E00" d="M156.333 177.244c-3.378-1.513-6.326-3.08-9.274-4.647l.79-1.575c3.386 1.664 6.77 3.327 10.345 5.281-.351.49-.892.69-1.861.941"/><path fill="#027400" d="M296.955 231.384c.399-.064.94.14 1.658.584-.387.055-.951-.131-1.658-.584M294.543 224.514c-.176.358-.685.802-1.543 1.294.17-.37.69-.789 1.543-1.294"/><path fill="#010100" d="M164.09 230.047c-.004-.209-.046-.434-.087-.66.136.153.272.305.196.53-.212.071-.145.113-.108.13"/><path fill="#000E00" d="m112.692 161.33-9.275-3.369c5.413-3.631 7.182-.038 9.453 2.716.057.41-.178.653-.178.653"/><path fill="#010100" d="M113.403 142.513c-.872-.368-1.548-.953-2.223-1.539l.87-.805c.516.709 1.034 1.418 1.353 2.344M116.627 147.056c-.522-.263-.89-.733-1.207-1.236-.017-.027.394-.324.606-.496.255.506.51 1.013.601 1.732M102.053 136.719c-.396-.168-.764-.65-1.095-1.445.398.169.76.65 1.095 1.445M74.254 135.703c.451.126.756.422 1.061.718-.387.038-.773.075-1.326-.045-.167-.158.12-.503.265-.673M102.299 137.807c-.158.106-.258-.364-.288-.603.128.006.287.252.288.603"/><path fill="#000E00" d="M145.63 170.435c.072.087-.19.124-.19.124s.118-.212.19-.124M113.047 160.969c.198.115.277.35.355.584a1.24 1.24 0 0 1-.571-.107c-.139-.116.096-.358.216-.477"/><path fill="#027400" d="M300.378 228.29c-.463.199-.877.216-1.29.234.041-.142.074-.401.126-.405.403-.032.809-.013 1.164.171"/><path fill="#012587" d="M90.83 84.158c-.074-.16.082-.552.452-.832.07.274-.076.436-.451.832"/></svg>