<svg xmlns="http://www.w3.org/2000/svg" xml:space="preserve" viewBox="0 0 1280 640"><path fill="#FCD116" d="M428 1h853c0 106.359 0 212.718-.46 319.539-284.485.46-568.51.46-852.62-.002-.1-105.993-.12-211.525-.128-317.056 0-.827.136-1.654.208-2.481"/><path fill="#009E49" d="M428.004 321h852.536c.46 106.629.46 213.257.46 320-284.027 0-568.054 0-852.634-.46-.57-105.996-.586-211.53-.591-317.064 0-.825.15-1.65.23-2.476"/><path fill="#CE1126" d="M427.92 320.537c.004 1.288-.145 2.114-.145 2.939.005 105.534.021 211.068.131 317.063C285.708 641 143.416 641 1.063 641V1H427.53c.397.827.261 1.654.261 2.481.009 105.531.027 211.063.129 317.056M276.11 406.28l.314.101c-.162-.106-.324-.213-.263-1.105-.546-1.916-1.025-3.855-1.647-5.746-6.832-20.784-13.596-41.591-20.64-62.303-.957-2.813-.489-3.937 1.79-5.573 18.536-13.307 36.962-26.768 55.412-40.196 1.13-.822 2.17-1.767 4.207-3.439H238.3l-23.979-73.19c-1.164 3.016-2.02 4.95-2.665 6.951-6.602 20.527-13.262 41.036-19.664 61.626-1.145 3.683-2.857 4.756-6.655 4.722-22.326-.197-44.654-.105-66.981-.09-1.365 0-2.73.173-4.873.318 2.059 1.542 3.367 2.55 4.703 3.519 17.79 12.921 35.611 25.8 53.323 38.826 1.476 1.085 3.466 3.544 3.109 4.73-4.059 13.479-8.56 26.824-12.878 40.226-3.275 10.163-6.456 20.356-9.953 31.404 2.184-1.519 3.557-2.438 4.893-3.408 17.521-12.723 35.163-25.286 52.461-38.305 4.13-3.109 6.66-2.88 10.587.115 12.182 9.291 24.673 18.179 37.108 27.134 6.324 4.553 12.786 8.916 19.275 13.683"/><path fill="#010000" d="M276.02 405.962c-6.398-4.449-12.86-8.812-19.184-13.365-12.435-8.955-24.926-17.843-37.108-27.134-3.927-2.995-6.457-3.224-10.587-.115-17.298 13.019-34.94 25.582-52.46 38.305-1.337.97-2.71 1.89-4.894 3.408 3.497-11.048 6.678-21.24 9.953-31.404 4.318-13.402 8.819-26.747 12.878-40.226.357-1.186-1.633-3.645-3.109-4.73-17.712-13.027-35.534-25.905-53.323-38.826-1.336-.97-2.644-1.977-4.703-3.52 2.142-.144 3.508-.316 4.873-.317 22.327-.015 44.655-.107 66.98.09 3.799.034 5.511-1.04 6.656-4.722 6.402-20.59 13.062-41.099 19.664-61.626.644-2.001 1.501-3.935 2.665-6.951l23.979 73.19h76.984c-2.038 1.672-3.078 2.617-4.207 3.439-18.45 13.428-36.876 26.889-55.413 40.196-2.278 1.636-2.746 2.76-1.79 5.573 7.045 20.712 13.81 41.519 20.641 62.303.622 1.891 1.101 3.83 1.556 6.114-.09.368-.05.318-.05.318M275.96 406.037c.14.13.303.238.465.344-.105-.033-.21-.067-.36-.26-.044-.159-.084-.109-.105-.084"/></svg>