<svg xmlns="http://www.w3.org/2000/svg" xml:space="preserve" viewBox="0 0 1280 768"><path fill="#2A936A" d="M3 1h1278c0 127.363 0 254.725-.351 382.796-21.045-5.445-41.75-11.557-62.43-17.76a9937318 9937318 0 0 1-734.921-220.445C326.135 98.441 168.979 51.265 11.808 4.144 9.62 3.49 7.264 3.403 4.7 2.96 3.943 2.246 3.471 1.623 3 1M1281 386v383c-425.696 0-851.392 0-1277.454-.298.284-.767.936-1.235 1.994-1.7 2.35-.365 4.345-.56 6.229-1.124C223.327 702.436 434.875 638.96 646.427 575.5a3385667 3385667 0 0 1 629.425-188.753c1.643-.493 3.429-.51 5.148-.748"/><path fill="#BE1E2D" d="M1 739c0-235.695 0-471.39.323-707.423.755-.087 1.19.161 1.619.419q288.06 172.829 576.117 345.668c3.783 2.27 7.526 4.608 11.785 7.22-1.715 1.19-2.729 1.985-3.824 2.643-31.549 18.942-63.106 37.87-94.66 56.803-130.927 78.561-261.85 157.132-392.784 235.68C66.738 699.71 33.86 719.339 1 739"/><path fill="#FEFEFC" d="M1281 385.667c-1.719.572-3.505.588-5.148 1.08a3385667 3385667 0 0 0-629.425 188.754c-211.552 63.46-423.1 126.935-634.658 190.377-1.884.565-3.88.76-6.2.77 6.92-4.63 14.238-8.865 21.512-13.178 22.138-13.124 44.259-26.279 66.784-39.372.974-.356 1.55-.76 2.13-1.132.002.031-.045-.01.33.18a24 24 0 0 0 4.721-.921c101.963-30.556 203.927-61.106 305.882-91.687 259.665-77.886 519.326-155.785 778.986-233.688 1.417-.425 2.796-.979 5.442-1.915-2.943-.952-4.352-1.437-5.779-1.865-164.079-49.229-328.16-98.45-492.239-147.68C497.718 176.698 302.1 117.994 106.47 59.337c-3.427-1.028-7.01-1.54-10.496-2.313.024-.021.02.042-.082-.342-.876-.5-1.65-.615-2.723-.846C63.575 38.164 34.282 20.608 4.988 3.05c2.277.352 4.633.438 6.82 1.093 157.171 47.121 314.327 94.297 471.49 141.447a9937318 9937318 0 0 0 734.921 220.445c20.68 6.203 41.385 12.315 62.43 18.216.351.192.351.637.351 1.415"/><path fill="#020101" d="M4.701 2.96a19965 19965 0 0 1 88.682 53.196c1.212.594 1.91.752 2.61.91 0 0 .004-.063-.013.314 1.393 1.256 2.79 2.156 4.216 3.011C278.877 167.604 457.56 274.812 636.24 382.03c1.47.881 2.879 1.864 4.711 3.057-2.075 1.266-3.48 2.136-4.896 2.986-178.54 107.126-357.082 214.248-535.607 321.399-1.615.97-3.004 2.314-4.498 3.484 0 0 .047.042-.323-.1-.966.302-1.563.748-2.16 1.194C71.34 727.19 49.22 740.346 27.081 753.47c-7.274 4.313-14.592 8.549-21.919 13.174-.68.823-1.332 1.291-2.072 2.058-2.488.906-2.087-.793-2.088-2.14C.998 757.688 1 748.813 1 739.47c32.86-20.13 65.738-39.76 98.576-59.459C230.51 601.462 361.433 522.891 492.36 444.33c31.554-18.933 63.111-37.86 94.66-56.803 1.095-.658 2.11-1.453 3.824-2.643-4.26-2.612-8.002-4.95-11.785-7.22C387.022 262.437 194.982 147.217 2.942 31.996c-.43-.258-.864-.506-1.62-.877C1 21.815.976 12.629 1.044 3.445 1.05 2.628 1.667 1.815 2.5 1c.972.623 1.443 1.246 2.201 1.96"/><path fill="#FFC20E" d="M96.324 713.147c1.12-1.362 2.51-2.707 4.124-3.676 178.525-107.15 357.067-214.273 535.607-321.399 1.417-.85 2.821-1.72 4.896-2.986-1.832-1.193-3.241-2.176-4.71-3.057C457.56 274.812 278.876 167.604 100.195 60.39c-1.425-.855-2.823-1.755-4.24-2.99 3.504.396 7.086.908 10.513 1.936C302.1 117.994 497.718 176.697 693.34 235.39c164.078 49.23 328.16 98.451 492.238 147.68 1.427.428 2.836.913 5.78 1.865-2.647.936-4.026 1.49-5.443 1.915-259.66 77.903-519.321 155.802-778.986 233.688-101.955 30.58-203.92 61.131-305.882 91.687a24 24 0 0 1-4.722.922M95.89 56.682c-.596.226-1.295.068-2.208-.41.56-.205 1.333-.09 2.209.41M93.865 714.098c.199-.495.796-.94 1.76-1.275-.21.515-.786.92-1.76 1.275"/></svg>