<svg xmlns="http://www.w3.org/2000/svg" xml:space="preserve" viewBox="0 0 512 512"><path d="M0 385.38c0 21.176 17.167 38.345 38.345 38.345h435.311c21.165 0 38.324-17.148 38.344-38.307v-73.509H0z" style="fill:#41479b"/><path d="M473.656 88.275H38.345C17.167 88.275 0 105.443 0 126.62v73.471h512v-73.509c-.02-21.158-17.179-38.307-38.344-38.307" style="fill:#ff4b55"/><path d="M0 200.089h512v111.81H0z" style="fill:#f5f5f5"/><path d="M194.21 203.029h24.717v28.25H194.21zM243.64 203.029h24.717v28.25H243.64zM218.93 231.279h24.717v28.25H218.93zM293.08 203.029h24.717v28.25H293.08zM268.36 231.279h24.717v28.25H268.36z" style="fill:#ff4b55"/><path d="M218.93 203.029h24.717v28.25H218.93zM268.36 203.029h24.717v28.25H268.36zM194.21 231.279h24.717v28.25H194.21zM243.64 231.279h24.717v28.25H243.64zM293.08 231.279h24.717v28.25H293.08z" style="fill:#f5f5f5"/><path d="M243.64 259.529h24.717v28.25H243.64zM218.93 287.779h24.717v28.25H218.93zM268.36 287.779h24.717v28.25H268.36z" style="fill:#ff4b55"/><path d="M218.93 259.529h24.717v28.25H218.93zM268.36 259.529h24.717v28.25H268.36zM243.64 287.779h24.717v28.25H243.64z" style="fill:#f5f5f5"/><path d="M317.793 203.035v79.448c0 34.128-27.666 61.793-61.793 61.793s-61.793-27.666-61.793-61.793v-79.448zm4.413-4.415H189.792v83.862c0 36.507 29.7 66.207 66.207 66.207s66.207-29.701 66.207-66.207V198.62" style="fill:#ff4b55"/><path d="M218.924 287.779V259.53h-24.717v22.953c0 1.789.118 3.546.267 5.297z" style="fill:#ff4b55"/><path d="M317.526 287.779h-24.45v28.248h14.774a61.4 61.4 0 0 0 9.676-28.248M204.149 316.028h14.774V287.78h-24.45a61.4 61.4 0 0 0 9.676 28.248" style="fill:#f5f5f5"/><path d="M293.075 287.779h24.45c.149-1.749.267-3.508.267-5.297V259.53h-24.717zM218.924 331.833v-15.805H204.15c3.957 6.105 8.972 11.439 14.774 15.805M307.849 316.028h-14.774v15.806c5.801-4.367 10.815-9.701 14.774-15.806" style="fill:#ff4b55"/><path d="M218.924 331.833c7.195 5.415 15.567 9.345 24.717 11.202v-27.007h-24.717zM268.358 343.034c9.15-1.857 17.523-5.788 24.717-11.202v-15.805h-24.717z" style="fill:#f5f5f5"/><path d="M268.358 316.028h-24.717v27.008A62 62 0 0 0 256 344.277c4.233 0 8.365-.43 12.359-1.241z" style="fill:#ff4b55"/><path d="M211.27 156.29a181 181 0 0 0-16.489-1.779 190 190 0 0 0-12.398 11.15l11.823 28.545a161.6 161.6 0 0 1 24.247-7.867zM271.002 151.604a185 185 0 0 0-15.003-6.765 186 186 0 0 0-15.003 6.765l2.41 30.803a161 161 0 0 1 25.186 0zM329.616 165.661a191 191 0 0 0-12.398-11.15c-5.609.346-11.111.947-16.489 1.779l-7.184 30.049a161.5 161.5 0 0 1 24.247 7.867z" style="fill:#4173cd"/><path d="M240.996 151.604a183 183 0 0 0-15.894-4.346 187 187 0 0 0-13.832 9.033l7.183 30.049a161.4 161.4 0 0 1 24.952-3.933zM300.729 156.29a188 188 0 0 0-13.832-9.033 184 184 0 0 0-15.894 4.346l-2.41 30.803a161 161 0 0 1 24.952 3.933z" style="fill:#41479b"/><path d="M241.96 163.925a180 180 0 0 0-27.817 4.385l-1.437-6.011a186.5 186.5 0 0 1 28.771-4.535zM242.925 176.245a167.7 167.7 0 0 0-25.907 4.084l-1.437-6.009a173.6 173.6 0 0 1 26.862-4.234c.159 2.051.321 4.107.482 6.159" style="fill:#ff4b55"/><path d="M285.326 178.32a168 168 0 0 0-6.482-1.022c-3.562-.492-6.215-3.516-5.906-6.915.308-3.398 3.713-5.863 7.59-5.327q3.488.48 6.959 1.097c3.859.682 6.357 4.082 5.604 7.406-.75 3.332-4.218 5.386-7.765 4.761" style="fill:#ffe15a"/><path d="M320.157 188.497a168 168 0 0 0-25.175-8.168l1.437-6.009a174 174 0 0 1 26.103 8.468z" style="fill:#ff4b55"/><path d="M317.952 169.958c-.873 2.407-3.817 3.552-6.599 2.647s-4.483-3.55-3.779-6.012 3.686-3.765 6.636-2.806c2.953.957 4.616 3.764 3.742 6.171M204.424 166.594c.703 2.464-1 5.109-3.779 6.012-2.781.9-5.725-.245-6.599-2.647-.874-2.408.79-5.214 3.742-6.171 2.95-.956 5.934.346 6.636 2.806M254.589 162.548c.006 2.047-1.834 3.714-4.114 3.784-2.279.073-4.222-1.481-4.342-3.52-.119-2.04 1.719-3.806 4.111-3.883 2.393-.075 4.336 1.572 4.345 3.619M265.865 162.811c-.121 2.044-2.065 3.593-4.342 3.52-2.279-.07-4.119-1.737-4.114-3.784.009-2.045 1.953-3.697 4.344-3.619 2.393.073 4.229 1.842 4.112 3.883M260.007 172.079c-.057 2.047-1.85 3.657-4.008 3.657-2.156-.001-3.949-1.609-4.008-3.657-.056-2.041 1.737-3.755 4.008-3.75 2.271-.005 4.064 1.707 4.008 3.75" style="fill:#ffe15a"/></svg>