<svg xmlns="http://www.w3.org/2000/svg" xml:space="preserve" viewBox="0 0 400 400"><path d="M240.206 321.96c-.542 2.662-2.553 3.214-4.193 4.31-3.413 2.282-3.42 5.562-.23 7.53 3.787 2.335 4.492 6.024.723 8.494-4.969 3.257-4.561 9.869-9.286 13.048-.581.391-.662 1.874-.596 2.825.907 13.097 5.251 18.43 17.757 21.872-.227 1.805-1.679 1.184-2.645 1.24-2.037.118-4.564.17-5.653 1.589-5.594 7.284-11.54 2.729-16.217-.193-7.224-4.514-14.831-9.611-16.858-18.783-1.737-7.861-2.302-15.766-1.447-24.077.559-5.436 1.56-10.758 2.749-15.95 1.95-8.518 1.532-17.427 4.587-25.72.33-.896.692-2.027.428-2.854-1.56-4.884-1.018-9.392 1.744-13.73 5.443-8.55 4.411-18.281 5.352-27.76.927-9.341 3.022-18.558 3.784-27.982.392-4.838.783-9.703.204-14.413-.5-4.061-4.116-6.622-7.563-8.657-2.282-1.349-4.902-2.118-7.213-3.426-3.513-1.989-5.564-4.814-7.381-8.773-4.123-8.983-7.974-18.358-15.019-25.682-3.25-3.377-4.265-6.91-1.808-11.05.798-1.344 1.37-2.493.858-4.162-1.829-5.976.475-10.435 5.05-14.357 8.168-7.005 9.128-15.128 3.323-24.41-1.868-2.986-4.04-2.742-4.924.253-1.258 4.264-3.283 3.2-5.903 1.763-4.653-2.553-9.658-4.436-14.027-7.546-1.09-.776-2.517-1.256-2.82-2.634-1.96-8.929-9.63-10.882-16.644-12.962-3.665-1.086-6.718-2.376-9.44-5-3.043-2.933-6.286-5.636-10.984-2.751-1.436.882-3.226.465-4.852-.133-9.797-3.602-19.536-7.34-28.344-13.064-2.635-1.713-4.594-3.857-3.139-7.458 1.104-2.732-.638-4.878-2.087-6.78-3.022-3.965-6.75-7.295-10.289-10.806-3.547-3.518-5.444-8.54-9.725-11.54-.795-.559-1.326-1.537-2.509-1.451-1.12.55-1.544 1.677-.702 2.412 4.753 4.148 4.911 11.244 9.974 15.254 1.105.875 2.915 2.994.862 4.721-2.354 1.982-2.986-.928-4.175-1.96-2.967-2.572-7.245-4.05-6.794-9.4.131-1.548-2.33-2.661-4.047-3.344-2.218-.881-4.235-1.952-5.604-4.532 3.554-2.521 1.682-4.384-.817-6.64-4.044-3.652-5.346-8.821-7.346-13.935 4.321-1.159 7.707-1.52 11.562.265 5.376 2.489 10.94 5.087 17.233 4.191 1.147-.163 2.365-.122 3.431-.505 6.652-2.393 10.731-.917 14.219 5.455 1.833 3.35 3.248 6.205 7.755 2.542 2.453-1.994 5.472-.44 7.33 2.14 1.358 1.887 2.863 3.803 3.636 5.947 1.643 4.552 4.705 7.07 9.076 7.418.87 1.162.82 2.004.464 2.772-4.136 8.907-.787 16.552 4.356 23.63 2.282 3.142 6.057 4.263 9.884 3.18 3.846-1.09 8.356-1.3 9.604-6.615.94-4.004 10.22-7.406 13.768-5.334 2.367 1.381 1.54 3.55.894 5.319-1.241 3.396-2.916 6.631-4.26 9.994-1.923 4.815-.38 6.996 4.715 6.872 2.156-.052 4.322-.26 6.465-.12 5.778.38 7.424 2.852 6.46 8.552-.997 5.89-2.334 11.961 3.957 16.231 2.268 1.54 4.36 2.438 6.85.798 3.152-2.077 6.484-1.96 9.432-.027 3.636 2.386 5.962.685 7.125-2.318 1.45-3.743 4.265-5.025 7.604-5.497 1.772-.25 3.34-.816 4.51-1.85 3.267-2.885 5.732-3.242 6.962 1.402 2.661.996 1.056-2.354 3.729-1.83 4.284 3.081 10.161 4.739 16.267 5.739.645.106 1.532.346 1.942.039 4.633-3.477 9.635-.683 14.35-1.256 2.68 8.607 13.593 16.788 22.59 17.165 7.792.326 13.089 5.012 16.428 12.025 2.583 5.425 4.36 12.227 12.896 12.612 3.852.174 7.73 2.37 11.229 4.962 3.103 2.298 7.495 2.586 11.413 2.555 4.302-.034 7.709 1.39 10.923 4.038 2.666 2.197 5.296 4.4 9.052 4.923 2.978.415 5.29 7.954 3.964 12.111-.923 2.896-2.319 5.575-4.82 7.433-3.99 2.963-6.055 7.466-9.042 11.219-3.15 3.956-.74 8.962-1.696 13.507-1.524 7.252-4.548 13.712-8.074 19.998-1.488 2.651-4.347 4.036-7.6 4.061-5.935.046-10.558 3.402-15.3 6.286-3.369 2.049-5.103 5.182-4.3 9.33.508 2.62-.236 5.017-1.745 7.082-5.816 7.957-11.746 15.83-17.583 23.773-1.624 2.21-3.647 3.137-6.408 3.068-5.778-.145-6.555.9-5.137 6.285.85 3.227-2.61 8.89-6.458 10.168-2.831.941-5.748 1.871-8.69 2.167-3.278.33-5.37 2.185-5.287 4.928.144 4.806-2.815 5.347-6.233 5.88-1.547.24-3.547-.184-3.712 2.259.315.99 1.052 1.291 1.933 1.334 1.214.059 2.398.198 2.755 1.625.4 1.606-.6 2.656-1.84 3.158-3.28 1.33-4.147 4.067-4.692 7.518M58.922 18.81c-2.24-.726-2.677.593-2.496 2.339.358 3.46 2.73 4.461 6.12 4.88-.386-2.89-1.253-5.081-3.624-7.22"/><path d="M191.914 54.77c4.507 4.321 10.72 5.41 15.723 9.295-7.248 3.134-12.706 2.197-17.48-2.456-4.195-4.088-8.328-4.738-13.668-2.5-2.984 1.25-5.397-1.84-8.554-1.082 2.493-5.25 11.714-8.01 17.49-5.416 2 .898 4.013 1.567 6.489 2.16M206.096 70.961c.904-.796 2.161-1.003 2.563-1.702 1.088-1.897.376-4.753 4.298-4.669 5.658.121 10.901.94 15.368 4.577 1.596 1.3 1.367 2.996-.74 3.13-6.539.418-13.072 2.225-19.647.454-.703-.19-1.257-.937-1.842-1.79M259.382 364.568c-2.05.547-3.256-.083-4.147-1.493 1.986-3.752 8-5.927 11.594-4.258 1.682.781 1.69 2.027.716 3.191-2.026 2.423-4.423 4.082-8.163 2.56M347.345 379.841c-1.449-1.745-4.002-1.778-4.552-4.426 3.4-1.467 5.488.487 7.48 2.65.576.626.946 1.43.289 2.206-1.023 1.209-2.018.693-3.217-.43M194.864 74.024c-1.593-.508-2.8-1.037-3.24-2.806 2.623-1.576 4.908-.793 7.265.812-.706 1.963-2.39 1.653-4.025 1.994"/></svg>