<svg xmlns="http://www.w3.org/2000/svg" xml:space="preserve" viewBox="0 0 512 512"><path d="M0 385.379c0 21.177 17.167 38.345 38.345 38.345h435.31c21.177 0 38.345-17.167 38.345-38.345v-73.471H0z" style="fill:#73af00"/><path d="M473.655 88.276H38.345C17.167 88.276 0 105.443 0 126.621v73.471h512v-73.471c0-21.178-17.167-38.345-38.345-38.345" style="fill:#41479b"/><path d="M0 200.09h512V311.9H0z" style="fill:#f5f5f5"/><path d="m286.477 275.913-2.052 1.045c-.279.142-.58.265-.865.403l-18.127-22.898c3.726-8.099 5.934-19.153 5.934-24.178 0-8.257-5.418-15.136-12.547-16.591-.477-1.077-1.551-1.831-2.805-1.831s-2.328.754-2.805 1.831c-7.128 1.455-12.547 8.335-12.547 16.591 0 5.025 2.209 16.078 5.934 24.178l-18.126 22.898c-.282-.137-.583-.259-.861-.401l-2.052-1.045-7.658 15.054 2.052 1.044c10.451 5.316 22.921 8.126 36.063 8.126s25.617-2.812 36.07-8.127l2.052-1.044zm-18.181-45.628c0 3.735-1.387 11.586-3.957 18.783a55 55 0 0 1-1.042 2.699l-2.677-3.382v-11.959h4.606l-6.141-6.141v-13.363c5.288 1.541 9.211 6.939 9.211 13.363m-20.606 18.782c-2.57-7.197-3.957-15.048-3.957-18.783 0-6.424 3.923-11.822 9.212-13.363v13.363l-6.141 6.141h4.606v11.959l-2.677 3.382a54 54 0 0 1-1.043-2.699m-20.648 34.084.627 2.579-2.251.614zm-2.679 5.869 3.851-1.05.707 2.91a66 66 0 0 1-4.558-1.86m5.839-5.867a62 62 0 0 0 5.449 1.849l.554 1.698-4.849 1.196zm2.164 8.901-.467-1.919 5.022-1.239 1.557 4.771a73 73 0 0 1-6.112-1.613m6.816-6.127c1.927.449 3.889.836 5.892 1.129l.834 1.492-5.33 1.661zm2.742 8.405-.631-1.933 5.763-1.796 2.612 4.671a82 82 0 0 1-7.744-.942m6.923-6.823c2.366.224 4.759.348 7.167.348.513 0 1.023-.028 1.535-.039l.641.983-7.084 2.748zm7.167 8.023c-.913 0-1.814-.039-2.719-.067l-1.055-1.887 7.235-2.806 2.933 4.497a86 86 0 0 1-6.394.263m5.098-7.869a75 75 0 0 0 7.199-.831l.691.883-5.608 3.446zm4.748 7.28-1.208-1.853 5.778-3.55 3.212 4.107a79 79 0 0 1-7.782 1.296m5.846-8.754a67 67 0 0 0 5.878-1.536l.715.926-4.077 3.827zm5.22 6.673-1.28-1.636 4.067-3.817 2.835 3.671c-1.833.66-3.7 1.268-5.622 1.782m3.726-9.26a58 58 0 0 0 3.786-1.54l.6 1.181-1.962 3.5zm4.886 6.327-.931-1.206 1.688-3.011 1.628 3.2c-.779.36-1.585.685-2.385 1.017" style="fill:#464655"/></svg>