<svg xmlns="http://www.w3.org/2000/svg" xml:space="preserve" viewBox="0 0 512 512"><path d="M473.655 423.724H38.345C17.167 423.724 0 406.557 0 385.379V126.621c0-21.177 17.167-38.345 38.345-38.345h435.31c21.177 0 38.345 17.167 38.345 38.345V385.38c0 21.177-17.167 38.344-38.345 38.344" style="fill:#ff4b55"/><path d="m297.951 277.961 67.433-49.478h-83.509L256 148.845l-25.875 79.638h-83.509l67.433 49.478-25.675 79.022 67.56-48.289.066.049.066-.049 67.56 48.289zm13.527-31.823-19.273 14.142-4.595-14.142zm-76.694 25.139 8.169-25.14h26.094l8.169 25.14L256 286.845zM256 205.983l7.31 22.5h-14.622zm-55.478 40.155h23.868l-4.595 14.142zm21.215 65.293 7.302-22.472 11.911 8.739zm61.225-22.472 7.302 22.472-19.212-13.732z" style="fill:#5a8250"/></svg>