<svg xmlns="http://www.w3.org/2000/svg" width="512" height="512" viewBox="0 0 256 256"><path fill="#6bdddd" d="M93.876 26.5a9.08 9.08 0 0 0-6.882 3.158l-7.876 9.155a9.08 9.08 0 0 1-9.871 2.651c-44.035-15.36-42.171-15.52-44.825-13.49L8.41 40.223a4.5 4.5 0 0 0-.292 6.905c6.011 5.462 6.526 6.373 8.753 6.373 3.371 0 9.477-.902 9.477 4.5 0 10.166-22.222-1.187-22.222 9 0 2.584-.785 8.5 4.5 8.5h5.242c3.32 0 5.497 3.472 4.05 6.461-2.25 4.648-2.397 5.36-3.772 6.226-4.699 2.96-10.598 5.378-7.679 10.107 7.805 12.644 8.03 14.206 11.279 14.206h13.47c7.757 0 2.243 10 10 10H61.55c7.982 0 10.452-7.666 10.031-6.666a10.88 10.88 0 0 1 12.337-6.419c10.454 2.267 13.609 2.251 16.664 6.365l5.55 7.473c5.883 7.921 2.127 13.269 3.271 16.577 3.505 10.132 3.485 10.343 4.582 12.005 2.961 4.487 5.059 6.875 5.059 11.494 0 10.281-.717 13.467 2.899 17.018 10.421 10.232 11.127 10.503 12.152 13.376 3.798 10.652 3.86 12.777 6.914 12.777a3.345 3.345 0 0 0 3.256-4.11l-3.365-14.319c-.721-3.067 2.877-5.287 5.295-3.266 4.982 4.164 5.557 4.355 5.823 5.876 3.48 19.907 2.946 21.583 6.474 22.539 27.192 7.367 20.917 3.669 33.574 18.28 11.645 10.173 11.112 10 12.446 10 6.256 0 9.776.728 9.776-2.475 0-5.231.511-7.383-1.811-8.03-4.198-1.169-8.964-1.719-8.964-6.813 0-10.768.58-12.582-1.972-13.028-3.656-.639-9.731-.852-8.209-5.641 2.693-8.47 5.514-13.621.419-15.517l-6.779-2.523c-2.569-.956-5.304.944-5.304 3.685v3.417a1.785 1.785 0 0 1-2.6 1.588c-6.355-3.265-10.913-4.541-11.462-10.03-1.044-10.438-2.392-14.733 1.895-19.396 8.642-9.402 11.074-13.781 16.388-11.143 10.545 5.233 11.625 5.331 12.832 7.861 2.521 5.284 3.884 10.433 8.292 8.545 2.954-1.264 5.842-1.914 5.842-5.118 0-6.82-.6-21.39 2.978-24.902 5.343-5.244 8.618-7.305 6.256-10.6l-6.124-8.543a4.368 4.368 0 0 1 1.758-6.529c3.272-1.472 5.764-3.206 8.339-1.077 5.859 4.842 7.124 6.622 9.15 5.063 8.051-6.195 8.829-6.333 8.829-8.364 0-4.513.745-8.359-2.882-8.708-6.957-.669-7.204-.595-8.07-.953-18.517-7.651-18.233-7.983-20.517-7.131-5.899 2.201-8.623 3.974-10.702 1.067-1.924-2.69-.145-6.023 2.78-6.242 23.022-1.725 16.985-.983 28.996-3.464 9.468 4.554 9.979 5.25 11.731 4.199 9.945-5.967 9.261-4.346 1.664-15.199l-13.396-8c0-9.126.656-11.59-2.532-13.583-14.838-9.278-17.375-12.174-21.266-8.843-2.154 1.844-5.673 5.791-10.603 3.082-12.13-6.664-16.759-10.7-20.703-5.671-3.082 3.93-5.978 6.407-3.597 9.443 4.214 5.374 7.124 7.782 5.115 11.733l-3.879 7.63c-.764 1.503-2.974 1.29-3.437-.331-1.22-4.269-1.873-9.126-7.457-11.376l-15.188-6.121c-2.487-1.002-3.388-4.063-1.84-6.253 6.48-9.168 7.817-10.097 6.726-12.811l-1.349-3.355a4.156 4.156 0 0 0-6.014-2.001l-4.235 2.574c-2.369 1.44-5.457.201-6.173-2.478-3.009-11.254-3.03-14.641-7.105-14.641-2.921 0-4.93 2.934-3.874 5.658.901 2.325 3.517 7.076-.978 8.866-4.535 1.807-5.787 2.688-7.876 1.654l-7.569-3.747c-1.421-.704-16.936-.429-15.935-.429"/><path fill="#6bdddd" d="M206.735 184.576c.958 1.054 1.352 1.641 2.194 2.04l9.827 4.655c3.665 1.736 8.927-5.244 4.453-7.599-8.823-4.644-8.601-4.671-9.699-4.671h-4.308c-2.894-.001-4.413 3.433-2.467 5.575M233.42 192.333c-4.357 0-4.432 6.667-.018 6.667 4.217 0 4.597-6.667.018-6.667"/><path fill="#3762cc" d="M209.551 243.571c-.661 0-1.374-.015-2.14-.031-.886-.019-1.853-.04-2.896-.04-1.846-.007-1.816.003-8.095-5.522-1.472-1.294-3.322-2.923-5.667-4.972a2 2 0 0 1-.196-.197c-1.677-1.936-3.023-3.552-4.16-4.917-5.705-6.847-5.705-6.847-17.963-9.995-2.775-.713-6.229-1.6-10.463-2.747-4.085-1.107-4.422-3.151-6.294-14.493-.431-2.612-.954-5.78-1.627-9.633-.079-.451-.092-.521-2.858-2.799-.634-.522-1.386-1.141-2.277-1.887-.641-.534-1.257-.252-1.492-.107s-.764.571-.573 1.381l3.365 14.319a5.32 5.32 0 0 1-1.015 4.542 5.31 5.31 0 0 1-4.188 2.025c-3.936 0-4.793-2.502-7.086-9.189-.478-1.391-1.035-3.018-1.712-4.916-.657-1.843-.914-2.14-6.889-7.953-1.313-1.278-2.886-2.809-4.78-4.668-3.66-3.594-3.619-6.898-3.531-14.139.016-1.282.033-2.708.033-4.307 0-3.389-1.271-5.267-3.578-8.677-.366-.541-.75-1.109-1.151-1.715-1.071-1.623-1.25-2.144-3.446-8.52l-1.356-3.933c-.513-1.483-.345-3.044-.167-4.697.333-3.088.71-6.589-2.819-11.341l-5.55-7.473c-2.036-2.74-3.808-3.191-10.987-4.662a398 398 0 0 1-4.496-.941 8.88 8.88 0 0 0-10.04 5.17c-.747 1.992-4.205 7.957-11.9 7.959H41.218c-5.479 0-6.401-4.108-6.951-6.562-.599-2.668-.868-3.438-3.049-3.438h-13.47c-3.789 0-4.872-1.792-9.434-9.335-.977-1.615-2.139-3.536-3.548-5.819-.99-1.604-1.3-3.199-.92-4.739.756-3.068 4.046-5.016 7.229-6.899.673-.399 1.352-.8 2.006-1.212.6-.378.694-.496 2.069-3.383.274-.577.593-1.245.969-2.022.383-.791.335-1.672-.132-2.417s-1.239-1.172-2.118-1.172H8.626c-1.893 0-3.423-.587-4.55-1.746-2.127-2.188-2.031-5.624-1.967-7.898.009-.311.017-.6.017-.854 0-1.902.602-3.437 1.789-4.563 2.543-2.413 7.065-2.172 11.437-1.942 3.36.179 7.167.38 8.46-.846.231-.219.538-.628.538-1.649 0-1.166-.397-1.552-.528-1.679-1.01-.981-3.659-.903-5.594-.848-.481.014-.938.027-1.355.027-2.621 0-3.735-1.03-7.428-4.441a428 428 0 0 0-2.67-2.451c-1.431-1.3-2.205-3.154-2.123-5.086s1.009-3.713 2.545-4.887L23.39 26.246c2.727-2.121 2.725-2.122 23.879 5.366 5.738 2.031 13.114 4.642 22.638 7.964a7.04 7.04 0 0 0 7.697-2.066l7.876-9.155a11.07 11.07 0 0 1 8.389-3.854q.003.001.009 0h.016c1.053-.088 3.086-.075 7.432-.047 8.099.052 8.839.418 9.379.686l7.569 3.747c.852.422 1.252.335 4.275-.915.583-.241 1.235-.511 1.973-.805.93-.371 1.111-.801 1.17-.943.458-1.091-.396-3.128-.962-4.477-.131-.313-.253-.604-.354-.866-.735-1.894-.488-4.026.66-5.703s3.047-2.678 5.079-2.678c4.941 0 5.875 3.702 7.735 11.076a357 357 0 0 0 1.302 5.049 2.14 2.14 0 0 0 1.279 1.443 2.14 2.14 0 0 0 1.923-.158l4.234-2.574a6.15 6.15 0 0 1 5.141-.581 6.14 6.14 0 0 1 3.768 3.544l1.35 3.354c1.308 3.251.086 4.941-3.959 10.539-.842 1.166-1.833 2.538-2.989 4.172a2.15 2.15 0 0 0-.308 1.853 2.15 2.15 0 0 0 1.263 1.391l15.188 6.121c5.875 2.368 7.186 7.287 8.239 11.24q.144.547.293 1.085l3.71-7.299c1.016-1.997.376-3.087-3.052-7.288-.578-.709-1.201-1.472-1.854-2.305-3.016-3.845-.206-7.26 2.272-10.273.427-.519.874-1.062 1.325-1.638 4.378-5.582 9.497-2.655 17.98 2.191 1.579.902 3.323 1.899 5.259 2.962 2.961 1.625 5.113.036 7.619-2.212.255-.229.495-.444.721-.637 4.329-3.707 7.477-1.68 16.819 4.333a574 574 0 0 0 6.807 4.333c3.625 2.266 3.587 5.115 3.504 11.358a381 381 0 0 0-.029 2.787l12.418 7.416c.242.145.451.339.613.57.868 1.24 1.646 2.317 2.326 3.259 2.773 3.84 4.166 5.768 3.704 7.979-.456 2.183-2.407 3.335-6.294 5.629q-.92.542-2.01 1.193c-2.354 1.413-3.663.771-9.171-1.938a569 569 0 0 0-3.848-1.879c-1.444.301-2.61.551-3.594.762-5.5 1.18-5.697 1.194-16.027 1.942-2.381.172-5.307.384-8.968.659a1.85 1.85 0 0 0-1.558 1.071c-.175.374-.374 1.133.255 2.012.718 1 1.209 1.035 5.783-.773.791-.313 1.652-.653 2.594-1.004 2.569-.958 2.961-.795 12.99 3.41 2.363.991 5.304 2.224 8.989 3.747.339.14.557.168 3.321.42 1.029.094 2.38.217 4.177.39 4.935.475 4.813 5.263 4.724 8.759a71 71 0 0 0-.033 1.94c0 2.656-1.019 3.427-5.913 7.132a569 569 0 0 0-3.696 2.816c-2.953 2.271-5.218.342-8.969-2.853-.77-.656-1.652-1.408-2.676-2.253-1.085-.897-1.965-.669-4.876.72-.442.211-.897.428-1.369.64a2.36 2.36 0 0 0-1.314 1.543 2.36 2.36 0 0 0 .362 1.997l6.124 8.542c3.007 4.195-.151 7.181-4.149 10.96-.717.677-1.498 1.416-2.33 2.232-2.561 2.513-2.45 14.878-2.396 20.821.009.969.017 1.863.017 2.654 0 4.118-3.269 5.428-5.894 6.48-.382.153-.771.309-1.161.476-5.557 2.382-7.927-2.94-9.832-7.214-.335-.751-.681-1.528-1.054-2.309-.655-1.375-.985-1.587-7.054-4.544a713 713 0 0 1-4.861-2.386c-2.868-1.423-4.182-.313-10.29 6.555a333 333 0 0 1-3.736 4.151c-3.022 3.288-2.681 6.275-1.854 13.492.151 1.325.317 2.768.476 4.352.339 3.396 2.564 4.616 7.564 7.05.798.388 1.636.796 2.509 1.24v-3.066c0-1.942.952-3.763 2.547-4.872a5.94 5.94 0 0 1 5.453-.688l6.779 2.523c6.123 2.279 4.129 8.124 2.018 14.311a175 175 0 0 0-1.228 3.686c-.124.388-.231.912-.046 1.209.583.935 3.489 1.367 5.226 1.625.514.077 1.009.15 1.467.23 3.769.658 3.737 3.406 3.661 10.042a414 414 0 0 0-.034 4.955c0 2.68 1.729 3.391 5.973 4.482q.77.196 1.527.404c3.423.953 3.369 3.89 3.302 7.608-.013.702-.027 1.482-.027 2.348 0 1.292-.399 2.338-1.188 3.11-1.244 1.22-3.031 1.44-5.553 1.44m-5.098-4.071c1.142 0 2.134.021 3.043.041 1.889.041 4.228.089 4.786-.251-.007-.021.008-.11.008-.264 0-.893.015-1.697.027-2.421.028-1.514.06-3.228-.177-3.617-.004 0-.06-.027-.197-.065-.479-.133-.966-.258-1.451-.383-3.788-.974-8.977-2.308-8.977-8.356 0-1.942.019-3.594.035-5 .031-2.829.06-5.294-.186-6.022a2 2 0 0 0-.165-.034c-.428-.075-.889-.143-1.366-.214-2.884-.429-6.472-.963-8.032-3.466-.798-1.279-.923-2.806-.372-4.538.426-1.336.854-2.592 1.254-3.765 2.449-7.179 2.502-8.479.374-9.271l-6.779-2.523a1.9 1.9 0 0 0-1.775.224 1.91 1.91 0 0 0-.83 1.587v3.417c0 1.33-.678 2.538-1.813 3.23a3.76 3.76 0 0 1-3.701.136c-.959-.492-1.877-.939-2.745-1.362-4.946-2.408-9.218-4.488-9.794-10.249a286 286 0 0 0-.469-4.294c-.859-7.496-1.378-12.021 2.882-16.654a336 336 0 0 0 3.693-4.102c5.949-6.688 9.228-10.372 15.056-7.479 1.902.944 3.495 1.72 4.836 2.374 6.31 3.075 7.623 3.715 8.912 6.418.388.812.748 1.621 1.097 2.402 2.356 5.288 3.063 5.827 4.604 5.166a60 60 0 0 1 1.246-.511c2.703-1.083 3.383-1.522 3.383-2.768 0-.78-.008-1.662-.017-2.618-.095-10.544.109-20.292 3.595-23.711.851-.835 1.65-1.591 2.384-2.285 4.249-4.016 4.46-4.588 3.646-5.723l-6.124-8.542c-1.118-1.56-1.473-3.516-.974-5.367s1.787-3.364 3.536-4.151c.443-.2.872-.404 1.288-.603 2.787-1.329 5.946-2.838 9.146-.193 1.041.86 1.938 1.625 2.721 2.292 1.573 1.341 3.199 2.726 3.762 2.857.011-.015.075-.053.174-.129a552 552 0 0 1 3.721-2.835c4.328-3.276 4.328-3.365 4.328-3.943 0-.7.018-1.384.034-2.043.11-4.336-.198-4.587-1.107-4.675-1.789-.172-3.133-.294-4.157-.388-3.157-.288-3.563-.325-4.485-.707-3.694-1.526-6.641-2.762-9.009-3.755-8.96-3.757-9.019-3.735-10.045-3.351-.915.341-1.753.672-2.522.977-4.21 1.664-7.844 3.1-10.506-.62-1.306-1.824-1.539-4.08-.625-6.035a5.88 5.88 0 0 1 4.882-3.366c3.665-.274 6.595-.486 8.978-.659 10.25-.742 10.25-.742 15.477-1.864 1.139-.244 2.518-.54 4.287-.905a2 2 0 0 1 1.271.156c1.793.862 3.267 1.587 4.488 2.188 2.568 1.263 4.633 2.251 5.083 2.242-.007 0 .063-.023.264-.144.735-.441 1.413-.841 2.034-1.208 2.064-1.218 4.198-2.479 4.417-3.02.016-.578-1.535-2.725-3.035-4.802A271 271 0 0 1 245.656 77l-13.029-7.781a2 2 0 0 1-.975-1.717c0-1.493.018-2.808.033-3.973.08-6.068-.005-6.901-1.626-7.914a596 596 0 0 1-6.851-4.361c-9.147-5.887-10.16-6.279-12.053-4.658-.205.175-.422.371-.652.577-2.283 2.048-6.536 5.859-12.215 2.74-1.957-1.075-3.721-2.083-5.317-2.995-8.864-5.064-10.782-5.83-12.848-3.196a89 89 0 0 1-1.384 1.71c-2.762 3.357-3.093 4.144-2.215 5.264a141 141 0 0 0 1.807 2.245c3.246 3.979 5.81 7.122 3.519 11.629l-3.879 7.63a3.83 3.83 0 0 1-3.808 2.09 3.83 3.83 0 0 1-3.336-2.778 77 77 0 0 1-.412-1.511c-.992-3.724-1.849-6.939-5.87-8.56l-15.188-6.121a6.12 6.12 0 0 1-3.604-3.971 6.12 6.12 0 0 1 .879-5.291c1.164-1.648 2.164-3.031 3.013-4.207 3.846-5.321 3.926-5.619 3.49-6.704l-1.35-3.354a2.12 2.12 0 0 0-1.319-1.241 2.12 2.12 0 0 0-1.8.203l-4.234 2.574a6.1 6.1 0 0 1-5.491.453 6.1 6.1 0 0 1-3.653-4.123c-.514-1.922-.94-3.616-1.316-5.104-1.906-7.557-2.261-8.054-3.856-8.054-.723 0-1.371.342-1.779.938s-.492 1.324-.231 1.997c.09.231.198.488.314.765.824 1.964 2.069 4.933.961 7.571-.59 1.406-1.726 2.453-3.378 3.111-.72.287-1.355.55-1.924.785-3.126 1.293-5.014 2.072-7.579.804l-7.462-3.694c-1.737-.404-12.748-.355-14.98-.285a2 2 0 0 1-.135.007h-.024c-.012-.002-.013 0-.02 0a7.07 7.07 0 0 0-5.366 2.462l-7.876 9.155a11.015 11.015 0 0 1-12.046 3.235 4828 4828 0 0 1-22.656-7.97c-18.019-6.378-19.146-6.712-20.088-5.979l-.207.16L9.625 41.811a2.5 2.5 0 0 0-.979 1.88 2.5 2.5 0 0 0 .817 1.957c1.053.957 1.938 1.775 2.694 2.473 3.556 3.285 3.747 3.379 4.713 3.379.381 0 .799-.012 1.24-.025 2.645-.078 6.274-.182 8.497 1.978 1.155 1.122 1.741 2.652 1.741 4.547 0 1.897-.601 3.428-1.785 4.552-2.54 2.409-7.055 2.168-11.424 1.938-3.363-.179-7.177-.38-8.472.85-.232.22-.541.632-.541 1.66 0 .288-.009.614-.019.968-.042 1.504-.113 4.021.836 4.998.128.132.52.535 1.682.535h5.242c2.252 0 4.311 1.139 5.507 3.047s1.325 4.258.344 6.285c-.372.769-.686 1.429-.958 1.999-1.43 3.004-1.912 4.017-3.548 5.048-.686.432-1.396.853-2.101 1.271-2.357 1.395-5.028 2.976-5.382 4.415-.042.171-.17.691.44 1.68 1.417 2.295 2.585 4.227 3.567 5.851 4.354 7.199 4.608 7.405 6.011 7.405h13.47c5.479 0 6.401 4.108 6.952 6.563.599 2.668.868 3.438 3.048 3.438h20.334c5.413 0 7.698-4.328 8.108-5.214q.032-.114.08-.227a12.886 12.886 0 0 1 14.604-7.598c1.659.359 3.132.662 4.451.931 7.121 1.458 10.372 2.125 13.396 6.196l5.55 7.473c4.463 6.009 3.935 10.911 3.585 14.155-.134 1.247-.25 2.323-.03 2.96l1.358 3.938c2.168 6.298 2.225 6.441 3.002 7.619.391.593.767 1.148 1.125 1.677 2.383 3.521 4.265 6.303 4.265 10.918 0 1.617-.018 3.059-.033 4.355-.088 7.15-.019 8.926 2.333 11.235 1.889 1.854 3.458 3.381 4.767 4.655 6.089 5.926 6.873 6.687 7.867 9.476.684 1.917 1.246 3.559 1.728 4.962 2.163 6.308 2.378 6.487 3.303 6.487.565 0 .903-.319 1.054-.51s.385-.592.255-1.143l-3.365-14.319c-.528-2.25.401-4.487 2.368-5.7 1.968-1.214 4.383-1.04 6.157.442.883.738 1.627 1.351 2.255 1.868 3.081 2.538 3.909 3.22 4.255 5.198.677 3.867 1.201 7.048 1.634 9.67 1.791 10.849 1.974 10.898 3.395 11.283 4.207 1.14 7.647 2.023 10.411 2.733 13.257 3.405 13.631 3.616 20.041 11.31 1.103 1.323 2.404 2.886 4.02 4.752 2.3 2.01 4.121 3.612 5.573 4.89 3.032 2.668 4.771 4.199 5.321 4.525zM108.932 28.725l.012.006z"/><path fill="#3762cc" d="M220.002 193.552a4.9 4.9 0 0 1-2.103-.474l-9.826-4.655c-1.047-.496-1.64-1.169-2.325-1.949a51 51 0 0 0-.492-.554 5.27 5.27 0 0 1-.932-5.745 5.27 5.27 0 0 1 4.878-3.176h4.308c1.376 0 1.563.099 6.341 2.633 1.123.596 2.525 1.339 4.29 2.268 2.715 1.429 3.544 4.38 2.063 7.344-1.183 2.368-3.653 4.308-6.202 4.308M209.202 181c-.784 0-1.114.555-1.22.794s-.294.856.232 1.437h.001c.199.219.375.419.536.602.594.675.76.846 1.033.976l9.827 4.655c.805.383 2.326-.63 3.014-2.005.725-1.451-.027-1.847-.349-2.016-1.77-.931-3.176-1.677-4.302-2.274-2.547-1.351-3.95-2.096-4.271-2.165-.054-.005-.117-.002-.195-.002h-4.306zM233.402 201c-3.43 0-5.28-2.734-5.28-5.307 0-1.361.47-2.648 1.321-3.624.978-1.119 2.391-1.736 3.977-1.736 1.594 0 3.003.589 3.97 1.66.853.944 1.321 2.208 1.321 3.561 0 2.64-1.86 5.446-5.309 5.446m.018-6.667c-.433 0-.748.12-.964.367-.212.243-.334.605-.334.993 0 .488.166 1.307 1.28 1.307 1.272 0 1.309-1.298 1.309-1.446 0-.355-.105-.676-.291-.881-.203-.225-.54-.34-1-.34"/></svg>