<svg xmlns="http://www.w3.org/2000/svg" xml:space="preserve" viewBox="0 0 432 432"><path d="M433 340.537c-2.066 3.118-7.09 3.346-5.937 8.73-5.316-1.245-6.587 1.124-8.456 5.586-3.368 8.041-10.138 14.054-16.9 19.648-1.266 1.047-2.74 1.119-3.986-.29-1.228-1.39-2.554-2.587-5.106-1.875 2.36 5.094-1.043 7.598-4.656 9.712-2.306 1.35-3.679 3.326-4.923 5.461-1.645 2.823-3.616 5.14-7.024 5.576-1.053 2.256 1.5 4.439-.757 6.75-1.155.662-3.116.142-4.806.657-3.903 1.19-7.639 2.403-9.597 6.859-2.231 5.077-6.77 8.917-8.48 14.376-.427 1.36-1.587 1.572-2.615 2.042-2.563 1.172-4.71 2.567-6.508 5.041-2.87 3.95-9.486 3.497-12.578-.242-.498-.603-1.337-.924-2.356-1.46-1.558-3.55-7.324-2.838-6.788-8.11 3.652-1.385 3.498-6.185 6.341-9.237 5.461-5.862 11.827-9.688 18.58-13.808 6.377-3.89 15.035-6.435 18.589-13.102 3.568-6.697 9.823-10.862 13.12-17.428 1.292-2.577 3.126-4.604 6.193-5.73 1.455 2.798 2.136 6.22 6.712 3.117 2.371-1.607 1.56 2.902 3.379 4.092 3.79-.497 5.636-3.577 7.13-6.61 1.4-2.843-.264-4.915-2.79-6.484-2.284-1.418-4.4-3.1-4.05-6.292.353-3.212 2.843-3.669 5.321-4.288.927-.232 2.421-.849 2.495-1.437.928-7.366 10.267-13.123 3.977-21.965-1.944-2.733.186-6.888-1.161-9.714-2.63-5.514-.982-11.608-3.204-17.047-.582-1.424.29-2.14 1.387-2.756 1.412-.792 3.037-.618 3.294.86.773 4.446 4.949 6.396 6.893 10.035 1.58 2.957 2.327 5.635.8 8.348-1.183 2.102-.762 3.758.108 6.324.899-1.814 1.8-3.78 3.758-2.795 1.843.928.216 2.608.348 3.884.456 4.406.887 8.946 2.348 13.074 1.027 2.903 3.77 4.788 7.078 1.754 1.34-1.23 2.869-2.255 4.57-3.583.257 3.815.257 7.84.257 12.327M327.705 427.13c1.689 1.39 2.804 3.089 3.196 5.541-2.272.329-4.642.329-7.457.329 1.875-1.243 1.704-4.406 4.261-5.87M155.989 283.983c-1.098-.48-3.043-.045-2.785-2.057.182-1.42.285-3.396 1.924-3.814 5.192-1.324 4.674-6.057 6.72-9.842-7.407.207-8.66 6.564-12.192 10.31-5.646-1-5.82-1.547-4.628-6.698.77-3.333-.522-7.03-2.495-9.273-2.337-2.656-2.889-5.38-3.135-8.79-3.622-.034-6.267-3.116-10.003-2.55-.448.067-1.072-.086-1.412-.376-8.442-7.2-17.265-5.013-26.318-1.35-4.441 1.796-9.135 3.1-14.024 1.697-1.809-.52-3.305-.063-4.638 1.054-2.7 2.262-5.342 4.515-9.238 4.23-1.584-.116-2.185 1.244-2.844 2.43-3.898 7.016-10.1 7.965-17.019 5.968-4.522-1.304-8.866.294-13.287-.02-.295-.022-.788.156-.89.378-2.019 4.389-6.75 4.076-10.216 5.943-9.044 4.871-17.666 2.966-23.098-5.376-1.58-2.427-1.435-5.805.812-7.316 6.162-4.146 6.185-10.828 5.886-16.397-.634-11.807-2.883-23.536-4.67-35.266-.315-2.07-1.359-4.141-2.484-5.953-2.082-3.354-1.379-7.054.583-9.337 2.15-2.501 2.345-4.894 2.047-7.49-.843-7.349 3.507-13.632 3.961-20.734.164-2.55 1.703-4.333 5.352-4.53 3.184-.172 6.323-2.637 9.324-4.364 3.788-2.18 7.49-4.339 12.122-3.83 3.5.383 5.615-2.8 8.977-3.515 4.775-1.016 9.579-2.333 14.373-3.504 1.676-.41 3.432-.88 4.253-2.345 2.709-4.835 8.45-7.674 8.132-14.651-.2-4.408 6.256-7.987 9.723-6.222.404-2.596 1.184-4.575 4.5-3.088 1.75.784 2.683-.604 3.219-2.198 2.99-8.892 10.1-13.606 18.14-16.893 2.59-1.059 5.199 1.495 7.284 3.473 1.381 1.31 1.94 3.06 2.88 5.107 2.016-1.685 4.178-.968 6.285-.073 2.029-9.095 8.439-14.737 14.27-20.982-.596-.269-1.673-.957-2.849-1.235-1.602-.38-3.122-.807-2.589-2.811.518-1.945 1.892-3.24 4.097-2.618 3.187.899 6.19.694 9.238-.64 2.913-1.277 6.118.79 7.752 1.857 3.696 2.415 7.438 3.097 11.482 3.715 1.021.157 1.9 1.237 2.652 1.759l11.944-8.203c2.078 2.917-1.027 3.95-1.037 5.833-.013 2.259 1.736 3.336 3.415 4.513-1.832 2.686-3.516 4.975-3.456 7.647-1.446 1.468-3.12.598-4.46 1.151-.182.727.34.83.778.893.987.14 2.034.052 2.965.347 2.41.762 2.755 3.027 2.338 4.85-.47 2.062-2.397 1.35-3.695.598-2.24-1.297-3.79-.542-5.04 1.38-1.37 2.11.52 2.988 1.43 4.539 4.627 7.876 14.027 8.765 20.388 15.734-.116-5.118 1.287-6.491 4.495-4.634.746 1.038.163 1.536.015 2.144-.539 2.204-2.909 4.972.415 6.444 2.937 1.3 5.886-.55 7.004-3.176 2.584-6.072 5.977-12.344 6.286-18.67.252-5.136 1.866-9.996 1.822-14.898-.05-5.39 3.999-9.008 4.372-14.002.088-1.176 1.607-1.564 2.876-1.39 1.533.213 2.345 1.342 2.696 2.642 1.955 7.226 5.385 14.175 4.102 21.928.359.33.572.7.846.753 9.36 1.815 11.67 5.014 10.17 15.038-.416 2.78-.275 4.86 2.114 6.534 2.419 1.695 1.42 4.314 1.319 6.456-.283 6.025.255 10.94 7.112 13.683 3.06 1.224 6.131 3.99 8.546 6.479 2.056 2.12 2.872 5.9 3.274 9.069.701 5.535 3.705 8.603 9.192 9.98-2.105 6.642.836 10.428 5.437 15.043 6.563 6.58 8.3 15.759 5.849 25.18-.287 1.101-1.392 2.128-.859 3.286 4.155 9.025-.433 16.545-3.543 24.603-1.622 4.201-2.713 8.933-4.35 13.062-1.914 4.824-3.04 10.728-9.065 13.558-3.95 1.856-6.095 6.402-8.399 10.094-3.793 6.077-5.674 13.222-11.258 18.374-2.102 1.94-3.152 5.046-3.37 8.524-.244 3.89-1.904 7.842-3.612 11.453-1.913 4.047-6.521 3.207-9.826 3.447-4.288.313-7.734 1.347-10.395 4.603-2.491 3.05-7.18 3.342-8.772 7.58-2.418-1.083-4.404-2.621-5.369-4.562-2.65-5.327-6.642-4.541-10.343-2.217-3.575 2.245-5.979 1.909-8.579-1.18-1.94-2.306-4.326-3.616-7.587-4.19-5.994-1.057-11.384-11.835-9.054-18.302 1.417-3.932-.842-6.43-2.075-9.303-.796-1.855-3.046-1.44-4.241-.135-3.336 3.641-7.478 1.776-11.241 1.749-2.313-.017-2.612-1.896-.873-3.408 1.09-.949 2.552-1.473 4.303-2.321 6.424 1.543 8.248.293 8.7-6.2-.777 5.517-5.798 4.076-8.878 5.817m-7.528-201.959c-1.477.64-2.83 1.407-3.436 3.047 3.372 1.696 3.372 1.696 7.094-.712-.73-1.194-1.807-1.833-3.658-2.335M260.969 38.952c3.645 5.615 3.476 7.004-1.516 9.52 3.339 6.909 10.593 10.744 15.09 18.35.075.044 1.61.08 2.407-1.024 1.467-2.031 2.92-2.38 5.027-1.114 2.308 1.387 3.43 3.786 5.039 5.75.49.598-.357 1.768-1.247 1.737-3.393-.117-4.577 6.492-8.307 3.383-3.462-2.884-7.169-3.133-11.01-3.104-4.02.03-6.383-1.64-9.257-4.461-4.595-4.512-7.401-10.877-13.835-13.595-2.665-1.126-7.262.199-8.087 2.912-2.32 7.632-6.315 9.985-13.9 8.186-7.719-1.831-7.611-1.833-7.746-9.653-.2-11.644 1.759-23.217 1.043-34.871-.286-4.651 2.185-4.705 5.721-3.696 9.738 2.78 18.865 6.97 27.815 11.613 1.157.6 2.425.988 3.565 1.444.783 1.914-1.508 3.041-.867 5.22l6.787 3.66c-.334-1.714-2.227-3.573.429-4.195 2.653-.622 1.937 2.027 2.716 3.661.157.314.133.277.133.277M207.244 373.335c-1.189.062-2.348-.936-2.827.566-1.252 3.93-4.61 3.119-7.363 3.063-3.242-.066-4.617-2.286-5.396-5.371-2.43-9.635.598-19.125.537-28.688-.01-1.54.566-3.84 2.952-4.107 2.662-.298 2.477 2.054 3.205 3.605 2.588 5.515 12.83 6.82 16.995 2.248.796-.873.554-1.74.635-2.72.212-2.594.724-5.165 1.123-7.785 3.67 1.13 5.994 5.79 3.779 8.786-3.571 4.832-2.162 10.936-4.766 15.648-2.737 4.952-3.162 11.336-8.874 14.755"/><path d="M261.006 39.007c.456-1.939.745-3.248 3.66-3.422 4.733-.282 10.494 2.463 13.982-3.44.353-.596 1.797-.43 2.168.357.782 1.66 1.176 3.747 3.7 2.893 2.505-.847 4.416-3.016 4.872-5.244 1.152-5.64 4.392-3.062 7.353-3.025-.691-6.373-11.298-3.974-11.897-12.302 5.82 2.848 11.212 4.94 15.127 9.264 3.753 4.144 2.68 7.766-2.53 8.815-3.249.654-2.303 3.01-2.627 5.072-2.477.222-3.98 1.628-5.77 3.21-3.757 3.318-9.031 3.195-13.608 2.561-4.705-.652-9.19-2.896-14.119-4.618-.348-.176-.324-.139-.311-.12M372.6 154.163c4.686 5.343 9.13 10.41 13.624 15.43.742.828 1.216 1.704.653 2.65-.886 1.488-2.242.964-3.516.515-6.868-2.424-10.072-8.578-13.954-13.956-1.25-1.73-3.064-3.577-2.366-6.476 2.157-.555 3.81.227 5.558 1.837M402.304 113.235l-.001 13.253c-4.573-1.666-8.89-1.668-9.218-7.304-.175-2.992-5.084-3.666-4.35-7.608.293-1.574-.507-3.572 1.496-4.33 2.12-.8 2.783 1.407 3.72 2.535 1.035 1.249 1.698 2.929 1.202 4.68-.752 2.656 1.394 3.293 2.864 4.71 3.335-2.78.19-4.333-1.073-6.264 1.502-1.428 2.584-3.055 4.457-3.815 1.436 1.088.738 2.516.903 4.143M350.728 61.01c.447-2.121 1.034-4.686 3.263-2.672 2.546 2.3 4.171 5.636 6.082 8.596.162.251-.54 1.061-.944 1.799-2.772-.5-3.963-3.103-6.176-4.059-.171.22-.526.487-.484.656.394 1.583 2.858 2.68 1.093 4.768-.994 1.176-2.23 1.31-3.614.825-2.202-.771-4.584-1.377-5.09-4.148-.25-1.367-.123-3.018 1.722-2.903 2.164.135 2.427-2.086 4.148-2.861M311.715 31.92c2.69 3.49 4.619 7.15 7.913 9.759 1.695 1.342 2.67 3.645.655 5.042-1.857 1.288-4.56 1.307-6.204-1.037-3.103-4.429-3.211-10.136-6.106-14.692-.411-.648-.05-1.71.947-1.968 2.254-.583 2.374 1.103 2.795 2.896M325.037 52.073c3.82 1.79 8.689 1.416 10.164 6.42.265.898 1.147 1.583.37 2.566-.823 1.043-1.693.366-2.64.092-4.692-1.357-8.52-5.46-7.894-9.078M347.168 57.93c-.813 1.954-2.131 3.022-3.459 1.472-2.184-2.549-5.533-4.114-7.169-8.325 5.535-.158 8.315 2.782 10.628 6.854M324.194 44.619c3.74.996 7.867 1.653 7.937 6.813-4.982.447-7.774-1.888-7.937-6.813M359.413 72.387c.462.31.597.401.73.494 1.487 1.034 4.08.881 3.967 3.631-.05 1.215-.915 1.592-1.975 1.726-2.64.334-4.367-.93-5.482-3.177-1.374-2.767-.418-3.645 2.76-2.674M384.494 156.362c4.522-1.554 6.674.343 7.364 6.525-4.773.516-4.805-4.604-7.364-6.525M189.788 333.958c.908-2 .559-4.483 3.698-4.911 1.344 2.797 1.54 5.801-.973 7.743-1.912 1.479-2.715-.565-2.725-2.832"/></svg>