<svg xmlns="http://www.w3.org/2000/svg" xml:space="preserve" viewBox="0 0 1200 800"><path fill="#36F" d="M1201 51c0 106.357 0 212.713-.463 319.549-13.442 1.136-26.42 1.806-39.399 2.45-36.108 1.794-72.217 3.557-108.324 5.369-43.593 2.187-87.184 4.43-130.778 6.612-36.273 1.815-72.55 3.558-108.823 5.367-50.916 2.539-101.83 5.104-152.744 7.669-14.307.72-28.612 1.477-42.918 2.217.894 1.184 1.887 1.661 2.902 1.713 26.954 1.377 53.91 2.717 80.867 4.049 42.765 2.114 85.53 4.2 128.294 6.331 44.594 2.223 89.185 4.495 133.778 6.726 35.442 1.774 70.887 3.498 106.328 5.282 43.761 2.202 87.52 4.442 131.28 6.666 0 123.333 0 246.667-.529 369.658-1.483-1.01-2.424-1.698-3.392-2.343-159.108-106.067-318.223-212.123-477.324-318.2-38.631-25.756-77.219-51.578-115.56-77.56 1.481-.408 2.695-.624 4.107-.875-.542-.695-.923-1.184-1.305-1.995-.373-5.271-3.634.142-4.941-1.966-2.622.862-5.18 2.007-8.315 3.41 1.963.75 3.154 1.204 4.074 1.88-.949.703-1.615 1.204-2.307 1.666C399.306 535.47 203.102 666.262 6.913 797.075 5.176 798.234 3.633 799.685 2 801c-.333-1.331-.957-2.663-.958-3.994C.994 730.583 1 664.16 1 597.737c0-55.269 0-110.538.461-166.28 13.772-1.135 27.083-1.799 40.394-2.458 36.108-1.788 72.218-3.555 108.325-5.367 43.594-2.187 87.186-4.432 130.78-6.614 36.274-1.815 72.551-3.557 108.826-5.365 51.082-2.546 102.164-5.116 153.245-7.69 13.473-.678 26.943-1.408 40.414-2.115-1.052-1.377-2.21-1.811-3.388-1.872q-58.9-3.017-117.805-5.965c-36.274-1.815-72.551-3.588-108.826-5.402-43.762-2.188-87.522-4.399-131.284-6.604-37.271-1.879-74.542-3.785-111.815-5.64C73.886 374.55 37.442 372.786 1 371c0-105.69 0-211.38.432-317.55 1.006-.528 1.58-.578 2.481-.57C180.94 155.981 357.641 259.027 534.341 362.075c18.122 10.568 36.237 21.151 54.355 31.727-.627-2.001-1.904-3.123-3.272-4.12q-45.826-33.362-91.668-66.704C347.684 216.733 201.61 110.49 55.552 4.226 54.266 3.291 53.18 2.081 52 1c172.69 0 345.38 0 518.55.446 1.885 19.386 3.265 38.328 4.699 57.266 4.188 55.318 8.422 110.632 12.593 165.952 4.059 53.824 8.06 107.653 12.112 161.478.072.964.469 1.904.715 2.855 1.1-1.301 1.34-2.517 1.433-3.743 1.427-18.772 2.827-37.546 4.248-56.318 2.867-37.875 5.765-75.748 8.607-113.626 2.493-33.226 4.905-66.458 7.393-99.685C625.21 77.415 628.115 39.208 631 1c172.69 0 345.38 0 518.508.345-47.745 35.419-95.916 70.508-144.113 105.562-113.221 82.348-226.464 164.667-339.674 247.03-17.319 12.601-34.508 25.379-52.102 38.126-1.829.976-3.313 1.901-4.797 2.826l.842 1.276c1.779-1.313 3.558-2.626 5.69-4.044 1.835-.821 3.372-1.44 4.789-2.267 67.374-39.281 134.74-78.578 202.104-117.879Q1011.624 161.49 1201 51M591.722 395.593l1.056.01-1.395-1.386c.004.351.008.703.339 1.376m3.055 1.887.42-.02c-.093-.045-.187-.09-.42.02"/><path fill="red" d="M2.461 801c1.172-1.315 2.715-2.766 4.452-3.925 196.19-130.813 392.393-261.605 588.595-392.4.692-.462 1.358-.963 2.65-1.768 2.333-.269 4.052-.215 5.77-.162 38.608 25.792 77.196 51.614 115.827 77.37 159.101 106.077 318.216 212.133 477.324 318.2.968.645 1.91 1.333 2.892 2.343C800.974 801 401.948 801 2.461 801"/><path fill="#FDFE02" d="M51.531 1c1.649 1.081 2.735 2.29 4.02 3.226C201.612 110.49 347.685 216.733 493.757 322.98c30.56 22.229 61.118 44.461 91.668 66.705 1.368.996 2.645 2.118 3.272 4.12-18.118-10.577-36.233-21.16-54.355-31.728C357.64 259.028 180.94 155.982 3.733 52.609A131 131 0 0 0 1 51V1z"/><path fill="#FEFE02" d="M1201 50.531C1074.749 124.66 948.499 198.32 822.247 271.975c-67.364 39.3-134.73 78.598-202.104 117.88-1.417.826-2.954 1.445-5.046 2.202-.785.013-.96-.016-1.133-.046 17.249-12.695 34.438-25.473 51.757-38.073 113.21-82.364 226.453-164.683 339.674-247.031 48.197-35.054 96.368-70.143 144.578-105.562C1166.926 1 1183.853 1 1201 1z"/><path fill="#FDFE02" d="M1 371.469c36.442 1.317 72.886 3.082 109.327 4.896 37.273 1.855 74.544 3.761 111.815 5.64 43.762 2.205 87.522 4.416 131.284 6.604 36.275 1.814 72.552 3.587 108.826 5.402q58.905 2.948 117.805 5.965c1.177.06 2.336.495 3.388 1.872-13.471.707-26.941 1.437-40.414 2.116-51.081 2.573-102.163 5.143-153.245 7.689-36.275 1.808-72.552 3.55-108.826 5.365-43.594 2.182-87.186 4.427-130.78 6.614-36.107 1.812-72.217 3.579-108.325 5.367-13.311.66-26.622 1.323-40.394 1.993C1 411.312 1 391.625 1 371.469M1201 430.531c-43.76-1.755-87.519-3.995-131.28-6.197-35.441-1.784-70.886-3.508-106.328-5.282-44.593-2.231-89.184-4.503-133.778-6.726-42.763-2.131-85.53-4.217-128.294-6.331a49054 49054 0 0 1-80.867-4.049c-1.015-.052-2.008-.53-2.902-1.713 14.306-.74 28.611-1.497 42.918-2.217 50.914-2.565 101.828-5.13 152.744-7.669 36.273-1.809 72.55-3.552 108.823-5.367 43.594-2.182 87.185-4.425 130.778-6.612 36.107-1.812 72.216-3.575 108.324-5.369 12.98-.644 25.957-1.314 39.399-1.985.463 19.674.463 39.361.463 59.517M630.531 1c-2.416 38.208-5.32 76.415-8.181 114.625-2.488 33.227-4.9 66.459-7.393 99.685-2.842 37.878-5.74 75.75-8.607 113.626-1.42 18.772-2.821 37.546-4.248 56.318-.093 1.226-.333 2.442-1.433 3.743-.246-.951-.643-1.89-.715-2.855-4.052-53.825-8.053-107.654-12.112-161.478-4.171-55.32-8.405-110.634-12.593-165.952-1.434-18.938-2.814-37.88-4.234-57.266C590.688 1 610.375 1 630.531 1"/><path fill="#36F" d="M1 51.333c.742.094 1.484.521 2.407 1.219-.395.32-.97.37-1.975.434C1 52.556 1 52.11 1 51.333"/><path fill="#5E80CA" d="M604.195 402.554c-1.985.138-3.704.084-5.766.132-1.534-.353-2.725-.808-4.688-1.557 3.135-1.403 5.693-2.548 8.5-3.13 1.75 1.044 3.253 1.526 4.756 2.008l1.305 1.673c-1.412.251-2.626.467-4.107.874"/><path fill="#36F" d="M613.62 392.063c.518-.022.692.007 1.124.1-1.522 1.376-3.301 2.69-5.08 4.002l-.842-1.276c1.484-.925 2.968-1.85 4.797-2.826M606.997 399.685c-1.503-.16-3.006-.642-4.694-1.403 1.06 1.545 4.321-3.868 4.694 1.403M591.559 395.432c-.168-.512-.172-.864-.176-1.215l1.395 1.385c-.352-.003-.704-.006-1.22-.17M594.847 397.403c.163-.033.257.012.35.057-.14.007-.28.013-.35-.057"/></svg>