<svg xmlns="http://www.w3.org/2000/svg" fill-rule="evenodd" clip-rule="evenodd" image-rendering="optimizeQuality" shape-rendering="geometricPrecision" text-rendering="geometricPrecision" viewBox="0 0 512 356.18"><g fill-rule="nonzero"><path fill="#1EB53A" d="M506.306 11.219 5.694 344.961C2.124 340.243 0 334.378 0 328.04V28.14C0 12.663 12.663 0 28.137 0H483.86c9.14 0 17.297 4.416 22.446 11.219"/><path fill="#00A3DD" d="M5.694 344.961 506.306 11.219C509.876 15.937 512 21.802 512 28.14v299.9c0 15.477-12.663 28.14-28.14 28.14H28.137c-9.138 0-17.295-4.416-22.443-11.219"/><path fill="#FCD116" d="M0 264.032 396.049 0h87.811C499.337 0 512 12.663 512 28.14v64.008L115.951 356.18H28.137C12.663 356.18 0 343.517 0 328.04z"/><path d="M0 290.788 436.183 0h47.677C499.337 0 512 12.663 512 28.14v37.252L75.819 356.18H28.137C12.663 356.18 0 343.517 0 328.04z"/></g></svg>