<svg xmlns="http://www.w3.org/2000/svg" xml:space="preserve" viewBox="0 0 2560 1280"><path fill="#C8102E" d="M1 801c0-53.02 0-106.042.315-159.676 123.328-70.915 246.335-141.227 369.4-211.438 2.31-1.318 5.294-2.02 7.97-2.038 23.654-.156 47.31-.09 70.965-.09h3.83c1.715 4.205-1.67 4.763-3.734 5.942-118.38 67.695-236.782 135.35-355.182 203.013-2.023 1.156-4.035 2.331-7.13 4.122 15.508 0 29.496 0 43.954.048 1.304.071 2.137.113 2.97.113q157.948.007 315.898-.003c1.33 0 2.66-.103 4.44-.109 14.36.05 28.269.05 41.942.05V385H1c0-42.354 0-84.708.469-127.53C166.863 257 331.789 257 497 257V1c42.354 0 84.708 0 127.531.469C625 86.84 625 171.743 625 256.787h495.835c0-14.32 0-28.43.065-43.02.132-17.91.2-35.339.725-52.767H2561c0 53.02 0 106.042-.469 159.531-480.013.469-959.557.469-1439.697.469 0 21.75 0 42.875-.459 64H625.383v255.835c14.38 0 28.375 0 42.85.065 106.805.076 213.13.088 319.454.092 1.165 0 2.329-.103 3.949-.114 42.83.044 85.205.044 128.978.044-2.615-1.566-3.97-2.412-5.355-3.204-42.172-24.111-84.34-48.23-126.522-72.323-79.594-45.461-159.196-90.908-238.93-136.648-.183-.493-.231-.7.219-.942 21.33-.04 42.193.645 62.985-.287 14.397-.646 26.507 3.092 38.957 10.285 87.455 50.53 175.248 100.477 263.035 150.43 4.47 2.542 6.304 5.113 6.134 10.336-.418 12.82-.144 25.661-.127 38.494.001 1.252.142 2.504.23 3.937H2561c0 53.02 0 106.042-.45 159.531C1707.064 801 854.032 801 1 801M2561 1121v159.942H1c0-53.05 0-106.042.454-159.488C854.938 1121 1707.969 1121 2561 1121"/><path fill="#FFF" d="M2561 1120.546C1707.97 1121 854.938 1121 1.454 1121a9381 9381 0 0 1-.003-159.546C854.935 961 1707.967 961 2561 961z"/><path fill="#012169" d="M2561 960.55C1707.967 961 854.935 961 1.45 961 1 907.967 1 854.935 1 801.45c853.033-.45 1706.065-.45 2559.55-.45.45 53.033.45 106.065.45 159.55"/><path fill="#FFF" d="M2561 640.531c-479.804.469-959.608.469-1439.76.469-.088-1.433-.229-2.685-.23-3.937-.017-12.833-.291-25.675.127-38.494.17-5.223-1.664-7.794-6.134-10.337-87.787-49.952-175.58-99.899-263.035-150.429-12.45-7.193-24.56-10.93-38.957-10.285-20.792.932-41.655.247-63.201.424-.431.48-.15.785.133 1.092 79.598 45.453 159.2 90.9 238.794 136.361 42.182 24.094 84.35 48.212 126.522 72.323 1.385.792 2.74 1.638 5.355 3.204-43.773 0-86.148 0-129.173-.327C883.321 578.87 775.852 517.47 667.753 455.71v185.125h-42.37V385c164.704 0 329.62 0 495.068.464.533 14.25.533 28.035.533 42.477H878.771l-.116.873 242.39 138.472V481H2561zM1120.835 214.248v42.539H625V1.469a648 648 0 0 1 42.425-.01c.362 61.674.362 122.89.362 184.785 2.155-1.22 3.572-2.015 4.984-2.822q41.495-23.707 82.99-47.413c77.12-44.055 154.24-88.106 231.347-132.183 1.384-.79 2.599-1.877 3.892-2.826 14.02 0 28.042 0 42.427.33-85 49.121-170.362 97.915-255.73 146.701-35.677 20.39-71.372 40.751-107.028 61.18-1.566.897-2.821 2.34-4.221 3.528l.827 1.51h5.39c23.164 0 46.33.125 69.492-.13 3.606-.04 7.597-1.108 10.73-2.894C874.007 142.188 995.05 73.013 1116.088 3.834c1.39-.794 2.612-1.883 3.912-2.834h1441v159.531c-479.639.469-959.278.47-1439.45.005-.533-28.68-.533-56.894-.533-85.81L878.57 213.242q.12.503.243 1.006z"/><path fill="#012169" d="M2561 480.531c-479.845.469-959.69.469-1439.955.469v86.286l-242.39-138.472.116-.873h242.213c0-14.442 0-28.227-.075-42.477-.075-21.59-.075-42.715-.075-64.464H2560.53c.469 53.02.469 106.042.469 159.531"/><path fill="#FFFEFF" d="M496.531 1C497 86.137 497 171.274 497 257.001H1.469a648 648 0 0 1-.01-42.426c80.915-.362 161.373-.362 241.831-.362-7.638-5.415-15.376-9.85-23.12-14.276-52.953-30.274-105.895-60.57-158.87-90.807C41.24 97.681 21.102 86.373 1 75c0-7.688 0-15.375.35-23.67 1.966.243 3.61 1.046 5.194 1.952 92.43 52.82 184.846 105.669 277.334 158.387 2.725 1.553 6.217 2.444 9.36 2.469 24.989.197 49.98.115 74.97.096 1.364 0 2.728-.196 5.12-.38-2.232-1.333-3.469-2.1-4.73-2.82C249.017 142.698 129.434 74.368 9.865 6.016 7.169 4.475 4.619 2.678 2 1c42.688 0 85.375 0 128.64.332 22.115 12.65 43.661 24.953 65.19 37.29 38.022 21.787 76.019 43.62 114.053 65.386 41.66 23.84 83.345 47.638 125.035 71.425 6.231 3.555 12.555 6.949 19.327 10.688v-4.24c0-59.136.001-118.272-.01-177.408 0-1.157-.153-2.315-.235-3.473zM245.478 214.514s-.093.03 0 0m128.88-.028s.078-.035 0 0"/><path fill="#FEFEFE" d="M130.917 640.835H87.434c3.095-1.79 5.107-2.966 7.13-4.122 118.4-67.662 236.802-135.318 355.182-203.013 2.063-1.18 5.45-1.737 3.734-5.943h-3.83c-23.655 0-47.31-.065-70.965.09-2.676.018-5.66.721-7.97 2.039-123.065 70.211-246.072 140.523-369.4 210.97-.315-24.21-.315-48.564.032-73.437 80.972-46.587 161.595-92.655 242.22-138.723l-.379-.94h-3.935c-78.093 0-156.187-.001-234.281.01-1.324 0-2.648.153-3.972.234v-42.531C166.092 385 331.183 385 496.638 385v255.933c-13.673 0-27.582 0-41.942-.506-.452-61.662-.452-122.817-.452-184.388-2.119.94-3.525 1.42-4.79 2.146-31.811 18.254-63.57 36.6-95.418 54.793-38.216 21.83-76.515 43.514-114.757 65.298-27.957 15.926-55.902 31.874-83.805 47.894-8.268 4.746-16.376 9.769-24.557 14.665M245.32 427.488s.09-.043 0 0"/><path fill="#012169" d="M990.531 1c-.824.949-2.039 2.035-3.423 2.826-77.106 44.077-154.228 88.128-231.347 132.183-27.664 15.803-55.326 31.61-82.99 47.413-1.412.807-2.83 1.602-4.984 2.822 0-61.895 0-123.111.106-184.786C775.354 1 882.708 1 990.531 1M453.531 1c.55 1.158.703 2.316.703 3.473.012 59.136.01 118.272.01 177.407v4.241c-6.771-3.74-13.095-7.133-19.326-10.688-41.69-23.787-83.375-47.585-125.035-71.425-38.034-21.767-76.031-43.6-114.054-65.387-21.528-12.336-43.074-24.64-64.72-37.29C238.354 1 345.709 1 453.53 1"/><path fill="#C8112F" d="M1119.531 1c-.831.951-2.053 2.04-3.443 2.834-121.04 69.18-242.08 138.354-363.2 207.391-3.134 1.786-7.125 2.854-10.731 2.894-23.162.255-46.328.13-69.493.13h-5.389l-.827-1.51c1.4-1.189 2.655-2.63 4.221-3.528 35.656-20.429 71.35-40.79 107.029-61.18 85.367-48.786 170.73-97.58 256.198-146.7C1062.354 1 1090.708 1 1119.531 1"/><path fill="#012169" d="M1 75.469C21.102 86.373 41.24 97.68 61.3 109.13c52.975 30.237 105.917 60.533 158.87 90.807 7.744 4.427 15.482 8.861 23.12 14.276-80.458 0-160.916 0-241.832-.107C1 167.98 1 121.958 1 75.47M1 428.469c1.324-.55 2.648-.703 3.972-.703 78.094-.011 156.188-.01 234.281-.01h3.935l.378.94C162.942 474.764 82.32 520.832 1.347 566.95 1 520.98 1 474.958 1 428.469"/><path fill="#C8112F" d="M1.5 1c3.119 1.678 5.67 3.475 8.366 5.016 119.57 68.352 239.152 136.682 358.731 205.018 1.262.72 2.499 1.487 4.731 2.82-2.392.184-3.756.38-5.12.38-24.99.019-49.981.1-74.97-.096-3.143-.025-6.635-.916-9.36-2.469C191.39 158.951 98.975 106.103 6.544 53.282a32.6 32.6 0 0 0-5.194-2.42C1 34.332 1 17.666 1.5 1"/><path fill="#012169" d="M131.388 640.883c7.71-4.944 15.818-9.967 24.086-14.713 27.903-16.02 55.848-31.968 83.805-47.894 38.242-21.784 76.541-43.468 114.757-65.298 31.847-18.193 63.607-36.539 95.419-54.793 1.264-.726 2.67-1.206 4.79-2.146v184.339c-1.33.512-2.66.615-3.99.615q-157.948.01-315.898.003c-.832 0-1.665-.042-2.969-.113M668.233 640.9c-.48-61.511-.48-122.957-.48-185.19 108.1 61.76 215.568 123.16 323.232 184.841-.97.338-2.133.441-3.298.441-106.324-.004-212.649-.016-319.454-.092M1120.9 213.767c-80.739.48-161.412.48-242.086.48l-.243-1.005 242.446-138.516c0 28.916 0 57.13.075 85.81.007 17.892-.06 35.322-.192 53.231"/><path fill="#EDB1BA" d="M749.807 428.747c-.146-.02-.428-.326-.495-.769.264.07.312.276.495.769"/><path fill="#ABB6CE" d="M245.432 214.53c-.047.015.046-.016 0 0"/><path fill="#EDB1BB" d="M374.397 214.469c.039-.018-.038.017 0 0"/><path fill="#ABB6CE" d="M245.366 427.467c.044-.022-.045.02 0 0"/></svg>