<svg xmlns="http://www.w3.org/2000/svg" xml:space="preserve" viewBox="0 0 512.002 512.002"><path d="M0 200.09h185.38v37.27H0zM185.379 125.549h326.593c-.569-20.68-17.5-37.272-38.317-37.272H38.345C17.167 88.276 0 105.444 0 126.621v36.2h185.379zM38.345 423.725h435.31c20.818 0 37.748-16.593 38.317-37.272H.028c.569 20.679 17.499 37.272 38.317 37.272" style="fill:#f5f5f5"/><path d="M185.379 125.549v37.272H512v-36.2c0-.36-.018-.715-.028-1.073z" style="fill:#4173cd"/><path d="M0 162.821v37.271h512v-37.271H185.379z" style="fill:#f5f5f5"/><path d="M185.38 200.09H512v37.27H185.38z" style="fill:#4173cd"/><path d="M0 237.364v37.273h512v-37.273H185.379z" style="fill:#f5f5f5"/><path d="M0 274.64h512v37.27H0z" style="fill:#4173cd"/><path d="M0 311.91h512v37.27H0z" style="fill:#f5f5f5"/><path d="M0 385.38c0 .36.018.715.028 1.073h511.946c.01-.358.028-.713.028-1.073v-36.2H0z" style="fill:#4173cd"/><path d="m63.976 111.643 14.767 68.332 23.107-9.571z" style="fill:#ffe15a"/><path d="m63.976 111.643 26.32 63.546-11.553 4.786z" style="fill:#ffcd5a"/><path d="m121.404 250.289-14.768-68.332-23.107 9.571z" style="fill:#ffe15a"/><path d="m121.404 250.289-26.321-63.546 11.553-4.786z" style="fill:#ffcd5a"/><path d="M162.013 152.252 93.681 167.02l9.571 23.107z" style="fill:#ffe15a"/><path d="m162.013 152.252-63.547 26.321-4.785-11.553z" style="fill:#ffcd5a"/><path d="m23.367 209.681 68.332-14.768-9.572-23.108z" style="fill:#ffe15a"/><path d="m23.367 209.681 63.546-26.322 4.786 11.554z" style="fill:#ffcd5a"/><path d="m121.404 111.643-37.875 58.761 23.107 9.571z" style="fill:#ffe15a"/><path d="m121.404 111.643-26.321 63.546-11.554-4.785z" style="fill:#ffcd5a"/><path d="m63.976 250.289 37.874-58.761-23.107-9.571z" style="fill:#ffe15a"/><path d="m63.976 250.289 26.32-63.546 11.554 4.785z" style="fill:#ffcd5a"/><path d="m162.013 209.681-58.761-37.876-9.571 23.108z" style="fill:#ffe15a"/><path d="m162.013 209.681-63.547-26.322 4.786-11.554z" style="fill:#ffcd5a"/><path d="m23.367 152.252 58.76 37.875 9.572-23.107z" style="fill:#ffe15a"/><path d="m23.367 152.252 63.546 26.321-4.786 11.554z" style="fill:#ffcd5a"/><path d="m92.69 105.932-12.506 68.781h25.011z" style="fill:#ffe15a"/><path d="M92.69 105.932v68.781H80.184z" style="fill:#ffcd5a"/><path d="m92.69 256.001 12.505-68.782H80.184z" style="fill:#ffe15a"/><path d="M92.69 256.001v-68.782h12.505z" style="fill:#ffcd5a"/><path d="m167.724 180.966-68.781-12.505v25.01z" style="fill:#ffe15a"/><path d="M167.724 180.966H98.943v-12.505z" style="fill:#ffcd5a"/><path d="m17.655 180.966 68.781 12.505v-25.01z" style="fill:#ffe15a"/><path d="M17.655 180.966h68.781v12.505z" style="fill:#ffcd5a"/><path d="m145.747 127.909-57.479 39.793 17.686 17.686z" style="fill:#ffe15a"/><path d="m145.747 127.909-48.636 48.636-8.843-8.843z" style="fill:#ffcd5a"/><path d="m39.633 234.023 57.478-39.792-17.686-17.686z" style="fill:#ffe15a"/><path d="m39.633 234.023 48.635-48.635 8.843 8.843z" style="fill:#ffcd5a"/><path d="m145.747 234.023-39.793-57.478-17.686 17.686z" style="fill:#ffe15a"/><path d="m145.747 234.023-48.636-48.635 8.843-8.843z" style="fill:#ffcd5a"/><path d="m39.633 127.909 39.792 57.479 17.686-17.686z" style="fill:#ffe15a"/><path d="m39.633 127.909 48.635 48.636-8.843 8.843z" style="fill:#ffcd5a"/><circle cx="92.69" cy="180.97" r="25.01" style="fill:#ffe15a"/></svg>