<svg xmlns="http://www.w3.org/2000/svg" fill-rule="evenodd" stroke-linejoin="round" stroke-miterlimit="2" clip-rule="evenodd" viewBox="0 0 512 357"><g fill-rule="nonzero"><path fill="#fcd022" d="M28.8 1h454.4C498.49 1 511 13.51 511 28.8v299.21c0 15.29-12.51 27.8-27.8 27.8H28.8c-15.29 0-27.8-12.51-27.8-27.8V28.8C1 13.51 13.51 1 28.8 1"/><path fill="#002674" d="M119.59 1v354.81H28.8c-15.29 0-27.8-12.51-27.8-27.8V28.8C1 13.51 13.51 1 28.8 1z"/><path fill="#007c2e" d="M392.41 355.81V1h90.79C498.49 1 511 13.51 511 28.8v299.21c0 15.29-12.51 27.8-27.8 27.8zM215.08 114.66l34.1 59.06-34.1 59.07-34.11-59.07zm81.84 0 34.1 59.06-34.1 59.07-34.1-59.07zM256 185.54l34.1 59.06-34.1 59.07-34.1-59.07z"/><path fill="#ccc" d="M28.8 0h454.4c7.92 0 15.12 3.24 20.34 8.46S512 20.88 512 28.8v299.21c0 7.92-3.24 15.12-8.46 20.33-5.22 5.22-12.42 8.47-20.34 8.47H28.8c-7.92 0-15.12-3.25-20.34-8.46C3.24 343.13 0 335.93 0 328.01V28.8c0-7.92 3.24-15.12 8.46-20.34S20.88 0 28.8 0m454.4 1.99H28.8c-7.38 0-14.08 3.02-18.93 7.87-4.86 4.86-7.88 11.56-7.88 18.94v299.21c0 7.37 3.02 14.07 7.87 18.93 4.86 4.86 11.57 7.87 18.94 7.87h454.4c7.37 0 14.08-3.01 18.94-7.87 4.85-4.86 7.87-11.56 7.87-18.93V28.8c0-7.38-3.02-14.08-7.87-18.93-4.86-4.86-11.56-7.88-18.94-7.88"/></g></svg>