<svg xmlns="http://www.w3.org/2000/svg" xml:space="preserve" viewBox="0 0 750 500"><path fill="#FEFEFE" d="M495 501H1V1h750v500zM169.007 396.996s.096.011.57-.56c-.504-.5-1.007-.999-1.573-1.438 0 0 .078-.039-.002-.609-.337-.147-.673-.295-1.08-1.125-.634-.756-1.268-1.511-1.83-2.756 0 0-.16-.467-.188-1.006.01-.18.021-.36.02-1.28-1.534-3.049-1.616-7.208-5.733-8.607.384-.285.767-.57 1.818-.826-.018-1.601-.035-3.202.127-5.589-.037-1.07-.075-2.14.226-3.85-.199-1.77-.397-3.538.043-5.384l1.221-1.132a40 40 0 0 1-2.043-.968c-.195-.29-.39-.58.18-.894 3.91-1.053 4.63-2.56 2.44-5.454 0 0 .07-.285.78-.354 1.078-.673 2.156-1.346 3.829-2.147.742-.643 1.484-1.286 2.818-2.471-.189-.705-.378-1.41-.125-2.99 2.07-.17 4.136-.43 6.208-.489 3.737-.104 7.499-.335 11.209-.024 2.062.173 4.041 1.335 6.06 1.977 0 0-.074.009-.622.731 3.011 2.462 1.86 5.047.506 7.888-.617 1.296-.317 3.03-.433 4.564 1.699.104 4.067.96 4.963.163 2.176-1.938 3.667-4.645 5.435-7.042-.62-.296-1.24-.591-1.273-1.188-.198-.527-.395-1.054.257-1.033.225-1.564 1.218-3.818.541-4.57-2.749-3.052-6.01-5.643-9.658-8.723-2.242-.53-4.484-1.06-7.622-1.807-1.19.716-4.277-1.944-3.853 1.665-.361-.127-.582-.003-.093-.578-7.822-2.897-14.09.78-20.06 5.023-1.455 1.034-2.118 3.182-3.071 4.886 0 0-.08-.063-.586-.382-.19.325-.38.65-1.156 1.393-8.716 16.992-10.014 33.725 1.808 50.674 1.28 1.099 2.56 2.198 3.843 3.381 0 0 .078.032.052.764.815 3.225 2.6 5.275 6.32 5.849.227.491.319 1.159.699 1.448 7.017 5.335 15.02 8.439 23.687 9.435 14.99 1.722 29.794 1.583 44.006-6.699 3.434-2.937 6.869-5.874 10.574-9.393.922-1.169 1.843-2.338 3.488-3.417 1.138-.846 2.527-1.493 3.375-2.568 8.556-10.847 11.688-23.886 14.614-36.965.751-3.358 1.209-6.846 1.24-10.279.021-2.399-.912-4.807-.978-7.389.023-.437.046-.874.564-1.919v-12.35c.63-3.983 1.66-7.166 1.475-10.277-.187-3.122-3.257-7.08-2.162-9.093 4.43-8.137-2.547-15.926.165-23.753.176-.507-.188-1.335-.53-1.868-4.45-6.947-8.94-13.868-13.678-21.414-1.72-2.563-3.385-5.165-5.175-7.678-1.416-1.988-2.594-4.678-4.565-5.627-4.164-2.005-7.008-4.922-9.28-9.543-1.27-1.195-2.48-2.46-3.82-3.57-2.807-2.329-5.36-5.467-8.608-6.637-4.272-1.54-9.092-1.775-13.71-2.099-16.525-1.16-28.899-11.792-29.803-26.078-.162-2.569.55-5.192.858-7.79l1.243.14c.05.965.12 1.93.15 2.896.318 10.154 5.014 15.012 15.222 15.987 2.108.201 4.551.448 6.16 1.612 4.017 2.908 8.037 2.66 12.282 1.125 3.692-1.335 6.894-1.04 10.211 1.473 3.399 2.574 7.326 4.45 11.338 7.197 1.183.465 2.366.93 3.806 2.09 2.92 1.07 5.893 3.11 8.744 2.95 3.086-.17 6.311-2.044 8.917-3.942.736-.536-.485-3.76-.835-5.659 0 0 .088.042-.425-.285-.54-.596-1.081-1.191-1.563-1.684 0 0 .111-.04.206-.737-3.228-3.07-7.15-5.683-9.534-9.308-4.318-6.565-8.779-13.378-7.622-21.992 0 0 .025.072.664.64l4.775-8.422h-5.242l-1.15-7.44-3.61 2.29c-2.39-1.847-.005-7.052-4.9-6.97l-3.08-6.754c-1.471 4.345-2.527 7.22-3.368 10.157-.159.555.534 1.353.446 2.23-.059.133-.174.27-.163.396.024.268.114.53-.376-.18-1.979.161-3.957.323-5.963-.101-.999-.814-1.997-1.628-2.999-3.212-4.513-6.299-4.486-8.006 1.925-12.383 4.585-3.13 9.755-5.402 14.75-8.103-3.112-4.822-7.884-4.003-13.462-3.067-4.078 2.298-8.156 4.596-12.85 6.824-.743-.336-1.485-.672-2.272-1.795l-.585-3.853-1.494-.138c-.388 1.623-.776 3.246-1.15 5.3 0 0 .11.416-.542.595-2.198 4.287-4.138-1.405-6.706-.006v5.567l-6.983-3.446-1.176 6.45c-6.57-3.69-13.287-7.622-21.427-6.437l13.318 11.227-6.321.535.884 5.133-6.281-.832.812 7.978c-5.658.144-10.249-6.864-16.353-2.773l8.603 12.394-1.173 1.43c-3.93-.354-7.868-.626-11.785-1.08-7.234-.839-10.28.565-13.215 6.045l17.48 3.316-.255 1.058-8.891 3.104 6.651 3.867c-13.62 4.016-13.787 4.144-13.03 9.754h13.915l-11.588 2.506-.087 1.528c3.773.875 7.546 1.749 11.837 3.289-.159.232-.317.464-1.24.5-.784.023-1.569.047-3.146-.11l-6.122.415c.664 1.118.807 1.688 1.16 1.89 1.14.653 2.357 1.17 3.65 2.407-.633.458-1.265.915-2.634 1.348-5.267 1.64-4.783 5.042-2.704 9.17 1.064-.618 2.027-1.213 3.023-1.749 5.9-3.172 9.26-2.172 12.509 3.673.482.867 1.179 1.622 1.6 2.513 1.07 2.256 5.421 4.013 2.202 6.902-1.816 1.63-5.166 1.603-7.857 2.172-.76.161-1.666-.096-2.445-.348-7.543-2.437-15.073-4.913-23.627-7.713l7.322 15.245c-.992 2.654-5.149 6.26-.65 10.779l-5.337 4.037 8.721 1.707c-.441 1.053-.747 1.783-1.635 2.775l-3.32 2.91 9.56 1.52c-1.765 2.194-3.116 3.87-4.77 5.924l10.06-.463.537 1.29-6.177 7.75c4.742-.603 8.094-1.03 11.892-1.052.163.117.326.235.414 1.085l-2.486 5.456h11.06l-1.491 5.286 11.784-3.606-1.908 5.74c3.57-.962 6.683-1.8 10.463-2.82l-1.432 4.172c3.664-.622 6.906-1.172 10.605-1.313.168.118.336.235.332.869l1.17 2.036c4.325-2.75 7.802-2.254 10.719 2.294.73 1.14 2.735 1.462 4.02 2.094l7.327-18.634c1.91 1.2 3.3 2.074 5.085 3.33.766.49 1.532.98 2.781 1.958 4.504 3.496 9.008 6.993 13.91 11.052 3.498 3.954 6.997 7.908 10.667 12.534 1.9 3.188 3.801 6.375 5.761 10.34 6.346 19.911 1.719 38.047-9.299 54.943-5.794 8.885-13.787 14.771-25.778 15.242-3.96.021-7.92.042-12.57-.194-3.091-.325-6.182-.65-10.047-1.053-2.375-.642-4.75-1.285-7.438-2.559-1.931-.838-3.862-1.676-5.855-2.989l-.45-.77c-.184.397-.367.796-1.192 1.317-.432.049-.863.098-1.516-.427-.884-.845-1.767-1.69-2.697-3.223-.054-.457-.108-.915-.153-2.022-.312-.123-.624-.246-.95-.273m414.99-1.998s-.064-.06-.73.233c-.124.591-.249 1.182-.28 1.761 0 0-.015-.093-.64-.294-.1.409-.2.817-.386 1.91-.038.456-.076.914-.669 1.715-1.09.406-2.224.725-3.256 1.247-.757.383-1.38 1.032-2.783 1.476-2.134.965-4.268 1.93-7.09 2.885-.736.675-1.472 1.35-2.17 2.071 0 0-.017-.057-.69-.143-.45.033-.9.066-1.854.152-.168.016-.336.032-1.051.205-.29.25-.58.5-.975.659 0 0-.116.076-.572-.557-2.947.313-5.895.626-9.762.893-4.068.014-8.137.028-12.967-.193-10.178-.497-17.38-6.074-22.983-13.944-10.225-14.362-14.505-30.351-12.109-48.596 2.648-6.164 5.296-12.327 8.463-18.907 8.322-11.68 19.584-19.935 31.814-27.756l7.334 18.828c5.355-2.43 9.007-10.526 16.64-4.97-.32-.731-.642-1.462-.463-2.538.15-.136.301-.272 1.238-.281l9.362 1.504-1.256-4.055 10.266 2.803-1.776-5.685 11.606 3.459c-.61-2.29-1.01-3.788-1.377-5.17h10.927c-.918-2.313-1.695-4.271-1.984-6.576.148-.135.296-.27 1.212-.255l10.474 1.099-6.844-8.717h11.257l-4.449-5.669 8.96-1.425-4.76-5.57 9.015-1.995-5.363-3.851c4.534-4.563.322-8.173-1.104-12.102 5.22-5.514 6.903-9.492 6.098-14.845-.91.62-1.691 1.193-2.512 1.703-7.803 4.845-16.332 7.333-25.484 7.276-1.552-.01-3.655-1.36-4.451-2.71-.573-.972.372-3.09 1.06-4.49.942-1.918 2.379-3.587 3.43-5.46 2.294-4.085 5.581-5.372 9.957-3.595 1.772.72 3.426 1.729 5.155 2.617 2.373-6.375 2.082-7.084-4.194-9.228-.713-.619-1.427-1.238-1.429-1.852l4.823-2.341-.28-1.512c-2.132 0-4.266 0-7.17-.13l-2.348-.497 11.215-3.547-.189-1.32-11.371-2.416h14.65c-.656-9.138-9.188-6.706-13.496-9.802l6.244-3.972-8.657-2.919-.114-1.185 17.636-3.252c-3.073-5.603-7.925-6.847-13.873-5.99-3.842.554-7.748.667-11.625.978l-1.078-1.55 8.718-12.198c-6.21-4.093-10.83 3.072-16.447 2.705l.757-7.881-6.135.752.66-5.068-6.142-.591 13.346-11.182c-8.302-1.286-15.022 3.22-21.929 6.383v-5.97l-7.848 2.663v-6.326l-4.588 2.999c-.858-.63-1.737-1.276-2.729-2.633-.075-.228-.15-.456-.747-.859-.115-.641-.231-1.283-.182-2.663l-1.077-1.283c-.23.976-.459 1.953-1.188 3.4-1.16.054-2.445.46-3.456.1-4.127-1.47-8.17-3.174-13-4.996-4.585-.754-9.142-1.419-11.749 3.028 5.645 3.333 11.233 6.216 16.284 9.848 1.72 1.236 3.54 5.34 2.8 6.433-2.336 3.453-3.325 9.199-9.893 7.757-1.53-1.5-3.06-2.999-3.607-4.415-.744-1.304-1.488-2.608-2.531-4.067l-.247-.383c.139.223.277.446-.194 1.053-3.54 1.863-5.626 4.78-6.38 8.976l-3.879-2.39-1.05 7.56-3.517-.262c-.375 5.544.118 6.569 3.712 7.92 0 0-.074.006-.648.796.378 1.497 1.503 3.323 1.013 4.438-3.446 7.833-5.11 16.773-13.116 21.935-1.473.949-2.54 2.526-4.447 3.797-1.259 2.01-2.518 4.019-3.834 6.757 4.12 7.395 11.379 8.303 18.58 2.156 1.502-.892 3.005-1.783 5.246-2.818 3.196-1.689 6.766-2.923 9.497-5.175 3.869-3.191 7.575-2.996 12.04-1.84 2.86.741 6.154.416 9.138-.1 3.333-.577 6.473-2.308 9.808-2.828 6.29-.98 10.924-3.63 12.918-10.859l.78-8.26c1.235 1.309 2.21 2.906 2.126 4.445-.195 3.596-.986 7.157-1.323 10.751-.07.744.782 1.573 1.31 2.316 0 0-.025-.108-.747-.686-.657.419-1.595.68-1.929 1.279-5.206 9.34-13.641 13.744-23.742 15.458-5.715.97-11.576 1.195-17.215 2.456-4.965 1.11-8.904 3.92-9.345 9.292-.55.198-1.099.397-2.455.688-.24.644-.48 1.288-.639 1.966 0 0-.084-.043-.784-.352-1.21 3.712-3.693 6.026-7.324 7.527-1.017.421-1.344 2.511-1.898 3.833 0 0-.006-.09-.505-.917-1.847 2.692-3.664 5.405-5.546 8.073-4.789 6.789-10.624 13.08-14.097 20.483-2.852 6.082-3.062 13.451-4.124 20.299-.344 2.22-.26 4.879.68 6.829 1.093 2.265.233 3.705-.211 5.74-.99 4.533-4.335 9.467.98 14.345-4.102 7.711 2.003 15.952-1.214 23.718-.111.268.03.658.096.982 1.158 5.6 2.605 11.158 3.428 16.806 1.819 12.496 7.212 23.204 16.036 32.863.838.946 1.675 1.892 2.588 3.51 3.973 2.744 7.946 5.487 12.438 8.684 18.85 9.424 38.096 9.23 57.435 1.921 3.375-1.275 6.128-4.195 9.827-6.53 4.904-2.523 8.294-6.39 10.865-11.859 10.673-15.06 10.422-36-.785-51.713-7.356-8.964-17.253-10.074-28.578-9.085-2.192.661-4.385 1.323-7.322 2.076-2.143 1.513-4.644 2.703-6.363 4.601-4.92 5.432-3.051 15.728 3.112 17.722 1.395.451 3.373.32 4.586-.39.626-.366.732-3 .087-3.908-2.228-3.13-1.57-6.103-.386-9.222 0 0 .003.075.644.662 5.072-3.503 10.502-4.664 16.493-2.688 1.532.505 3.18.657 5.312 1.351a98 98 0 0 1 2.757 4.186c.557.51 1.114 1.019 2.043 2.09 1.916 2.48 3.833 4.958 5.162 7.465.16.878.32 1.755-.116 3.044.221 1.62.442 3.24.517 5.654.068 1.068.137 2.136-.058 3.897a100 100 0 0 1-.728 5.136c.008 1.036.015 2.072-.092 3.816-.604 1.827-1.208 3.654-2.358 5.471-.415 1.438-.83 2.876-1.355 4.593 0 0-.086.291-.664.203-.192.034-.384.067-1.147.12-.17.312-.34.624-.43.978M454.06 374.073c-5.712.06-11.425.12-18.06.081h-35.51l-.01 1.773c12.165 0 24.33 0 37.411.169 6-.595 12-1.19 18.049-2.34l-.546-.862c-.131.395-.262.791-1.334 1.179M283.914 150.89H468.99c0 2.013-.005 3.638 0 5.262.25 66.768.507 133.535.73 200.303.006 1.814-.339 3.629-.893 5.923l-7.246 8.46c3.846-.23 7.323-3.412 9.513-9.644.075-.829.217-1.657.217-2.486-.023-68.137-.058-136.274-.09-204.41-.002-1.796-.001-3.59-.001-5.525H280.153c-.12.767-.262 1.256-.262 1.746.028 69.97.035 139.94.247 209.91.006 2.26 1.626 5.012 3.33 6.684 8.475 8.316 19.33 9.672 30.532 9.723 13.473.06 26.958-.184 40.416.309 7.842.287 15.25 2.427 18.705 11.608q.611 2.15 1.225 4.297.534 1.863 1.072 3.725c1.143-13.856 9.743-19.191 22.487-20.05-10.634-1.702-17.999.992-22.443 11.875-.515-.868-1.004-1.693-1.536-3.241-1.369-4.093-4.157-6.294-8.316-7.735-14.771-5.12-29.943-3.773-45.038-3.192-12.174.469-23.99.101-34.24-7.68-2.915-2.211-4.386-4.75-4.375-8.784.163-55.998.1-111.996.117-167.994.004-12.662.098-25.325.494-38.202.21-.183.352-.41 1.346-.882m26.29 7.335c-8.097.218-14.846 3.286-18.284 10.797-4.413 9.64-1.724 18.173 6.047 25.09-13.373 13.5-10.268 23.506-1.508 32.324-2.634 6.607-7.065 12.681-6.854 18.59.216 6.082 4.958 12.002 7.97 18.536-3.566 3.948-8.777 8.983-7.463 15.938 1.143 6.055 4.475 11.697 7.105 18.173-.435.52-1.747 2.024-2.995 3.58-5.892 7.351-6.233 16.74.114 23.674 3.694 4.036 3.067 6.512.033 10.408-6.42 8.245-5.135 18.727 2.502 25.542 7.533 6.722 18.508 6.896 25.808-.13 3.162-3.043 4.923-2.939 8.047.061 8.311 7.98 16.413 7.838 25.18.181 1.361-1.188 2.717-2.382 4.05-3.552 13.214 11.729 13.214 11.729 33.46 1.285 14.077 11.074 14.469 11.051 32.878-1.926 16.15 11.46 21.788 12.174 31.128 2.903 2.808-2.786 5.653-6.779 6.057-10.484.832-7.606-4.054-13.604-8.499-19.262 11.93-14.212 11.968-18.053.267-33.997 11.63-11.474 12.006-23.067-.945-33.814 12.177-16.432 12.18-16.742.5-34.856 11.654-11.087 11.02-22.487-.44-33.255 8.725-8.532 10.891-19.95 4.544-27.007-3.337-3.71-8.367-6.486-13.165-8.165-8.61-3.013-13.851 4.53-20.205 8.117-14.2-10.619-17.602-10.573-32.513.315-15.787-11.19-16.958-11.19-33.61-.02-11.853-10.988-22.634-9.802-32.273-.832-5.588-2.81-10.858-5.46-16.937-8.214m-114.01-56.823V65.958l1.005-.128 11.045 39.986H220.6l10.702-39.342 1.022.125v39.064h11.14V51.608c-4.586 0-8.904.25-13.179-.077-3.502-.268-4.852.932-5.729 4.361-3.046 11.921-6.515 23.734-10.184 36.88L202.83 51.937h-17.464v54.11c2.704 0 5.053-.186 7.359.047 2.99.302 3.862-1.03 3.468-4.69m148.47 332.623c12.497-.061 24.994-.21 37.491-.165 21.104.075 42.397-1.295 62.368 7.895 2.982 1.373 5.152.032 6.396-2.859 1.106-2.568 2.143-5.166 3.495-8.44l49.343 21.773c2.512-4.655 4.923-9.17 7.382-13.66 1.816-3.318.775-5.802-2.278-7.546-17.803-10.17-36.008-19.338-56.625-22.41-5.233-.779-10.012-.574-11.894 5.458-57.634-8-92.495-7.792-129.117.823-1.782-6.81-7.15-6.92-12.7-6.092-20.937 3.126-39.463 12.422-57.429 22.974-1.144.672-2.03 3.697-1.492 4.984 2.21 5.3 5.018 10.35 7.679 15.636 16.95-6.36 31.239-17.336 48.916-19.591 5.818 10.351 7.232 11.39 15.001 7.704 10.378-4.923 21.287-6.261 33.463-6.484M389.34 50.16c-18.6.067-29.358 10.189-29.806 28.045-.377 15.035 8.143 26.412 21.524 28.743 16.036 2.793 29.627-3.792 33.759-16.937 5.507-17.522-1.206-38.148-25.477-39.851m176.818 50.361c-.095-1.426-.19-2.853-.306-4.62h-31.335V81.83h27.277v-9.249h-27.284V60.965h30.19v-9.05h-41.94v53.818h43.398zM254.439 93.88l-4.403 11.907H262.5l3.927-10.856c5.615 0 10.82.426 15.922-.118 5.317-.567 7.915 1.275 8.948 6.46.347 1.744 2.001 4.24 3.448 4.544 3.252.685 6.749.215 10.751.215-6.037-15.644-11.777-30.503-17.505-45.366-3.562-9.242-3.555-9.088-13.63-9.142-3.12-.017-4.316 1.21-5.3 3.875-4.67 12.629-9.508 25.195-14.623 38.48m92.495-42.265c-2.972-.573-4.447.897-5.65 3.511-2.977 6.472-6.244 12.811-9.707 19.836-3.782-7.092-7.128-13.58-10.717-19.931-.784-1.388-2.343-3.1-3.704-3.253-3.9-.44-7.882-.155-12.74-.155 6.397 10.3 12.515 19.732 18.132 29.452 1.725 2.986 2.582 6.711 2.94 10.19.49 4.755.122 9.598.122 14.486h12.836c-4.546-16.132 3.346-28.592 11.05-41.112.783-1.274 1.494-2.594 2.215-3.906 1.545-2.81 3.073-5.628 4.977-9.118zM486.252 81.5v24.39h12.225V61.094h16.935v-9.089h-46.023v9.572h16.863zM437.074 61.36c.341 1.86.965 3.719.978 5.581.086 12.912.046 25.824.046 38.788h12.14V61.237h16.739v-9.184h-45.679v9.21c5.204 0 10.023 0 15.776.096m22.163 311.82.515-.17c-.173-.056-.346-.112-.515.17"/><path fill="#DBDBDB" d="M591.017 362.057c-1.917-2.478-3.834-4.957-5.688-7.885-.147-1.413-.358-2.377-.569-3.34l-1.777 1.18c-.838-1.223-1.677-2.445-2.731-4.242-6.768-6.117-16.79-5.251-22.231 1.325 0 0-.003-.075-.321-.122-6.716 3.516-.683 7.932-.814 11.995-6.531-1.834-8.985-7.32-5.459-12.372 1.752-2.509 4.354-4.424 6.937-6.68 2.78-.774 5.196-1.473 7.97-2.105 9.837.28 19.08 1.147 25.88 9.487 8.8 16.207 9.331 32.164.66 48.248-.226.419.098 1.135.166 1.712-1.944 5.15-5.334 9.017-10.944 11.62-21.906 12.433-43.721 11.012-66.046 2.724-1.88-1.276-3.524-2.323-5.218-3.278-2.584-1.458-5.202-2.852-7.806-4.274-.837-.945-1.674-1.891-2.742-3.333-.84-1.796-1.46-3.09-2.058-4.395-3.566-7.782-7.388-15.463-10.535-23.411-.988-2.496-.154-5.713-.154-8.743-4.046-.251-2.99-3.833-2.773-6.866.1-1.41 1.208-3.695.724-4.055-5.553-4.126-.166-6.724 1.177-9.854-6.046-4.284-5.968-10.77.429-16.456-1.773-.703-3.419-1.356-5.153-2.446-.604-6.587-.268-12.326 8.45-14.755-6.679-1.156-8.738-4.889-7.427-9.287 2.515-8.436 9.26-1.28 14.285-3.272-5.315-3.341-14.718-3.098-11.932-12.874 1.845-6.474 5.374-8.985 10.677-8.825-.934-1.795-2.698-3.618-2.642-5.383.18-5.743 7.206-9.825 12.749-7.941 3.649 1.24 7.389 2.214 11.088 3.308l.356-1.336c-3.041-1.223-6.113-2.378-9.117-3.687-3.885-1.693-5.812-4.274-3.443-8.537 0 0 .006.09.33.054 4.07-3.232 7.926-4.01 12.176-.862 1.137.842 2.643 1.185 4.27 1.92 1.471.491 2.651.818 3.831 1.145l.285-1.02a89 89 0 0 1-3.612-1.896c-4.382-2.344-7.752-5-7.352-10.302 0 0 .084.043.496.158.62-.648.827-1.41 1.034-2.174.55-.198 1.099-.397 1.893.107 3.825 1.915 7.404 3.128 10.983 4.34l.584-.889-9.22-6.874c2.783-1.555 4.573-3.104 6.616-3.59 5.294-1.257 10.666-2.337 16.067-2.964 12.51-1.452 22.483-6.43 27.678-18.632 0 0 .024.108.22-.189 5.156-12.225.111-27.258-9.245-27.89 4.048 6.052 6.088 12.452 3.9 19.953-2.477 5.144-6.356 7.39-11.671 7.692-2.277.129-4.828.437-6.709 1.57-5.132 3.095-9.945 2.237-15.142-.152l5.808-4.826c-2.332.629-3.314.665-4.028 1.122-6.993 4.476-13.942 9.023-20.904 13.549l.763.972c-1.502.892-3.005 1.783-5.1 2.71-1.167-.996-1.74-2.025-2.378-3.167-.246.136-.696.312-1.061.597-6.367 4.971-6.353 4.96-12.64-.056-.425-.339-1.225-.207-1.85-.294 1.258-2.01 2.517-4.019 4.459-5.802 8.052-2.95 12.93-8.349 15.421-15.998.912-2.8 1.98-5.593 3.355-8.188 1.77-3.338 1.012-5.523-2.335-7 0 0 .074-.006.122-.344-.623-1.63-1.296-2.924-2.181-4.628h4.347v-6.008l4.136 2.344 1.885-6.52 1.795 1.357 3.073-4.697c1.53 1.499 3.06 2.998 4.282 4.966.9 1.257 3 2.897 3.18 2.708 3.366-3.537 7.144-6.958 9.35-11.179.79-1.51-1.722-5.786-3.794-7.537-4.2-3.551-9.13-6.242-14.297-9.642 3.281 0 6.185 0 9.395.107 5.45 2.39 10.595 4.672 15.585 6.886l2.873-3.26c.074.228.15.456.21 1.435.48 2.524.975 4.296 1.621 6.61l3.602-2.683 1.117 5.444c1.792-1.02 3.183-1.813 4.776-2.417.348.301.494.414.459.891-.107 1.649-.44 3.217.187 4.114.4.57 2.391.525 3.378.092 2.96-1.299 5.776-2.923 9.01-4.143.626.424.892.57.96 1.008-2.176 2.37-4.156 4.449-6.866 7.295h8.433l.625 5.48 4.793-.226 1.047 9.82 12.67-6.58c-.916 3.362-2.583 5.63-4.007 8.042-2.956 5.01-1.91 6.891 4.016 6.825 3.308-.037 6.605-.927 9.916-1.002 2.682-.06 5.377.523 8.19.835-5.53 2.056-10.536 3.628-15.27 5.795-2.514 1.15-2.165 3.127.39 4.34.9.427 1.879.69 2.821 1.028l-.089.84-6.49.89-.393 1.575 17.456 5.389-.412 1.307c-4.602.396-10.042-1.79-13.616 4.112 2.366.82 4.092 1.42 6.321 2.194l-8.36 3.842-.086 1.508 6.044 2.336-3.98 3.278c4.956.382 8.411.648 12.194 1.063 1.125 1.248 1.923 2.347 2.721 3.446-9.284-3.199-12.469-1.948-18.16 5.78-2.05 2.786-5.483 4.597-8.403 6.688-3.337 2.39-7.362 4.07-10.106 6.985-6.914 7.345-13.536 14.836-24.063 16.977-.793.162-1.566.561-2.274.976-7.413 4.339-15.344 8.01-22.102 13.206-13.654 10.5-25.824 22.488-31.367 39.962-1.63 6.206-2.996 12.147-4.46 18.547-.169 3.287-.13 6.124-.332 8.944-1.413 19.663 4.814 36.29 19.575 49.53.012-.035.084.073.301.383 1.595 1.117 2.973 1.924 4.348 2.695-.003-.034-.072-.025-.241.361.288.48.746.573 1.185.64-.018-.026-.059.023-.32.331 8.835 8.79 19.69 10.213 31.78 8.23 2.822-.507 5.263-1.044 8.027-1.606.924-.48 1.525-.935 2.127-1.39l-.462-.683c-.71.39-1.42.781-2.489 1.15-1.54.14-2.72.3-4.315.29-.706-.232-.998-.296-1.442-.69-.059-.788.034-1.245.54-1.707 3.246-.674 6.08-1.342 8.914-2.01 0 0 .116-.076.47-.074.624-.27.896-.545 1.168-.818.168-.016.336-.032.883.196.97.06 1.558-.125 2.148-.31 0 0 .017.057.49.061 1.367-.328 2.262-.66 3.551-.638-1.266 1.552-2.928 2.75-4.9 4.03-.524.446-.74.813-.954 1.18a22 22 0 0 1 2.286-.505c3.296-1.628 6.344-3.066 9.026-5.008.732-.53.362-2.58.499-3.933.682-.53 1.305-1.18 2.062-1.562 1.032-.522 2.166-.84 3.868-1.403 1.785-.645 2.959-1.132 4.472-1.85.454-.926.568-1.623.653-2.318-.03.002-.001.053.41.116.114-.435-.18-.934-.436-1.602.041-.169-.003-.514-.102-.625-.216-.275-.367-.394-.552-.47.415-1.438.83-2.876 1.485-3.937.361 1.57.483 2.765.604 3.96l1.202.31c.796-2.062 1.591-4.125 2.745-6.348.463-.916.567-1.672.64-2.417-.033.01-.012.075.338-.038.376-1.072.403-2.032.45-3.348-.966-1.11-1.951-1.86-2.665-2.87.436-1.76.599-3.261.958-5.004a21 21 0 0 1 2.3-1.798c.308-.976.308-1.795.308-3.746-.744 1.834-1.041 2.567-1.593 3.337-.598-.464-.942-.965-1.224-1.907.226-1.842.39-3.244.835-4.692-.384-.985-1.05-1.924-1.715-2.863M531 191.997s.04-.054.578-.82c.352-.72.67-2.043 1.063-2.066 3.017-.174 6.048-.095 9.694-.095-5.838-4.13-18.474-1.321-20.402 4.332-.635 1.862.15 5.402 1.565 6.46 1.702 1.27 5.216 1.607 7.112.667 1.62-.804 2.267-3.927 2.88-6.152.144-.526-1.576-1.565-2.49-2.327m5.337 56.907 3.465.157.155-1.057-10.144-3.603-.593 1.553c2.137.903 4.274 1.806 7.117 2.95m57.792 126.58 1.181 1.043.428-1.65c-.495 0-.99 0-1.61.608m-31.758 37.992.224.117s-.039-.236-.224-.117M181.56 340.038c.08-.373.302-.497 1.22-.232 1.454.07 2.35.003 3.62.04 2.783.786 5.192 1.469 7.822 2.404 2.728 3.603 5.236 6.954 7.743 10.305.198.527.395 1.054.258 2.11-2.155 2.427-3.975 4.326-6.055 5.854-.479-.581-.698-.79-.874-1.36 3.41-7.13 3.391-7.256-1.386-10.13 0 0 .074-.01.091-.335-8.196-6.788-18.249-6.761-23.959.181.001 1.033 0 1.623-.002 2.214-.742.642-1.484 1.285-2.76 1.827-2.02-3.916-3.69-.56-5.282-.224l1.277 2.54s-.07.286-.394.602c-2.61 1.176-5.09 1.934-2.88 5.163.194.29.39.58.694 1.228-.159.8-.427 1.24-.916 1.942-.02 2.136.18 4.01.308 6.133-.533.563-.995.877-1.608.89-.332-.888-.513-1.476-.694-2.064l-.855.28c.322.896.643 1.793.97 2.916.006.228.146.66-.169.822-3.562 4.107-.34 3.739 2.287 4.132.2.678.263 1.081.326 1.484-.384.285-.767.57-1.642 1.18-.013 3.153.191 6.068 1.053 8.774.44 1.382 2.059 2.39 3.165 3.846.187.994.354 1.709.668 2.796.565.483.983.593 1.409.673.007-.03-.055-.03-.309.301.257.96.766 1.589 1.46 2.495 1.46.57 2.735.863 4.01 1.155.884.845 1.767 1.69 2.873 3.175 3.389 5.812 8.098 8.667 14.202 10.08 2.004.455 3.763.624 5.75 1.125 3.151.628 6.074.923 9.41 1.365 9.024 1.148 17.525 1.118 25.203-3.633 2.081-1.287 3.7-3.321 5.513-5.04-.017-.027-.07.01.318.172.474-.296.56-.754.61-1.217-.034-.005-.04.064.235.365.776-.24 1.276-.78 1.754-1.345-.024-.026.006.037.313.045.448-.342.587-.692.697-1.054-.03-.013-.02.052.318.035.634-.357.928-.699 1.265-1.051.043-.011.053-.027.338-.294 7.985-8.907 16.558-17.23 17.789-29.496.97-9.668.74-19.455 1.09-29.603-1.527-6.248-3.1-12.082-4.709-18.278-3.533-6.606-7.028-12.852-10.702-19.365-2.328-2.694-4.48-5.118-6.823-7.819-2.398-2.428-4.602-4.58-7.024-6.993-5.774-4.125-11.072-8.447-16.946-11.746-8.673-4.87-17.755-9.013-26.666-13.44-.003.026.046.018.043-.33-2.209-2.025-4.569-3.537-6.585-5.418-3.08-2.873-5.922-6-9.062-9.21-.84-.501-1.484-.812-2.35-1.398-4.305-3.235-9.239-5.513-12.275-9.309-4.81-6.012-8.092-7.782-15.956-5.462-.508-.573-.734-.96-.824-1.6.773-.66 1.411-1.065 2.456-1.464 3.702-.337 6.997-.68 11.626-1.16l-5.082-3.75 6.764-1.617.223-1.188-7.29-4.1 4.822-2.368c-.442-.921-.663-2.157-1.15-2.274-4.274-1.025-8.596-1.85-12.904-2.73 5.017-4.053 12.875-1.527 18.23-7.133l-8.134-1.333c1.99-1.318 3.746-2.48 5.501-3.644-1.624-1.497-3.02-3.466-4.924-4.38-2.814-1.35-5.987-1.951-9.008-2.87l.08-1.592c1.942 0 3.89-.104 5.822.022 3.635.237 7.263.872 10.89.848 3.7-.024 5.24-1.89 3.142-5.486-1.33-2.28-2.754-4.503-3.968-7.055.537-.57.906-.838 1.618-1.067 3.325 1.679 6.31 3.318 10.462 5.599l.848-9.953h4.996l.52-5.442h8.317c-2.933-3.094-5.18-5.463-6.886-7.949.9-.187 1.262-.258 1.77-.34.148-.01.311.236.494.466.551.343.92.457 1.618.633 2.067 1.024 3.73 2.185 5.568 2.876 1.225.46 3.099.795 3.948.177.74-.539.452-2.49.66-4.19.07-.62.098-.868.459-.978 1.512.912 2.693 1.685 4.256 2.709l1.335-5.795c2.612 3.08 4.253 2.808 4.867-.932.157-.957.087-1.951.122-2.928 0 0-.11-.417.294-.633 1.225-.246 2.047-.276 2.868-.306.743.337 1.485.673 2.902 1.028 5.637-1.902 10.6-3.824 15.895-5.604 2.195.376 4.059.61 7.362 1.025-3.045 1.281-4.91 1.69-6.312 2.727-4.23 3.127-8.64 6.145-12.284 9.885-2.957 3.035-.052 8.788 4.306 9.448.998.813 1.996 1.627 2.558 3.03 2.087 5.008 4.524 3.046 6.953.487-.063-.264-.153-.527-.177-.795-.011-.126.104-.263.666-.704 1.233-1.52 1.962-2.73 3.055-4.545l.436 6.653c1.179-.923 2.173-1.702 2.277-1.782 1.858 1.937 3.39 3.534 5.385 5.193.774.102 1.083.142 1.418.557 1.115 1.807 2.204 3.24 3.665 5.161l-1.25 3.412s-.024-.072-.37-.081c-3.254 2.181-3.395 4.61-1.622 7.771 1.604 2.86 2.636 6.06 3.759 9.17 2.7 7.473 8.062 12.19 15.27 15.064 0 0-.11.041.155.097.78.69 1.295 1.322 1.81 1.955 0 0-.088-.042-.146.303-1.301 2.414-2.129 5.092-3.94 6.328-1.137.774-3.862-.358-5.67-1.12-1.601-.673-2.92-2.018-4.393-3.357-.474-.682-.918-1.073-1.363-1.464-.18 1.077-.362 2.154-.813 3.332-1.676-.296-3.08-.693-4.626-1.41-7.922-5.204-14.778-11.654-23.902-14.286l5.631 3.998c-5.514 2.357-10.439 3.302-15.526.044-1.577-1.01-3.775-1.236-5.729-1.44-10.61-1.105-15.428-7.839-12.776-18.285.837-3.3 2.144-6.482 3.532-9.849.984-.76 1.671-1.392 2.359-2.023l-1.101-1.045c-.86 1.004-1.72 2.008-2.881 3.177-7.462 6.767-12.064 14.414-8.564 24.454 4.037 11.584 11.61 19.587 24.269 21.687 6.216 1.032 12.499 1.75 18.642 3.104 2.953.65 5.652 2.45 8.466 3.73l-.039 2.214-19.08 9.727.54 1.26c4.63-1.909 9.318-3.691 13.871-5.77 3.32-1.514 6.41-3.766 10.333-1.114 1.888 3.715-.291 5.786-2.584 7.442-2.613 1.886-5.553 3.317-8.351 4.946l.482 1.115c3.833-1.664 7.681-3.294 11.494-5.003 3.402-1.524 8.979.494 10.438 4.028 1.798 4.357-1.918 5.52-4.552 6.867-3.054 1.563-6.396 2.561-9.614 3.805l.37 1.182c3.622-.977 7.481-1.458 10.807-3.052 4.444-2.131 7.914-1.443 11.313 2.148 4.023 6.158 3.961 6.937-1.309 10.667 9.323-2.147 10.887 5.05 12.189 10.36 2.106 8.592-7.404 8.002-12.923 12.313 4.357-.702 7.113-1.295 9.9-1.558 3.753-.354 5.51 1.597 5.511 5.309.001 4.81-2.637 7.332-7.784 8.497 7.038-.119 7.745 4.482 8.798 9.272 1.061 4.83-1.84 6.362-5.73 7.604 4.703 2.87 5.772 6.685 4.808 11.4-.183.896.416 1.954.655 2.937-.023.437-.046.874-.459.929-1.677-.036-2.964.312-3.07.34.583 3.524 1.23 6.334 1.444 9.177.106 1.412-.947 2.914-.833 4.323.285 3.53 1.47 7.26-3.764 8.181 3.777 6.08-1.686 21.563-12.362 35.472-.921 1.169-1.842 2.338-3.253 3.762-4.333 2.884-8.177 5.514-12.382 8.198-13.331 5.956-26.99 6.5-40.894 5.358-9.413-.773-17.754-4.175-25.395-10.167-2.136-1.896-4.118-3.456-6.1-5.016 0 0-.078-.032-.083-.415-1.206-1.817-2.408-3.251-3.714-5.053-8.06-15.783-8.025-31.356-.715-47.348.358-.97.402-1.657.446-2.345 0 0 .079.063.339.28 5.878-6.972 13.793-8.769 22.3-9.178m70.34-62.355-.282-.127c.107.163.214.327.378.968l.411.797c-.122-.459-.243-.918-.507-1.638m-24.52-76.707c1.04-2.358 3.316-4.974 2.889-7.027-1.269-6.089-14.992-9.43-20.601-4.702h10.068c-.283 3.5-1.58 6.942-.419 8.997 1.016 1.799 4.794 2.037 8.063 2.732m-20.025 1.327 1.329 1.523c.416-.61 1.32-1.545 1.165-1.777-.748-1.127-1.78-2.065-2.71-3.07l-.79.726c.357.66.714 1.322 1.006 2.598M168.85 348.64l-2.784-.193.006 1.578c.862-.254 1.725-.509 2.778-1.385m51.934-90.007 2.03-1.45q-.374-.383-.747-.767c-.56.612-1.12 1.224-1.283 2.217m24.516 21.653 1.267.917.219-1.25c-.47-.074-.941-.15-1.486.333m-37.096-84.77.043 1.33 1.226-.395c-.252-.387-.505-.773-1.27-.935m-4.587-40.721-1.191-.013c-.002.165-.014.473-.003.474.395.03.792.032 1.194-.461m8.561 52.234.288 1.222c.122-.089.356-.194.346-.264-.057-.414-.172-.82-.634-.958m-2.879-1.132c.253.27.502.545.772.797.016.015.21-.164.322-.253-.265-.283-.53-.566-1.094-.544m39.701 74.388.702-.223-.79-.781c-.073.234-.145.468.088 1.004m-5.953.4-.43.713.734.263c.04-.352.082-.705-.304-.975m17.14 31.575-.473.343c.22-.023.438-.046.472-.343m-35.773-54.78s.112-.068 0 0"/><path fill="#130F14" d="M310.608 158.278c5.674 2.702 10.944 5.352 16.532 8.162 9.639-8.97 20.42-10.156 32.273.832 16.652-11.17 17.823-11.17 33.61.02 14.91-10.888 18.312-10.934 32.513-.315 6.354-3.588 11.596-11.13 20.205-8.117 4.798 1.679 9.828 4.455 13.165 8.165 6.347 7.057 4.18 18.475-4.544 27.007 11.46 10.768 12.094 22.168.44 33.255 11.68 18.114 11.677 18.424-.5 34.856 12.951 10.747 12.574 22.34.945 33.814 11.7 15.944 11.663 19.785-.267 33.997 4.445 5.658 9.33 11.656 8.5 19.262-.405 3.705-3.25 7.698-6.058 10.484-9.34 9.271-14.979 8.558-31.128-2.903-18.41 12.977-18.801 13-32.878 1.926-20.246 10.444-20.246 10.444-33.46-1.285-1.333 1.17-2.689 2.364-4.05 3.552-8.767 7.657-16.869 7.8-25.18-.18-3.124-3-4.885-3.105-8.047-.062-7.3 7.026-18.275 6.852-25.808.13-7.637-6.815-8.922-17.297-2.502-25.542 3.034-3.896 3.661-6.372-.033-10.408-6.347-6.934-6.006-16.323-.114-23.673 1.248-1.557 2.56-3.062 2.995-3.58-2.63-6.477-5.962-12.119-7.105-18.174-1.314-6.955 3.897-11.99 7.463-15.938-3.012-6.534-7.754-12.454-7.97-18.536-.21-5.909 4.22-11.983 6.854-18.59-8.76-8.818-11.865-18.824 1.508-32.325-7.77-6.916-10.46-15.45-6.047-25.089 3.438-7.511 10.187-10.579 18.688-10.745m-10.846 36.855c-11.325 14.645-11.323 16.197-.977 30.504.688.951.28 3.25-.384 4.523-2.126 4.078-5.369 7.718-6.788 11.99-2.298 6.923 5.182 17.876 11.61 17.88q72.98.049 145.959-.022c1.417-.001 3.092-.206 4.21-.962 8.402-5.676 10.094-15.9 4.106-24.119-1.747-2.397-3.602-4.716-5.457-7.136 1.773-2.272 3.452-4.325 5.025-6.457 5.413-7.334 5.34-13.777-.185-20.996-.81-1.057-1.57-2.16-2.455-3.149-2.24-2.5-1.752-4.408.536-6.831 9.415-9.97 6.11-23.666-6.549-28.77-6.732-2.716-12.18-.304-16.918 3.928-4.128 3.687-7.21 3.789-11.498.1-7.067-6.08-14.538-5.635-21.643.383-1.739 1.473-3.528 2.886-5.176 4.23-16.432-11.72-16.432-11.72-33.974.088-10.476-11.048-21.436-12.308-32.354-.027-2.931-2.249-5.54-4.274-8.173-6.265-9.08-6.864-18.146-2.566-22.802 2.693-5.537 6.255-4.96 16.26.868 22.8 1.282 1.44 2.134 3.263 3.019 5.615m26.777 160.772c1.779 1.098 3.765 1.962 5.301 3.331 7.586 6.762 14.536 6.995 22.227.524 2.013-1.694 3.976-3.447 6.5-5.64 10.19 15.507 21.47 11.388 32.957 1.159 11.88 14.488 22.604 10.098 32.273-1.712 17.533 12.686 22.306 13.192 31.323 3.697 6.992-7.364 5.762-14.203-5.289-27.454 12.804-10.653 13.456-22.097 1.11-32.741 3.12-5.426 6.439-9.743 8.215-14.622 2.819-7.74-4.846-19.36-12.205-19.36q-72.206-.007-144.412.094c-1.434.002-3.128.104-4.258.84-8.745 5.692-10.782 16.933-4.685 25.446 1.708 2.385 3.657 4.598 5.482 6.873-2.156 2.587-4.085 4.875-5.986 7.185-3.357 4.08-4.072 8.814-2.455 13.626.977 2.908 2.586 5.856 4.666 8.08 3.033 3.245 2.945 6.013.303 9.172a34 34 0 0 0-2.125 2.776c-4.884 7.22-3.723 16.273 2.811 22.096 6.563 5.848 15.744 6.076 22.389.6 1.649-1.36 3.4-2.595 5.858-3.97"/><path fill="#D53418" d="M196.193 101.891c.394 3.173-.477 4.505-3.468 4.203-2.306-.233-4.655-.047-7.36-.047v-54.11h17.465l11.542 40.835c3.669-13.146 7.138-24.959 10.184-36.88.877-3.429 2.227-4.63 5.729-4.361 4.275.327 8.593.077 13.18.077v54.055h-11.14V66.599l-1.023-.125-10.702 39.342h-12.357c-3.67-13.282-7.357-26.634-11.045-39.986l-1.005.128z"/><path fill="#131313" d="M469.201 361.899c.181-1.814.526-3.63.52-5.443-.223-66.768-.48-133.535-.73-200.303-.005-1.624 0-3.249 0-5.262-61.963 0-123.52 0-185.807.06-.806.385-.883.71-.959 1.037-.053 12.662-.147 25.325-.15 37.987-.017 55.998.045 111.996-.118 167.994-.011 4.033 1.46 6.573 4.374 8.785 10.25 7.78 22.067 8.148 34.241 7.68 15.095-.582 30.267-1.928 45.038 3.19 4.159 1.442 6.947 3.643 8.3 8.37-.279 1.086-.54 1.536-.803 1.986-3.442-8.407-10.849-10.547-18.691-10.834-13.458-.493-26.943-.248-40.416-.31-11.201-.05-22.057-1.406-30.532-9.722-1.704-1.672-3.324-4.425-3.33-6.684-.212-69.97-.219-139.94-.247-209.91 0-.49.143-.979.262-1.746H471.22v5.524c.033 68.137.068 136.274.09 204.41.001.83-.14 1.658-.748 2.858-.808.358-1.085.346-1.362.333"/><path fill="#202020" d="M344.184 434.029c-11.698.22-22.607 1.56-32.985 6.482-7.769 3.685-9.183 2.647-15.001-7.704-17.677 2.255-31.965 13.231-48.916 19.591-2.66-5.286-5.468-10.337-7.68-15.636-.536-1.287.35-4.312 1.493-4.984 17.966-10.552 36.492-19.848 57.428-22.974 5.55-.828 10.919-.718 12.701 6.092 36.622-8.615 71.483-8.823 129.117-.823 1.882-6.032 6.661-6.237 11.894-5.457 20.617 3.07 38.822 12.24 56.625 22.41 3.053 1.743 4.094 4.227 2.278 7.545-2.459 4.49-4.87 9.005-7.382 13.66l-49.343-21.773c-1.352 3.274-2.39 5.872-3.495 8.44-1.244 2.891-3.414 4.232-6.396 2.86-19.97-9.191-41.264-7.82-62.368-7.896-12.497-.045-24.994.104-37.97.167m-44.025-13.565 9.389-4.059-2.823-4.397c-2.906 2.869-5.41 5.342-8.371 8.12.374.204.747.408 1.805.336m130.429 14.355c4.394 1.508 8.817 2.938 13.172 4.553 2.775 1.028 4.553.203 5.484-2.481 1.66-4.788 3.236-9.605 4.729-14.055-12.296-6.079-24.46-9.814-37.36-10.7-27.268-1.873-54.546-2.259-81.818-.044-13.856 1.125-26.466 5.765-38.065 13.38.586 2.162 1.061 4.093 1.635 5.994 2.913 9.659 3.755 9.959 13.266 6.58 5.604-1.99 11.327-4.726 17.093-4.987 21.763-.986 43.569-1.518 65.353-1.365 11.912.084 23.812 1.88 36.51 3.125m-137.736-3.79c2.833.055 2.944-1.091 2.45-3.714-.462-2.45-.193-5.6 1.042-7.678 1.928-3.24 4.942-5.835 8.035-9.308-2.508.123-4.453.054-6.344.339-17.372 2.612-32.866 10.27-48.231 18.19-9.414 4.853-9.315 5.569-4.754 15.298 2.184 4.66 4.248 5.337 8.98 3.16 12.486-5.742 25.28-10.816 38.822-16.288m202.46 15.257c7.762 3.7 7.762 3.7 11.527-3.888.221-.445.447-.888.66-1.336 2.87-6.011 2.743-7.814-3.392-10.596-13.562-6.151-27.319-11.905-41.193-17.315-4.561-1.778-9.729-2-14.619-2.934l-1.066 1.47c8.003 3.533 11.14 9.097 7.573 17.045 7.226 2.868 13.919 5.332 20.449 8.17 6.537 2.84 12.912 6.055 20.062 9.384m-46.29-27.983 3.275.598.37-.812-9.201-5.82c-1.088 5.073 3.043 4.326 5.556 6.034"/><path fill="#D53217" d="M389.786 50.17c23.824 1.693 30.537 22.32 25.03 39.84-4.132 13.146-17.723 19.731-33.759 16.938-13.381-2.33-21.9-13.708-21.524-28.743.448-17.856 11.205-27.978 30.253-28.035M375.38 91.982c5.16 6.208 11.84 7.176 18.94 4.691 6.727-2.354 9.423-7.983 9.782-14.806.13-2.48.148-4.993-.104-7.458-.85-8.335-6.56-13.923-14.51-14.39-8.867-.522-15.017 3.63-16.886 12.08-1.455 6.578-1.42 13.208 2.778 19.883"/><path fill="#1A1A1A" d="M498.835 325.672c5.28-17.21 17.449-29.199 31.103-39.698 6.758-5.195 14.689-8.867 22.102-13.206.708-.415 1.481-.814 2.274-.976 10.527-2.14 17.149-9.632 24.063-16.977 2.744-2.914 6.77-4.596 10.106-6.985 2.92-2.091 6.352-3.902 8.403-6.687 5.691-7.73 8.876-8.98 18.16-5.781a502 502 0 0 0-2.721-3.72c-.327-.791-.327-1.157-.327-1.524 5.56 1.943 5.85 2.652 3.477 9.027-1.73-.888-3.383-1.898-5.155-2.617-4.376-1.777-7.663-.49-9.957 3.596-1.051 1.872-2.488 3.54-3.43 5.459-.688 1.4-1.633 3.518-1.06 4.49.796 1.35 2.9 2.7 4.451 2.71 9.152.057 17.681-2.431 25.484-7.276.82-.51 1.602-1.083 2.512-1.703.805 5.353-.877 9.331-6.099 14.845 1.427 3.93 5.64 7.539 1.105 12.102l5.363 3.851-9.015 1.995 4.76 5.57-8.96 1.425 4.449 5.67h-11.257l6.844 8.716c-4.135-.434-7.304-.766-10.992-1.41-.74.096-.961.504-1.183.913l2.473 6.23h-10.927l1.377 5.169-11.606-3.46 1.776 5.686-10.266-2.803 1.256 4.055c-3.32-.533-6.34-1.019-9.898-1.8-.757.11-.98.516-1.202.922l.963 2.192c-7.633-5.555-11.285 2.541-16.64 4.97-2.46-6.312-4.815-12.358-7.334-18.827-12.23 7.82-23.492 16.077-32.31 27.84-.69-.21-.884-.507-1.174-1.123-2.413-1.856-4.728-3.392-7.246-5.063-1.177 2.353-1.968 3.932-2.981 5.345a6.6 6.6 0 0 1-.76-1.142m125.377-76.6c-10.07 2.73-20.139 5.46-30.879 7.854q1.049-1.141 2.092-2.287c-2.524-7.329-4.144-6.824-10.409-2.897-3.886 2.437-6.814 6.401-10.731 10.225l7.52 6.173c3.528-3.466 6.438-6.323 9.201-8.483-1.87 2.924-3.687 5.886-5.625 8.765-2.446 3.636-4.346 8.017-7.633 10.63-6.234 4.955-13.221 8.988-20.027 13.193-3.785 2.338-7.834 4.25-12.256 6.618l6.677 17.08 6.055-7.873 5.853 3.518-.982-7.293 9.017 5.583v-8.392c3.139 2.22 6.096 4.313 10.254 7.256l-1.577-10.77 10.492 7.622.928-.846-2.013-9.497c4.573 1.788 5.477 8.077 10.83 5.967-.48-3.459-.933-6.708-1.424-10.234 3.552 1.796 6.257 3.163 9.44 4.752l.791-.165c-.176-.283-.352-.565-.726-1.513l-4.435-7.372h9.506l-3.218-8.016 7.924 1.416-4.5-7.855 7.984 1.86.156-.807-4.049-3.355c5.311-3.169 5.311-3.169 1.151-11.327 2.219-3.329 4.15-6.227 6.264-9.59l-.217-.71c-.25.197-.5.394-1.434.77m-69.742 41.95c3.838-2.152 7.793-4.129 11.442-6.563 1.103-.735 2.262-3.149 1.837-4.088-1.328-2.934-2.96-7.225-5.295-7.831-2.965-.77-6.816 1.352-10.098 2.689-.827.337-1.498 2.536-1.277 3.696.737 3.866 1.913 7.65 3.391 12.096m-17.467-3.76c-1.846.187-4.079-.222-5.463.676-3.71 2.407-7.057 5.375-9.899 7.609l8.05 10.824c10.299-5.497 12.279-9.948 7.312-19.109m31.128-10.884c1.58 1.263 1.889 5.227 5.028 3.147 3.444-2.281 6.411-5.284 9.685-8.056l-9.614-7.688c-9.272 4.67-9.77 5.768-5.099 12.597m-41.928 30.267c-.442-1.25-.752-2.569-1.35-3.74-2.475-4.856-4.884-5.245-8.522-1.372-2.382 2.535-4.655 5.173-7.019 7.811l9.266 6.894c2.701-3.023 5.3-5.93 7.625-9.593m14.929-16.926.737 8.97 10.075-6.017-3.8-14.451-10.61 5.507c1.476 2.228 2.464 3.72 3.598 5.99m-27.182 25.898-5.747-3.79-5.06 7.75 7.976 4.6c1.445-1.742 3.003-3.264 4.061-5.078.393-.673-.387-2.03-1.23-3.482m61.59-7.602-.09.878c.187-.131.374-.262.09-.878"/><path fill="#D53216" d="M566.157 101.003v4.73h-43.398V51.915h41.94v9.05h-30.19v11.617h27.284v9.25h-27.277V95.9h31.335c.117 1.768.211 3.195.306 5.103M254.607 93.53c4.947-12.936 9.786-25.502 14.454-38.13.985-2.666 2.182-3.893 5.3-3.876 10.076.054 10.069-.1 13.63 9.142 5.729 14.863 11.469 29.722 17.506 45.366-4.002 0-7.499.47-10.751-.215-1.447-.304-3.101-2.8-3.448-4.543-1.033-5.186-3.63-7.028-8.948-6.46-5.102.543-10.307.117-15.922.117l-3.927 10.856h-12.465c1.502-4.062 2.952-7.985 4.571-12.256m16.526-12.795-1.228 4.698h15.588c-1.35-4.048-2.496-7.63-3.742-11.177-1.267-3.604-2.634-7.173-4.242-11.53a4082 4082 0 0 1-6.376 18.009"/><path fill="#D53217" d="M347.366 51.614h9.322c-1.904 3.49-3.432 6.308-4.977 9.118-.72 1.312-1.432 2.632-2.216 3.906-7.703 12.52-15.595 24.98-11.049 41.112H325.61c0-4.888.367-9.73-.122-14.486-.358-3.479-1.215-7.204-2.94-10.19-5.617-9.72-11.735-19.151-18.131-29.452 4.857 0 8.839-.284 12.739.155 1.36.153 2.92 1.865 3.704 3.253 3.59 6.35 6.935 12.839 10.717 19.931 3.463-7.025 6.73-13.364 9.708-19.836 1.202-2.614 2.677-4.084 6.08-3.51M486.252 81V61.577H469.39v-9.572h46.023v9.09h-16.935v44.795h-12.225z"/><path fill="#181818" d="M169.557 251.201c2.943 3.02 5.786 6.146 8.865 9.019 2.016 1.88 4.376 3.393 6.318 5.76-2.274-.328-4.284-1.344-5.982-2.203l-9.394 7.591c2.622 2.493 5.06 5.065 7.77 7.307 2.185 1.81 3.82 1.638 6.014-1.023 3.162-3.838 4.432-7.29 1.82-11.71 8.907 4.453 17.989 8.596 26.662 13.466 5.874 3.299 11.172 7.62 16.554 12.072-.425.815-.677 1.043-1.21 1.085-2.535-1.821-4.61-3.885-7.111-4.934-1.528-.64-4.308-.396-5.476.638-2.611 2.31-2.118 10.118-.04 13.387-.512.596-.711.839-.91 1.082l-4.689-2.948-7.327 18.634c-1.285-.632-3.29-.955-4.02-2.094-2.917-4.548-6.394-5.045-10.72-2.294-.39-.679-.779-1.357-.967-2.542.128-.761.053-1.017-.021-1.273l-.97.501-10.148 1.722 1.432-4.172c-3.78 1.02-6.892 1.858-10.463 2.82l1.908-5.74-11.784 3.606 1.49-5.286H146.1c.882-1.935 1.684-3.695 2.632-6.072.072-.878-.003-1.14-.077-1.402l-.928.528-11.447 1.458 6.177-7.75-.538-1.29-10.058.462 4.77-5.923-9.56-1.522c1.465-1.284 2.392-2.096 3.974-3.034 1.141-.11 1.627-.094 2.21.287 2.456.064 4.814-.237 7.764-.613l-3.345 8.203h9.48c-1.64 2.839-3.044 5.27-4.672 7.845.178.317.58.493 1.346.734 2.852-1.427 5.338-2.92 8.675-4.923l-1.494 10.522.967 1.208 9.789-7.044-1.945 9.547.958.72 10.492-7.702-1.357 9.183 1.043.807 9.078-6.524v8.535l7.86-5.042.595 6.754 5.261-3.638 6.057 7.793c1.634-3.952 3.005-6.936 4.115-10.014 3.16-8.756 3.443-6.24-4.106-10.531-4.757-2.705-9.645-5.19-14.303-8.052-2.033-1.25-3.369-3.952-5.48-4.702-9.82-3.485-13.327-11.638-15.697-20.618 1.86 2.02 3.346 4.15 4.811 6.25 8.324-3.664 8.872-5.98 2.99-12.201-1.13-1.195-2.34-2.314-3.272-3.773.392-.515.543-.726.693-.937m14.969 28.044c.694 1.97.818 4.629 2.198 5.77 3.12 2.58 6.859 4.41 11.171 7.05 1.22-5.134 2.332-9.386 3.168-13.693.173-.893-.427-2.228-1.107-2.946-4.012-4.24-10.63-3.666-13.72 1.077-.45.69-.888 1.39-1.71 2.742m17.262 7.758-1.941 5.637 9.621 5.577 3.684-15.185-9.638-4.891a948 948 0 0 1-1.726 8.862m-25.8 21.5.564.386c-.033-.292-.067-.584-.563-.385"/><path fill="#D43014" d="M436.607 61.31c-5.286-.047-10.105-.047-15.309-.047v-9.21h45.679v9.184h-16.738v44.49h-12.141c0-12.963.04-25.875-.046-38.787-.013-1.862-.637-3.721-1.445-5.63"/><path fill="#171717" d="M177.007 161.051s-.163-.247-.524-.497c-1.302-.157-2.242-.063-3.183.031l1.086.686 7.426 7.833h-8.318l-.519 5.442h-4.996l-.848 9.953c-4.153-2.281-7.137-3.92-10.715-5.857-1.194-.29-1.794-.282-2.394-.275l.862 1.903c1.381 2.249 2.805 4.473 4.135 6.752 2.098 3.596.557 5.462-3.141 5.486-3.628.024-7.256-.61-10.89-.848-1.934-.126-3.881-.022-5.822-.022l-.08 1.591c3.02.92 6.193 1.52 9.007 2.87 1.903.915 3.3 2.884 4.924 4.381l-5.5 3.644 8.133 1.333c-5.355 5.606-13.213 3.08-18.23 7.133 4.308.88 8.63 1.705 12.903 2.73.488.117.709 1.353 1.151 2.274l-4.821 2.369 7.29 4.099-.224 1.188-6.764 1.618 5.082 3.749c-4.629.48-7.924.823-11.626.884-.407-.65-.407-1.019-.408-1.387.633-.458 1.265-.915 2.205-1.776.804-1.645 1.3-2.887 1.797-4.129.785-.023 1.57-.047 2.939.224 1.203.126 1.821-.041 2.44-.209l-2.303-1.251-11.32-2.623.088-1.528 11.588-2.506h-13.915c-.757-5.61-.59-5.738 13.03-9.754l-6.651-3.867 8.89-3.104.256-1.058-17.48-3.316c2.935-5.48 5.981-6.884 13.215-6.045 3.917.454 7.856.726 11.785 1.08l1.173-1.43-8.603-12.394c6.104-4.09 10.695 2.917 16.353 2.773l-.812-7.978 6.281.832-.884-5.133 6.32-.535-13.317-11.227c8.14-1.185 14.857 2.747 21.427 6.437l1.176-6.45 6.983 3.446v-5.567c2.568-1.4 4.508 4.293 7.033-.083a6.05 6.05 0 0 1 .204 2.838c-.614 3.74-2.255 4.011-4.867.932l-1.335 5.795c-1.563-1.024-2.744-1.797-4.412-2.971-1.024-.363-1.562-.324-2.477-.26l2.132 1.873c-.166 1.327.122 3.278-.618 3.817-.85.618-2.723.284-3.948-.177-1.839-.691-3.5-1.852-5.736-3.125-.876-.413-1.254-.513-1.633-.614m-38.399 32.752.143-1.735-2.309 1.156c.459.201.917.402 2.166.579m6.796 33.679s.119-.072 0 0m-.17-8.006.705.067c-.107-.117-.215-.234-.704-.067M611.64 230.018c.358.467.358.833.358 1.474-3.456.01-6.911-.257-11.868-.639l3.981-3.278-6.044-2.336.086-1.508 8.36-3.842-6.321-2.194c3.574-5.902 9.014-3.716 13.616-4.112l.412-1.307-17.456-5.389.393-1.575 6.49-.89.09-.84c-.943-.338-1.921-.601-2.821-1.028-2.556-1.213-2.905-3.19-.391-4.34 4.734-2.167 9.74-3.74 15.27-5.795-2.813-.312-5.508-.896-8.19-.835-3.311.075-6.608.965-9.916 1.002-5.926.066-6.972-1.816-4.016-6.825 1.424-2.412 3.091-4.68 4.006-8.042-3.785 1.967-7.57 3.933-12.669 6.58l-1.047-9.82-4.793.226-.625-5.48h-8.433c2.71-2.846 4.69-4.925 7.111-7.43-.228-.668-.897-.91-1.567-1.15-2.872 1.497-5.689 3.121-8.648 4.42-.987.433-2.979.478-3.378-.092-.627-.897-.294-2.465-.023-4.36.29-.885.234-1.157.177-1.43l-1.002.597-4.574 2.605-1.117-5.444-3.602 2.684c-.646-2.315-1.14-4.087-1.564-6.255.95.25 1.828.896 2.686 1.526l4.588-2.999v6.326l7.848-2.663v5.97c6.907-3.162 13.627-7.67 21.929-6.383L575.63 166.33l6.142.591-.66 5.068 6.135-.752-.757 7.88c5.617.368 10.237-6.797 16.447-2.704l-8.718 12.198 1.078 1.55c3.877-.31 7.783-.424 11.625-.978 5.948-.857 10.8.387 13.873 5.99l-17.636 3.252.114 1.185 8.657 2.92-6.244 3.971c4.308 3.096 12.84.664 13.496 9.802h-14.65l11.371 2.417.19 1.32-11.216 3.546c1.034.219 1.69.358 2.734.922.768 1.468 1.15 2.51 1.53 3.553.713.62 1.427 1.238 2.498 1.958m-9.033-5.5s-.125.076 0 0"/><path fill="#1A1A1A" d="M236.026 242.919c-3.814-2.31-6.904-.058-10.223 1.457-4.553 2.078-9.24 3.86-13.87 5.769l-.542-1.26 19.081-9.727.04-2.215c-2.815-1.28-5.514-3.078-8.467-3.73-6.143-1.354-12.426-2.071-18.642-3.103-12.659-2.1-20.232-10.103-24.27-21.687-3.499-10.04 1.103-17.687 8.82-24.396.727-.083.9-.06 1.072-.037-1.092 3.237-2.399 6.418-3.236 9.72-2.652 10.445 2.165 17.179 12.776 18.284 1.954.204 4.152.43 5.729 1.44 5.087 3.258 10.012 2.313 15.526-.044l-5.631-3.998c9.124 2.632 15.98 9.082 23.842 14.54.045.745.01.916-.025 1.087-3.696-2.182-7.623-4.057-11.022-6.631-3.317-2.513-6.52-2.808-10.211-1.473-4.245 1.535-8.265 1.783-12.282-1.125-1.609-1.164-4.052-1.41-6.16-1.612-10.208-.975-14.904-5.833-15.222-15.987-.03-.966-.1-1.931-.15-2.897l-1.243-.139c-.308 2.598-1.02 5.221-.858 7.79.904 14.286 13.278 24.917 29.804 26.078 4.617.324 9.437.56 13.709 2.099 3.247 1.17 5.801 4.308 8.609 6.637a21.5 21.5 0 0 1 3.727 3.994c-.37.606-.567.853-.68 1.166"/><path fill="#202020" d="M257.788 344.022c-.303 9.735-.074 19.522-1.044 29.19-1.231 12.266-9.804 20.59-18.177 29.112-.368-1.398-.062-2.68.243-3.96-.715.073-1.669-.124-2.11.263-3.99 3.509-7.89 7.12-11.817 10.7l.338 1.098 7.904-3.345c-1.831 1.69-3.45 3.725-5.53 5.012-7.679 4.751-16.18 4.78-25.205 3.337-.374-.836-.334-1.229.105-1.502 6.463-.206 12.532-.462 18.581-.96.638-.053 1.157-1.535 1.731-2.354-.824-.289-1.674-.877-2.468-.81-2.463.209-4.905.667-7.403.639-.087-.648-.127-.907-.166-1.165 11.096-.559 19.09-6.445 24.883-15.33 11.018-16.896 15.645-35.032 9.376-55.572.32-.874.565-1.119.973-1.03 1.292 3.682 2.42 7.032 3.932 11.525 1.733-1.878 3.026-3.278 4.703-4.721zm-10.397 45.835c4.127-5.293 6.75-11.164 7.294-17.955-3.343-.722-4.863-.099-6.067 3.315-2.184 6.189-5.476 11.982-8.214 17.983-.542 1.188-.674 2.564-.995 3.853l1.699.65a773 773 0 0 0 6.283-7.846m6.913-20.155 2.67-20.35-2.352-.95c-1.028 1.323-2.78 2.561-2.951 3.988-.566 4.728-.71 9.526-.655 14.293.011.983 1.58 1.948 3.288 3.019M550.027 415.569c-11.71 2.01-22.565.587-31.023-8.272 3.046.828 4.923 3.991 9.085 2.07-3.167-2.301-5.713-4.006-8.09-5.922-2.22-1.788-4.258-3.8-6.376-5.713l-.742 1.096.462 4.164c-14.75-13.275-20.977-29.902-19.564-49.565.203-2.82.163-5.657.717-8.903.736-.388.992-.36 1.291-.005.61 3.977 3.183 2.72 5.753 2.517.695.047.973.068 1.25.088-2.156 17.599 2.124 33.588 12.349 47.95 5.602 7.87 12.805 13.447 22.959 14.406-.296.692-.567.92-1.246 1.165-1.375-.18-2.345-.55-3.307-.529-1.46.033-2.912.338-4.367.527 1.204 1.013 2.358 2.822 3.62 2.902 5.686.359 11.403.227 17.143.562.052.682.069 1.072.086 1.462M505.77 382.59c-.83-2.338-1.994-4.617-2.414-7.026-.7-4.01-2.7-4.733-6.134-3.414 1.292 10.614 7.06 18.352 13.939 25.446l1.926-.9c-2.364-4.458-4.728-8.916-7.317-14.106m-4.709-13.66c-.2-5.624-.2-11.27-.756-16.859-.127-1.28-2.176-2.37-4.067-4.283 0 7.529-.007 13.32.003 19.113.005 3.015 1.865 3.02 4.82 2.03"/><path fill="#1C1C1C" d="M139.635 230.102c.369.38.37.748.37 1.393-.639.681-1.277 1.086-2.292 1.977-.347 1.115-.32 1.744-.29 2.373l1.64-.818c7.58-2.506 10.861-.736 15.672 5.276 3.036 3.796 7.97 6.074 12.033 9.41-.266.62-.514.862-1.157.99-2.595-.22-5.42-1.209-6.833-.206-1.698 1.205-3.155 4.015-1.206 6.545-10.44-2.682-20.46-5.413-30.563-8.378-.289.112-.494.458-.664 1.162 2.042 3.02 4.051 5.682 6.278 8.632-1.009 3.562-8.029 7.76.927 11.557l-4.185 3.524.34.695 8.426-2.185-4.975 7a232 232 0 0 0-1.82-.054c-.06-.735.247-1.465.688-2.518l-8.72-1.707 5.335-4.037c-4.498-4.52-.341-8.125.651-10.779l-7.322-15.245c8.554 2.8 16.084 5.276 23.627 7.713.779.252 1.686.509 2.445.348 2.69-.57 6.04-.542 7.857-2.172 3.22-2.889-1.132-4.646-2.201-6.902-.422-.89-1.12-1.646-1.601-2.513-3.248-5.845-6.61-6.845-12.509-3.673-.996.536-1.96 1.13-3.023 1.748-2.079-4.127-2.563-7.529 3.072-9.156"/><path fill="#181818" d="M504.735 253.489c-2.119 4.676-.192 7.257 3.693 8.95 3.004 1.31 6.076 2.464 9.117 3.687l-.356 1.336c-3.7-1.094-7.439-2.068-11.088-3.308-5.543-1.884-12.568 2.198-12.75 7.941-.055 1.765 1.71 3.588 2.643 5.383-5.303-.16-8.832 2.35-10.677 8.825-2.786 9.776 6.617 9.533 11.932 12.874-5.025 1.992-11.77-5.164-14.285 3.272-1.31 4.398.748 8.131 7.426 9.287-8.717 2.43-9.053 8.168-8.479 15.087.04.992.02 1.214.002 1.435-5.06-4.292-1.715-9.226-.725-13.76.444-2.034 1.304-3.474.211-5.74-.94-1.95-1.024-4.608-.68-6.828 1.062-6.848 1.272-14.217 4.124-20.299 3.473-7.402 9.308-13.694 14.097-20.483 1.882-2.668 3.699-5.38 5.795-7.66M270.301 343.236c-.486-.68-1.085-1.737-.902-2.634.964-4.714-.105-8.53-4.809-11.399 3.89-1.242 6.792-2.774 5.73-7.604-1.052-4.79-1.759-9.391-8.797-9.272 5.147-1.165 7.785-3.687 7.784-8.497 0-3.712-1.758-5.663-5.511-5.31-2.787.264-5.543.857-9.9 1.56 5.52-4.312 15.029-3.722 12.923-12.314-1.302-5.31-2.866-12.507-12.189-10.36 5.27-3.73 5.332-4.509 1.367-11.07.007-1 .043-1.27.08-1.54 4.48 6.927 8.97 13.848 13.42 20.795.342.533.706 1.36.53 1.868-2.712 7.827 4.265 15.616-.165 23.753-1.095 2.012 1.975 5.971 2.162 9.093.186 3.11-.846 6.294-1.475 10.276 0 3.43 0 7.89-.248 12.655"/><path fill="#202020" d="M482.04 328.551c-.108-.514-.09-.736-.04-1.29 1.675.32 3.32.973 5.094 1.676-6.397 5.686-6.475 12.172-.43 16.456-1.342 3.13-6.73 5.728-1.176 9.854.484.36-.623 2.645-.724 4.055-.217 3.033-1.273 6.615 2.773 6.866 0 3.03-.834 6.247.154 8.743 3.147 7.948 6.97 15.63 10.535 23.411.598 1.305 1.218 2.6 1.764 4.269-8.3-9.037-13.693-19.745-15.512-32.24-.823-5.65-2.27-11.207-3.428-16.807-.067-.324-.207-.714-.096-.982 3.217-7.766-2.888-16.007 1.086-24.01"/><path fill="#171717" d="M169.24 409.449c7.487 5.656 15.828 9.058 25.241 9.831 13.904 1.142 27.563.598 41.152-5.238.862.347 1.105.628 1.348.909-13.521 8.193-28.325 8.332-43.315 6.61-8.668-.996-16.67-4.1-23.687-9.435-.38-.29-.472-.957-.654-1.924.045-.476-.085-.753-.085-.753M516.264 413.873c22.11 8.017 43.926 9.438 65.502-2.908-2.663 2.168-5.416 5.088-8.791 6.363-19.339 7.31-38.586 7.503-57.552-2.393.202-.668.522-.865.841-1.062"/><path fill="#181818" d="M570.683 212.134c-4.834 12.492-14.808 17.469-27.317 18.921-5.401.627-10.773 1.707-16.067 2.965-2.043.485-3.833 2.034-6.617 3.589l9.221 6.874-.584.89c-3.58-1.213-7.158-2.426-10.802-4.06.015-6.356 3.954-9.165 8.919-10.275 5.639-1.26 11.5-1.487 17.215-2.456 10.1-1.714 18.536-6.118 23.742-15.458.334-.599 1.272-.86 2.29-.99"/><path fill="#171717" d="M255.948 264.487c.092.579.056.849-.038 1.522-3.37-2.86-6.84-3.55-11.284-1.418-3.326 1.594-7.185 2.075-10.806 3.052l-.37-1.182c3.217-1.244 6.56-2.242 9.613-3.805 2.634-1.347 6.35-2.51 4.552-6.867-1.46-3.534-7.036-5.552-10.438-4.028-3.813 1.709-7.661 3.339-11.494 5.003l-.482-1.115c2.798-1.629 5.738-3.06 8.35-4.946 2.294-1.656 4.473-3.727 2.585-7.442.004-.655.2-.902.698-1.183 2.237 3.872 5.081 6.789 9.245 8.794 1.971.949 3.149 3.639 4.565 5.627 1.79 2.513 3.455 5.115 5.304 7.988"/><path fill="#202020" d="M251.372 402.007c10.314-13.954 15.777-29.436 12-35.517 5.234-.922 4.049-4.651 3.764-8.18-.114-1.41.94-2.912.833-4.324-.215-2.843-.86-5.653-1.445-9.176.107-.029 1.394-.377 2.85-.253.677 2.876 1.61 5.284 1.589 7.683-.031 3.433-.489 6.921-1.24 10.279-2.926 13.079-6.058 26.118-14.614 36.965-.848 1.075-2.237 1.722-3.737 2.523"/><path fill="#1A1A1A" d="M514.406 224.152c-.624-.252-.879-.576-1.133-.9 6.962-4.526 13.91-9.073 20.904-13.549.714-.457 1.696-.493 4.028-1.122l-5.808 4.826c5.197 2.39 10.01 3.247 15.142.153 1.88-1.134 4.432-1.442 6.709-1.571 5.315-.302 9.194-2.548 11.969-7.691.87-.298 1.267-.299 1.664-.3-1.699 6.51-6.333 9.16-12.623 10.14-3.335.52-6.475 2.251-9.808 2.828-2.984.516-6.278.841-9.137.1-4.466-1.156-8.172-1.351-12.041 1.84-2.73 2.252-6.301 3.486-9.866 5.246"/><path fill="#202020" d="m235.743 177.898-4.921-5.131c-.104.08-1.098.86-2.277 1.782l-.436-6.653c-1.093 1.816-1.822 3.026-2.86 4.45-.61-.474-1.303-1.272-1.144-1.827.841-2.937 1.897-5.812 3.368-10.157 1.39 3.049 2.304 5.05 3.08 6.755 4.895-.083 2.51 5.122 4.9 6.969l3.61-2.29 1.15 7.44h5.242c-1.904 3.357-3.34 5.89-5.095 8.138.217-1.747.753-3.21.93-3.696-1.461-1.922-2.55-3.354-3.555-5.45.024-1.124-.035-1.583-.095-2.042z"/><path fill="#181818" d="M242.601 306.234c3.496 6.245 6.991 12.49 10.41 19.347-.328.874-.576 1.136-.97 1.073-.925-1.825-1.703-3.325-2.868-5.57-2.749 2.237-4.922 4.007-7.212 6.018-.39.458-.666.674-.941.89-3.499-3.954-6.998-7.908-10.297-12.454.454-.813.708-1.034 1.227-1.029 1.862.334 3.458.44 5.316.852-3.612 5.21 3.066 5.61 3.35 9l8.362-4.878-4.903-7.077c-2.816 1.046-4.922 1.829-7.318 2.33 1.214-1.515 2.882-2.608 4.148-4.052.566-.645.328-1.996.772-3.377.519-.591.721-.832.924-1.073"/><path fill="#1A1A1A" d="M593.354 399.099c-.382-.418-.706-1.134-.48-1.553 8.671-16.084 8.14-32.04-.446-48.375.362-.69.534-.969.624-1.299 11.037 15.067 11.288 36.006.302 51.227"/><path fill="#202020" d="M532.893 147.846h-9.088c5.168 3.4 10.096 6.09 14.297 9.642 2.072 1.751 4.585 6.026 3.795 7.537-2.207 4.221-5.985 7.642-9.351 11.18-.18.188-2.28-1.452-3.027-2.46 6.723.725 7.712-5.021 10.048-8.474.74-1.093-1.08-5.197-2.8-6.433-5.05-3.632-10.64-6.515-16.284-9.848 2.607-4.447 7.164-3.782 12.104-2.506.338.802.322 1.082.306 1.362"/><path fill="#1A1A1A" d="M158.16 351.562c-6.996 15.711-7.03 31.284.967 47.324-.014.792-.07.96-.124 1.127-11.76-16.278-10.462-33.011-1.372-49.72.426.612.478.94.53 1.27"/><path fill="#181818" d="M568.029 203.639c-.545.36-.942.361-1.637.361 1.715-7.204-.325-13.604-4.373-19.656 9.356.632 14.4 15.665 9.194 27.913-.672-.469-1.524-1.298-1.454-2.042.337-3.594 1.128-7.155 1.323-10.751.083-1.54-.891-3.136-2.125-4.446-.26 2.754-.52 5.508-.928 8.62"/><path fill="#1C1C1C" d="M525.575 168.571c-1.491 1.488-2.492 3.018-3.564 4.656l-1.795-1.357-1.885 6.52-4.136-2.344v6.008h-4.347c.885 1.704 1.558 2.998 2.174 4.665-3.635-1.05-4.128-2.075-3.753-7.619l3.518.261 1.05-7.559c1.556.96 2.672 1.647 3.879 2.39.753-4.195 2.84-7.113 6.72-9.171.341-.196.399-.32.399-.32.744 1.304 1.488 2.608 1.74 3.87"/><path fill="#222" d="M215.052 170.037c-4.356-.274-7.261-6.027-4.304-9.062 3.644-3.74 8.055-6.758 12.284-9.885 1.402-1.037 3.267-1.446 6.312-2.727-3.303-.415-5.167-.65-7.725-1.083-1.33-.506-1.962-.813-2.596-1.12 4.818-.997 9.59-1.816 12.702 3.006-4.995 2.701-10.165 4.972-14.75 8.103-6.411 4.377-6.438 6.084-1.923 12.768"/><path fill="#202020" d="M257.125 218.666c-7.256-2.526-12.618-7.243-15.318-14.717-1.123-3.108-2.155-6.308-3.76-9.169-1.772-3.16-1.631-5.59 1.66-7.763-.848 8.615 3.613 15.428 7.93 21.993 2.385 3.625 6.307 6.238 9.488 9.656"/><path fill="#181818" d="M557.999 341.988c-2.218 2.184-4.82 4.1-6.572 6.608-3.526 5.052-1.072 10.538 5.459 12.372.131-4.063-5.902-8.48.851-11.99-.903 3.161-1.56 6.133.667 9.264.645.907.539 3.542-.087 3.908-1.213.71-3.191.841-4.586.39-6.163-1.994-8.032-12.29-3.112-17.722 1.72-1.898 4.22-3.088 6.813-4.183.49.73.528 1.042.567 1.353"/><path fill="#1C1C1C" d="M511.62 187.421c3.634 1.082 4.392 3.267 2.622 6.605-1.375 2.595-2.443 5.388-3.355 8.188-2.492 7.65-7.369 13.048-15.095 16.005.898-1.504 1.965-3.081 3.438-4.03 8.006-5.162 9.67-14.102 13.116-21.935.49-1.115-.635-2.94-.726-4.833"/><path fill="#222" d="M373.114 388.367c.255-.837.517-1.287.817-2.011.527.552 1.016 1.377 1.53 2.245 4.445-10.883 11.81-13.577 22.444-11.875-12.744.859-21.344 6.194-22.487 20.05q-.538-1.862-1.072-3.725c-.41-1.432-.817-2.864-1.232-4.684"/><path fill="#292929" d="M502.91 346.801c-.397.303-.675.282-1.386-.151.786-4.324 2.005-8.235 3.335-12.499l-6.583-2.728-2.532 12.77-1.152-.127c.983-5.983 2.35-11.924 3.98-18.13.442.06.621.385.988 1.217-.346 5.435 4.555 3.19 6.02 5.622l4.34-5.922c.193.295.386.591.816 1.011-2.41 6.287-5.058 12.45-7.826 18.937"/><path fill="#C5C5C5" d="M192.754 414.027c-1.76-.168-3.519-.337-5.475-1.164-2.987-2.269-5.778-3.88-8.57-5.49l.319-.985 3.106-.373c2.375.642 4.75 1.285 7.586 2.344 3.748 1.132 7.034 1.848 10.51 2.824-.79.991-1.673 2.042-2.773 2.374-1.48.447-3.128.34-4.703.47"/><path fill="#292929" d="M252.186 326.979c.249-.262.497-.524.861-1.036 1.688 5.584 3.26 11.418 4.787 17.666-.302.441-.558.469-1.3.18-1.288-4.208-2.09-8.102-3.096-12.98-2.584 2.657-7.436 1.18-5.6 6.203-.244.244-.488.489-.839.974-2.007-2.947-3.907-6.134-5.894-9.658.19-.552.466-.768 1.144-1.019 1.559 1.72 2.714 3.473 4.183 5.703 1.591-2.72 7.26-.5 5.754-6.033"/><path fill="#181818" d="M592.967 347.55c-.005.652-.177.931-.645 1.286-6.907-7.878-16.151-8.746-26.092-9.225-.708-.642-.954-1.017-1.2-1.393 10.6-1.066 20.496.044 27.937 9.331"/><path fill="#222" d="M244.923 223.51c1.443 1.05 2.762 2.394 4.363 3.068 1.808.761 4.533 1.893 5.67 1.119 1.811-1.236 2.639-3.914 3.953-6.374.395 1.6 1.616 4.824.88 5.36-2.606 1.898-5.831 3.771-8.917 3.943-2.851.158-5.825-1.88-8.591-3.361.342-.45.53-.49 1.07-.435.646-.546.943-1.189 1.269-2.216.12-.623.212-.863.303-1.103"/><path fill="#181818" d="M230.524 315.257c-4.902-3.186-9.406-6.683-13.841-10.647.257-.639.447-.81.986-.852a170 170 0 0 1 4.64 2.659c2.214-2.984 4.106-5.533 6.33-7.762.55.533.77.747.752 1.223-4.965 6.48-4.888 7.507.621 12.601.6.555 1.117 1.2 1.673 1.803-.254.222-.508.443-1.16.975"/><path fill="#202020" d="M490.978 224.379c.654-.278 1.454-.41 1.879-.071 6.287 5.016 6.273 5.027 12.64.056.365-.285.815-.46 1.061-.597.637 1.142 1.21 2.171 2.114 3.217-6.344 6.062-13.603 5.154-17.694-2.605"/><path fill="#181818" d="M521.47 254.85c-1.336-.571-2.842-.914-3.979-1.756-4.25-3.148-8.107-2.37-12.221.864.275-1.288.602-3.378 1.62-3.799 3.63-1.501 6.113-3.815 7.673-7.373-.05 5.457 3.32 8.113 7.422 10.795-.18.79-.347 1.03-.515 1.27M196.427 360.89c1.82-1.899 3.641-3.798 5.503-6.075.662-.082 1.281.213 1.9.509-1.767 2.397-3.258 5.104-5.434 7.042-.896.798-3.264-.059-4.963-.163.116-1.535-.184-3.268.433-4.564 1.355-2.841 2.505-5.426-.232-8.25 5.051 2.514 5.07 2.64 1.574 10.023.32.902.77 1.19 1.22 1.479"/><path fill="#0E0E12" d="M436.974 375.927H400.48l.01-1.773c11.836 0 23.673 0 35.997.332.487.702.487 1.072.487 1.441"/><path fill="#171717" d="M181.844 339.564c-8.792.883-16.707 2.68-22.622 9.617.73-1.886 1.393-4.034 2.847-5.068 5.972-4.242 12.24-7.92 19.775-4.55"/><path fill="#181818" d="M170.038 348.433c5.712-6.5 15.765-6.527 23.96.298-2.035-.353-4.014-1.515-6.076-1.688-3.71-.31-7.472-.08-11.209.024-2.072.058-4.138.32-6.427.974-.22.486-.248.392-.248.392M558.341 349.389c5.12-6.87 15.143-7.736 21.642-1.81-1.648.072-3.296-.08-4.828-.585-5.99-1.976-11.42-.815-16.814 2.395"/><path fill="#292929" d="M533.2 147.953c-.29-.387-.275-.667-.236-1.367 4.097 1.198 8.14 2.903 12.268 4.372 1.011.36 2.297-.046 3.962-.254.868-.51 1.231-.867 1.594-1.224.116.641.232 1.283.608 2.012-.755 1.24-1.771 2.394-2.611 3.347a3759 3759 0 0 0-15.585-6.886"/><path fill="#989898" d="M162.898 392.28c-1.086-1.176-2.705-2.184-3.145-3.566-.862-2.706-1.066-5.621-1.242-8.467 4.797.767 4.879 4.926 6.216 8.439-.287.582-.466.793-.454.805.205.198.435.371.659.55 0 0 .16.467-.167.824a21 21 0 0 1-1.867 1.416"/><path fill="#292929" d="M565.428 411.317c1.661-1.199 3.323-2.397 4.454-4.12-.739-.74-.906-.984-1.032-1.255 2.135-.965 4.269-1.931 6.763-2.853.224 1.395.594 3.445-.138 3.976-2.682 1.942-5.73 3.38-9.181 4.816-.542-.191-.866-.564-.866-.564m6.68-5.115-.771.993.986.636c.169-.385.337-.77-.215-1.63"/><path fill="#222" d="M181.977 405.7c-.878.44-1.914.564-2.95.688l-.317.985c2.79 1.61 5.582 3.221 8.325 5.204-5.908-.755-10.617-3.61-13.895-9.135.32-.403.751-.452 1.766-.47.762-.015.942-.059 1.121-.103 1.931.838 3.862 1.676 5.95 2.83"/><path fill="#181818" d="M202.39 352.829c-2.932-3.625-5.44-6.976-8.11-11.047-.11-1.032-.059-1.342-.007-1.653 3.073 2.761 6.334 5.352 9.083 8.404.677.752-.316 3.006-.966 4.296"/><path fill="#989898" d="m592.026 387.563-2.386 6.189-1.202-.312a81 81 0 0 1-.33-3.954c.636-2.199 1.24-4.026 2.179-6.213 1.13-.346 1.925-.334 2.703.03-.003.821.01 1.29.023 1.758 0 0-.02-.064-.288.144-.411.925-.555 1.641-.699 2.358"/><path fill="#0E0E12" d="M550.407 415.598c-.397-.42-.414-.81-.482-1.899-.942-1.331-1.783-2.41-2.733-2.515-3.29-.367-6.618-.397-9.932-.554l1.219-1.032c4.473-.36 8.542-.373 13.038.062.44.735.452 1.02.463 1.306-.093.457-.186.914-.096 2.003.73.608 1.278.583 1.826.559 1.18-.16 2.36-.32 3.92-.225.38.255.482.713.482.713-2.442.537-4.883 1.074-7.705 1.582"/><path fill="#292929" d="M218.643 146.13c1.014.337 1.647.644 2.643 1.008-4.6 1.98-9.562 3.902-14.891 5.84 3.712-2.283 7.79-4.581 12.248-6.848"/><path fill="#130F14" d="M192.982 414.36c1.347-.463 2.995-.356 4.475-.803 1.1-.332 1.982-1.383 2.781-2.792-.201-.957-.222-1.235-.243-1.513 3.96-.02 7.92-.042 12.327-.019.487.302.527.56.165 1.281-2.815.507-5.277.29-7.622.717-1.045.19-1.854 1.678-2.77 2.577-.04.392-.079.785-.118 1.473-2.922.002-5.845-.293-8.995-.92"/><path fill="#222" d="M516.05 413.602c-.105.468-.425.665-.887 1.106-4.115-2.498-8.088-5.241-12.099-8.321 2.566 1.085 5.184 2.48 7.768 3.937 1.694.955 3.337 2.002 5.218 3.278M237.326 414.907c-.588-.237-.831-.518-1.332-.92 3.586-2.749 7.43-5.379 11.627-7.972-3.08 2.973-6.515 5.91-10.295 8.892"/><path fill="#484848" d="M437.433 376.012c-.459-.454-.459-.824-.484-1.475 5.686-.343 11.399-.404 17.787-.339.676.126 1.154.113 1.154.113-6 .595-12 1.19-18.457 1.7"/><path fill="#292929" d="M469.015 362.14c.463-.228.74-.216 1.432-.182-1.542 5.469-5.02 8.65-8.865 8.881 2.29-2.673 4.768-5.567 7.433-8.7"/><path fill="#C5C5C5" d="M162.918 392.56c.494-.632 1.007-.986 1.812-1.45.924.643 1.558 1.398 2.186 2.882.385.808.776.888 1.166.967 0 0-.078.039-.355.274.274.749.825 1.261 1.376 1.774 0 0-.096-.01-.095.227.314.387.627.536.94.685.054.457.108.915.185 1.717-1.252.052-2.527-.24-3.692-1.14-.426-1.238-.963-1.868-1.5-2.497 0 0 .061 0 .01-.375-.538-.463-1.025-.552-1.513-.64a52 52 0 0 1-.52-2.424"/><path fill="#1A1A1A" d="M609.497 228.063c-.737-1.046-1.118-2.088-1.5-3.491 2.132-.36 4.266-.36 6.399-.36l.28 1.512c-1.608.78-3.216 1.56-5.18 2.339"/><path fill="#1C1C1C" d="M143.61 224.12c-.101 1.331-.598 2.573-1.455 3.885-1.547-.5-2.764-1.018-3.904-1.671-.353-.202-.496-.772-1.16-1.89 2.348-.16 4.235-.287 6.518-.325"/><path fill="#DBDBDB" d="M160.38 360.985c-2.59-3.217-.11-3.975 2.512-5.005 2.5 2.432 1.78 3.939-2.511 5.005M169.086 409.113c.154.336.284.613.181.726-3.706.265-5.492-1.785-6.294-5.376 1.995 1.194 3.977 2.754 6.113 4.65M163.628 355.198c-.78-.812-1.206-1.659-1.632-2.506 1.592-.337 3.262-3.692 4.984.287-.84.839-1.919 1.512-3.352 2.22"/><path fill="#202020" d="M564.667 338.18c.609.414.855.789 1.205 1.364-2.312.899-4.727 1.598-7.508 2.371-.404-.238-.443-.55-.56-1.326 2.115-1.125 4.308-1.787 6.863-2.41M193.986 339.97c.235.47.183.78.073 1.56-2.467-.215-4.876-.898-7.556-1.884-.025-.677.222-1.052.468-1.426 2.243.53 4.485 1.06 7.015 1.75"/><path fill="#484848" d="M552.392 410.96c-.423-.28-.435-.565-.414-1.277 2.978-.74 5.926-1.052 9.101-1.049-2.606.985-5.44 1.653-8.687 2.327M199.65 409.123c.366.407.387.685.399 1.382-3.295-.298-6.581-1.014-9.942-2.108 3.016-.053 6.107.273 9.543.726"/><path fill="#C5C5C5" d="M587 393.999s.044.345-.022.859c-.027.74.011.967.05 1.194 0 0-.028-.051-.397.122-.444.906-.52 1.64-.595 2.373-1.173.488-2.347.975-3.854 1.448-.297-.473-.259-.93.113-1.733.448-.684.563-1.024.677-1.363 0 0 .016.093.358.009.43-.714.516-1.342.603-1.97 0 0 .065.06.355.23.43-.276.571-.722.712-1.168.191-.033.383-.066 1.075-.11.5-.011.925.109.925.109"/><path fill="#DBDBDB" d="M203.163 151.52c-.8.424-1.62.454-2.854.485-.023-1.622.365-3.245.753-4.868l1.494.138c.195 1.284.39 2.569.607 4.246M159.034 400.348c.024-.502.079-.67.197-1.094 1.264 1.177 2.466 2.61 3.67 4.386-1.276-.758-2.556-1.857-3.867-3.292"/><path fill="#202020" d="M224.288 173.452c-2.152 3.047-4.589 5.009-6.663.293 2.43-.457 4.408-.619 6.663-.293"/><path fill="#DBDBDB" d="M243 226.734c-.189.04-.377.08-.847.184-1.465-.403-2.648-.868-3.99-1.616-.122-.454-.087-.625.008-1.05 1.465.143 2.87.54 4.552.842.276-.095.285-.086.282.202z"/><path fill="#484848" d="M160.157 370.05c-.2-1.874-.4-3.747-.2-5.781.4-.16.81-.225.81-.225.198 1.768.396 3.537.21 5.652-.385.347-.82.354-.82.354"/><path fill="#C5C5C5" d="M590.723 362.071c.96.925 1.625 1.864 1.62 2.813-.926-.049-1.18-.107-1.433-.165-.16-.878-.32-1.755-.187-2.648"/><path fill="#484848" d="M160.675 378.775c-.396-.418-.46-.82-.626-1.884-.04-1.426.026-2.192.295-2.95.205.008.613.045.613.045.017 1.6.034 3.202-.282 4.789M590.612 364.924c.551-.147.805-.089 1.448.005.226 1.439.063 2.84-.378 4.681-.279.439-.706.38-.706.38-.221-1.62-.442-3.24-.364-5.066M591.91 373.967c-.163 1.502-.326 3.003-.916 4.824-.425.32-.752.268-.752.268.176-1.46.353-2.918.88-4.732.35-.355.788-.36.788-.36"/><path fill="#171717" d="M590.143 379.438c.099-.379.426-.327.58-.389 1.139.69 2.124 1.442 2.87 2.634-.517.648-.633.925-.587 1.27-.794-.014-1.589-.026-2.662-.033-.285-1.03-.292-2.067-.2-3.482M186.524 338.112c.2.482-.046.857-.395 1.43-.999.267-1.895.335-3.238.451-1.092-3.934 1.995-1.274 3.633-1.881"/><path fill="#DBDBDB" d="M583.103 352.271c.473-.653 1.065-1.046 1.657-1.44.21.964.422 1.928.383 3.06-.805-.341-1.362-.85-2.04-1.62"/><path fill="#C5C5C5" d="M568.507 405.937c.47.276.636.52.98.905-.76.504-1.654.836-3.04 1.141.244-.701.98-1.377 2.06-2.046"/><path fill="#171717" d="M161.046 373.593c-.09.393-.497.356-.8.316-.301-.039-.407.136-.356-.13-.256-.376-.563-.488-1.109-.677a4.7 4.7 0 0 0-.737-.12s-.14-.432.04-.81c.18-.376.545-.681.545-.681.461-.314.923-.628 1.456-1.191.072-.25.507-.257.723-.283.253 1.044.29 2.113.238 3.576M592.106 373.726c-.196.241-.634.246-.853.254-.286-1.06-.355-2.128-.35-3.592.073-.397.5-.34.716-.337.56.503.904 1.004 1.682 1.62.433.117.799.415.799.415-.6.466-1.198.932-1.994 1.64"/><path fill="#DBDBDB" d="M550.87 149.11c-.445.727-.808 1.084-1.426 1.359-.027-1.058.203-2.035.432-3.011.359.428.718.855.994 1.653"/><path fill="#181818" d="M216.441 304.366c-1.076-.266-1.842-.756-2.806-1.437 0-.434.2-.677.97-1.12 1.284.473 1.999 1.147 2.714 1.82-.19.171-.379.342-.878.737"/><path fill="#1C1C1C" d="M147.34 223.306c.509.084 1.276.501 2.044.918-.619.168-1.237.335-2.058.307-.044-.428.114-.66.014-1.225"/><path fill="#C5C5C5" d="M161.086 364.005c-.32.039-.728.104-.909.003.089-.543.357-.983.746-1.65.648.007 1.176.241 1.703.476-.407.377-.814.755-1.54 1.17"/><path fill="#202020" d="M523.685 164.624c.15.077.092.201.056.205-.175-.22-.313-.443-.452-.666.082.128.164.255.396.46"/><path fill="#222" d="M258.785 220.902c-.258-.47-.773-1.102-1.583-1.842.246.488.786 1.083 1.583 1.842"/><path fill="#DBDBDB" d="M175.996 402.632c-.148.281-.328.325-.77.278-.078-.49.105-.889.288-1.287.15.257.301.514.482 1.009"/><path fill="#C5C5C5" d="M565.64 407.902c-.254.228-.843.412-1.56.326.323-.303.773-.336 1.56-.326"/><path fill="#292929" d="M583.6 395.084c.246.482.16 1.11-.317 1.83-.265-.501-.14-1.092.317-1.83M169.34 396.721c-.788-.227-1.339-.74-1.581-1.518.811.234 1.314.733 1.58 1.518"/><path fill="#171717" d="M158.474 351.28c-.365-.046-.417-.375-.55-1.195.11-.818.299-1.143.742-1.309.21.848.166 1.535-.192 2.505"/><path fill="#DBDBDB" d="M170.04 348.875c-.002-.442.027-.348.025-.396.187.657.376 1.362.269 2.338-.295-.319-.293-.91-.294-1.942"/><path fill="#FBFBFB" d="M455.915 374.033c-.025.278-.503.29-.708.17-.075-.518.056-.914.187-1.31.182.288.364.575.52 1.14M459.235 373.01c.17-.113.344-.057.517-.002-.172.057-.343.114-.517.003"/><path fill="#181818" d="M516.04 240.972c.196.716-.011 1.48-.672 2.11-.213-.776.028-1.42.672-2.11"/><path fill="#292929" d="M168.042 394.674c-.35.206-.74.126-1.09-.34.377-.24.713-.092 1.09.34"/><path fill="#FBFBFB" d="M282.397 151.88c-.096-.218-.02-.544.328-.827.195.31.053.537-.328.828"/><path fill="#C5C5C5" d="M164.918 389.771c-.21.091-.44-.082-.645-.28-.012-.012.167-.223.46-.435.192.086.182.266.185.715"/><path fill="#989898" d="M586.9 393.888c.1.11-.325-.01-.536.045s-.125-.236-.07-.375c.24-.064.391.055.607.33"/><path fill="#292929" d="M584.714 394.01c.145.436.005.882-.465 1.137-.16-.503.01-.815.465-1.137M169.953 397.594c-.318.176-.631.027-.939-.408.319-.163.631-.04.939.408M582.66 396.799c.198.44.083.779-.322 1.121-.19-.405-.09-.813.322-1.121"/><path fill="#C5C5C5" d="M562.671 408.137c.002.195-.27.47-.843.786-.01-.207.28-.457.843-.786"/><path fill="#222" d="M531.051 191.955c.863.803 2.583 1.842 2.439 2.368-.613 2.225-1.26 5.348-2.88 6.152-1.896.94-5.41.603-7.112-.668-1.416-1.057-2.2-4.597-1.565-6.459 1.928-5.653 14.564-8.462 20.402-4.332-3.646 0-6.677-.079-9.694.095-.393.023-.71 1.345-1.693 2.543-1.247.238-2.026-.365-2.455-.176-1.803.797-3.892 1.506-5.07 2.92-.558.67.249 3.485 1.242 4.185 1.208.851 3.952 1.252 4.794.487 1.251-1.138 1.488-3.45 2-5.305.144-.526-.257-1.203-.408-1.81"/><path fill="#C5C5C5" d="M513.354 402.957c-.165-1.353-.319-2.741-.473-4.129l.742-1.096c2.118 1.913 4.156 3.925 6.375 5.713 2.378 1.916 4.924 3.62 8.091 5.922-4.162 1.921-6.04-1.242-8.824-2.378-.377.07-.336.021-.27-.271-.311-.431-.687-.57-1.064-.708 0 0 .07-.01-.003-.37-1.545-1.111-3.017-1.86-4.49-2.61 0 0-.072-.108-.084-.073"/><path fill="#181818" d="M535.984 248.782c-2.49-1.023-4.627-1.926-6.764-2.829l.593-1.553 10.144 3.603-.155 1.057c-1.155-.052-2.31-.105-3.818-.278"/><path fill="#202020" d="M513.655 403.34c1.256.44 2.728 1.189 4.276 2.334-1.303-.41-2.681-1.217-4.276-2.334"/><path fill="#181818" d="M522.253 253.792c1.395.224 2.51.785 3.624 1.346l-.285 1.02a72 72 0 0 1-3.83-1.143c-.124-.404.043-.644.491-1.223"/><path fill="#D0D0D0" d="M594.191 375.18c.557-.303 1.052-.304 1.547-.304l-.428 1.65c-.393-.347-.787-.695-1.119-1.346"/><path fill="#C5C5C5" d="M558.434 413.99c-.322.026-.424-.432-.445-.666.69-.625 1.4-1.015 2.11-1.406l.462.683c-.602.455-1.203.91-2.127 1.39"/><path fill="#484848" d="M592.99 383.304c-.03-.696.086-.973.584-1.264.192.876.165 1.836-.211 2.908-.363-.356-.376-.824-.373-1.644"/><path fill="#171717" d="M593.555 371.635c.118-.886.415-1.62 1.159-3.453 0 1.95 0 2.77-.307 3.746-.307.158-.673-.14-.852-.293"/><path fill="#292929" d="M565.908 411.882c-.478.36-1.112.527-1.745.695.215-.366.43-.733.955-1.18.31-.08.634.293.79.485"/><path fill="#484848" d="M586.376 398.317c-.264-.503-.189-1.237.285-2.145.283.522.169 1.219-.285 2.145M592.385 387.403c-.215-.557-.071-1.273.372-2.209.195.537.09 1.293-.372 2.209"/><path fill="#C5C5C5" d="M553.295 413.358c-.133.194-.681.219-1.26-.058.262-.238.554-.174 1.26.058M562.463 413.417c.092-.06.131.176.131.176s-.224-.117-.131-.176"/><path fill="#484848" d="M587.438 396.115c-.449-.29-.487-.517-.5-1.088.32.154.615.653.5 1.088"/><path fill="#202020" d="M517.762 406.396c.546-.248.922-.109 1.25.348-.504.225-.962.132-1.25-.348"/><path fill="#222" d="M227.023 201.092c-2.913-.81-6.69-1.05-7.707-2.848-1.16-2.055.136-5.498.419-8.997h-10.068c5.61-4.729 19.332-1.387 20.6 4.702.428 2.053-1.848 4.669-3.244 7.143m-6.985-5.543c.465 3.158 2.42 4.926 5.405 4.027 1.45-.436 3.081-2.563 3.282-4.101.148-1.133-2.08-3.74-2.917-3.606-2.006.321-3.816 1.87-5.77 3.68"/><path fill="#C5C5C5" d="M233.107 407.052c-2.617 1.143-5.252 2.258-7.886 3.373l-.338-1.098c3.927-3.58 7.827-7.191 11.818-10.7.44-.387 1.394-.19 2.11-.264-.306 1.282-.612 2.563-.53 4.228.389.384.379.4-.104.07-.71.25-.936.83-1.164 1.409 0 0-.009-.065-.382-.26-.448.29-.525.772-.601 1.254 0 0-.03-.063-.266-.358-.747.258-1.258.811-1.77 1.365 0 0 .007-.069-.282-.07-.418.352-.547.707-.675 1.061 0 0 .053-.037.07-.01"/><path fill="#181818" d="M228.402 291.74c2.596 1.827 4.8 3.98 6.796 6.742-.467.843-.725 1.077-1.284 1.102-1.63-.128-2.957-.048-4.286.032-.22-.214-.44-.428-.76-1.17.545-.97 1.188-1.411 2.672-2.427l-4.284-3.268c.251-.228.503-.456 1.146-1.01M235.39 298.757c2.553 2.09 4.705 4.515 7.033 7.209-.025.51-.227.75-.986 1.114-2.778-2.347-5-4.817-7.222-7.287.258-.234.516-.468 1.176-1.036"/><path fill="#DBDBDB" d="M207.387 201.995c-.325-.968-.682-1.63-1.04-2.29l.79-.726c.932 1.005 1.963 1.943 2.711 3.07.154.232-.75 1.166-1.165 1.777-.443-.508-.886-1.016-1.296-1.831M157.73 373.144c.48-.147.647-.133 1.146.138.5.48.71.648.963.763 0 0 .106-.175.203-.143.033.797-.032 1.563-.13 2.714-2.524.267-5.745.635-2.183-3.472M168.754 348.952c-.958.565-1.82.82-2.683 1.074l-.006-1.578c.928.064 1.856.128 2.689.504M189.321 183.86c-.469.107-.641.084-1.068.002.606-1.062 1.466-2.066 2.326-3.07l1.1 1.045c-.687.631-1.374 1.262-2.358 2.023M244.893 223.22c-.061.53-.152.77-.537 1.396-.645.388-.996.39-1.348.392l-.015-.015q.264-1.623.537-3.237c.445.39.889.782 1.363 1.464M220.584 258.443c.361-.802.921-1.414 1.482-2.026l.747.767c-.677.484-1.353.967-2.229 1.26"/><path fill="#181818" d="M166.007 250.817c.247-.242.495-.484.985-.828.884.209 1.527.52 2.368 1.021.047.402-.104.613-.782 1.01-1.21-.276-1.89-.74-2.571-1.203"/><path fill="#DBDBDB" d="M245.336 280.008c.508-.203.978-.128 1.449-.053l-.22 1.249c-.421-.306-.843-.612-1.229-1.196M208.459 195.405c.508.274.76.66 1.013 1.047l-1.226.394c-.014-.443-.029-.886.213-1.441M203.613 155.045c-.4.244-.797.242-1.192.212-.011 0 .001-.309.003-.474.397.004.794.009 1.189.262M212.36 206.894c.278.274.393.68.45 1.094.01.07-.224.175-.346.264-.096-.407-.192-.815-.105-1.358M188.983 160.778c-.632-.147-1.223-.666-2.173-1.5.915-.065 1.453-.104 2.146.12.126.511.097.76.027 1.38M236.207 177.96c.169-.632.801-1.203 1.433-1.774.06.46.12.918.07 1.666-.42.25-.73.21-1.503.108M174.926 161.155c-.902-.112-1.264-.341-1.626-.57.94-.094 1.88-.188 3.035-.02-.147.332-.508.403-1.409.59M209.447 205.746c.414.13.679.413.944.696-.112.09-.306.268-.322.253-.27-.252-.519-.527-.622-.95M155.051 179.967c-.455-.331-.742-.966-1.03-1.6.6-.007 1.201-.015 2.054.236-.118.526-.487.794-1.024 1.364M248.845 280.135c-.08-.385-.008-.619.065-.853l.79.781c-.234.075-.468.149-.855.072M138.78 234.841c-.265.459-.811.731-1.358 1.004-.028-.629-.056-1.258.156-2.118.467.154.693.541 1.201 1.114M243.258 280.646c.173.311.132.664.09 1.016l-.733-.263c.143-.238.287-.475.643-.753"/><path fill="#171717" d="M158.078 371.946c-.507-.747-.828-1.644-1.15-2.54l.855-.28c.18.588.362 1.176.694 2.064.152.3-.214.606-.4.756"/><path fill="#DBDBDB" d="M260.276 312.399c-.126.16-.345.183-.564.206.158-.115.315-.229.564-.206"/><path fill="#202020" d="M234.27 406.372c.236-.855.747-1.408 1.518-1.64-.242.86-.742 1.4-1.518 1.64"/><path fill="#484848" d="M164.686 396.33c.792.298 1.33.928 1.572 1.888-.806-.3-1.315-.928-1.572-1.888"/><path fill="#DBDBDB" d="m252.041 277.944.365 1.377c-.137-.265-.274-.531-.412-1.06 0-.262.047-.317.047-.317"/><path fill="#484848" d="M163.586 395.356c.34-.284.827-.195 1.358.298-.375.295-.793.185-1.358-.298"/><path fill="#DBDBDB" d="M251.965 278.023a3 3 0 0 1-.348-.467.96.96 0 0 1 .353.257c.071.13.023.186-.005.21M224.467 257.448c.056-.034-.056.034 0 0M177.19 161.281c.196-.13.574-.029 1.12.321-.2.136-.569.022-1.12-.32"/><path fill="#202020" d="M237.352 404.053c-.111-.562.116-1.141.783-1.38.145.681-.15 1.023-.783 1.38M236.337 405.072c-.23-.49-.154-.973.325-1.249.262.557.123.907-.325 1.25M233.425 407.224c-.26-.516-.131-.87.321-1.218.238.464.153.922-.32 1.218"/><path fill="#171795" d="M299.844 194.78c-.967-1.999-1.819-3.822-3.101-5.261-5.829-6.54-6.405-16.546-.868-22.8 4.656-5.26 13.722-9.558 22.802-2.694 2.634 1.99 5.242 4.016 8.173 6.265 10.918-12.281 21.878-11.021 32.354.027 17.542-11.809 17.542-11.809 33.974-.089 1.648-1.343 3.437-2.756 5.176-4.23 7.105-6.017 14.576-6.462 21.643-.382 4.287 3.689 7.37 3.587 11.498-.1 4.739-4.232 10.186-6.644 16.918-3.929 12.659 5.105 15.964 18.801 6.549 28.771-2.288 2.423-2.775 4.331-.536 6.831.886.99 1.645 2.092 2.455 3.149 5.526 7.219 5.598 13.662.185 20.996-1.573 2.132-3.252 4.185-5.025 6.457 1.855 2.42 3.71 4.739 5.457 7.136 5.988 8.218 4.296 18.443-4.105 24.12-1.119.755-2.794.96-4.211.961q-72.98.071-145.96.022c-6.427-.004-13.907-10.957-11.609-17.88 1.419-4.272 4.662-7.912 6.788-11.99.664-1.273 1.072-3.572.384-4.523-10.346-14.307-10.348-15.859 1.06-30.857m59.13 42.814c15.15 9.83 34.66 6.154 45.133-8.476 8.549-11.944 6.9-32.57-.902-37.764-2.844 13.394-6.853 26.789-22.895 28.359-20.308 1.987-27.146-11.795-28.968-30.242-13.022 19.291-6.355 36.065 7.632 48.123"/><path fill="#D22E12" d="M326.161 355.947c-2.08 1.333-3.831 2.569-5.48 3.928-6.645 5.476-15.826 5.248-22.389-.6-6.534-5.823-7.695-14.876-2.81-22.096a34 34 0 0 1 2.124-2.776c2.642-3.16 2.73-5.927-.303-9.172-2.08-2.224-3.689-5.172-4.666-8.08-1.617-4.812-.902-9.547 2.455-13.626 1.901-2.31 3.83-4.598 5.986-7.185-1.825-2.275-3.774-4.488-5.482-6.873-6.097-8.513-4.06-19.754 4.685-25.446 1.13-.736 2.824-.838 4.258-.84 48.137-.066 96.275-.1 144.412-.094 7.359 0 15.024 11.62 12.205 19.36-1.776 4.879-5.095 9.196-8.215 14.622 12.346 10.644 11.694 22.088-1.11 32.74 11.05 13.252 12.281 20.091 5.289 27.455-9.017 9.495-13.79 8.989-31.323-3.697-9.67 11.81-20.394 16.2-32.273 1.712-11.488 10.23-22.766 14.348-32.957-1.159-2.524 2.193-4.487 3.946-6.5 5.64-7.69 6.471-14.641 6.238-22.227-.524-1.536-1.369-3.522-2.233-5.679-3.29m94.696-27.832c3.446 1.723 7.603 4.933 10.229.103 2.506-4.61-2.138-6.75-5.89-9.339l-6.984-4.429c2.226-1.331 4.319-2.584 6.95-4.058.781-.582 1.563-1.164 3.011-2.008.55-.368 1.453-.635 1.59-1.12.665-2.33 2.135-5.097 1.425-7.004-1.185-3.185-4.403-2.331-6.834-.989-2.73 1.507-5.258 3.378-8.496 5.372-1.223.588-2.445 1.176-3.79.884.28-3.314.56-6.628.779-10.788.02-3.364-.654-7.029-4.376-7.333-4.12-.336-4.59 3.814-5.033 6.839-.534 3.65-.432 7.393-.607 11.12-4.231-2.067-7.958-4.328-11.992-5.65-1.72-.564-4.082.834-6.152 1.341.6 1.855 1.202 3.71 2.04 5.911.183.222.4.402 1.022 1.113l10.125 6.302c-3.018 2.262-6.253 4.686-9.836 7.352-.223.186-.405.406-1.13 1.088l-1.233 6.269c2.304.178 4.705.836 6.882.393 2.007-.408 3.789-1.973 5.642-3.076 1.45-.862 2.857-1.797 4.428-2.79.507 5.061.574 9.416 1.544 13.56.374 1.595 2.798 3.748 4.292 3.751 1.495.003 3.857-2.12 4.312-3.74.924-3.287.9-6.86 1.103-10.324.106-1.802-.155-3.65 2.943-1.733 1.184.826 2.368 1.653 4.036 2.983m-57.566-6.317c-1.559-1.132-3.118-2.264-5.145-3.88l-5.525-3.28c3.91-2.5 7.963-4.696 11.52-7.518 2.167-1.719 4.505-4.314.84-7.12 0 0-.043.085-.133-.64-2.145-.01-4.58-.68-6.376.107-3.577 1.566-6.803 3.932-10.634 6.246 0-3.334.372-6.333-.118-9.184-.388-2.263-1.83-4.345-2.741-6.542 0 0-.038.06.356-.613-3.294-3.155-6.182-2.132-7.12 2.893-.772 4.132-.92 8.38-1.339 12.519-1.917-.294-3.454-.53-4.933-.795 0 0 .007.065.345-.61-3.104-1.09-6.208-2.18-10.035-3.317-3.997 1.705-.992 4.568-1.046 7.586l10.651 6.527c-3.494 3.018-7.3 6.306-11.639 10.049-.062 1.65-.807 4.092-.026 4.765 1.192 1.03 3.758 1.601 5.173 1.01 3.233-1.354 6.122-3.53 9.791-5.65 2.339-2.108 3.059.116 4.12 2.22-.089 1.75-.178 3.5-.052 6.027-.112.637-.098 1.33-.357 1.9-1.51 3.32.061 5.88 2.931 6.418 1.529.286 4.322-1.846 5.202-3.57 1.019-1.998.402-4.773.79-7.162.37-2.275 1.121-4.487 2.06-6.178 3.142 2.008 6.105 4.46 9.504 5.832 1.633.66 4.09-.722 6.174-1.18-.652-2.103-1.304-4.206-2.238-6.86"/><path fill="#D6D6D6" d="M430.191 434.709c-12.302-1.135-24.202-2.931-36.114-3.015-21.784-.153-43.59.38-65.353 1.365-5.766.261-11.489 2.998-17.093 4.988-9.51 3.378-10.353 3.078-13.266-6.58-.574-1.902-1.049-3.833-1.635-5.996 11.6-7.614 24.21-12.254 38.065-13.379 27.272-2.215 54.55-1.829 81.818.044 12.9.886 25.064 4.621 37.36 10.7-1.493 4.45-3.068 9.267-4.729 14.055-.93 2.684-2.71 3.51-5.484 2.48-4.355-1.614-8.778-3.044-13.569-4.662m-94.797-5.916c-.11-.314-.222-.627-.33-1.65-.648-1.087-1.298-2.174-1.993-3.892l.215-3.71c-2.694.687-6.403.596-7.214 2.084-1.19 2.182-.307 5.495-.307 8.327l1.874-.169-.392-5.203c1.905 0 3.504 0 5.458.632.763 1.225 1.526 2.45 2.689 3.58m11.876-2.014-5.487-11.392-1.555.53-3.552 12.704c4.236-4.855 5.006-4.927 9.587-.73.177.162.818-.181 1.007-1.112m44.59-5.523v6.564l1.03.09 1.251-5.901 5.595.37.651 5.726 1.18-.057v-11.918l-.576-.097-1.406 4.63-5.386-.6-.74-5.077-1.572.144c0 1.753 0 3.506-.028 6.126m-23.642 3.891c4.032-3.545 6.03.002 9.104 2.088l-4.972-12.824-2.181.208c-.776 3.598-1.551 7.195-1.95 10.528m9.992-5.248c.267 7.143 2.326 9.001 6.867 7.799-1.47-2.02-4.483-4.366-4.533-6.774-.042-2.054 3.323-4.178 5.164-6.25-3.12-.971-5.874.29-7.498 5.225m-21.563 2.216h7.288l.1-1.415-7.71-.928-1.156-4.664-.544.19v12.647l1.138-.016c.1-1.72.2-3.441.884-5.814m61.57 3.593c2.497-7.18 1.982-8.782-2.354-8.862l.694 11.624.817.051c.228-.689.456-1.378.842-2.813m-8.822.008 1.69 1.888 1.001-.38-.74-6.099-1.783.011c-.145 1.283-.29 2.565-.168 4.58"/><path fill="#DBDBDB" d="M292.415 431.094c-13.106 5.406-25.9 10.48-38.387 16.223-4.731 2.176-6.795 1.498-8.98-3.16-4.56-9.73-4.66-10.446 4.755-15.299 15.365-7.92 30.86-15.578 48.23-18.19 1.892-.285 3.837-.216 6.345-.34-3.093 3.474-6.107 6.068-8.035 9.31-1.235 2.076-1.504 5.227-1.043 7.677.495 2.623.384 3.77-2.885 3.779M494.96 446.146c-6.798-3.19-13.173-6.404-19.71-9.245-6.53-2.838-13.223-5.302-20.449-8.17 3.567-7.948.43-13.512-7.573-17.044l1.066-1.471c4.89.934 10.058 1.156 14.619 2.934 13.874 5.41 27.631 11.164 41.193 17.315 6.135 2.782 6.262 4.585 3.393 10.596-.214.448-.44.891-.66 1.336-3.766 7.589-3.766 7.589-11.879 3.749"/><path fill="#D0D0D0" d="m298.812 419.823 7.913-7.815 2.823 4.397c-3.366 1.455-6.378 2.757-9.883 3.957-.613-.248-.733-.393-.853-.54"/><path fill="#C5C5C5" d="M448.675 418.182c-2.166-1.588-6.297-.841-5.21-5.914l9.202 5.82-.37.812a89 89 0 0 1-3.622-.718"/><path fill="#D0D0D0" d="M299.324 420.5c-.223.036-.596-.168-.741-.524.349-.007.469.138.74.524"/><path fill="#FEFCFC" d="M375.17 91.669c-3.989-6.362-4.024-12.992-2.57-19.57 1.87-8.45 8.02-12.602 16.887-12.08 7.95.467 13.66 6.055 14.51 14.39.252 2.465.235 4.979.104 7.458-.36 6.823-3.055 12.452-9.781 14.806-7.101 2.485-13.78 1.517-19.15-5.004"/><path fill="#DBDBDB" d="M594.005 257.262c10.07-2.73 20.139-5.46 30.735-8.12.528.072.942.335.942.335l-6.082 9.125c4.16 8.158 4.16 8.158-1.15 11.327l4.048 3.355-.156.807-7.983-1.86 4.499 7.855-7.924-1.416 3.218 8.016h-9.506c1.647 2.737 3.04 5.055 4.344 7.898-.211.66-.332.795-.452.93l-8.962-4.53 1.425 10.234c-5.354 2.11-6.258-4.18-10.831-5.967l2.013 9.497-.928.846-10.492-7.622 1.577 10.77c-4.158-2.943-7.115-5.036-10.254-7.256v8.392l-9.017-5.583.982 7.293-5.853-3.518-6.055 7.872-6.677-17.079c4.422-2.367 8.471-4.28 12.256-6.618 6.806-4.205 13.793-8.238 20.027-13.193 3.287-2.613 5.187-6.994 7.633-10.63 1.938-2.88 3.755-5.84 6.022-9.102 1.132-.91 1.866-1.484 2.6-2.058"/><path fill="#D9D9D9" d="M554.236 290.705c-1.243-4.13-2.419-7.914-3.156-11.78-.221-1.16.45-3.36 1.277-3.696 3.282-1.337 7.133-3.458 10.098-2.689 2.335.606 3.967 4.897 5.295 7.83.425.94-.734 3.354-1.837 4.09-3.65 2.433-7.604 4.41-11.677 6.245M537.292 287.58c4.679 8.842 2.699 13.293-7.6 18.79l-8.05-10.824c2.842-2.234 6.189-5.202 9.899-7.609 1.384-.898 3.617-.489 5.75-.357"/><path fill="#D7D7D7" d="M593.67 257.094c-.4.742-1.134 1.316-2.193 1.878-3.233 2.845-6.143 5.702-9.671 9.168l-7.52-6.173c3.917-3.824 6.845-7.788 10.731-10.225 6.265-3.927 7.885-4.432 10.41 2.899-.696.762-1.394 1.524-1.757 2.453"/><path fill="#D6D6D6" d="M567.901 276.09c-4.44-6.542-3.942-7.64 5.33-12.31l9.614 7.688c-3.274 2.772-6.24 5.775-9.685 8.056-3.14 2.08-3.448-1.884-5.259-3.434M526.34 307.021c-2.461 3.285-5.06 6.193-7.761 9.216l-9.266-6.894c2.364-2.638 4.637-5.276 7.02-7.811 3.637-3.873 6.046-3.484 8.522 1.372.597 1.171.907 2.49 1.485 4.117"/><path fill="#D4D4D4" d="M541.06 289.329c-1.06-1.882-2.049-3.374-3.524-5.602l10.61-5.507 3.799 14.451-10.075 6.016c-.286-3.478-.511-6.224-.81-9.358"/><path fill="#D7D7D7" d="M514.25 315.819c.544 1.248 1.324 2.605.931 3.278-1.058 1.814-2.616 3.336-4.061 5.077l-7.976-4.6 5.06-7.75c2.165 1.428 3.956 2.61 6.046 3.995"/><path fill="#D4D4D4" d="M509.823 326.532c-1.24 2.146-2.578 3.972-4.243 6.243-1.465-2.432-6.366-.187-5.797-5.454.826-1.92 1.617-3.5 2.794-5.852 2.518 1.671 4.833 3.207 7.246 5.063"/><path fill="#FEFEFE" d="M575.776 308.256c.049.373-.138.504-.324.635.03-.293.06-.586.324-.635"/><path fill="#DBDBDB" d="M609.089 294.917c.366.089.542.371.718.654-.263.055-.527.11-1.03.054-.119-.246.002-.38.312-.708"/><path fill="#FEFEFE" d="M603.58 297.307c-.023-.235.198-.643.553-.814-.013.372-.161.506-.553.814"/><path fill="#DBDBDB" d="M625.083 249.053c.065-.357.314-.554.564-.75.072.236.145.473.126.942-.091.232-.505-.03-.69-.192"/><path fill="#FEFEFE" d="M566.568 311.308c-.028-.234.195-.64.56-.814-.009.37-.16.505-.56.814"/><path fill="#FDF3F2" d="M271.281 80.36c2.07-5.828 3.99-11.28 6.228-17.633 1.608 4.357 2.975 7.926 4.242 11.53 1.246 3.547 2.392 7.129 3.742 11.177h-15.588c.423-1.616.825-3.157 1.376-5.073"/><path fill="#DBDBDB" d="M127.093 248.898c10.02 2.731 20.039 5.462 30.51 8.174.45-.02.513.04.512.338.579.729 1.158 1.16 1.863 1.928 1.428 1.116 2.731 1.894 4.022 2.662l-.04-.03c2.745 8.872 6.251 17.025 16.072 20.51 2.111.75 3.447 3.452 5.48 4.702 4.658 2.862 9.546 5.347 14.303 8.052 7.549 4.29 7.265 1.775 4.106 10.531-1.11 3.078-2.48 6.062-4.115 10.014l-6.057-7.793-5.26 3.638-.596-6.754-7.86 5.042v-8.535l-9.078 6.524-1.043-.807 1.357-9.183-10.492 7.703-.958-.72 1.945-9.548-9.789 7.044-.967-1.208 1.494-10.522c-3.337 2.004-5.823 3.496-8.86 4.716-.679-.405-.808-.538-.937-.67l4.448-7.702h-9.48l3.345-8.203c-2.95.376-5.308.677-7.764.613 1.386-2.453 2.869-4.54 4.877-7.365l-8.425 2.185-.341-.695 4.185-3.524c-8.956-3.796-1.936-7.995-.927-11.557-2.227-2.95-4.236-5.612-6.071-8.759.173-.484.541-.8.541-.8"/><path fill="#D9D9D9" d="M184.716 278.917c.632-1.024 1.07-1.723 1.52-2.414 3.09-4.743 9.708-5.316 13.72-1.077.68.718 1.28 2.053 1.107 2.946-.836 4.307-1.948 8.56-3.168 13.694-4.312-2.64-8.051-4.471-11.171-7.051-1.38-1.141-1.504-3.8-2.008-6.098M226.974 292.565c1.637 1.22 2.992 2.253 4.566 3.454-1.484 1.016-2.127 1.457-3.002 2.106-2.123 2.759-4.015 5.308-6.23 8.292a170 170 0 0 0-4.639-2.659c-1.065-.802-1.78-1.476-2.751-2.301-2.649-3.07-3.142-10.879-.531-13.188 1.168-1.034 3.948-1.279 5.476-.638 2.5 1.049 4.576 3.113 7.111 4.934"/><path fill="#DBDBDB" d="M165.611 250.703c1.077.578 1.758 1.041 2.725 1.622 1.46 1.272 2.67 2.39 3.8 3.586 5.882 6.22 5.334 8.537-2.99 12.2-1.465-2.1-2.95-4.229-4.811-6.25-.375.11-.347.128-.137-.16-.963-1.616-2.137-2.945-3.764-4.409a18 18 0 0 0-2.318-.18l-.093-.09c-2.4-2.51-.943-5.32.755-6.525 1.413-1.003 4.238-.014 6.833.206"/><path fill="#D6D6D6" d="M184.964 265.969c2.616 4.392 1.346 7.845-1.816 11.683-2.193 2.66-3.829 2.833-6.015 1.023-2.71-2.242-5.147-4.814-7.77-7.307l9.395-7.59c1.698.858 3.708 1.874 5.985 2.55.267-.342.218-.334.221-.36"/><path fill="#D4D4D4" d="M201.878 286.609c.548-2.785 1.006-5.176 1.636-8.468l9.638 4.891-3.684 15.185-9.621-5.577c.674-1.96 1.307-3.798 2.03-6.031"/><path fill="#DBDBDB" d="M143.277 295.31c-.217.032-.618-.144-.796-.461.353-.01.482.122.796.461"/><path fill="#FEFEFE" d="M147.949 296.928c.086-.378.395-.554.705-.73.074.262.149.524.115 1.036-.272.132-.435.014-.82-.306M176.22 308.258c.265.047.299.339.332.631-.188-.128-.375-.257-.332-.63M184.951 310.927c.095-.372.419-.54.742-.706.074.256.149.512.107 1.015-.284.13-.452.013-.849-.31"/><path fill="#DBDBDB" d="M138.213 193.815a8.3 8.3 0 0 1-1.77-.591l2.308-1.156c-.048.578-.095 1.156-.538 1.747"/><path fill="#1C1C1C" d="M145.463 227.446c.06-.036-.06.036 0 0"/><path fill="#DBDBDB" d="M145.426 219.334c.298-.025.406.092.513.209-.235-.022-.47-.044-.513-.209M576.017 160.922c.309-.036.978.205 1.403.582-.51-.011-.776-.158-1.403-.582M562.984 159.968c.132-.387.466-.586.8-.785.057.273.113.545.004 1.065-.31.134-.456.021-.804-.28"/><path fill="#1A1A1A" d="M602.543 224.556c-.062.038.063-.038 0 0"/><path fill="#D0D0D0" d="M247.182 390.153c-2.164 2.713-4.12 5.131-6.074 7.55l-1.699-.65c.321-1.29.453-2.665.995-3.853 2.738-6 6.03-11.794 8.214-17.983 1.204-3.414 2.724-4.037 6.067-3.315-.544 6.79-3.167 12.662-7.503 18.25"/><path fill="#D7D7D7" d="M248.002 337.344c-2-5.354 2.852-3.878 5.436-6.535 1.006 4.878 1.808 8.772 2.713 13.024-1.19 1.759-2.484 3.16-4.217 5.037-1.512-4.493-2.64-7.843-3.932-11.526"/><path fill="#D0D0D0" d="M253.876 369.653c-1.28-1.022-2.849-1.987-2.86-2.97-.055-4.767.089-9.565.655-14.293.17-1.427 1.923-2.665 2.95-3.989q1.178.475 2.353.952c-.89 6.783-1.78 13.566-3.098 20.3"/><path fill="#C5C5C5" d="M202.495 413.927c.516-1.018 1.325-2.505 2.37-2.696 2.345-.427 4.807-.21 7.67-.327 2.9-.434 5.34-.892 7.804-1.101.794-.067 1.644.521 2.468.81-.574.819-1.093 2.301-1.73 2.354-6.05.498-12.12.754-18.582.96"/><path fill="#D4D4D4" d="M505.883 382.957c2.476 4.824 4.84 9.282 7.204 13.74l-1.926.9c-6.88-7.094-12.647-14.832-13.939-25.446 3.434-1.319 5.435-.596 6.134 3.414.42 2.409 1.584 4.688 2.527 7.392"/><path fill="#D7D7D7" d="M495.787 344.519c.752-4.337 1.547-8.349 2.489-13.096l6.583 2.728c-1.33 4.264-2.55 8.175-3.752 12.472-2.137.617-4.71 1.873-5.32-2.104"/><path fill="#D0D0D0" d="M500.678 369.147c-2.572.774-4.432.77-4.437-2.245-.01-5.792-.003-11.584-.003-19.113 1.891 1.913 3.94 3.002 4.067 4.283.557 5.59.555 11.235.373 17.075"/><path fill="#C5C5C5" d="M536.852 410.645c3.722.142 7.05.172 10.34.539.95.106 1.791 1.184 2.698 2.224-5.689.364-11.406.496-17.091.137-1.263-.08-2.417-1.89-3.621-2.902 1.455-.19 2.908-.494 4.367-.527.962-.021 1.932.35 3.307.529"/><path fill="#DBDBDB" d="M126.517 249.342c-.002-.22.203-.566.492-.678.084.234-.284.55-.492.678"/><path fill="#D6D6D6" d="M233.914 299.584c2.523 2.68 4.745 5.149 7.207 7.846.112 1.258.35 2.609-.216 3.254-1.266 1.444-2.934 2.537-4.163 4.057.274.285.263.316.263.316-1.597-.107-3.193-.214-5.055-.548-.82-.83-1.338-1.475-1.938-2.03-5.51-5.094-5.586-6.12-.621-12.601 1.566-.342 2.894-.422 4.523-.294"/><path fill="#D7D7D7" d="M237.03 315.022c2.123-.787 4.23-1.57 7.045-2.616l4.903 7.077-8.363 4.877c-.283-3.389-6.961-3.788-3.349-8.999-.26-.304-.25-.335-.235-.34"/><path fill="#D4D4D4" d="M252.04 326.654c1.652 5.858-4.017 3.639-5.608 6.358-1.469-2.23-2.624-3.984-4.068-5.944 1.887-1.977 4.06-3.747 6.809-5.984 1.165 2.245 1.943 3.745 2.867 5.57"/><path fill="#DBDBDB" d="M243.005 225.296c.355-.29.706-.292 1.321-.296-.032.641-.329 1.284-.976 1.83-.35-.48-.348-.863-.345-1.534M196.168 360.519c-.19.083-.64-.205-1.003-.746.305-.044.524.165 1.003.746M572.468 406.44c.192.622.024 1.006-.145 1.391l-.986-.636c.257-.331.514-.662 1.131-.756M159.89 373.78c-.304.15-.514-.018-.775-.42.212-.07.519.043.775.42"/><path fill="#C5C5C5" d="M531.026 191.976c.176.586.577 1.263.432 1.79-.511 1.854-.748 4.166-1.999 5.304-.842.765-3.586.364-4.794-.487-.993-.7-1.8-3.514-1.241-4.186 1.177-1.413 3.266-2.122 5.07-2.919.428-.19 1.207.414 2.186.56.36-.095.32-.042.346-.062M220.07 195.17c1.922-1.432 3.732-2.98 5.738-3.3.836-.135 3.065 2.472 2.917 3.605-.2 1.538-1.832 3.665-3.282 4.101-2.985.899-4.94-.87-5.372-4.406"/><path fill="#0E0E12" d="M358.675 237.39c-13.687-11.854-20.354-28.628-7.332-47.919 1.822 18.447 8.66 32.23 28.968 30.242 16.042-1.57 20.05-14.965 22.895-28.359 7.803 5.194 9.45 25.82.902 37.764-10.473 14.63-29.982 18.307-45.433 8.272m-7.992-13.72c9.69 16.223 27 21.277 41.718 12.178 13.016-8.046 19.159-27.7 12.028-38.485-4.582 17.18-11.458 24.549-24.506 25.574-18.386 1.445-27.177-8.852-30.015-26.112-5.356 9.286-4.13 17.81.775 26.845"/><path fill="#211405" d="m388.387 321.49 9.487-7.11c-3.08-1.916-6.602-4.108-10.07-6.781.198-.626.343-.772.807-.785 3.028 1.693 5.699 3.322 8.454 4.792 2.455 1.31 4.972 1.986 7.547-.175.155.76-.267 1.326-.13 1.666.67 1.647 1.107 3.885 2.38 4.634.99.582 3.577-.27 4.536-1.322.754-.826.71-3.678-.058-4.299-1.22-.988-3.328-.93-5.08-1.183-.651-.095-1.355.177-2.223-.04-3.17-5.69-12.344-10.38-18.243-9.097.53 1.37 1.023 2.646 1.299 4.139-.346.375-.474.533-.603.692l-1.803-5.566c2.07-.507 4.432-1.905 6.152-1.341 4.034 1.322 7.76 3.583 11.992 5.65.175-3.727.073-7.47.607-11.12.442-3.025.913-7.175 5.033-6.839 3.722.304 4.397 3.97 4.056 7.584-1.466-1.898-2.612-4.047-3.859-6.385-3.992 3.946-4.925 12.103-2.393 20.434l5.916-2.631c1.222-.589 2.444-1.177 4.164-1.66.636.257.776.408.728.841-1.95 2.306-6.27 3.507-2.2 7.626 2.873-1.146 5.859-2.337 9.059-3.287.37.39.526.538.682.686l-6.412 3.836c2.372 1.505 4.678 2.967 6.972 4.899-.153.625-.292.78-.767.826-3.382-1.71-6.427-3.31-9.404-4.876-4.692 4.73 1.011 5.843 2.059 8.607-.345.393-.475.557-.605.721-2.744-1.411-2.483.436-2.589 2.238-.204 3.465-.179 7.037-1.103 10.325-.455 1.62-2.817 3.742-4.312 3.739-1.494-.003-3.918-2.156-4.292-3.751-.97-4.144-1.037-8.499-1.544-13.56-1.57.993-2.978 1.928-4.428 2.79-1.853 1.103-3.635 2.668-5.642 3.076-2.177.443-4.578-.215-6.882-.393.411-2.09.822-4.18 1.728-6.241.646.175.796.322.8.812a97 97 0 0 0-.963 4.425c1.375.014 3.026.53 4.077-.048 3.594-1.972 6.99-4.308 10.437-6.544 2.9-1.882 2.334-3.848-.468-6.363-3.904 2.336-7.951 4.757-12.213 6.962a12 12 0 0 0-.686-.602m23.559 4.337-1.028-5.792-5.755.318c0 4.782-.29 9.398.143 13.945.173 1.813 1.945 3.474 2.988 5.204 1.191-1.771 2.915-3.4 3.436-5.35.621-2.327.213-4.93.216-8.325M320.75 323.77l11.108-9.594c-3.067-1.88-6.859-4.203-10.333-6.867 5.066 1.84 9.813 4.022 14.345 6.104 2.867-2.721 2.478-4.6-.251-6.343-1.346-.858-2.496-2.024-3.734-3.05 1.537.235 3.074.47 4.991.765.419-4.139.567-8.387 1.338-12.519.939-5.025 3.827-6.048 6.565-2.602-3.318-1.907-4.375.482-4.563 2.3-.567 5.472-.663 10.994-.95 16.648l6.84-.532-1.191-18.06c.974 2.163 2.417 4.245 2.805 6.508.49 2.851.118 5.85.118 9.184 3.831-2.314 7.057-4.68 10.634-6.246 1.797-.787 4.23-.118 6.082.519-4.388.033-14.8 5.17-16.692 9.082-.481.997.43 2.667.83 4.676 3.952-1.883 7.153-3.205 10.149-4.889 3.385-1.903 6.726-4.037 6.053-8.817 3.752 2.768 1.414 5.363-.753 7.082-3.557 2.822-7.61 5.017-11.52 7.519 1.703 1.01 3.614 2.144 5.523 3.745-.148.628-.293.79-.78.843-3-1.363-5.657-2.618-8.062-3.754-3.973 3.46-.197 5.18.648 7.556-.153.141-.454.428-.454.428-.584 2.24-1.335 4.452-1.705 6.727-.388 2.389.229 5.164-.79 7.161-.88 1.725-3.673 3.857-5.202 3.57-2.87-.537-4.441-3.098-2.931-6.416.259-.57.245-1.264.386-1.917.17.628.17 1.355.481 1.903.972 1.709 2.063 3.35 3.108 5.019 1.093-1.827 2.931-3.577 3.13-5.496.466-4.512.15-9.104.15-13.955l-5.664.265-1.219 5.558c-1.024-1.41-1.744-3.633-4.594-1.633-.652-.26-.794-.414-.735-.844 4.79-4.152 4.79-4.152 1.555-8.837-4.58 3.4-9.132 6.778-13.942 9.92zm18.16-10.687c.911 1.667 1.484 3.81 2.877 4.795.684.483 3.612-.819 4.197-1.981.573-1.14-.42-4.458-.933-4.504-1.937-.173-3.96.595-6.14 1.69"/><path fill="#DEC914" d="M412.13 305.967c-1.875 1.3-3.81 2.162-5.855 3.071-2.532-8.331-1.599-16.488 2.393-20.434 1.247 2.338 2.393 4.487 3.89 6.807.07 3.487-.21 6.801-.429 10.556M339.258 326.223c.366-2.1.751-3.854 1.201-5.906l5.663-.265c0 4.851.317 9.443-.15 13.955-.198 1.92-2.036 3.669-3.129 5.496-1.045-1.668-2.136-3.31-3.108-5.02-.312-.547-.31-1.274-.588-2.29-.048-2.123.041-3.873.111-5.97M331.914 304.005c1.21 1.041 2.36 2.207 3.705 3.065 2.73 1.742 3.118 3.622.25 6.343-4.53-2.082-9.278-4.263-14.393-6.442-.215-2.34-3.22-5.203 1.284-6.56 3.402 1.446 6.296 2.545 9.19 3.644 0 0-.007-.065-.036-.05"/><path fill="#211405" d="M416.666 304.606c2.43-1.958 4.958-3.829 7.688-5.336 2.43-1.342 5.649-2.196 6.834.989.71 1.907-.76 4.673-1.424 7.004-.138.485-1.04.752-2.102 1.006-.647-.262-.783-.411-.708-.846 1.096-2.297 1.98-4.309 2.863-6.32-2.21.237-4.542.115-6.597.81-2.123.717-3.978 2.229-5.95 3.393-.139-.151-.279-.302-.604-.7M363.572 322.347l1.957 6.31c-2.084.458-4.54 1.84-6.174 1.18-3.399-1.372-6.362-3.824-9.682-6.106-.177-.275.124-.562.62-.636 3.09 1.56 5.566 3.45 8.328 4.717 1.41.647 3.333.176 5.024.21-.271-1.619-.543-3.238-.614-5.048.314-.336.428-.482.541-.627M425.4 319.606c3.548 1.861 8.192 4 5.686 8.61-2.626 4.83-6.783 1.621-10.24-.57.13-.624.27-.781.76-.84 2.892.386 5.435.675 7.977.963-1.397-2.256-2.79-4.516-4.197-6.766-.167-.267-.42-.481-.633-.72.14-.155.278-.31.648-.677M334.326 324.382c-2.838 2.089-5.727 4.264-8.96 5.617-1.415.592-3.98.02-5.173-1.009-.781-.673-.036-3.115.292-4.992.437-.07.609.088.897.808-.975 3.847.802 4.646 3.324 3.628 3.131-1.265 6.014-3.145 9.005-4.759.141.153.283.306.615.707M332.119 303.718c-3.063-.762-5.957-1.86-8.997-3.283 2.958.766 6.062 1.856 8.997 3.283"/><path fill="#211405" d="M358.378 318.625c1.795.908 3.354 2.04 5.054 3.447.027.42-.087.566-.696.772-2.007-1.13-3.519-2.32-5.03-3.51.145-.162.29-.323.672-.71M420.604 327.395c-1.415-.611-2.599-1.438-3.96-2.516-.047-.417.083-.58.72-.854 1.634.821 2.764 1.752 3.893 2.683-.14.157-.282.314-.653.687M427.328 308.4c-.603.827-1.385 1.41-2.435 2.102-.425-.037-.581-.185-.77-.823.85-.983 1.735-1.476 2.62-1.97.136.149.272.298.585.692M387.619 307.312c-.492.056-.709-.124-1.01-.518.01-.332.138-.49.708-.774.724.067.901.329.975.662-.145.145-.29.29-.673.63M387.696 322.635c-.063-.496.12-.716.516-1.023.332.007.489.136.774.706-.053.729-.308.915-.636 1-.15-.147-.301-.294-.654-.683"/><path fill="#222" d="M347.387 427.19c-.306.519-.947.862-1.124.7-4.581-4.197-5.351-4.125-9.587.73l3.552-12.703 1.555-.53c1.83 3.796 3.658 7.594 5.604 11.802"/><path fill="#202020" d="M391.873 420.822c.014-2.187.014-3.94.014-5.693l1.572-.144.74 5.078 5.386.599 1.406-4.63.577.097v11.918l-1.18.057-.652-5.726-5.595-.37-1.251 5.901-1.03-.09c0-2.188 0-4.376.013-6.997"/><path fill="#292929" d="M368.03 425.278c.587-3.465 1.362-7.062 2.138-10.66l2.181-.208 4.972 12.824c-3.074-2.086-5.072-5.633-9.292-1.956"/><path fill="#1C1C1C" d="M332.351 424.58h-5.104l.392 5.203-1.874.169c0-2.832-.883-6.145.307-8.327.811-1.488 4.52-1.397 7.214-2.084-.104 1.808-.16 2.759-.385 4.198-.297.606-.424.724-.55.841"/><path fill="#292929" d="M378.305 419.52c1.529-4.557 4.283-5.818 7.403-4.848-1.84 2.073-5.206 4.197-5.164 6.25.05 2.409 3.063 4.756 4.533 6.775-4.54 1.202-6.6-.656-6.772-8.178"/><path fill="#222" d="M356.356 422.44c-.392 2.047-.492 3.767-.593 5.488l-1.138.016v-12.647l.544-.19 1.156 4.664 7.71.928-.1 1.415c-2.43 0-4.859 0-7.58.326"/><path fill="#D4D4D4" d="M418.137 426.08a61 61 0 0 1-.763 2.44l-.817-.05-.694-11.625c4.336.08 4.851 1.682 2.274 9.235M409.261 425.349c.012-1.649.156-2.931.3-4.214l1.783-.01.741 6.098-1.002.38c-.563-.63-1.126-1.259-1.822-2.254"/><path fill="#1C1C1C" d="M332.924 424.054c.842.915 1.492 2.002 2.113 3.702-.033.786-.038.959-.042 1.132a474 474 0 0 1-2.467-3.992c-.05-.433.076-.551.396-.842"/><path fill="#222" d="M335.194 428.84c-.195-.125-.19-.298-.159-.73.137.056.248.37.16.73"/><path fill="#181818" d="M160.887 257.427c1.174 1.329 2.348 2.658 3.324 4.285-1.502-.48-2.805-1.258-3.962-2.569.31-.927.474-1.321.638-1.716"/><path fill="#D7D7D7" d="M160.434 257.292c.29.53.125.924-.31 1.514-.85-.236-1.43-.667-2.01-1.396.623-.283 1.244-.268 2.32-.118"/><path fill="#F9F9F9" d="M350.468 223.362c-4.69-8.727-5.916-17.25-.56-26.537 2.838 17.26 11.629 27.557 30.015 26.112 13.048-1.025 19.924-8.394 24.506-25.574 7.13 10.784.988 30.44-12.028 38.485-14.718 9.099-32.029 4.045-41.933-12.486"/><path fill="#DEC914" d="M411.963 326.284c-.02 2.94.388 5.542-.233 7.87-.52 1.95-2.245 3.578-3.436 5.349-1.043-1.73-2.815-3.39-2.988-5.204-.433-4.547-.143-9.163-.143-13.945l5.755-.318c.355 2.002.691 3.897 1.045 6.248M426.954 307.423c-1.096.78-1.98 1.273-3.046 2.015-3.166 1.439-6.152 2.63-9.024 3.776-4.072-4.119.25-5.32 2.199-7.626 2.16-1.446 4.014-2.958 6.137-3.676 2.055-.694 4.387-.572 6.597-.81-.884 2.012-1.767 4.024-2.863 6.321M421.607 326.806c-1.48-1.029-2.609-1.96-4.03-3.01-1.553-2.655-7.256-3.768-2.564-8.498 2.977 1.566 6.022 3.166 9.404 4.876.55.348.802.562.97.829 1.407 2.25 2.799 4.51 4.196 6.766a392 392 0 0 1-7.976-.963M388.203 323.661c.475-.428.73-.614.997-1.127 4.135-2.646 8.182-5.067 12.086-7.403 2.802 2.515 3.368 4.48.468 6.363-3.446 2.236-6.843 4.572-10.437 6.544-1.051.577-2.702.062-4.077.048.272-1.36.544-2.72.963-4.425M388.611 306.814c-.393-.465-.57-.727-1.077-1.01-.717-1.368-1.21-2.644-1.74-4.014 5.899-1.283 15.074 3.406 18.185 9.01.13.236.314.333.314.333-2.256 2.459-4.773 1.783-7.228.473-2.755-1.47-5.426-3.1-8.454-4.792"/><path fill="#FDF3F2" d="M404.167 311.123c.738-.019 1.442-.29 2.093-.196 1.752.254 3.86.195 5.08 1.183.768.621.812 3.473.058 4.3-.96 1.051-3.546 1.903-4.536 1.32-1.273-.748-1.71-2.986-2.38-4.633-.137-.34.285-.906.13-1.666-.319-.298-.502-.395-.445-.308"/><path fill="#DEC914" d="M344.947 290.003c.362 5.997.757 11.976 1.159 18.077l-6.84.532c.287-5.654.383-11.176.95-16.649.188-1.817 1.245-4.207 4.366-1.963.359.046.397-.014.365.003M364.938 300.018c.63 4.799-2.712 6.933-6.097 8.836-2.996 1.684-6.197 3.006-10.15 4.889-.4-2.01-1.31-3.68-.829-4.676 1.892-3.913 12.304-9.05 16.737-8.72.34-.263.383-.348.339-.329M333.911 323.398c-3.19 1.891-6.074 3.77-9.205 5.036-2.522 1.018-4.3.219-3.066-3.391 4.694-3.704 9.245-7.083 13.826-10.482 3.235 4.685 3.235 4.685-1.555 8.837M357.364 319.226c1.853 1.298 3.365 2.489 5.171 3.81.567 1.748.839 3.367 1.11 4.986-1.69-.034-3.614.437-5.024-.21-2.762-1.267-5.238-3.158-8.176-4.858-1.34-2.301-5.116-4.022-1.143-7.482 2.405 1.136 5.062 2.39 8.062 3.754"/><path fill="#FDF3F2" d="M339.006 312.745c2.086-.756 4.108-1.524 6.045-1.351.513.046 1.506 3.365.933 4.504-.585 1.162-3.513 2.464-4.197 1.981-1.393-.985-1.966-3.128-2.781-5.134"/></svg>